<svg xmlns="http://www.w3.org/2000/svg" width="108.978" height="136.223" viewBox="0 0 108.978 136.223">
  <g id="Сгруппировать_268" data-name="Сгруппировать 268" transform="translate(-250.338 -3165.488)">
    <g id="Сгруппировать_267" data-name="Сгруппировать 267">
      <path id="Контур_1206" data-name="Контур 1206" d="M263.96,3247.27l-.35.005-.347.011-.347.023-.344.03-.341.041-.338.047-.336.054-.333.065-.33.073-.329.08-.324.089-.321.095-.317.1-.315.11-.31.118-.308.127-.3.132-.3.138-.3.15-.291.152-.285.161-.285.169-.278.173-.274.18-.272.188-.261.194-.262.2-.253.2-.251.211-.245.216-.24.222-.234.23-.228.233-.224.24-.218.244-.212.249-.206.255-.2.26-.192.262-.188.269-.18.274-.175.279-.169.281-.159.287-.156.29-.147.3-.141.3-.133.3-.125.306-.119.311-.113.314-.1.317-.1.32-.088.324-.08.328-.071.33-.064.332-.058.336-.046.337-.039.34-.032.345-.021.345-.013.347-.006.35.006.35.013.35.021.344.032.343.039.341.046.337.058.336.064.332.071.331.08.327.088.323.1.322.1.317.113.313.119.311.125.305.133.3.141.3.147.3.156.29.159.288.169.282.175.279.18.274.188.268.192.264.2.26.206.255.212.25.218.244.224.239.228.232.234.23.24.223.245.215.251.212.253.2.262.2.261.194.272.188.274.18.278.175.285.166.285.161.291.153.3.149.3.138.3.133.308.126.31.12.315.11.317.1.321.1.324.086.329.079.33.073.333.065.336.057.338.047.341.039.344.031.347.021.347.012.35.006.351-.006.347-.012.347-.021.344-.031.342-.039.338-.047.335-.057.335-.065.329-.073.326-.079.327-.086.32-.1.318-.1.316-.11.31-.12.308-.126.3-.133.3-.138.295-.149.294-.153.286-.161.284-.166.279-.175.274-.18.268-.187.267-.194.26-.2.253-.2.251-.212.246-.215.239-.223.234-.23.229-.232.223-.239.217-.244.212-.25.2-.255.2-.26.192-.264.189-.268.179-.274.173-.279.17-.282.16-.288.155-.29.146-.3.142-.3.133-.3.125-.305.118-.311.112-.312.1-.317.1-.322.087-.323.083-.327.071-.331.064-.332.056-.336.046-.337.04-.341.031-.343.023-.344.011-.35,0-.35,0-.35-.011-.347-.023-.345-.031-.345-.04-.34-.046-.337-.056-.336-.064-.332-.071-.33-.083-.328-.087-.324-.1-.32-.1-.317-.112-.314-.118-.311-.125-.306-.133-.3-.142-.3-.146-.3-.155-.29-.16-.287-.17-.281-.173-.279-.179-.274-.189-.269-.192-.262-.2-.26-.2-.255-.212-.249-.217-.244-.223-.24-.229-.233-.234-.23-.239-.222-.246-.216-.251-.211-.253-.2-.26-.2-.267-.194-.268-.187-.274-.18-.279-.173-.284-.169-.286-.161-.294-.152-.295-.15-.3-.138-.3-.132-.308-.127-.31-.118-.316-.11-.318-.1-.32-.095-.327-.089-.326-.08-.329-.073-.335-.065-.335-.054-.338-.047-.342-.041-.344-.03-.347-.023-.347-.011Z" fill="#253062"/>
      <path id="Контур_1207" data-name="Контур 1207" d="M258.631,3258.711l-.038.006-.035.011-.041.014-.043.018-.043.02-.046.024-.048.027-.048.029-.024.018-.027.02-.024.02-.026.024-.026.026-.026.027-.026.03-.026.031-.025.034-.028.035-.025.038-.027.041-.026.042-.028.044-.026.047-.027.049-.023.044-.025.049-.023.047-.025.05-.025.054-.023.054-.025.053-.023.059-1.39,3.545h-.623l-1.831-3.728-.008-.021-.009-.019-.008-.02-.01-.022-.011-.022-.008-.021-.009-.019-.008-.019-.007-.009,0-.006,0-.009v-.013l-.029-.063-.032-.063-.031-.061-.035-.06-.035-.059-.037-.057-.039-.056-.041-.055-.022-.026-.025-.025-.024-.023-.028-.022-.026-.02-.032-.019-.032-.017-.034-.015-.035-.013-.038-.011-.039-.01-.04-.009-.045-.006-.044-.008-.047,0-.046,0v-.265h2.835v.265l-.061.007-.06.012-.057.012-.055.017-.05.016-.049.019-.044.022-.041.023-.021.014-.019.012-.017.015-.016.017-.015.018-.013.019-.013.02-.011.02-.01.023-.009.022-.006.024,0,.025,0,.028,0,.027v.079l0,.027.005.025.007.025.009.03.006.026.009.03.01.029.006.011.007.012,0,.012,0,.013,0,.012.007.014,0,.014.009.014.01.022.01.023.011.021.009.023,1.12,2.266.783-2.01.007-.014,0-.011v-.012l0-.014.026-.059.025-.061.023-.062.022-.063.01-.032.006-.034.008-.035.006-.034,0-.034,0-.037,0-.035,0-.035,0-.028v-.026l0-.024,0-.023,0-.024,0-.022-.008-.021-.006-.021-.009-.019-.008-.021-.011-.019-.01-.017-.012-.017-.011-.015-.015-.018-.014-.013-.028-.026-.033-.027-.033-.024-.032-.022-.036-.018-.034-.019-.037-.016-.038-.014-.043-.016-.043-.014-.04-.01-.041-.006-.04,0-.034-.007-.033,0-.029,0v-.265h1.973Z" fill="#fff"/>
      <path id="Контур_1208" data-name="Контур 1208" d="M262.611,3263.08l.092-.011.085-.012.04-.006.038-.008.037-.008.033-.009.031-.01.032-.009.027-.01.027-.009.023-.012.026-.012.019-.011.019-.012.017-.014.017-.015.014-.018.016-.018.013-.021.011-.023.01-.023.011-.026.009-.028.008-.026.006-.031,0-.033,0-.033,0-.035v-3.4l0-.034,0-.034,0-.032-.006-.031-.008-.031-.009-.026-.011-.027-.01-.023-.011-.021-.013-.022-.016-.019-.014-.019-.017-.015-.017-.014-.019-.014-.019-.011-.026-.012-.023-.012-.027-.01-.027-.011-.032-.008-.031-.008-.033-.009-.037-.009-.038-.006-.04,0-.085-.013-.092-.007v-.265h2.739v.265l-.093.007-.088.013-.038,0-.038.006-.038.009-.034.009-.032.008-.029.008-.028.011-.026.01-.026.012-.022.012-.021.011-.016.014-.019.014-.016.015-.014.019-.015.019-.014.022-.01.021-.009.023-.01.027-.008.026-.009.031,0,.031,0,.032,0,.034v.034l0,.038v3.329l0,.037v.035l0,.033,0,.033,0,.031.009.026.008.028.01.026.009.023.01.023.014.021.015.018.014.018.016.015.019.014.016.012.021.011.022.012.026.012.026.009.028.01.029.009.032.01.034.009.038.008.038.008.038.006.088.012.093.011v.263h-2.739Z" fill="#fff"/>
      <path id="Контур_1209" data-name="Контур 1209" d="M274.323,3258.441l.183,1.678h-.449l-.021-.063-.022-.062-.025-.06-.023-.057-.028-.055-.026-.056-.028-.052-.028-.052-.032-.051-.033-.047-.031-.046-.035-.046-.035-.043-.035-.042-.038-.042-.038-.039-.039-.037-.038-.035-.039-.035-.04-.034-.039-.033-.041-.03-.039-.029-.042-.027-.04-.028-.041-.025-.042-.024-.04-.022-.043-.021-.044-.019-.04-.019-.043-.018-.033-.013-.032-.012-.033-.01-.033-.01-.032-.009-.034-.009-.034-.009-.032-.007-.034-.005-.034-.006-.032,0-.033,0-.029,0h-.033l-.031,0H272.4l-.039,0-.038,0-.037,0-.035.005-.037,0-.034.009-.037.009-.034.009-.033.011-.035.012-.033.013-.032.013-.033.016-.033.017-.029.018-.031.02-.031.021-.029.02-.028.021-.029.024-.027.027-.028.025-.028.027-.026.029-.027.029-.025.031-.023.033-.026.031-.025.037-.025.034-.021.038-.023.038-.022.039-.022.039-.021.043-.017.043-.02.044-.017.044-.019.048-.016.048-.017.048-.016.052-.016.051-.013.052-.013.054-.013.056-.014.056-.011.058-.011.059-.01.061-.007.062-.01.061-.009.066-.006.064-.007.069-.007.067-.009.139-.007.145-.007.15v.26l.007.1,0,.052,0,.049,0,.049.006.049.008.047.006.048.009.045.009.047.011.044.01.045.01.043.012.042.015.043.013.04.013.041.016.039.016.039.017.038.016.039.019.036.019.036.019.035.021.037.022.032.023.034.021.032.025.032.023.031.026.03.026.029.028.029.027.028.027.027.028.025.032.024.029.024.032.022.033.023.031.021.036.019.033.021.035.016.037.017.037.016.038.017.039.013.039.014.04.012.039.013.043.009.042.01.044.009.043.006.046.009.046.006.045,0,.046,0,.049,0,.048,0,.05,0,.064,0,.064,0,.064-.007.062-.011.062-.011.061-.014.062-.014.06-.019.058-.021.059-.022.057-.025.057-.027.057-.03.055-.031.056-.034.053-.037.053-.034.052-.038.051-.039.049-.039.048-.04.046-.041.047-.041.044-.043.041-.042.042-.043.04-.044.038-.045.037-.045.038-.046.034-.047.033-.047h.081l.271.191-.047.073-.049.071-.051.068-.051.067-.053.065-.053.061-.053.061-.057.058-.057.054-.059.053-.059.051-.061.048-.063.046-.063.044-.065.042-.066.039-.068.038-.07.034-.071.033-.074.031-.076.027-.08.023-.079.024-.082.019-.085.019-.087.015-.089.014-.092.01-.092.009-.1,0-.1,0h-.1l-.08.007-.05,0h-.05l-.051,0-.053-.005-.054,0-.051-.007-.055,0-.056-.007-.053-.007-.057-.007-.055-.008-.055-.01-.056-.01-.054-.01-.057-.012-.056-.012-.089-.026-.087-.027-.088-.029-.087-.034-.085-.035-.086-.038-.083-.043-.082-.044-.082-.047-.081-.05-.081-.052-.079-.057-.079-.059-.076-.062-.077-.065-.075-.068-.038-.034-.035-.036-.035-.038-.034-.038-.029-.039-.033-.039-.029-.041-.028-.043-.028-.042-.026-.044-.026-.046-.023-.045-.025-.046-.02-.049-.021-.047-.021-.05-.016-.052-.017-.052-.016-.052-.016-.054-.013-.055-.011-.055-.013-.056-.008-.058-.011-.059-.006-.062-.007-.058,0-.062,0-.062-.005-.065v-.281l.005-.075.006-.074,0-.073.008-.071.01-.071.01-.069.013-.07.015-.066.015-.067.016-.066.02-.063.02-.065.021-.062.023-.061.025-.059.026-.061.026-.058.029-.057.031-.056.032-.053.032-.056.033-.052.037-.05.038-.052.039-.051.04-.048.041-.047.043-.048.047-.045.046-.045.046-.043.048-.042.048-.04.047-.04.049-.038.05-.036.052-.035.049-.034.052-.032.051-.031.053-.028.053-.03.052-.027.054-.026.054-.023.057-.023.053-.021.057-.019.057-.019.057-.017.058-.016.057-.014.059-.014.059-.012.06-.01.059-.009.061-.006.062-.007.061-.007.063,0,.062,0h.218l.073,0,.071.005.07,0,.066.006.064.009.063.013.062.011.06.012.058.014.056.013.057.013.053.014.052.014.053.015.051.014.027.008.026.009.026.007.025.009.023.01.024.008.023.009.026.007.052.017.047.016.04.014.035.013.032.009.029.007.029.007.028,0h.033l.032,0,.028-.007.028-.01.025-.011.021-.016.023-.016.02-.019.019-.022.017-.023.012-.025.011-.024.011-.025.006-.028.008-.027,0-.029v-.029h.393Z" fill="#fff"/>
      <path id="Контур_1210" data-name="Контур 1210" d="M266.839,3250.628l-.038.007-.037.01-.04.014-.043.018-.043.02-.046.023-.048.028-.049.03-.024.018-.026.019-.025.022-.027.024-.025.025-.026.027-.026.029-.026.033-.026.034-.026.035-.027.038-.027.042-.026.042-.028.044-.024.046-.029.048-.023.047-.023.045-.025.05-.023.048-.025.053-.023.055-.025.057-.023.057-1.391,3.546h-.623l-1.83-3.73-.009-.019-.008-.02-.008-.019-.01-.022-.013-.021-.008-.022-.008-.02-.008-.019-.007-.006-.006-.008,0-.01v-.013l-.029-.064-.032-.061-.032-.062-.034-.059-.034-.06-.038-.057-.04-.056-.041-.057-.022-.025-.025-.023-.025-.024-.028-.022-.028-.019-.032-.019-.029-.017-.034-.016-.037-.014-.037-.011-.04-.01-.041-.01-.043-.007-.044-.005-.045-.005h-.048v-.266h2.835v.266l-.061.009-.062.01-.057.011-.053.016-.051.016-.047.02-.045.021-.044.024-.018.014-.019.014-.017.015-.019.015-.012.019-.013.019-.013.019-.012.02-.009.022-.009.024-.006.024-.007.025,0,.027,0,.026,0,.029,0,.031,0,.023,0,.023,0,.025.007.028.006.027.009.03.009.028.007.03.009.01.006.011,0,.013,0,.013,0,.012,0,.013.008.016.009.014.008.022.011.023.011.021.009.023,1.119,2.266.783-2.009.007-.014,0-.011v-.013l0-.013.027-.06.025-.061.023-.063.021-.064.011-.031.007-.033.007-.033.006-.036,0-.034,0-.034,0-.037,0-.038,0-.025,0-.026,0-.023,0-.023,0-.025,0-.022-.007-.022-.007-.02-.009-.021-.008-.018-.011-.019-.01-.017-.012-.018-.011-.016-.014-.016-.016-.016-.031-.026-.031-.026-.033-.021-.033-.023-.034-.02-.037-.018-.034-.016-.038-.016-.043-.015-.043-.014-.041-.01-.041-.008-.039,0-.037,0-.031,0-.029,0v-.266h1.973Z" fill="#fff"/>
      <path id="Контур_1211" data-name="Контур 1211" d="M266.188,3266.513l.184,1.677h-.446l-.023-.061-.022-.062-.025-.061-.025-.057-.027-.057-.026-.054-.029-.052-.028-.053-.032-.05-.031-.048-.033-.047-.033-.044-.037-.045-.035-.042-.037-.04-.038-.039-.038-.037-.041-.035-.04-.037-.04-.032-.038-.033-.04-.031-.041-.029-.041-.029-.041-.027-.04-.025-.041-.024-.043-.024-.043-.02-.04-.021-.041-.019-.043-.016-.033-.012-.032-.011-.033-.012-.032-.01-.034-.01-.033-.009-.034-.006-.033-.006-.034-.008-.032,0-.033,0-.032,0-.032,0h-.032l-.031,0h-.031l-.038,0H264.2l-.037,0-.038,0-.037.006-.035.008-.035.007-.035.011-.033.011-.033.012-.034.012-.032.015-.033.016-.029.018-.032.017-.031.019-.031.02-.029.022-.028.021-.03.024-.028.027-.028.025-.028.027-.025.029-.024.03-.027.031-.025.031-.025.033-.023.034-.025.036-.023.035-.023.04-.022.038-.021.04-.02.042-.021.044-.02.043-.019.046-.016.046-.018.048-.016.049-.016.052-.013.051-.016.052-.013.053-.012.056-.014.056-.011.059-.01.059-.009.06-.011.061-.008.063-.009.065-.006.064-.007.066-.005.069-.01.139-.007.146,0,.147,0,.156,0,.105,0,.1,0,.052,0,.049,0,.049,0,.049.008.048.006.045.009.047.01.046.01.045.01.042.013.046.011.042.014.04.013.043.015.038.014.042.017.039.015.038.019.037.019.038.018.035.02.037.022.034.02.035.023.034.022.031.023.031.026.033.025.029.026.03.027.028.026.029.031.026.028.026.029.025.029.024.033.022.033.023.032.02.034.02.033.019.037.019.035.017.038.016.037.016.038.014.039.013.041.013.039.011.041.012.043.009.043.007.044.009.044.008.045.006.046,0,.048,0,.047,0,.05,0h.114l.063,0,.064-.009.064-.009.06-.011.062-.014.06-.017.06-.016.06-.021.057-.022.059-.027.055-.026.056-.029.057-.032.054-.034.055-.036.053-.037.053-.037.05-.038.049-.039.048-.041.047-.039.046-.043.044-.041.042-.043.043-.044.039-.042.039-.047.037-.044.037-.047.035-.047.032-.048h.081l.273.191-.049.075-.049.07-.049.069-.052.067-.052.062-.053.064-.056.06-.055.056-.058.056-.058.053-.06.05-.061.049-.064.047-.063.043-.065.042-.063.039-.07.036-.067.035-.074.033-.074.029-.076.027-.079.025-.081.023-.082.02-.085.019-.086.016-.091.013-.089.011-.094.007-.1.006-.1,0-.1,0-.08.008-.051,0-.051,0-.05,0-.052,0-.052,0-.053-.006-.055-.007-.054-.005-.055-.007-.058-.008-.054-.009-.055-.009-.055-.009-.056-.01-.055-.012-.057-.014-.088-.023-.088-.027-.09-.031-.086-.032-.086-.035-.085-.039-.082-.041-.085-.044-.082-.048-.08-.051-.081-.053-.079-.056-.078-.058-.077-.062-.076-.065-.076-.068-.037-.034-.034-.036-.034-.038-.035-.037-.032-.039-.031-.041-.029-.04-.028-.042-.028-.042-.027-.044-.026-.046-.023-.044-.022-.048-.023-.048-.02-.048-.02-.051-.019-.051-.016-.051-.016-.053-.013-.053-.014-.056-.014-.054-.01-.059-.01-.056-.008-.059-.009-.06,0-.061,0-.061,0-.061,0-.065v-.207l0-.077,0-.073,0-.076.007-.072.008-.071.009-.071.013-.071.012-.068.013-.068.015-.067.019-.065.019-.065.019-.063.023-.062.021-.062.025-.062.026-.057.027-.058.028-.058.032-.055.029-.056.035-.053.034-.052.034-.053.038-.051.039-.049.039-.051.043-.047.043-.045.045-.047.046-.044.048-.042.047-.043.048-.041.048-.039.051-.038.047-.037.051-.034.05-.034.051-.032.053-.032.052-.03.052-.027.052-.028.055-.025.054-.024.056-.022.056-.021.056-.022.057-.019.056-.016.058-.016.059-.013.057-.014.059-.012.059-.01.061-.009.061-.007.061-.006.061-.006.062,0,.062,0h.219l.073,0,.07,0,.071.008.067.006.064.009.064.01.06.012.06.014.058.014.056.011.057.015.054.014.054.014.05.014.051.015.027.007.028.008.025.009.025.009.023.01.025.009.023.007.025.009.052.018.048.015.04.014.034.011.033.01.028.009.031.007.027,0h.033l.032,0,.028-.009.027-.008.026-.012.025-.016.021-.016.019-.019.019-.022.016-.024.012-.023.014-.026.01-.026.007-.025,0-.027,0-.03,0-.029h.391Z" fill="#fff"/>
      <path id="Контур_1212" data-name="Контур 1212" d="M259.168,3254.406v.023l0,.021,0,.022-.009.02-.008.021-.011.019-.015.016-.014.015-.017.016-.016.011-.02.012-.019.01-.021.006-.022.005-.022,0h-.951l.656.656.014.018.014.019.014.019.009.02.006.021,0,.022,0,.02v.046l0,.02,0,.022-.006.02-.009.02-.014.019-.014.019-.014.017-.017.015-.02.014-.017.01-.022.01-.02.008-.02,0-.023,0h-.043l-.022,0-.019,0-.021-.008-.02-.01-.021-.01-.018-.014-.016-.015-.656-.656v.927l0,.021,0,.023,0,.023-.009.02-.009.022-.012.019-.013.016-.014.015-.015.016-.02.013-.019.011-.019.01-.021.007-.022.008-.023,0h-.044l-.023,0-.022-.008-.021-.007-.019-.01-.019-.011-.02-.013-.014-.016-.015-.015-.014-.016-.011-.019-.008-.022-.009-.02,0-.023,0-.023v-.948l-.656.656-.017.015-.02.014-.019.01-.019.01-.021.008-.02,0-.023,0h-.042l-.023,0-.02,0-.023-.008-.019-.01-.02-.01-.018-.014-.016-.015-.014-.017-.015-.019-.013-.019-.009-.02-.006-.02,0-.022,0-.02,0-.023,0-.023,0-.02,0-.022.006-.021.009-.02.013-.019.015-.019.014-.018.656-.656h-.951l-.022,0-.022-.005-.021-.006-.019-.01-.02-.012-.016-.011-.017-.016-.013-.015-.015-.016-.011-.019-.009-.021-.008-.02,0-.022,0-.021,0-.023,0-.024,0-.023,0-.019.008-.023.009-.019.011-.019.015-.016.013-.018.017-.014.016-.014.02-.01.019-.01.021-.009.022,0,.022,0,.025,0h.927l-.656-.656-.014-.016-.015-.019-.013-.019-.009-.02-.006-.021,0-.02,0-.023,0-.021,0-.021,0-.021,0-.021.006-.02.009-.02.013-.019.015-.019.014-.018.016-.015.018-.014.02-.011.019-.009.023-.008.02,0,.023,0,.02,0,.022,0,.023,0,.02,0,.021.008.019.009.019.011.02.014.017.015.656.655v-.95l0-.022,0-.022.009-.02.008-.02.011-.018.014-.018.015-.017.014-.014.02-.012.019-.013.019-.009.021-.007.022-.007.023,0,.021,0,.023,0,.023,0,.022.007.021.007.019.009.019.013.02.012.015.014.014.017.013.018.012.018.009.02.009.02,0,.022,0,.022,0,.024v.926l.656-.655.016-.015.018-.014.021-.011.02-.009.021-.008.019,0,.022,0,.023,0,.02,0,.023,0,.02,0,.02.008.022.009.017.011.02.014.017.015.014.018.014.019.014.019.009.02.006.02,0,.021,0,.021v.042l0,.023,0,.02-.006.021-.009.02-.014.019-.014.019-.014.016-.656.656h.927l.025,0,.022,0,.022,0,.021.009.019.01.02.01.016.014.017.014.014.018.015.016.011.019.008.019.009.023,0,.019,0,.023Z" fill="#fff"/>
      <path id="Контур_1213" data-name="Контур 1213" d="M259.211,3267.381v.024l0,.023,0,.021-.009.022-.008.019-.011.019-.015.016-.014.017-.017.014-.016.013-.02.011-.019.009-.021.009-.022.005-.022,0-.025,0h-.927l.656.655.014.016.014.019.014.019.008.02.007.021,0,.02,0,.023v.042l0,.022,0,.021-.007.021-.008.019-.014.021-.014.016-.014.018-.017.015-.02.014-.017.011-.022.009-.02.008-.02,0-.023,0-.02,0-.023,0-.022,0-.019,0-.021-.008-.02-.009-.021-.011-.018-.014-.016-.015-.656-.656v.926l0,.024,0,.022,0,.022-.009.021-.009.019-.012.017-.013.019-.014.016-.015.012-.02.014-.019.012-.019.009-.021.008-.022.006-.023,0-.023,0-.021,0-.023,0-.022-.006-.021-.008-.019-.009-.019-.012-.02-.014-.014-.012-.015-.016-.014-.019-.011-.017-.008-.019-.009-.021,0-.022,0-.022v-.95l-.656.656-.017.015-.02.014-.019.011-.019.009-.021.008-.02,0-.023,0-.022,0-.02,0-.023,0-.02,0-.023-.008-.019-.009-.02-.011-.018-.014-.016-.015-.015-.018-.015-.016-.013-.021-.009-.019-.006-.021,0-.021,0-.022,0-.021,0-.021,0-.023,0-.02.006-.021.009-.02.013-.019.015-.019.015-.016.656-.655h-.927l-.025,0-.022,0-.022-.005-.021-.009-.019-.009-.02-.011-.016-.013-.017-.014-.013-.017-.015-.016-.011-.019-.009-.019-.008-.022,0-.021,0-.023,0-.024,0-.023,0-.02,0-.023.008-.02.009-.022.011-.019.015-.016.013-.015.017-.016.016-.011.02-.012.019-.01.021-.006.022,0,.022,0h.951l-.656-.655-.015-.018-.015-.019-.013-.019-.009-.02-.006-.02,0-.022,0-.02,0-.023,0-.022,0-.02,0-.023.006-.02.009-.02.013-.019.015-.018.015-.019.016-.014.018-.013.02-.011.019-.009.023-.008.02-.005.023,0h.042l.023,0,.02.005.021.008.019.009.019.011.02.013.017.014.656.656v-.949l0-.022,0-.023.009-.02.008-.02.011-.021.014-.016.015-.015.014-.016.02-.011.019-.013.019-.01.021-.006.022-.005.023,0h.044l.023,0,.022.005.021.006.019.01.019.013.02.011.015.016.014.015.013.016.012.021.009.02.009.02,0,.023,0,.022,0,.022v.927l.656-.656.016-.014.018-.013.021-.011.02-.009.021-.008.019-.005.022,0h.043l.023,0,.02.005.02.008.022.009.017.011.02.013.017.014.014.019.014.018.014.019.008.02.007.02,0,.023,0,.02v.045l0,.02,0,.022-.007.02-.008.02-.014.019-.014.019-.014.018-.656.655h.951l.022,0,.022,0,.021.006.019.01.02.012.016.011.017.016.014.015.015.016.011.019.008.022.009.02,0,.023,0,.02Z" fill="#fff"/>
      <path id="Контур_1214" data-name="Контур 1214" d="M272.177,3254.418v.023l0,.021,0,.022-.01.02-.01.021-.01.019-.014.016-.014.015-.018.016-.016.011-.02.012-.019.01-.022.006-.021.006-.022,0h-.95l.654.656.016.017.014.019.013.019.007.02.008.021,0,.022,0,.02,0,.023,0,.023,0,.02,0,.022-.008.02-.007.02-.013.019-.014.019-.016.017-.016.015-.02.014-.018.01-.021.01-.021.007-.02.006-.022,0H271.5l-.023,0-.02-.006-.02-.007-.022-.01-.019-.01-.02-.014-.016-.015-.654-.656v.927l0,.021,0,.023-.006.023-.009.02-.008.022-.011.019-.014.016-.015.015-.017.016-.016.013-.02.011-.019.01-.02.006-.023.008-.022,0h-.045l-.023,0-.022-.008-.02-.006-.021-.01-.018-.011-.017-.013-.016-.016-.015-.015-.013-.016-.012-.019-.011-.022-.006-.02,0-.023,0-.023v-.948l-.656.656-.017.015-.019.014-.019.01-.02.01-.02.007-.021.006-.022,0h-.044l-.021,0-.022-.006-.021-.007-.02-.01-.02-.01-.017-.014-.017-.015-.015-.017-.013-.019-.013-.019-.01-.02-.007-.02,0-.022,0-.02v-.046l0-.02,0-.022.007-.021.01-.02.013-.019.013-.019.015-.017.656-.656h-.95l-.023,0-.022-.006-.02-.006-.02-.01-.019-.012-.02-.011-.015-.016-.015-.015-.012-.016-.013-.019-.008-.021-.009-.02,0-.022,0-.021v-.047l0-.023,0-.019.009-.023.008-.019.013-.019.012-.016.015-.017.015-.014.02-.014.019-.01.02-.01.02-.009.022,0,.023,0,.023,0h.927l-.656-.656-.015-.016-.013-.019-.013-.019-.01-.02-.007-.022,0-.02,0-.023v-.042l0-.021,0-.021.007-.02.01-.02.013-.019.013-.019.015-.017.017-.015.017-.014.02-.011.02-.009.021-.008.022,0,.021,0,.021,0,.023,0,.022,0,.021,0,.02.008.02.009.019.011.019.014.017.015.656.655v-.95l0-.022,0-.022.006-.02.011-.02.012-.017.013-.018.015-.017.016-.014.017-.013.018-.012.021-.009.02-.007.022-.007.023,0,.021,0,.025,0,.022,0,.023.007.02.007.019.009.02.012.016.013.017.014.015.017.014.018.011.017.008.02.009.02.006.022,0,.022,0,.024v.926l.654-.655.016-.015.02-.014.019-.011.022-.009.02-.008.02,0,.023,0,.02,0,.023,0,.022,0,.02,0,.021.008.021.009.018.011.02.014.016.015.016.017.014.019.013.019.007.02.008.02,0,.021,0,.021,0,.021,0,.021,0,.023,0,.02-.008.022-.007.02-.013.019-.014.019-.016.016-.654.656h.925l.025,0,.022,0,.021,0,.022.009.019.01.02.01.016.014.018.014.014.017.014.016.01.019.01.019.01.023,0,.019,0,.023Z" fill="#fff"/>
      <path id="Контур_1215" data-name="Контур 1215" d="M272.14,3267.382v.024l0,.023,0,.021-.01.022-.01.019-.01.019-.014.016-.014.017-.018.014-.016.013-.02.011-.019.009-.022.009-.021.005-.022,0-.025,0h-.925l.654.655.016.016.014.019.013.019.007.02.008.021,0,.02,0,.023,0,.021,0,.022,0,.021,0,.021-.008.021-.007.019-.013.021-.014.016-.016.018-.015.015-.02.014-.019.011-.021.009-.021.008-.02,0-.022,0-.023,0-.02,0-.023,0-.02,0-.02-.008-.022-.009-.019-.011-.02-.014-.016-.015-.654-.656v.926l0,.024,0,.022-.006.022-.009.021-.008.019-.011.017-.013.019-.015.016-.017.012-.016.014-.02.012-.019.009-.02.008-.023.007-.022,0-.025,0-.021,0-.023,0-.022-.007-.02-.008-.021-.009-.019-.012-.017-.014-.016-.012-.015-.016-.013-.019-.012-.017-.011-.019-.006-.021,0-.022,0-.022v-.95l-.656.656-.017.015-.019.014-.019.011-.02.009-.02.008-.021,0-.022,0-.023,0-.021,0-.021,0-.022,0-.021-.008-.02-.009-.02-.011-.017-.014-.017-.015-.015-.018-.013-.016-.013-.021-.01-.019-.007-.021,0-.021,0-.021v-.043l0-.023,0-.02.007-.021.01-.02.013-.019.013-.019.015-.016.656-.655h-.927l-.023,0-.023,0-.022-.005-.02-.009-.02-.009-.019-.011-.02-.013-.014-.014-.015-.017-.012-.016-.013-.019-.008-.019-.009-.022,0-.021,0-.023v-.047l0-.02,0-.023.009-.02.008-.022.013-.019.012-.016.015-.015.014-.016.02-.011.019-.012.02-.01.02-.006.022,0,.023,0h.95l-.656-.655-.015-.018-.013-.019-.013-.019-.01-.019-.007-.021,0-.022,0-.02v-.045l0-.02,0-.023.007-.02.01-.02.013-.019.013-.018.015-.019.017-.014.017-.013.02-.011.02-.009.021-.008.022,0,.021,0h.044l.022,0,.021,0,.02.008.02.009.019.011.019.013.017.014.656.656v-.949l0-.022,0-.023.006-.019.011-.02.012-.021.013-.016.015-.015.016-.016.017-.011.019-.013.021-.01.02-.006.022-.006.023,0h.045l.022,0,.023.006.02.006.019.01.02.013.016.011.017.016.015.015.013.016.011.021.008.02.009.019.006.023,0,.022,0,.022v.927l.654-.656.016-.014.02-.013.019-.011.022-.009.02-.008.02,0,.023,0h.043l.022,0,.02,0,.021.008.021.009.019.011.02.013.015.014.016.019.014.018.013.019.007.02.008.02,0,.023,0,.02,0,.022,0,.023,0,.02,0,.022-.008.021-.007.019-.013.019-.014.019-.016.018-.654.655h.95l.022,0,.021,0,.022.006.019.01.02.012.016.011.018.016.014.015.014.016.01.019.01.022.01.02,0,.023,0,.02Z" fill="#fff"/>
      <rect id="Прямоугольник_345" data-name="Прямоугольник 345" width="27.244" height="27.198" transform="translate(250.338 3165.534)" fill="#80133f"/>
      <path id="Контур_1216" data-name="Контур 1216" d="M277.583,3274.465a27.244,27.244,0,0,0,27.244-27.244H277.583Z" fill="#80133f"/>
      <path id="Контур_1217" data-name="Контур 1217" d="M304.827,3219.979a27.246,27.246,0,0,0-27.244-27.247v27.247Z" fill="#a01547"/>
      <path id="Контур_1218" data-name="Контур 1218" d="M277.583,3192.735v27.244H250.338Z" fill="#cc1a53"/>
      <rect id="Прямоугольник_346" data-name="Прямоугольник 346" width="13.622" height="27.244" transform="translate(304.827 3219.977)" fill="#80133f"/>
      <rect id="Прямоугольник_347" data-name="Прямоугольник 347" width="13.622" height="27.244" transform="translate(304.827 3192.732)" fill="#a01547"/>
      <rect id="Прямоугольник_348" data-name="Прямоугольник 348" width="27.244" height="27.244" transform="translate(277.583 3219.977)" fill="#cc1a53"/>
      <rect id="Прямоугольник_349" data-name="Прямоугольник 349" width="13.622" height="27.244" transform="translate(345.694 3192.732)" fill="#cc1a53"/>
      <rect id="Прямоугольник_350" data-name="Прямоугольник 350" width="13.622" height="27.244" transform="translate(332.072 3288.088) rotate(-90)" fill="#cc1a53"/>
      <rect id="Прямоугольник_351" data-name="Прямоугольник 351" width="13.622" height="27.244" transform="translate(352.505 3301.71) rotate(180)" fill="#cc1a53"/>
      <rect id="Прямоугольник_352" data-name="Прямоугольник 352" width="13.622" height="27.244" transform="translate(332.072 3192.732)" fill="#a01547"/>
      <rect id="Прямоугольник_353" data-name="Прямоугольник 353" width="13.622" height="27.244" transform="translate(318.449 3219.977)" fill="#a01547"/>
      <rect id="Прямоугольник_354" data-name="Прямоугольник 354" width="13.622" height="27.244" transform="translate(345.694 3219.977)" fill="#a01547"/>
      <path id="Контур_1219" data-name="Контур 1219" d="M359.316,3192.732a27.245,27.245,0,0,0-54.489,0Z" fill="#80133f"/>
      <path id="Контур_1220" data-name="Контур 1220" d="M332.072,3274.466a27.245,27.245,0,0,0,27.244-27.245H332.072Z" fill="#80133f"/>
      <path id="Контур_1221" data-name="Контур 1221" d="M304.827,3247.221a27.244,27.244,0,0,0,27.245,27.244v-27.244Z" fill="#cc1a53"/>
      <path id="Контур_1222" data-name="Контур 1222" d="M318.449,3288.088h13.623a13.622,13.622,0,1,0-13.623,13.622Z" fill="#cc1a53"/>
      <path id="Контур_1223" data-name="Контур 1223" d="M277.583,3192.732v-27.18h27.244Z" fill="#a01547"/>
      <path id="Контур_1224" data-name="Контур 1224" d="M304.827,3274.466a27.244,27.244,0,0,0-27.244,27.245h27.244Z" fill="#cc1a53"/>
    </g>
  </g>
</svg>
