<svg xmlns="http://www.w3.org/2000/svg" width="56.693" height="67.008" viewBox="0 0 56.693 67.008">
  <g id="Сгруппировать_285" data-name="Сгруппировать 285" transform="translate(-76.606 -4663.211)">
    <path id="Контур_1308" data-name="Контур 1308" d="M78.488,4700.9l4.853-24.622h5.927l5.77,26.246,12-10.593v10.76l12.214-10.76v10.76l12.214-10.76v36.46H78.436Zm3.351-26.451-5.164,26.185-.016.085-.053,29.5H133.3v-42.34l-12.218,10.759v-10.759l-12.211,10.759v-10.759L96.155,4699.1l-5.414-24.649Z" fill="#0d4880"/>
    <path id="Контур_1309" data-name="Контур 1309" d="M91.962,4685H81.155a.915.915,0,0,1,0-1.829H91.962a.915.915,0,1,1,0,1.829" fill="#0d4880"/>
    <path id="Контур_1310" data-name="Контур 1310" d="M93.852,4694.308H79.337a.915.915,0,0,1,0-1.829H93.852a.915.915,0,0,1,0,1.829" fill="#0d4880"/>
    <path id="Контур_1311" data-name="Контур 1311" d="M94.87,4702.449H78.246a.915.915,0,0,1,0-1.829H94.87a.915.915,0,0,1,0,1.829" fill="#0d4880"/>
    <path id="Контур_1312" data-name="Контур 1312" d="M85.5,4716.613h6.606v-5.586H85.5Zm8.435,1.829H83.676V4709.2H93.937Z" fill="#0d4880"/>
    <path id="Контур_1313" data-name="Контур 1313" d="M101.932,4716.613h6.606v-5.586h-6.606Zm8.434,1.829H100.1V4709.2h10.263Z" fill="#0d4880"/>
    <path id="Контур_1314" data-name="Контур 1314" d="M118.361,4716.613h6.606v-5.586h-6.606Zm8.435,1.829h-10.26V4709.2H126.8Z" fill="#0d4880"/>
    <path id="Контур_1315" data-name="Контур 1315" d="M131.946,4726.586H78.1a.915.915,0,1,1,0-1.829h53.843a.915.915,0,1,1,0,1.829" fill="#0d4880"/>
    <path id="Контур_1316" data-name="Контур 1316" d="M85.127,4673.08a.916.916,0,0,1-.9-.768c-.024-.165-.608-3.986,1.411-6.654a6.266,6.266,0,0,1,4.474-2.4c2.956-.345,5.091,1.2,7.158,2.683,2.741,1.972,5.324,3.832,10.027,1.752a.914.914,0,0,1,.742,1.67c-5.66,2.507-8.943.148-11.838-1.936-1.946-1.4-3.63-2.616-5.878-2.352a4.466,4.466,0,0,0-3.228,1.685c-1.552,2.052-1.069,5.225-1.059,5.26a.918.918,0,0,1-.76,1.045.835.835,0,0,1-.147.013" fill="#0d4880"/>
    <path id="Контур_1317" data-name="Контур 1317" d="M106.587,4674.615a10.206,10.206,0,0,1-3.006-.422.914.914,0,0,1,.6-1.726c.274.1,6.743,2.221,10.67-5.233a.913.913,0,1,1,1.617.85c-2.883,5.469-7.072,6.531-9.884,6.531" fill="#0d4880"/>
  </g>
</svg>
