<svg xmlns="http://www.w3.org/2000/svg" width="53.86" height="53.858" viewBox="0 0 53.86 53.858">
  <path id="Контур_1356" data-name="Контур 1356" d="M941.182,4730.219H888.819a.7.7,0,0,1-.749-.748v-5.817a.7.7,0,0,1,.749-.748h4.1v-45.049h-1.19a.748.748,0,1,1,0-1.5h46.543a.748.748,0,0,1,0,1.5h-1.191v45.049h4.1a.694.694,0,0,1,.748.748v5.817a.7.7,0,0,1-.748.748m-51.614-1.5h50.866V4724.4H889.568Zm34.907-5.817h11.11v-45.049h-41.17v45.049h11.11v-12.827a.693.693,0,0,1,.748-.748h17.455a.693.693,0,0,1,.747.748Zm-17.454,0h15.958v-12.081h-7.232v5.071a.747.747,0,1,1-1.494,0v-5.071h-7.232Z" transform="translate(-888.07 -4676.361)" fill="#0d4880"/>
</svg>
