<svg xmlns="http://www.w3.org/2000/svg" width="39.705" height="59.34" viewBox="0 0 39.705 59.34">
  <g id="Сгруппировать_286" data-name="Сгруппировать 286" transform="translate(-346.385 -4670.879)">
    <path id="Контур_1318" data-name="Контур 1318" d="M365.629,4723.975a19.209,19.209,0,0,1-9.248-36.064.65.65,0,0,1,.933.282.643.643,0,0,1-.279.93,17.832,17.832,0,1,0,23.166,25.908.73.73,0,0,1,.937-.188.721.721,0,0,1,.186.931,18.87,18.87,0,0,1-15.7,8.2" fill="#0d4880"/>
    <path id="Контур_1319" data-name="Контур 1319" d="M366.1,4718.664a13.88,13.88,0,0,1-6.635-26.092.69.69,0,0,1,.657,1.213,12.5,12.5,0,0,0,5.978,23.481,12.1,12.1,0,0,0,7.847-2.795.729.729,0,0,1,.935,1.118,13.805,13.805,0,0,1-8.782,3.075" fill="#0d4880"/>
    <path id="Контур_1320" data-name="Контур 1320" d="M373.01,4726.957H358.25a.737.737,0,0,1-.749-.746V4722.3a.734.734,0,0,1,.749-.746.685.685,0,0,1,.745.746v3.166h13.362V4722.3a.732.732,0,0,1,.744-.746.686.686,0,0,1,.749.746v3.911a.814.814,0,0,1-.84.746" fill="#0d4880"/>
    <path id="Контур_1321" data-name="Контур 1321" d="M354.233,4728.821h22.8v-1.865h-22.8Zm23.542,1.4h-24.2a.736.736,0,0,1-.746-.746v-3.262a.736.736,0,0,1,.746-.746h24.2a.737.737,0,0,1,.749.746v3.262c-.1.371-.375.746-.749.746" fill="#0d4880"/>
    <path id="Контур_1322" data-name="Контур 1322" d="M370.86,4714.284h13.732V4712.7H370.86Zm14.39,1.4H370.207a.733.733,0,0,1-.745-.746v-2.98a.737.737,0,0,1,.745-.749h15.134a.74.74,0,0,1,.749.749v2.98a.817.817,0,0,1-.84.746" fill="#0d4880"/>
    <path id="Контур_1323" data-name="Контур 1323" d="M374.692,4711.3h6.166v-.837h-6.166Zm6.819,1.4h-7.568a.735.735,0,0,1-.747-.746v-2.234a.735.735,0,0,1,.747-.746h7.568a.737.737,0,0,1,.749.746v2.234c-.1.467-.375.746-.749.746" fill="#0d4880"/>
    <path id="Контур_1324" data-name="Контур 1324" d="M356.754,4687.634a.8.8,0,0,1-.561-.279l-6.54-7.546c-.091-.188-.188-.283-.188-.467a.516.516,0,0,1,.282-.467l5.418-4.66a.743.743,0,0,1,1.028.094l7.1,8.2a.728.728,0,1,1-1.119.931l-6.635-7.641-4.3,3.726,6.073,6.989a.74.74,0,0,1-.094,1.028,1.049,1.049,0,0,1-.467.091" fill="#0d4880"/>
    <path id="Контур_1325" data-name="Контур 1325" d="M370.3,4703.289h0a.664.664,0,0,1-.561-.279l-7.847-8.944a.729.729,0,1,1,1.119-.934l7.38,8.48,4.3-3.726-7.572-8.762a.73.73,0,0,1,1.125-.931l8.033,9.227c.094.184.187.278.187.466a.52.52,0,0,1-.28.467l-5.419,4.657a.508.508,0,0,1-.467.279" fill="#0d4880"/>
    <path id="Контур_1326" data-name="Контур 1326" d="M350.869,4677.01l.467.558,2.151-1.861-.47-.561Zm.467,2.144h0a.663.663,0,0,1-.561-.279l-1.4-1.586a.734.734,0,0,1,.1-1.024l3.175-2.7c.186-.094.282-.187.468-.187a.511.511,0,0,1,.467.279l1.4,1.585a.737.737,0,0,1-.1,1.025l-3.175,2.7a.375.375,0,0,1-.374.188" fill="#0d4880"/>
    <path id="Контур_1327" data-name="Контур 1327" d="M348.249,4676.359l.467.558,4.3-3.726-.465-.561Zm.374,2.235h0a.665.665,0,0,1-.561-.279l-1.4-1.586a.734.734,0,0,1,.1-1.022l5.417-4.659a.741.741,0,0,1,1.028.093l1.4,1.584c.1.184.187.278.187.466a.516.516,0,0,1-.279.467l-5.421,4.657c-.187.188-.278.279-.466.279" fill="#0d4880"/>
    <path id="Контур_1328" data-name="Контур 1328" d="M372.542,4701.611l.652.745,1.872-1.679-.656-.743Zm.561,2.331a.808.808,0,0,1-.561-.279l-1.495-1.773a.7.7,0,0,1-.186-.464.511.511,0,0,1,.279-.466l2.991-2.517a.74.74,0,0,1,1.028.094l1.493,1.77c.1.188.188.279.188.467a.519.519,0,0,1-.279.467l-2.991,2.513a.606.606,0,0,1-.467.188" fill="#0d4880"/>
    <path id="Контур_1329" data-name="Контур 1329" d="M362.079,4683.627a4.679,4.679,0,0,0-4.672,4.657,4.672,4.672,0,0,0,9.344,0,4.679,4.679,0,0,0-4.672-4.657m0,10.623a6.057,6.057,0,1,1,6.073-6.057,6.054,6.054,0,0,1-6.073,6.057" fill="#0d4880"/>
    <path id="Контур_1330" data-name="Контур 1330" d="M362.079,4686.61a1.572,1.572,0,0,0-1.589,1.582,1.637,1.637,0,0,0,1.589,1.586,1.573,1.573,0,0,0,1.589-1.586,1.636,1.636,0,0,0-1.589-1.582m0,4.657a3.008,3.008,0,0,1-2.991-2.98,2.991,2.991,0,0,1,5.982,0,3.008,3.008,0,0,1-2.991,2.98" fill="#0d4880"/>
  </g>
</svg>
