<svg xmlns="http://www.w3.org/2000/svg" width="60.764" height="48.831" viewBox="0 0 60.764 48.831">
  <g id="Сгруппировать_287" data-name="Сгруппировать 287" transform="translate(-614.689 -4681.388)">
    <path id="Контур_1331" data-name="Контур 1331" d="M640.468,4684.71a3.662,3.662,0,0,0-3.234-1.96H618.342a3.679,3.679,0,0,0-3.653,3.7l.089,34.953c0,1.06,0,3.839,2.672,3.839h.134a2.147,2.147,0,0,0,2.209-2.048,5.594,5.594,0,0,1,10.9,0,2.148,2.148,0,0,0,2.21,2.048h2.243a2.184,2.184,0,0,0,2.21-2.048,5.585,5.585,0,0,1,10.9,0,2.125,2.125,0,0,0,1.781,2.021.759.759,0,0,0,.205,0h.329c2.387-.213,2.387-2.823,2.387-3.831v-16.345a3.651,3.651,0,0,0-.631-2.129Zm11.224,23.009h-3.706v-1.248h3.706Zm-1.283,16.185a.811.811,0,0,1-.8-.784.683.683,0,0,0,0-.143,6.93,6.93,0,0,0-13.548,0,.683.683,0,0,0,0,.143.827.827,0,0,1-.87.785h-2.248a.828.828,0,0,1-.89-.762v-.022a.861.861,0,0,0,0-.143,6.921,6.921,0,0,0-13.54,0,.573.573,0,0,0,0,.143.827.827,0,0,1-.869.785h-.192c-.89,0-1.38-.391-1.38-2.5L616,4686.439a2.309,2.309,0,0,1,2.263-2.353h18.964a2.353,2.353,0,0,1,2.085,1.31l11.989,18.27a2.347,2.347,0,0,1,.4,1.371v.1h-4.383a.668.668,0,0,0-.668.668v2.584a.678.678,0,0,0,.668.668h4.374V4721.4c0,2.013-.446,2.468-1.283,2.5" fill="#0d4880"/>
    <path id="Контур_1332" data-name="Контур 1332" d="M642.873,4720.35a4.935,4.935,0,1,0,4.934,4.934,4.935,4.935,0,0,0-4.934-4.934m0,8.533a3.563,3.563,0,1,1,3.563-3.563,3.562,3.562,0,0,1-3.563,3.563" fill="#0d4880"/>
    <path id="Контур_1333" data-name="Контур 1333" d="M625.165,4720.35a4.935,4.935,0,1,0,4.925,4.943v-.009a4.933,4.933,0,0,0-4.925-4.934m0,8.533a3.563,3.563,0,1,1,3.563-3.563,3.563,3.563,0,0,1-3.563,3.563" fill="#0d4880"/>
    <path id="Контур_1334" data-name="Контур 1334" d="M637.449,4687.5a2.847,2.847,0,0,0-2.512-1.5H621.22a2.833,2.833,0,0,0-2.834,2.815v24.335a2.859,2.859,0,0,0,2.9,2.815h12.8a.669.669,0,0,0,.669-.668v-10.431h8.969a2.857,2.857,0,0,0,2.895-2.815,2.672,2.672,0,0,0-.525-1.594ZM619.7,4713.152v-5.879h5.506a1.87,1.87,0,0,1,1.861,1.861v5.5h-5.8a1.552,1.552,0,0,1-1.568-1.479m24.052-9.62h-9.71a.668.668,0,0,0-.668.668v10.431h-4.97v-5.5a3.2,3.2,0,0,0-3.2-3.2H619.7v-17.121a1.47,1.47,0,0,1,1.461-1.479H634.92a1.534,1.534,0,0,1,1.362.846l8.7,13.015a1.4,1.4,0,0,1,.286.89,1.532,1.532,0,0,1-1.542,1.443Z" fill="#0d4880"/>
    <path id="Контур_1335" data-name="Контур 1335" d="M674.785,4718.96H656.423v-36.9a.668.668,0,0,0-1.336,0v44.067a.668.668,0,0,0,1.336,0V4720.3h18.362a.668.668,0,1,0,0-1.336" fill="#0d4880"/>
    <path id="Контур_1336" data-name="Контур 1336" d="M658.989,4717.022a.619.619,0,0,1-.618-.618v-8.464a.619.619,0,0,1,.618-.618h13.159a.62.62,0,0,1,.619.618v8.464a.62.62,0,0,1-.619.618Zm12.541-8.463H659.609v7.227H671.53Z" fill="#0d4880"/>
    <path id="Контур_1337" data-name="Контур 1337" d="M658.989,4705.333a.62.62,0,0,1-.618-.615v-8.471a.618.618,0,0,1,.615-.618h13.162a.621.621,0,0,1,.619.615v8.471a.622.622,0,0,1-.616.618H658.989Zm12.541-8.463H659.609v7.227H671.53Z" fill="#0d4880"/>
    <path id="Контур_1338" data-name="Контур 1338" d="M658.989,4693.641a.62.62,0,0,1-.618-.615v-8.471a.619.619,0,0,1,.615-.618h13.162a.621.621,0,0,1,.619.615v8.471a.622.622,0,0,1-.616.618H658.989Zm12.541-8.462H659.609v7.227H671.53Z" fill="#0d4880"/>
  </g>
</svg>
