<svg xmlns="http://www.w3.org/2000/svg" width="57.87" height="57.796" viewBox="0 0 57.87 57.796">
  <g id="Сгруппировать_292" data-name="Сгруппировать 292" transform="translate(-75.732 -4834.072)">
    <g id="Сгруппировать_291" data-name="Сгруппировать 291">
      <path id="Контур_1369" data-name="Контур 1369" d="M104.667,4858.913a6.617,6.617,0,1,1,6.621-6.62,6.628,6.628,0,0,1-6.621,6.62m0-11.608a4.987,4.987,0,1,0,4.987,4.988,4.993,4.993,0,0,0-4.987-4.988" fill="#0d4880"/>
      <path id="Контур_1370" data-name="Контур 1370" d="M89.761,4865.33c-5.515-7.352-4.7-19.437,1.731-25.872a18.387,18.387,0,0,1,26.01,0c6.433,6.427,7.232,18.526,1.71,25.89L104.5,4886.608Zm14.735-29.625a16.675,16.675,0,0,0-11.855,4.908c-5.9,5.9-6.624,17.005-1.553,23.767l13.408,19.365,13.389-19.341c5.081-6.771,4.364-17.89-1.538-23.791a16.654,16.654,0,0,0-11.851-4.908" fill="#0d4880"/>
      <path id="Контур_1371" data-name="Контур 1371" d="M104.667,4891.868c-8.865,0-16.364-.9-21.691-2.616-4.6-1.478-7.244-3.5-7.244-5.53,0-3.6,7.081-6.941,17.225-8.135a.681.681,0,0,1,.109-.007.891.891,0,0,1,.1,1.777c-10.21,1.2-15.649,4.469-15.649,6.365,0,2.658,10.329,6.361,27.152,6.361s27.151-3.7,27.151-6.361c0-1.9-5.438-5.165-15.648-6.365a.891.891,0,0,1,.1-1.777.693.693,0,0,1,.11.007c10.141,1.194,17.224,4.539,17.224,8.135,0,2.035-2.639,4.052-7.243,5.53-5.327,1.712-12.827,2.616-21.692,2.616" fill="#0d4880"/>
    </g>
  </g>
</svg>
