<svg xmlns="http://www.w3.org/2000/svg" width="47.38" height="47.398" viewBox="0 0 47.38 47.398">
  <g id="Сгруппировать_297" data-name="Сгруппировать 297" transform="translate(-621.381 -4842.158)">
    <g id="Сгруппировать_296" data-name="Сгруппировать 296">
      <g id="Сгруппировать_295" data-name="Сгруппировать 295">
        <path id="Контур_1393" data-name="Контур 1393" d="M650.95,4851.417h-3.907l-1.309-3.932a.7.7,0,0,0-1.324,0l-1.31,3.932h-3.908a.7.7,0,0,0-.493,1.191l2.634,2.634-1.332,4a.7.7,0,0,0,1.049.8l4.022-2.681,4.022,2.681a.7.7,0,0,0,1.049-.8l-1.334-4,2.634-2.634a.7.7,0,0,0-.493-1.191Zm-3.432,3.143a.7.7,0,0,0-.169.714l.827,2.48-2.717-1.811a.7.7,0,0,0-.774,0l-2.717,1.811.826-2.48a.7.7,0,0,0-.168-.714l-1.748-1.748H643.6a.7.7,0,0,0,.662-.479l.808-2.422.808,2.423a.7.7,0,0,0,.662.479h2.724Zm0,0" fill="#0d4880"/>
        <path id="Контур_1394" data-name="Контур 1394" d="M666.68,4845.2c-1.96-1.358-4.964-1.315-7.435-.045l.5-2.138a.7.7,0,0,0-.677-.856H631.08a.7.7,0,0,0-.679.856l.5,2.137c-2.472-1.271-5.475-1.316-7.435.045-2.086,1.445-2.635,4.143-1.5,7.4,2.523,7.267,10.917,10.7,14.631,11.891a10.938,10.938,0,0,0,4.447,3.214v2.721a.7.7,0,0,0,.7.7h.753a11.613,11.613,0,0,1-1.476,5.084h-2.717a.7.7,0,0,0-.7.7v3.388h-2.562a.7.7,0,0,0-.668.5l-2.35,7.87a.7.7,0,0,0,.669.9h24.772a.7.7,0,0,0,.668-.9l-2.349-7.87a.7.7,0,0,0-.669-.5h-2.56V4876.9a.7.7,0,0,0-.7-.7H649.13a11.613,11.613,0,0,1-1.476-5.084h.753a.7.7,0,0,0,.7-.7V4867.7a10.941,10.941,0,0,0,4.448-3.214c3.715-1.191,12.109-4.624,14.631-11.891,1.133-3.257.585-5.955-1.5-7.4Zm-8.592,4.939c1.894-1.273,4.266-1.72,5.277-.964.837.623.578,2,.214,3.053-1.279,3.682-4.932,5.962-7.649,7.2Zm-23.874,9.289c-2.717-1.238-6.371-3.518-7.649-7.2-.364-1.049-.622-2.432.213-3.053,1.013-.758,3.384-.309,5.278.964Zm-10.938-7.286c-.923-2.66-.574-4.717.981-5.795,1.848-1.28,4.919-.945,7.09.742l.279,1.2c-1.954-.944-4.266-1.29-5.682-.234-.835.623-1.634,1.932-.7,4.63,1.624,4.678,6.49,7.277,9.448,8.466a11.129,11.129,0,0,0,.6,1.407c-3.91-1.5-10.032-4.683-12.023-10.417Zm33.246,36.022h-22.9l1.934-6.475h19.032Zm-5.369-7.871H638.991V4877.6h12.162Zm-3.608-4.086H642.6a13.223,13.223,0,0,0,1.287-5.083h2.374a13.2,13.2,0,0,0,1.286,5.083Zm.165-6.479h-5.277v-1.58a11,11,0,0,0,5.277,0Zm-2.638-2.654a9.587,9.587,0,0,1-7.511-3.6.587.587,0,0,0-.038-.046,9.647,9.647,0,0,1-1.831-3.8l-3.733-16.067h26.226l-3.733,16.067a9.648,9.648,0,0,1-1.831,3.8c-.013.015-.027.03-.04.046a9.585,9.585,0,0,1-7.509,3.6Zm21.8-14.932c-1.991,5.734-8.113,8.919-12.024,10.417a11.267,11.267,0,0,0,.6-1.407c2.959-1.189,7.826-3.787,9.448-8.466.937-2.7.138-4.007-.7-4.63-1.415-1.056-3.725-.71-5.681.234l.279-1.2c2.171-1.687,5.243-2.022,7.091-.742,1.556,1.078,1.9,3.135.982,5.795Zm0,0" fill="#0d4880"/>
      </g>
    </g>
  </g>
</svg>
