<svg xmlns="http://www.w3.org/2000/svg" width="60.764" height="48.831" viewBox="0 0 60.764 48.831">
  <g id="Сгруппировать_289" data-name="Сгруппировать 289" transform="translate(-346.385 -4840.725)">
    <path id="Контур_1347" data-name="Контур 1347" d="M372.164,4844.047a3.663,3.663,0,0,0-3.234-1.96H350.038a3.679,3.679,0,0,0-3.653,3.7l.089,34.953c0,1.06,0,3.839,2.672,3.839h.134a2.147,2.147,0,0,0,2.209-2.048,5.594,5.594,0,0,1,10.9,0,2.147,2.147,0,0,0,2.21,2.048h2.243a2.184,2.184,0,0,0,2.21-2.048,5.585,5.585,0,0,1,10.9,0,2.125,2.125,0,0,0,1.781,2.021.759.759,0,0,0,.205,0h.329c2.387-.213,2.387-2.823,2.387-3.831v-16.345a3.652,3.652,0,0,0-.631-2.129Zm11.224,23.009h-3.706v-1.248h3.706Zm-1.283,16.185a.812.812,0,0,1-.8-.784.683.683,0,0,0,0-.143,6.93,6.93,0,0,0-13.548,0,.683.683,0,0,0,0,.143.828.828,0,0,1-.87.785h-2.248a.829.829,0,0,1-.89-.762v-.022a.855.855,0,0,0,0-.143,6.921,6.921,0,0,0-13.54,0,.57.57,0,0,0,0,.143.828.828,0,0,1-.869.785h-.192c-.89,0-1.38-.391-1.38-2.5l-.072-34.962a2.31,2.31,0,0,1,2.263-2.353h18.964a2.353,2.353,0,0,1,2.085,1.31L382.995,4863a2.349,2.349,0,0,1,.4,1.371v.1h-4.383a.668.668,0,0,0-.668.668v2.584a.678.678,0,0,0,.668.668h4.374v12.346c0,2.013-.446,2.468-1.283,2.5" fill="#0d4880"/>
    <path id="Контур_1348" data-name="Контур 1348" d="M374.569,4879.687a4.935,4.935,0,1,0,4.934,4.934,4.935,4.935,0,0,0-4.934-4.934m0,8.533a3.563,3.563,0,1,1,3.563-3.563,3.562,3.562,0,0,1-3.563,3.563" fill="#0d4880"/>
    <path id="Контур_1349" data-name="Контур 1349" d="M356.861,4879.687a4.935,4.935,0,1,0,4.925,4.943v-.009a4.933,4.933,0,0,0-4.925-4.934m0,8.533a3.563,3.563,0,1,1,3.563-3.563,3.563,3.563,0,0,1-3.563,3.563" fill="#0d4880"/>
    <path id="Контур_1350" data-name="Контур 1350" d="M369.145,4846.835a2.847,2.847,0,0,0-2.512-1.5H352.916a2.834,2.834,0,0,0-2.834,2.815v24.335a2.86,2.86,0,0,0,2.9,2.815h12.8a.669.669,0,0,0,.669-.668v-10.431h8.969a2.857,2.857,0,0,0,2.895-2.815,2.672,2.672,0,0,0-.525-1.594ZM351.4,4872.489v-5.879h5.506a1.871,1.871,0,0,1,1.861,1.861v5.5h-5.8a1.551,1.551,0,0,1-1.568-1.479m24.052-9.62h-9.71a.668.668,0,0,0-.668.668v10.431H360.1v-5.5a3.2,3.2,0,0,0-3.2-3.2H351.4v-17.121a1.47,1.47,0,0,1,1.461-1.479h13.755a1.535,1.535,0,0,1,1.362.846l8.7,13.015a1.4,1.4,0,0,1,.286.89,1.532,1.532,0,0,1-1.542,1.443Z" fill="#0d4880"/>
    <path id="Контур_1351" data-name="Контур 1351" d="M406.481,4878.3H388.119v-36.9a.668.668,0,0,0-1.336,0v44.067a.668.668,0,0,0,1.336,0v-5.826h18.362a.668.668,0,1,0,0-1.336" fill="#0d4880"/>
    <path id="Контур_1352" data-name="Контур 1352" d="M390.685,4876.359a.619.619,0,0,1-.618-.618v-8.464a.618.618,0,0,1,.618-.618h13.159a.619.619,0,0,1,.619.618v8.464a.62.62,0,0,1-.619.618Zm12.541-8.463H391.3v7.227h11.921Z" fill="#0d4880"/>
    <path id="Контур_1353" data-name="Контур 1353" d="M390.685,4864.67a.62.62,0,0,1-.618-.615v-8.471a.619.619,0,0,1,.615-.618h13.162a.621.621,0,0,1,.619.615v8.471a.622.622,0,0,1-.616.618H390.685Zm12.541-8.463H391.3v7.227h11.921Z" fill="#0d4880"/>
    <path id="Контур_1354" data-name="Контур 1354" d="M390.685,4852.978a.62.62,0,0,1-.618-.615v-8.471a.619.619,0,0,1,.615-.618h13.162a.621.621,0,0,1,.619.615v8.471a.622.622,0,0,1-.616.618H390.685Zm12.541-8.462H391.3v7.227h11.921Z" fill="#0d4880"/>
  </g>
</svg>
