<svg xmlns="http://www.w3.org/2000/svg" width="59.22" height="59.222" viewBox="0 0 59.22 59.222">
  <g id="Сгруппировать_304" data-name="Сгруппировать 304" transform="translate(-120.39 -11122.784)">
    <path id="Контур_1437" data-name="Контур 1437" d="M179.61,11152.395a29.61,29.61,0,1,1-29.611-29.61,29.612,29.612,0,0,1,29.611,29.61" fill="#fff"/>
    <path id="Контур_1438" data-name="Контур 1438" d="M178.5,11151.661l-.022-.726-.049-.727-.064-.721-.086-.714-.1-.708-.118-.705-.132-.7-.148-.692-.175-.686-.181-.681-.2-.67-.215-.666-.236-.658-.246-.652-.26-.641-.279-.637-.3-.626-.3-.621-.325-.61-.332-.6-.355-.591-.363-.586-.376-.574-.393-.564-.4-.548-.423-.546-.426-.536-.444-.521-.453-.514-.466-.5-.48-.488-.488-.482-.5-.466-.516-.453-.523-.442-.531-.432-.546-.415-.557-.407-.561-.393-.575-.378-.584-.361-.594-.355-.595-.339-.615-.318-.618-.312-.624-.29-.636-.279-.646-.265-.648-.248-.659-.231-.668-.22-.668-.2-.683-.188-.686-.168-.688-.152-.7-.135-.7-.112-.707-.1-.714-.089-.721-.062-.727-.047-.726-.026-.736-.012-.731.012-.727.026-.727.047-.721.062-.714.089-.707.1-.7.112-.7.135-.689.152-.69.168-.678.188-.67.2-.663.22-.661.231-.648.248-.646.265-.636.279-.626.29-.621.313-.609.318-.6.339-.6.355-.581.361-.575.378-.569.393-.548.407-.548.415-.531.432-.524.442-.513.453-.5.466-.489.482-.475.488-.471.5-.456.514-.442.521-.431.536-.418.546-.4.548-.393.564-.376.574-.367.586-.354.591-.331.6-.325.61-.308.621-.293.626-.281.637-.261.641-.247.652-.237.658-.212.666-.205.67-.184.681-.165.686-.151.692-.135.7-.119.705-.1.708-.084.714-.066.721-.042.727-.027.726-.013.735.013.732.027.734.042.723.066.718.084.712.1.71.119.705.135.694.151.694.165.686.184.678.205.675.212.667.237.654.247.655.261.64.281.634.293.628.308.621.325.607.331.6.354.59.367.584.376.574.393.564.4.55.418.546.431.535.442.523.456.511.471.5.475.486.489.484.5.466.513.451.524.446.531.427.548.417.548.408.569.391.575.378.581.37.6.347.6.338.609.32.621.312.626.292.636.276.646.266.648.25.661.229.663.219.67.206.678.18.69.167.689.152.7.135.7.12.707.1.714.083.721.065.727.045.727.024.731.013.736-.013.726-.024.727-.045.721-.065.714-.083.707-.1.7-.12.7-.135.688-.152.686-.167.683-.18.668-.206.668-.219.659-.229.648-.25.646-.266.636-.276.624-.292.618-.312.615-.32.595-.338.594-.347.584-.37.575-.378.561-.391.557-.408.546-.417.531-.427.523-.446.516-.451.5-.466.488-.484.48-.486.466-.5.453-.511.444-.523.426-.535.423-.546.4-.55.393-.564.376-.574.363-.584.355-.59.332-.6.325-.607.3-.621.3-.628.279-.634.26-.64.246-.655.236-.654.215-.667.2-.675.181-.678.175-.686.148-.694.132-.694.118-.705.1-.71.086-.712.064-.718.049-.723.022-.734.011-.732Z" fill="#202a53"/>
    <path id="Контур_1439" data-name="Контур 1439" d="M139.917,11148.044l-.079.014-.075.022-.086.03-.089.036-.091.042-.1.05-.1.058-.1.061-.053.036-.056.043-.05.042-.056.049-.052.055-.053.058-.055.064-.054.063-.051.073-.06.074-.05.078-.056.085-.055.09-.057.091-.056.1-.055.1-.049.093-.05.1-.049.1-.053.107-.051.111-.048.111-.052.115-.048.123-2.905,7.407h-1.3l-3.827-7.791-.015-.043-.018-.04-.017-.042-.02-.047-.025-.046-.017-.042-.018-.04-.018-.04-.013-.018-.009-.013-.009-.018v-.029l-.061-.131-.067-.133-.064-.128-.073-.125-.075-.122-.077-.119-.082-.12-.086-.114-.047-.054-.051-.05-.051-.052-.059-.043-.054-.043-.066-.04-.068-.035-.071-.033-.075-.028-.078-.022-.083-.022-.085-.018-.1-.013-.09-.016-.1-.01-.1,0v-.553h5.922v.553l-.128.016-.125.025-.118.025-.115.032-.1.034-.1.04-.092.048-.086.047-.045.029-.037.027-.036.03-.032.037-.032.037-.028.038-.025.042-.025.042-.02.046-.017.049-.013.05-.011.052-.009.058-.008.058,0,.063v.1l0,.055.012.053.015.055.018.061.012.055.019.063.019.059.014.025.015.026.011.024.009.026.005.025.015.03.011.028.018.031.019.044.023.047.022.046.018.047,2.341,4.735,1.633-4.2.016-.029.011-.023,0-.027,0-.028.055-.123.052-.128.048-.13.047-.13.02-.068.013-.069.015-.075.012-.07.008-.071.007-.076,0-.073.006-.073-.006-.057v-.057l-.007-.051,0-.048-.008-.049-.01-.047-.015-.044-.013-.044-.018-.04-.017-.044-.025-.04-.02-.033-.027-.037-.022-.031-.031-.038-.03-.028-.06-.054-.068-.055-.069-.05-.066-.048-.075-.037-.072-.04-.076-.033-.08-.029-.089-.034-.091-.029-.083-.021-.085-.012-.085-.012-.071-.014-.069-.012-.062,0v-.553h4.123Zm7.161,9.13.192-.021.177-.025.082-.013.08-.018.077-.017.068-.021.065-.019.066-.018.055-.022.057-.019.049-.025.053-.027.043-.023.037-.024.035-.029.038-.03.026-.038.034-.037.026-.045.022-.046.022-.049.023-.054.017-.06.016-.055.012-.063.012-.069.006-.07.007-.073,0-.077v-6.957l0-.08-.007-.071-.006-.067-.012-.069-.012-.063-.016-.064-.017-.053-.023-.055-.022-.052-.022-.044-.026-.045-.034-.04-.026-.039-.038-.03-.035-.028-.037-.03-.043-.022-.053-.025-.049-.025-.057-.021-.055-.022-.066-.018-.065-.017-.068-.019-.077-.018-.08-.014-.082-.011-.177-.026-.192-.016v-.553H152.8v.553l-.194.016-.184.026-.079.011-.08.014-.08.018-.072.019-.066.017-.06.018-.06.022-.053.021-.055.025-.047.025-.042.022-.033.03-.04.028-.033.03-.029.039-.028.04-.029.045-.02.044-.022.052-.02.055-.017.053-.018.064-.012.063-.008.069-.012.067,0,.071-.006.08v6.957l.006.077,0,.073.012.07.008.069.012.063.018.055.017.06.02.054.022.049.02.046.029.045.028.037.029.038.033.03.04.029.033.024.042.023.047.027.055.025.053.019.06.022.06.018.066.019.072.021.08.017.08.018.079.013.184.025.194.021v.553h-5.723Zm22.952-9.9.382,3.506h-.937l-.045-.13-.046-.13-.05-.126-.05-.12-.059-.115-.053-.115-.06-.11-.058-.106-.068-.108-.068-.1-.065-.095-.072-.1-.075-.09-.076-.086-.077-.089-.08-.079-.081-.079-.08-.073-.082-.072-.086-.071-.082-.071-.086-.062-.082-.06-.088-.058-.084-.058-.086-.053-.089-.052-.084-.045-.088-.045-.094-.04-.083-.04-.091-.035-.069-.028-.066-.024-.068-.021-.071-.021-.066-.019-.071-.02-.073-.018-.066-.013-.071-.012-.073-.011-.066-.011-.069,0-.062-.009-.068,0-.064,0h-.063l-.081,0-.08.006-.077.009-.073.009-.077.012-.071.018-.077.021-.073.017-.069.023-.071.027-.07.027-.067.026-.068.032-.068.036-.063.038-.064.041-.064.045-.062.042-.06.043-.06.052-.057.056-.058.051-.059.057-.053.063-.058.06-.05.064-.049.07-.053.064-.053.075-.051.073-.042.076-.051.08-.044.082-.046.079-.045.091-.035.089-.045.095-.035.091-.037.1-.033.1-.038.1-.033.105-.034.108-.026.111-.027.112-.028.116-.029.115-.022.122-.024.122-.02.128-.015.13-.02.128-.018.139-.014.133-.015.143-.013.143-.018.289-.015.3-.012.314,0,.321,0,.223.012.216.008.106.007.1.011.1.013.1.016.1.011.1.02.1.017.1.023.091.02.1.022.088.024.088.031.091.028.084.027.086.033.082.033.082.035.08.034.081.04.075.039.075.038.072.044.078.047.067.048.069.043.068.053.067.048.065.054.063.052.06.06.061.056.06.057.057.06.052.066.05.06.051.068.047.069.047.063.046.073.037.072.045.073.035.077.035.077.035.079.033.082.029.083.028.083.027.082.025.091.022.085.02.093.019.089.013.1.018.1.014.1.009.1.011.1,0,.1,0,.1.008.133-.009.135-.009.132-.013.131-.025.128-.023.128-.029.129-.031.123-.039.124-.042.124-.047.117-.053.119-.055.12-.063.115-.064.117-.071.111-.075.112-.074.106-.079.108-.082.1-.08.1-.085.1-.085.1-.086.091-.088.089-.089.085-.09.085-.091.08-.1.076-.093.08-.1.071-.1.071-.1h.168l.566.4-.1.152-.1.148-.107.142-.108.142-.108.135-.111.128-.113.126-.116.121-.122.113-.121.107-.125.109-.128.1-.13.1-.13.09-.138.089-.137.079-.141.08-.146.071-.149.067-.151.064-.16.057-.168.05-.166.05-.172.038-.175.04-.183.03-.186.032-.192.02-.193.021-.2.008-.2.009-.209,0-.166.016-.106-.008-.105,0-.108-.006-.11-.012-.113,0-.1-.013-.116-.011-.117-.014-.113-.015-.117-.014-.115-.018-.115-.022-.116-.02-.113-.023-.12-.022-.117-.025-.188-.055-.181-.056-.184-.06-.181-.073-.177-.074-.179-.077-.175-.092-.172-.093-.171-.1-.17-.107-.168-.107-.163-.12-.166-.123-.157-.128-.163-.135-.155-.143-.08-.071-.075-.076-.071-.077-.07-.079-.062-.082-.071-.083-.06-.085-.06-.088-.06-.09-.052-.093-.053-.095-.049-.1-.053-.095-.04-.1-.044-.1-.042-.1-.035-.108-.035-.111-.034-.106-.033-.111-.029-.115-.022-.118-.029-.117-.015-.121-.023-.122-.013-.128-.013-.124-.009-.13-.008-.131-.01-.134,0-.133v-.3l0-.156.01-.158.013-.155.01-.151.018-.151.02-.145.02-.145.029-.146.031-.138.031-.139.033-.139.04-.134.042-.135.044-.13.049-.127.051-.123.053-.126.055-.122.06-.117.064-.119.066-.11.066-.117.071-.109.078-.1.077-.106.081-.108.087-.1.084-.1.088-.1.1-.093.1-.095.1-.088.1-.088.1-.087.1-.081.1-.08.1-.075.106-.075.1-.071.11-.068.106-.063.111-.06.111-.062.11-.055.113-.056.112-.049.118-.047.113-.044.116-.042.122-.038.117-.037.121-.033.12-.028.124-.029.121-.025.126-.022.122-.018.128-.013.128-.015.129-.013.131,0,.13-.006.135,0h.168l.154,0,.15.006.149.01.146.01.138.014.133.02.133.027.129.022.126.025.119.03.119.025.117.029.111.028.11.028.109.031.108.029.058.018.053.021.053.013.05.02.049.021.053.017.048.019.054.013.111.038.1.033.084.028.072.027.07.021.058.015.063.015.059.009h.069l.067-.009.059-.015.06-.022.051-.024.044-.033.046-.033.042-.04.038-.049.038-.046.024-.053.024-.05.022-.053.013-.057.016-.059,0-.06,0-.061h.823Z" fill="#fff"/>
    <path id="Контур_1440" data-name="Контур 1440" d="M155.8,11130.764l-.08.013-.077.022-.085.028-.088.036-.09.041-.1.051-.1.058-.1.062-.048.038-.055.04-.051.046-.057.051-.051.052-.053.057-.053.062-.055.069-.053.07-.055.073-.055.08-.055.084-.056.09-.057.093-.053.095-.057.1-.049.1-.048.095-.051.105-.048.1-.053.113-.048.114-.05.117-.048.121-2.908,7.409h-1.3l-3.824-7.795-.018-.04-.017-.042-.016-.04-.02-.044-.027-.047-.017-.044-.015-.042-.018-.039-.013-.012-.013-.018,0-.02v-.026l-.062-.135-.066-.129-.066-.128-.07-.124-.073-.124-.08-.119-.084-.12-.085-.116-.046-.054-.051-.048-.051-.052-.059-.046-.06-.039-.066-.038-.06-.035-.073-.033-.077-.029-.075-.024-.086-.021-.086-.021-.09-.015-.091-.012-.095-.012h-.1v-.555h5.923v.555l-.128.02-.128.02-.12.024-.11.033-.108.036-.1.041-.1.042-.09.052-.04.028-.038.028-.035.033-.04.031-.025.037-.028.04-.024.04-.027.042-.018.046-.018.052-.013.05-.015.052,0,.055-.01.056,0,.06,0,.066,0,.047.007.05.01.054.015.058.013.055.018.063.018.06.015.062.018.02.013.025.009.026.011.028.006.024.011.026.015.033.02.029.016.046.024.046.023.047.017.046,2.339,4.736,1.636-4.2.015-.028.011-.023,0-.028,0-.026.058-.123.051-.129.048-.133.042-.133.025-.066.013-.068.015-.068.011-.075.009-.07.007-.073.007-.078,0-.076,0-.054-.007-.055,0-.049-.007-.049-.007-.051-.009-.047-.015-.046-.013-.042-.018-.045-.018-.037-.024-.039-.02-.036-.027-.037-.022-.033-.029-.033-.033-.033-.064-.056-.065-.055-.068-.045-.068-.047-.073-.041-.077-.038-.071-.03-.08-.033-.088-.033-.09-.027-.086-.021-.086-.018-.082-.011-.075,0-.065-.012-.062-.008v-.555H155.8Z" fill="#fff"/>
    <path id="Контур_1441" data-name="Контур 1441" d="M154.443,11164.3l.385,3.5H153.9l-.049-.128-.046-.129-.051-.126-.051-.121-.057-.117-.053-.113-.062-.11-.058-.11-.066-.1-.066-.1-.069-.1-.068-.092-.077-.095-.073-.086-.077-.084-.08-.082-.08-.077-.085-.072-.084-.078-.086-.066-.08-.068-.084-.063-.086-.061-.086-.062-.085-.056-.085-.051-.086-.051-.09-.049-.091-.042-.084-.044-.086-.04-.09-.033-.069-.025-.066-.025-.069-.024-.066-.02-.073-.021-.068-.019-.073-.015-.068-.013-.071-.016-.066-.011-.07-.007-.066-.006-.066-.007-.066,0-.064-.007h-.065l-.079.007-.078,0-.075.01-.08.007-.077.014-.073.016-.073.016-.075.023-.068.021-.069.026-.072.026-.066.031-.068.033-.063.035-.065.038-.065.039-.064.043-.063.046-.057.044-.062.049-.06.056-.058.053-.06.058-.05.06-.051.062-.057.067-.051.063-.05.069-.049.07-.05.077-.048.072-.048.085-.047.077-.045.084-.042.086-.042.093-.043.088-.037.1-.033.1-.04.1-.033.1-.033.105-.027.108-.035.11-.025.108-.027.119-.027.115-.024.122-.02.125-.02.125-.025.128-.017.132-.018.135-.013.135-.015.14-.009.144-.023.293-.015.3,0,.308,0,.324,0,.222,0,.217.009.107.011.1.009.1.011.1.015.1.011.093.02.1.02.095.02.094.02.088.027.095.022.092.029.081.029.091.031.079.029.089.035.079.031.08.038.077.037.08.04.072.04.077.047.071.042.072.048.073.047.064.048.066.053.066.051.062.053.063.057.058.053.062.065.055.059.051.063.053.06.049.07.05.068.046.066.042.073.042.068.04.078.04.072.035.08.033.078.035.079.028.083.026.085.026.082.024.089.025.088.02.09.016.093.017.09.017.1.013.1.011.1.007.1.01.106,0h.239l.13-.012.133-.018.132-.018.126-.023.128-.03.126-.035.123-.035.126-.042.122-.046.122-.056.115-.056.12-.06.117-.065.113-.071.115-.075.11-.078.111-.076.1-.08.1-.082.1-.086.1-.082.095-.088.091-.087.088-.088.088-.093.082-.089.082-.1.078-.093.077-.1.075-.1.066-.1h.168l.571.4-.1.157-.1.146-.1.145-.106.139-.11.131-.111.135-.117.125-.115.115-.122.117-.12.11-.125.106-.128.1-.133.1-.13.092-.136.088-.135.082-.145.075-.142.073-.153.068-.155.06-.157.058-.163.053-.171.049-.172.04-.175.039-.181.033-.188.024-.188.025-.2.015-.2.014-.2.006-.207,0-.166.016-.108-.007-.106,0-.106-.009-.108-.006-.108,0-.11-.014-.115-.013-.113-.011-.115-.017-.122-.015-.113-.021-.115-.018-.115-.02-.117-.022-.118-.026-.117-.028-.183-.051-.186-.053-.185-.066-.18-.068-.179-.073-.178-.082-.172-.084-.178-.094-.17-.1-.168-.108-.168-.11-.165-.117-.164-.122-.159-.128-.16-.138-.159-.142-.078-.07-.07-.075-.073-.079-.073-.078-.066-.082-.064-.085-.063-.085-.059-.088-.06-.088-.055-.092-.053-.095-.049-.092-.046-.1-.049-.1-.042-.1-.04-.108-.04-.105-.033-.108-.033-.11-.028-.108-.027-.119-.028-.113-.022-.122-.023-.119-.017-.124-.018-.126-.009-.128-.011-.126-.01-.128-.01-.135v-.434l0-.159.007-.152.011-.159.015-.147.015-.151.018-.146.027-.147.024-.14.029-.144.03-.14.038-.135.04-.137.037-.132.048-.128.045-.13.051-.128.053-.12.057-.121.058-.122.066-.114.063-.117.075-.111.07-.11.073-.107.08-.108.082-.1.082-.1.088-.1.091-.094.092-.1.1-.093.1-.089.1-.091.1-.085.1-.082.108-.078.1-.08.105-.07.1-.07.108-.068.11-.064.106-.064.111-.057.11-.058.115-.054.113-.048.115-.049.117-.045.118-.043.119-.038.118-.035.122-.035.122-.025.122-.031.122-.023.123-.021.128-.019.126-.015.128-.012.126-.014.128-.007.13-.006h.3l.159,0,.15,0,.146.007.148.016.14.013.132.019.133.021.126.027.126.028.119.029.12.023.117.031.113.028.113.029.1.028.108.033.058.013.057.017.051.017.053.021.048.022.051.018.048.013.05.019.111.037.1.031.085.028.073.024.068.021.057.017.065.017.057.01h.069l.066-.01.06-.019.058-.018.053-.024.05-.033.045-.033.037-.041.043-.047.033-.052.024-.046.029-.056.02-.052.016-.054.01-.058,0-.062,0-.06h.818Z" fill="#fff"/>
    <path id="Контур_1442" data-name="Контур 1442" d="M140.309,11139.157l0,.046-.01.047-.009.047-.018.042-.02.043-.022.04-.03.036-.029.028-.035.035-.033.025-.04.026-.04.02-.042.014-.046.01-.047.007-.05,0H137.9l1.371,1.368.028.035.029.04.029.04.017.042.013.042.011.046.007.042,0,.048,0,.048-.007.042-.011.047-.013.042-.017.041-.029.04-.029.04-.028.035-.038.033-.04.026-.035.022-.047.022-.042.015-.04.009-.048.007h-.091l-.046-.007-.04-.009-.045-.015-.04-.022-.044-.022-.04-.026-.033-.033-1.368-1.37v1.937l0,.044-.007.049-.011.046-.017.044-.018.045-.024.038-.029.035-.028.03-.03.033-.04.029-.04.021-.038.021-.044.015-.047.016-.049,0h-.09l-.048,0-.046-.016-.045-.015-.037-.021-.04-.021-.04-.029-.031-.033-.03-.03-.028-.035-.023-.038-.017-.045-.018-.044-.011-.046-.009-.049,0-.044v-1.937l-1.368,1.37-.038.033-.04.026-.04.022-.04.022-.044.015-.04.009-.048.007h-.088l-.049-.007-.039-.009-.049-.015-.04-.022-.04-.022-.039-.026-.033-.033-.029-.035-.03-.04-.027-.04-.018-.041-.013-.042-.01-.047-.007-.042,0-.048,0-.048.007-.042.01-.046.013-.042.018-.042.027-.04.03-.04.029-.035,1.37-1.368h-1.936l-.051,0-.047-.007-.044-.01-.045-.014-.04-.02-.04-.026-.033-.025-.035-.035-.028-.028-.031-.036-.022-.04-.02-.043-.018-.042-.009-.047-.009-.047,0-.046,0-.052.009-.045.009-.043.018-.046.02-.04.022-.039.031-.034.028-.037.035-.029.033-.028.04-.02.04-.023.045-.017.044-.012.047,0,.051,0h1.936l-1.37-1.372-.029-.032-.03-.04-.027-.039-.018-.042-.013-.045-.01-.042-.007-.046,0-.047,0-.042.007-.046.01-.045.013-.042.018-.042.027-.038.03-.041.029-.035.033-.031.039-.032.04-.021.04-.02.049-.016.039-.009.049-.006.042,0,.047,0,.048.006.04.009.044.016.04.02.04.021.04.032.038.031,1.368,1.368v-1.935l0-.051.009-.047.011-.047.018-.039.017-.042.023-.037.028-.038.03-.035.031-.028.04-.027.04-.026.037-.018.045-.016.046-.015.048,0,.042,0,.048,0,.049,0,.047.015.044.016.038.018.04.026.04.027.03.028.028.035.029.038.024.037.018.042.017.039.011.047.007.047,0,.051v1.935l1.368-1.368.033-.031.04-.032.044-.021.04-.02.045-.016.04-.009.046-.006.049,0,.042,0,.048.006.04.009.042.016.047.02.035.021.04.032.038.031.028.035.029.041.029.038.017.042.013.042.011.045.007.046,0,.042,0,.047-.007.046-.011.042-.013.045-.017.042-.029.039-.029.04-.028.032-1.371,1.372h1.937l.05,0,.047,0,.046.012.042.017.04.023.04.02.033.028.035.029.029.037.03.034.022.039.02.04.018.046.009.043.01.045Z" fill="#fff"/>
    <path id="Контур_1443" data-name="Контур 1443" d="M140.309,11165.521l0,.052-.01.045-.009.045-.018.047-.02.037-.022.04-.03.036-.029.035-.035.028-.033.028-.04.024-.04.019-.042.017-.046.012-.047.007-.05,0H137.9l1.371,1.369.028.035.029.037.029.039.017.042.013.045.011.042.007.046,0,.047,0,.045-.007.043-.011.045-.013.044-.017.04-.029.044-.029.034-.028.036-.038.033-.04.03-.035.023-.047.018-.042.016-.04.009-.048.007-.042,0-.049,0-.046-.007-.04-.009-.045-.016-.04-.018-.044-.023-.04-.03-.033-.033-1.368-1.368v1.935l0,.052-.007.046-.011.047-.017.044-.018.039-.024.035-.029.04-.028.035-.03.024-.04.032-.04.023-.038.018-.044.019-.047.012-.049,0-.048,0-.042,0-.048,0-.046-.012-.045-.019-.037-.018-.04-.023-.04-.032-.031-.024-.03-.035-.028-.04-.023-.035-.017-.039-.018-.044-.011-.047-.009-.046,0-.052v-1.935l-1.368,1.368-.038.033-.04.03-.04.023-.04.018-.044.016-.04.009-.048.007-.047,0-.042,0-.049-.007-.039-.009-.049-.016-.04-.018-.04-.023-.039-.03-.033-.033-.029-.036-.03-.034-.027-.044-.018-.04-.013-.044-.01-.045-.007-.043,0-.045,0-.047.007-.046.01-.042.013-.045.018-.042.027-.039.03-.037.029-.035,1.37-1.369h-1.936l-.051,0-.047-.007-.044-.012-.045-.017-.04-.019-.04-.024-.033-.028-.035-.028-.028-.035-.031-.036-.022-.04-.02-.037-.018-.047-.009-.045-.009-.045,0-.052,0-.046.009-.044.009-.05.018-.041.02-.044.022-.04.031-.033.028-.033.035-.033.033-.021.04-.027.04-.021.045-.015.044-.008.047-.009.051,0h1.936l-1.37-1.369-.029-.037-.03-.04-.027-.04-.018-.04-.013-.044-.01-.046-.007-.042,0-.05,0-.046.007-.042.01-.047.013-.041.018-.042.027-.038.03-.037.029-.04.033-.031.039-.026.04-.023.04-.019.049-.02.039-.009.049-.009h.088l.048.009.04.009.044.02.04.019.04.023.04.026.038.031,1.368,1.37v-1.936l0-.049.009-.045.011-.046.018-.042.017-.042.023-.043.028-.035.03-.03.031-.033.04-.024.04-.026.037-.021.045-.013.046-.011.048-.01.042,0,.048,0,.049.01.047.011.044.013.038.021.04.026.04.024.03.033.028.03.029.035.024.043.018.042.017.042.011.046.007.045,0,.049v1.936l1.368-1.37.033-.031.04-.026.044-.023.04-.019.045-.02.04-.009.046-.009h.091l.048.009.04.009.042.02.047.019.035.023.04.026.038.031.028.04.029.037.029.038.017.042.013.041.011.047.007.042,0,.046,0,.05-.007.042-.011.046-.013.044-.017.04-.029.04-.029.04-.028.037-1.371,1.369h1.937l.05,0,.047.009.046.008.042.015.04.021.04.027.033.021.035.033.029.033.03.033.022.04.02.044.018.041.009.05.01.044Z" fill="#fff"/>
    <path id="Контур_1444" data-name="Контур 1444" d="M166.664,11139.157l0,.046-.01.047-.009.047-.022.042-.02.043-.02.04-.029.036-.029.028-.037.035-.033.025-.04.026-.04.02-.047.014-.042.01-.047.007-.053,0h-1.932l1.368,1.368.032.035.027.04.027.04.016.042.015.042.009.046.01.042,0,.048,0,.048-.01.042-.009.047-.015.042-.016.041-.027.04-.027.04-.032.035-.036.033-.04.026-.039.022-.043.022-.044.015-.04.009-.046.007h-.091l-.048-.007-.04-.009-.042-.015-.047-.022-.037-.022-.043-.026-.032-.033-1.367-1.37v1.937l0,.044-.007.049-.013.046-.017.044-.018.045-.022.038-.029.035-.03.03-.035.033-.033.029-.043.021-.037.021-.042.015-.049.016-.046,0h-.092l-.051,0-.044-.016-.043-.015-.044-.021-.038-.021-.035-.029-.033-.033-.03-.03-.027-.035-.025-.038-.025-.045-.013-.044-.009-.046-.009-.049,0-.044v-1.937l-1.37,1.37-.035.033-.038.026-.042.022-.04.022-.042.015-.042.009-.047.007h-.093l-.045-.007-.047-.009-.042-.015-.042-.022-.04-.022-.035-.026-.038-.033-.03-.035-.027-.04-.027-.04-.02-.041-.015-.042-.011-.047,0-.042,0-.048,0-.048,0-.042.011-.046.015-.042.02-.042.027-.04.027-.04.03-.035,1.371-1.368H160.04l-.048,0-.048-.007-.047-.01-.04-.014-.042-.02-.038-.026-.042-.025-.028-.035-.031-.028-.027-.036-.027-.04-.017-.043-.018-.042-.009-.047-.009-.047,0-.046,0-.052.009-.045.009-.043.018-.046.017-.04.027-.039.027-.034.031-.037.028-.029.042-.028.038-.02.042-.023.04-.017.047-.012.048,0,.048,0h1.937l-1.371-1.372-.03-.032-.027-.04-.027-.039-.02-.042-.015-.045-.011-.042,0-.046,0-.047,0-.042,0-.046.011-.045.015-.042.02-.042.027-.038.027-.041.03-.035.038-.031.035-.032.04-.021.042-.02.042-.016.047-.009.045-.006.045,0,.048,0,.047.006.042.009.042.016.04.02.042.021.038.032.035.031,1.37,1.368v-1.935l0-.051.009-.047.009-.047.013-.039.025-.042.025-.037.027-.038.03-.035.033-.028.035-.027.038-.026.044-.018.043-.016.044-.015.051,0,.042,0,.05,0,.046,0,.049.015.042.016.037.018.043.026.033.027.035.028.03.035.029.038.022.037.018.042.017.039.013.047.007.047,0,.051v1.935l1.367-1.368.032-.031.043-.032.037-.021.047-.02.042-.016.04-.009.048-.006.043,0,.048,0,.046.006.04.009.044.016.043.02.039.021.04.032.036.031.032.035.027.041.027.038.016.042.015.042.009.045.01.046,0,.042,0,.047-.01.046-.009.042-.015.045-.016.042-.027.039-.027.04-.032.032-1.368,1.372h1.932l.053,0,.047,0,.042.012.047.017.04.023.04.02.033.028.037.029.029.037.029.034.02.039.02.04.022.046.009.043.01.045Z" fill="#fff"/>
    <path id="Контур_1445" data-name="Контур 1445" d="M166.664,11165.521l0,.052-.01.045-.009.045-.022.047-.02.037-.02.04-.029.036-.029.035-.037.028-.033.028-.04.024-.04.019-.047.017-.042.012-.047.007-.053,0h-1.932l1.368,1.369.032.035.027.037.027.039.016.042.015.045.009.042.01.046,0,.047,0,.045-.01.043-.009.045-.015.044-.016.04-.027.044-.027.034-.032.036-.036.033-.04.03-.039.023-.043.018-.044.016-.04.009-.046.007-.048,0-.043,0-.048-.007-.04-.009-.042-.016-.047-.018-.037-.023-.043-.03-.032-.033-1.367-1.368v1.935l0,.052-.007.046-.013.047-.017.044-.018.039-.022.035-.029.04-.03.035-.035.024-.033.032-.043.023-.037.018-.042.019-.049.012-.046,0-.05,0-.042,0-.051,0-.044-.012-.043-.019-.044-.018-.038-.023-.035-.032-.033-.024-.03-.035-.027-.04-.025-.035-.025-.039-.013-.044-.009-.047-.009-.046,0-.052v-1.935l-1.37,1.368-.035.033-.038.03-.042.023-.04.018-.042.016-.042.009-.047.007-.048,0-.045,0-.045-.007-.047-.009-.042-.016-.042-.018-.04-.023-.035-.03-.038-.033-.03-.036-.027-.034-.027-.044-.02-.04-.015-.044-.011-.045,0-.043,0-.045,0-.047,0-.046.011-.042.015-.045.02-.042.027-.039.027-.037.03-.035,1.371-1.369H160.04l-.048,0-.048-.007-.047-.012-.04-.017-.042-.019-.038-.024-.042-.028-.028-.028-.031-.035-.027-.036-.027-.04-.017-.037-.018-.047-.009-.045-.009-.045,0-.052,0-.046.009-.044.009-.05.018-.041.017-.044.027-.04.027-.033.031-.033.028-.033.042-.021.038-.027.042-.021.04-.015.047-.008.048-.009.048,0h1.937l-1.371-1.369-.03-.037-.027-.04-.027-.04-.02-.04-.015-.044-.011-.046,0-.042,0-.05,0-.046,0-.042.011-.047.015-.041.02-.042.027-.038.027-.037.03-.04.038-.031.035-.026.04-.023.042-.019.042-.02.047-.009.045-.009h.093l.047.009.042.009.042.02.04.019.042.023.038.026.035.031,1.37,1.37v-1.936l0-.049.009-.045.009-.046.013-.042.025-.042.025-.043.027-.035.03-.03.033-.033.035-.024.038-.026.044-.021.043-.013.044-.011.051-.01.042,0,.05,0,.046.01.049.011.042.013.037.021.043.026.033.024.035.033.03.03.029.035.022.043.018.042.017.042.013.046.007.045,0,.049v1.936l1.367-1.37.032-.031.043-.026.037-.023.047-.019.042-.02.04-.009.048-.009h.091l.046.009.04.009.044.02.043.019.039.023.04.026.036.031.032.04.027.037.027.038.016.042.015.041.009.047.01.042,0,.046,0,.05-.01.042-.009.046-.015.044-.016.04-.027.04-.027.04-.032.037-1.368,1.369h1.932l.053,0,.047.009.042.008.047.015.04.021.04.027.033.021.037.033.029.033.029.033.02.04.02.044.022.041.009.05.01.044Z" fill="#fff"/>
  </g>
</svg>
