<svg xmlns="http://www.w3.org/2000/svg" width="96.245" height="96.246" viewBox="0 0 96.245 96.246">
  <g id="Сгруппировать_303" data-name="Сгруппировать 303" transform="translate(-911.816 -7793.983)">
    <path id="Контур_1435" data-name="Контур 1435" d="M975.372,7814.02h15.269v-14.658l-2.871-3.3h-9.344l-2.626,3.054Z" fill="#aec7e1"/>
    <g id="Сгруппировать_302" data-name="Сгруппировать 302">
      <path id="Контур_1436" data-name="Контур 1436" d="M998.152,7877.807a1.508,1.508,0,0,1-1.508-1.509v-48.271a1.508,1.508,0,0,1,3.016,0V7876.3a1.508,1.508,0,0,1-1.508,1.509Zm-36.2-25.141H952.9v-18.6a2.517,2.517,0,0,1,2.514-2.514h4.023a2.517,2.517,0,0,1,2.514,2.514v18.6Zm3.52,0h-.5v-18.6a5.539,5.539,0,0,0-5.531-5.531h-4.023a5.538,5.538,0,0,0-5.531,5.531v18.6h-.5a9.564,9.564,0,0,0-9.553,9.553,1.508,1.508,0,1,0,3.017,0,6.543,6.543,0,0,1,6.536-6.536h16.091a6.543,6.543,0,0,1,6.536,6.536v22.125a2.516,2.516,0,0,1-2.514,2.514H955.915a1.509,1.509,0,0,0,0,3.017h13.576a5.538,5.538,0,0,0,5.531-5.531v-22.125a9.565,9.565,0,0,0-9.553-9.553Zm-48.271,35.7a1.509,1.509,0,0,1-1.509,1.509h-2.011a1.509,1.509,0,0,1,0-3.017h2.011a1.509,1.509,0,0,1,1.509,1.508Zm48.773-6.537a1.508,1.508,0,0,1-1.508-1.508v-18.1a1.508,1.508,0,0,1,3.017,0v18.1a1.508,1.508,0,0,1-1.509,1.508Zm-16.593,2.515a2.516,2.516,0,0,1-2.514,2.514H932.785a2.517,2.517,0,0,1-2.514-2.514v-6.537h15.588a1.509,1.509,0,0,0,0-3.017H930.271v-2.514a2.516,2.516,0,0,1,2.514-2.514h14.079a2.516,2.516,0,0,1,2.514,2.514v12.068Zm-2.514-17.6H932.785a5.537,5.537,0,0,0-5.531,5.531v12.068a5.509,5.509,0,0,0,.6,2.514h-7.142a1.509,1.509,0,0,0,0,3.017h26.147a5.538,5.538,0,0,0,5.531-5.531v-12.068a5.537,5.537,0,0,0-5.531-5.531ZM989.1,7812.44H977.034v-12.57a2.517,2.517,0,0,1,2.514-2.515h7.039a2.517,2.517,0,0,1,2.514,2.515v12.57Zm5.028,0h-2.011v-12.57a5.538,5.538,0,0,0-5.531-5.532h-7.039a5.538,5.538,0,0,0-5.531,5.532v12.57h-2.012a13.528,13.528,0,0,0-13.388,11.316,1.508,1.508,0,1,0,2.975.5,10.521,10.521,0,0,1,10.413-8.8h22.124a10.571,10.571,0,0,1,10.56,10.559v58.328a2.517,2.517,0,0,1-2.514,2.514H978.039a1.509,1.509,0,0,0,0,3.017h24.136a5.538,5.538,0,0,0,5.531-5.531v-58.328a13.592,13.592,0,0,0-13.577-13.576Z" fill="#0c618f" stroke="#fff" stroke-miterlimit="10" stroke-width="0.709"/>
    </g>
    <path id="Прямоугольник_384" data-name="Прямоугольник 384" d="M3.142,0H10.05a3.142,3.142,0,0,1,3.142,3.142V16.083a0,0,0,0,1,0,0H0a0,0,0,0,1,0,0V3.142A3.142,3.142,0,0,1,3.142,0Z" transform="translate(976.471 7796.817)" fill="#aec7e1"/>
    <path id="Прямоугольник_385" data-name="Прямоугольник 385" d="M2.954,0H7.136A2.954,2.954,0,0,1,10.09,2.954V22.109a0,0,0,0,1,0,0H0a0,0,0,0,1,0,0V2.954A2.954,2.954,0,0,1,2.954,0Z" transform="translate(952.395 7831.06)" fill="#aec7e1"/>
  </g>
</svg>
