<svg xmlns="http://www.w3.org/2000/svg" width="163.887" height="97.035" viewBox="0 0 163.887 97.035">
  <g id="Сгруппировать_300" data-name="Сгруппировать 300" transform="translate(-518.114 -7559.742)">
    <path id="Контур_1419" data-name="Контур 1419" d="M549.322,7560.954a7.629,7.629,0,0,0,5.256,6.2c.134,3.909,1.616,15.635,11.186,15.635,4.178-.539,10.781-2.965,11.59-9.3,2.56.269,14.017-.54,13.882-12.534-33.289.539-41.914,0-41.914,0" fill="#acc5df"/>
    <path id="Контур_1420" data-name="Контур 1420" d="M623.434,7564.188s-3.707,5.527,2.021,10.783c-.674,4.581-1.078,13.476,10.108,16.171a25.9,25.9,0,0,0,11.455-5.256s-11.455-15.634-23.584-21.7" fill="#acc5df"/>
    <path id="Контур_1421" data-name="Контур 1421" d="M602.291,7625.466l-4.386,29.973a1.168,1.168,0,0,0,1.156,1.338h5.513a1.163,1.163,0,0,0,1.112-.815l4.638-14.679a1.164,1.164,0,0,0-.76-1.464,1.136,1.136,0,0,0-.354-.056,1.162,1.162,0,0,0-1.112.816l-4.382,13.863h-3.3l4.192-28.637a1.168,1.168,0,0,0-.988-1.324,1.148,1.148,0,0,0-.173-.014,1.174,1.174,0,0,0-1.151,1m-35.962-9.856c8.67,3.66,19.484,5.675,30.452,5.675a69.978,69.978,0,0,0,14.592-1.413l.341-.073,4.145,35.944a1.167,1.167,0,0,0,1.161,1.034h5.273a1.17,1.17,0,0,0,1.158-1.023l5.533-44.275a1.167,1.167,0,0,0-1.014-1.3,1.344,1.344,0,0,0-.151-.009,1.166,1.166,0,0,0-1.152,1.024l-5.4,43.252h-3.2l-4.18-36.224a1.162,1.162,0,0,0-1.162-1.033,1.213,1.213,0,0,0-.289.036,64.194,64.194,0,0,1-15.691,1.744h0a77.72,77.72,0,0,1-29.5-5.507,1.137,1.137,0,0,0-.453-.093,1.169,1.169,0,0,0-.454,2.245m-41.682,9.206a1.164,1.164,0,0,0-.213.915l5.627,30.093a1.171,1.171,0,0,0,1.149.953h5.366a1.169,1.169,0,0,0,1.167-1.22l-.88-19.985.893-.649a1.171,1.171,0,0,0,.257-1.632,1.169,1.169,0,0,0-1.633-.257l-1.4,1.018a1.165,1.165,0,0,0-.48,1l.855,19.394h-3.178l-5.354-28.626.43-.532a31.487,31.487,0,0,0,5.657-9.4,1.171,1.171,0,0,0-.72-1.486,1.187,1.187,0,0,0-.385-.067,1.166,1.166,0,0,0-1.1.788,29.445,29.445,0,0,1-5.269,8.7c-.339.418-.593.736-.79,1m8.077-61.447a1.174,1.174,0,0,0-1.145-.938,1.187,1.187,0,0,0-.231.023c-5.348,1.073-9.6,2.381-11.7,8.509-2.05,6-2.049,16.615.006,35.487a1.166,1.166,0,0,0,1.16,1.041,1.057,1.057,0,0,0,.129-.006,1.169,1.169,0,0,0,1.033-1.288c-4.209-38.634.778-39.636,9.829-41.452a1.172,1.172,0,0,0,.917-1.376m113.035,22a1.164,1.164,0,0,0-.414.358,10.574,10.574,0,0,1-18.471-9.994,1.176,1.176,0,0,0-.3-1.3A8.448,8.448,0,0,1,624,7565.8c1.121.673,2.3,1.429,3.6,2.362,5.494,3.957,11.581,9.747,18.161,17.2m-55.443-23.257c-.64,5.675-5.252,10.077-10.69,10.077a10.31,10.31,0,0,1-2.136-.226,1.14,1.14,0,0,0-.241-.025,1.168,1.168,0,0,0-1.147.938c-1.162,5.834-4.516,8.79-9.968,8.79-6.322,0-10.406-5.191-10.406-13.226,0-.439.021-.873.045-1.279a1.175,1.175,0,0,0-.7-1.134,7.516,7.516,0,0,1-3.8-3.739c.733-.033,1.465-.066,2.237-.066l.322,0c2,.014,4.237.02,6.845.02,6.269,0,13.5-.04,20.511-.082l9.131-.05m67.155,35.685a1.167,1.167,0,0,0,.209-1.638c-24.1-31.148-37.52-36.1-43.374-36.283-2.855-.089-7.156-.131-13.151-.131-5.916,0-12.728.039-19.94.081l-.176,0c-6.944.04-14.127.082-20.351.082-2.606,0-4.844-.008-6.84-.022h-.313c-9.087,0-15.466,2.058-19.5,6.294-5.073,5.321-5.328,13.159-4.986,19.392.575,10.391,2.076,13.861,4.158,18.668,2.024,4.674,4.542,10.492,7.417,25.384a1.211,1.211,0,0,0,.108.311l13.438,26.208a1.161,1.161,0,0,0,1.039.636h5.174a1.168,1.168,0,0,0,1.125-1.486l-5.972-21.124.073-.118c.367-.594.949-1.578,1.635-2.888l.139-.265.272.123a17.636,17.636,0,0,0,4.543,1.382l.276.044-.108,2.813a1.172,1.172,0,0,0,1.125,1.212h.044a1.163,1.163,0,0,0,1.165-1.122l.1-2.713h.3a18.227,18.227,0,0,0,3.914-.441l.3-.065.712,2.717a1.169,1.169,0,0,0,1.128.871,1.188,1.188,0,0,0,.3-.037,1.172,1.172,0,0,0,.833-1.427l-.738-2.81.257-.1a17.728,17.728,0,0,0,3.113-1.633l.2-.133,2.189,1.92a1.167,1.167,0,0,0,1.539-1.755l-1.855-1.627.257-.237a18.158,18.158,0,0,0,3.1-3.776,1.15,1.15,0,0,0,.141-.882,1.168,1.168,0,0,0-2.13-.343,15.591,15.591,0,0,1-19.664,6.061l-.29-.131.132-.289c2.325-5.067,4.976-12.819,4.413-20.975a1.169,1.169,0,0,0-1.164-1.086.768.768,0,0,0-.081,0,1.169,1.169,0,0,0-1.084,1.245c.9,12.991-7.248,25.507-7.33,25.633a1.155,1.155,0,0,0-.151.963l5.693,20.146h-2.917l-13.035-25.425-.009-.044c-2.909-15-5.47-20.912-7.528-25.666s-3.417-7.89-3.968-17.866c-.336-6.121-.086-13.006,4.344-17.651,2.828-2.966,7.267-4.738,13.178-5.331a1.167,1.167,0,0,0,.085.487,9.783,9.783,0,0,0,4.253,4.768l.165.093-.005.191c0,.145-.006.291-.006.439,0,10.751,6.4,15.562,12.742,15.562,6.055,0,10.293-3.305,11.938-9.307l.07-.256.264.026c.4.039.816.059,1.22.059,6.711,0,12.4-5.444,13.052-12.421,2.911-.013,5.753-.021,8.384-.021,6.059,0,10.367.042,13.173.128a18.614,18.614,0,0,1,7.727,2.444c-.05.085-.135.141-.164.235a11,11,0,0,0,2.51,10.592l.125.134-.055.176a12.793,12.793,0,0,0-.586,3.826,12.917,12.917,0,0,0,23.458,7.463v-.007c2.779,3.221,5.635,6.707,8.582,10.516a1.16,1.16,0,0,0,.926.453,1.144,1.144,0,0,0,.712-.245m12.764-1.055a1.168,1.168,0,0,0-1.168-1.134c-.044,0-.088,0-.131.006-.3.034-7.309.9-10.7,5.613a10.255,10.255,0,0,0-1.494,8.447,1.172,1.172,0,0,0,1.141.926,1.215,1.215,0,0,0,.244-.025,1.169,1.169,0,0,0,.9-1.385,7.929,7.929,0,0,1,1.1-6.589c1.9-2.644,5.411-3.842,7.338-4.321l.429-.108-.039.441a13.684,13.684,0,0,1-4.332,8.961,1.169,1.169,0,0,0,.739,2.074,1.154,1.154,0,0,0,.735-.262,16.108,16.108,0,0,0,5.245-12.644m10.274,10.475a1.169,1.169,0,0,0-1.052-1.273c-.563-.052-1.145-.079-1.73-.079a22.7,22.7,0,0,0-7.324,1.279,1.168,1.168,0,0,0,.394,2.267,1.147,1.147,0,0,0,.393-.07,20.679,20.679,0,0,1,6.546-1.14c.509,0,1.015.023,1.5.068.035,0,.069,0,.1,0a1.169,1.169,0,0,0,1.174-1.057m1.477,6.255a1.171,1.171,0,0,0-.968-1.339,20.927,20.927,0,0,0-3.314-.268,18.118,18.118,0,0,0-9.8,2.683,1.174,1.174,0,0,0-.495,1.04c.643,8.877,3.067,29.189,3.092,29.381a1.744,1.744,0,0,1-1.145,1.772,9.122,9.122,0,0,1-1.331.1,7.028,7.028,0,0,1-6.136-3.5c-2.534-3.9-5.56-5.623-8.23-7.145-3.772-2.15-6.5-3.705-6.734-10.595a1.167,1.167,0,0,0-.576-.966l-13.59-8a1.159,1.159,0,0,0-.59-.162,1.168,1.168,0,0,0-.593,2.176l13.043,7.674.011.166c.491,7.522,4.076,9.567,7.873,11.731,2.558,1.458,5.2,2.967,7.428,6.391a9.378,9.378,0,0,0,8.151,4.555,11.259,11.259,0,0,0,1.612-.116,4.048,4.048,0,0,0,3.13-4.306c-.021-.19-2.282-19.112-3.015-28.406l-.016-.207.184-.1a16.909,16.909,0,0,1,7.761-1.833,18.275,18.275,0,0,1,2.908.235,1.341,1.341,0,0,0,.187.015,1.165,1.165,0,0,0,1.153-.982" fill="#0c618d"/>
    <path id="Контур_1422" data-name="Контур 1422" d="M662.131,7621.4a1.567,1.567,0,0,0-1.1.431,1.567,1.567,0,1,0,2.216,2.217,1.54,1.54,0,0,0-1.113-2.648" fill="#0c618d"/>
  </g>
</svg>
