<svg xmlns="http://www.w3.org/2000/svg" width="119.256" height="79.393" viewBox="0 0 119.256 79.393">
  <g id="Сгруппировать_298" data-name="Сгруппировать 298" transform="translate(-180.549 -7810.482)">
    <path id="Контур_1395" data-name="Контур 1395" d="M236.988,7836.043s12.571,3.087,12.79,9.924c-.44,7.058.221,9.484,1.765,11.689.22,4.631-2.426,10.145-2.426,10.145l-11.026-16.982a23.543,23.543,0,0,1-1.1-14.776" fill="#acc5df"/>
    <path id="Контур_1396" data-name="Контур 1396" d="M265.431,7839.792s-3.087,8.159,3.97,13.011c4.411,2.426,13.232,2.426,13.232,2.426s-3.087-5.667-17.2-15.437" fill="#acc5df"/>
    <path id="Контур_1397" data-name="Контур 1397" d="M205,7843.982s-9.482,3.748-18.745,0v3.748s16.541,5.174,20.289-1.873c-.882-.773-1.323-1.214-1.323-1.214" fill="#acc5df"/>
    <path id="Контур_1398" data-name="Контур 1398" d="M227.278,7842.4l-5.293-3s6.881-7.674,10.056-2.205c.265,2.205.882,2.205-4.763,5.205" fill="#acc5df"/>
    <path id="Контур_1399" data-name="Контур 1399" d="M257.885,7833.351c3.585,4.729,8.107,8.3,12.481,11.756,8.319,6.573,16.18,12.783,16.921,26.183a1.154,1.154,0,0,0,.776,1.036c1,.356,2.417-.675,3.319-1.668,1.685-1.855,5.081-7.3.2-17.771-.627-1.341-1.069-2.08-.761-2.364s1.471.786,2.529,2.043c3.092,3.673,6.546,12.389,2.656,20.137-3.4,6.76-7.167,8.573-9.193,9.546-1.053.5-1.962.943-1.962,1.974a3.609,3.609,0,0,1-3.6,3.6H259.285a3.6,3.6,0,1,1,0-7.21H267.1a1.022,1.022,0,0,0,.766-1.7l-4.833-5.458a8.085,8.085,0,0,1,9.484-12.68,1.023,1.023,0,0,0,.866-1.853,10.131,10.131,0,0,0-11.881,15.89l2.987,3.375c.188.211.111.382-.171.382h-5.037a5.65,5.65,0,1,0,0,11.3h21.958a5.655,5.655,0,0,0,5.642-5.368c.19-.114.526-.276.81-.412,2.086-1,6.427-3.088,10.134-10.472,4.363-8.687.644-18.139-2.919-22.372-1.494-1.776-3.778-3.506-5.3-2.535-1.721,1.1-.336,4.064.118,5.038,3.274,7.019,2.516,11.387,1.3,13.816a7.033,7.033,0,0,1-1.792,2.32c-1.221-13.446-9.545-20.021-17.6-26.387-4.271-3.375-8.69-6.865-12.116-11.385a1.023,1.023,0,1,0-1.631,1.235" fill="#0c618d"/>
    <path id="Контур_1400" data-name="Контур 1400" d="M231.137,7827.859c3.865,1.142,6.419,1.9,6.747,2.57.185.382-.241,1.452-.78,2.806-4.65,11.7.708,19.123,5.437,25.675,4.276,5.927,8.314,11.524,5.015,19.769a2.648,2.648,0,0,1-2.079,1.262h-1.761a4.967,4.967,0,1,0,0,9.934h8.427a1.023,1.023,0,0,0,0-2.047h-8.427a2.921,2.921,0,1,1,0-5.842h1.761a4.652,4.652,0,0,0,3.977-2.547c3.719-9.29-.843-15.612-5.256-21.725-4.635-6.425-9.429-13.069-5.192-23.723.781-1.965,1.3-3.263.717-4.456-.723-1.486-2.706-2.073-8.007-3.638-3.132-.925-5.113-2.533-5.886-4.779a6.282,6.282,0,0,1,.171-4.593,17.034,17.034,0,0,1,4.179-.177c3.543.085,5.756.073,6.6-1.167a8.788,8.788,0,0,1,6.185-2.635c2.99-.171,7.57.806,12.4,6.437,1.139,1.331,2.26,5.093,1.491,8.2a5.613,5.613,0,0,1-3.493,4.117,1.885,1.885,0,0,1-1.93-.036c-.656-.449-2.176-2.267-2.116-9.4l0-.256a1.023,1.023,0,0,0-2.046,0l0,.239c-.05,6.053.932,9.686,3.005,11.107a3.916,3.916,0,0,0,3.84.252,7.654,7.654,0,0,0,4.726-5.528c.893-3.612-.274-8.1-1.925-10.023-5.373-6.264-10.612-7.345-14.07-7.148-3.606.207-6.667,1.95-7.739,3.5-.549.4-3.358.336-4.872.3-3.241-.078-5.11-.07-5.849.966a7.954,7.954,0,0,0-.485,6.515c.689,2,2.5,4.676,7.241,6.075" fill="#0c618d"/>
    <path id="Контур_1401" data-name="Контур 1401" d="M187.149,7864.926c1.5,2.942,2.908,5.721.956,15.385-.077.372-1.018.8-1.577.8h-.546a4.38,4.38,0,0,0,.07,8.76h5.129a1.022,1.022,0,0,0,0-2.045h-5.129a2.335,2.335,0,0,1,0-4.671h.476c1.295,0,3.259-.848,3.581-2.441,2.094-10.361.526-13.448-1.136-16.718-1.5-2.944-3.045-5.989-1.6-15.922.739-5.1-2.688-8.412-4.262-9.881a.255.255,0,0,1-.013-.392,8.97,8.97,0,0,0,.948-1.1c.7-1.016.418-2.536.092-3.747a15.78,15.78,0,0,1-.05-7.767,18.159,18.159,0,0,0,2.871,2.561,4.805,4.805,0,0,0,3.648.375,12.832,12.832,0,0,1,10.3,1.307,5.246,5.246,0,0,0,3.523.758,19.8,19.8,0,0,0,4.06-1.346,25.412,25.412,0,0,1-1.731,7.416,4.908,4.908,0,0,0-.4,3.678,10.418,10.418,0,0,0,.632,1.19.457.457,0,0,1-.084.641c-.121.069-.241.139-.356.2-.48.273-1.024.583-1.561.918a1.93,1.93,0,0,0-.985,1.661,2.022,2.022,0,0,0,1.094,1.7c3.562,2.077,21.216,13.164,18.932,27.442a1.1,1.1,0,0,0,.649,1.19c1.034.467,3.216-.612,4.576-2.259,2.069-2.51,4.29-8.49-4.094-20.35-3.02-4.271-3.941-8.391-2.6-11.6a7.165,7.165,0,0,1,5.63-4.277c1.763-.286,2.9.518,3.08,1.421.186.935-.7,1.775-2.265,2.141a5.772,5.772,0,0,0-1.456.508,4.348,4.348,0,0,0-2,4.724c.357,2.019,1.768,4.332,3.4,7.009,3.859,6.32,8.662,14.184,2.9,22.948a13.788,13.788,0,0,1-6.082,5.13c-1.9.952-3.69,1.85-3.836,4.581a3,3,0,0,1-2.919,2.971h-20.74a2.917,2.917,0,0,1,0-5.835H203.4a1.623,1.623,0,0,0,1.282-2.849l-3.1-3.5a6.731,6.731,0,0,1,5.037-11.193c.03,0,.064,0,.09,0a1.023,1.023,0,0,0,.013-2.046A8.777,8.777,0,0,0,200.056,7877l2.27,2.564c.187.212.109.383-.172.383h-3.875a4.962,4.962,0,1,0,0,9.924h20.74a5.013,5.013,0,0,0,4.961-4.906c.081-1.486.841-1.925,2.712-2.863a15.776,15.776,0,0,0,6.874-5.835c6.471-9.846,1.075-18.684-2.866-25.137-1.526-2.5-2.846-4.659-3.134-6.3a2.361,2.361,0,0,1,.965-2.575,3.754,3.754,0,0,1,.938-.312c3.106-.726,4.15-2.8,3.808-4.531-.366-1.842-2.389-3.533-5.417-3.042a9.168,9.168,0,0,0-7.187,5.507c-1.627,3.882-.63,8.7,2.813,13.571,6.391,9.041,6.214,14.067,4.939,16.69a5.613,5.613,0,0,1-2.208,2.427c1.169-14.757-16.174-25.789-20.007-28.036.458-.281.928-.549,1.346-.787,1.215-.691,1.646-.951,1.889-1.355.364-.607.04-1.124-.408-1.836a11.644,11.644,0,0,1-.807-1.44,3.628,3.628,0,0,1,.418-2.083,27.114,27.114,0,0,0,1.9-8.4,1.852,1.852,0,0,0-.75-1.73,1.974,1.974,0,0,0-2,0,17.2,17.2,0,0,1-3.815,1.29A3.236,3.236,0,0,1,202,7827.7a14.871,14.871,0,0,0-11.942-1.554,2.977,2.977,0,0,1-1.953-.09,16.96,16.96,0,0,1-2.754-2.515,1.9,1.9,0,0,0-1.873-.692,1.84,1.84,0,0,0-1.289,1.439,17.983,17.983,0,0,0-.036,9.2c.452,1.663.215,2.032.2,2.046a7.961,7.961,0,0,1-.83.944c-.55.561-.982,1-.982,1.63,0,.549.333.846.94,1.384,1.339,1.192,4.479,3.984,3.855,8.291-1.534,10.576.24,14.064,1.805,17.144" fill="#0c618d"/>
    <path id="Контур_1402" data-name="Контур 1402" d="M242.278,7819.816a1.407,1.407,0,0,0,.417-1,1.384,1.384,0,0,0-.417-.994,1.458,1.458,0,0,0-2,0,1.413,1.413,0,0,0-.409.994,1.4,1.4,0,0,0,1.411,1.411,1.409,1.409,0,0,0,.994-.409" fill="#0c618d"/>
    <path id="Контур_1403" data-name="Контур 1403" d="M226.143,7843.122c-1.186-2.2-4.056-2.509-4.085-2.512l.166-1.685c.156.016,3.8.408,5.409,3.394Z" fill="#0c618d"/>
    <path id="Контур_1404" data-name="Контур 1404" d="M196.33,7850.324a28.866,28.866,0,0,1-10.149-1.991l-.617-.232v-.66a10.5,10.5,0,0,0-.207-2.908.77.77,0,0,0,.325.333l.8-1.723a.677.677,0,0,1,.14.066v0c.075.042,7.772,4.237,17.936-.048l.741,1.755a24.023,24.023,0,0,1-17.865.735c.021.346.03.723.033,1.123,12.406,4.385,18.964-1.477,19.032-1.537l1.291,1.4c-.223.205-4.119,3.689-11.458,3.689" fill="#0c618d"/>
    <path id="Контур_1405" data-name="Контур 1405" d="M249.436,7868.55l-1.447-1.24c.04-.047,4.09-4.849,3.071-8.737a4.916,4.916,0,0,0-1.1-1.88c-1.035-1.285-2.324-2.886-1.55-7.036.056-.3.118-.588.18-.882.523-2.453.974-4.57-3.345-8.286-4.783-4.114-8.308-3.383-8.454-3.35l-.443-1.853c.183-.046,4.557-1.043,10.139,3.757,5.176,4.454,4.534,7.469,3.966,10.13-.059.277-.118.554-.17.832-.614,3.29.209,4.31,1.161,5.493a6.7,6.7,0,0,1,1.461,2.592c1.271,4.857-3.274,10.232-3.468,10.46" fill="#0c618d"/>
    <path id="Контур_1406" data-name="Контур 1406" d="M279.171,7856.754a18.932,18.932,0,0,1-9.526-2.98,11,11,0,0,1-5.756-9.095,13.667,13.667,0,0,1,.707-5.253l1.78.678c-.12.319-2.868,7.86,4.232,12.027,7.366,4.321,11.476,2.217,11.516,2.2l.9,1.681a8.625,8.625,0,0,1-3.851.747" fill="#0c618d"/>
  </g>
</svg>
