<svg xmlns="http://www.w3.org/2000/svg" width="95.908" height="95.907" viewBox="0 0 95.908 95.907">
  <g id="Сгруппировать_301" data-name="Сгруппировать 301" transform="translate(-552.103 -7793.968)">
    <path id="Контур_1423" data-name="Контур 1423" d="M647.082,7837.944v37.2H605.995V7870.9l3.665-3.109.445-5.045,4.663-.89s4.442-7.272-4.33-7.272c-.445-3.831.444-8.511-4.443-8.4v-8.239Z" fill="#aec7e1"/>
    <path id="Контур_1424" data-name="Контур 1424" d="M595.962,7803.855a.847.847,0,0,1-.495-1.535l3.651-2.624a8.729,8.729,0,0,1,5.035-1.632h11.938l4.1-4.1h12.99l4.344,4.344a.847.847,0,0,1-1.2,1.2l-3.848-3.848H620.889l-4.1,4.1h-12.64a7.061,7.061,0,0,0-4.019,1.294l-.019.014-3.66,2.629a.838.838,0,0,1-.493.16" fill="#0c618f"/>
    <path id="Контур_1425" data-name="Контур 1425" d="M632.827,7822.288H620.543a2.9,2.9,0,0,1-2.894-2.9v-4.1a.844.844,0,0,1,.247-.6l3.844-3.849v-6.994h-1.2a.847.847,0,1,1,0-1.694h2.048a.847.847,0,0,1,.848.847v8.191a.846.846,0,0,1-.248.6l-3.843,3.849v3.745a1.2,1.2,0,0,0,1.2,1.2h12.284a1.2,1.2,0,0,0,1.2-1.2v-3.745l-3.848-3.847a.85.85,0,0,1-.248-.6v-8.191a.847.847,0,0,1,.847-.847h2.049a.847.847,0,1,1,0,1.694h-1.2v6.994l3.848,3.848a.847.847,0,0,1,.248.6v4.1a2.9,2.9,0,0,1-2.895,2.9" fill="#0c618f"/>
    <rect id="Прямоугольник_381" data-name="Прямоугольник 381" width="40.963" height="1.694" transform="translate(606.201 7836.978)" fill="#0c618f"/>
    <path id="Контур_1426" data-name="Контур 1426" d="M647.163,7875.538H606.448a.847.847,0,1,1,0-1.694h40.715a.847.847,0,1,1,0,1.694" fill="#0c618f"/>
    <rect id="Прямоугольник_382" data-name="Прямоугольник 382" width="1.694" height="16.385" transform="translate(626.601 7848.066)" fill="#0c618f"/>
    <rect id="Прямоугольник_383" data-name="Прямоугольник 383" width="16.385" height="1.694" transform="translate(619.255 7855.411)" fill="#0c618f"/>
    <path id="Контур_1427" data-name="Контур 1427" d="M606.2,7843.53a.847.847,0,0,1-.847-.848v-6.905c0-5.263,4.492-8.13,8.1-10.433,2.154-1.375,4.187-2.671,4.187-3.9v-2.048a.847.847,0,1,1,1.694,0v2.048c0,2.162-2.3,3.631-4.969,5.332-3.43,2.189-7.318,4.671-7.318,9v6.905a.848.848,0,0,1-.848.848" fill="#0c618f"/>
    <path id="Контур_1428" data-name="Контур 1428" d="M607.048,7878.39v2.444a7.353,7.353,0,0,0,7.345,7.345h24.578a7.353,7.353,0,0,0,7.345-7.345v-45.057c0-4.336-3.888-6.816-7.318-9-2.667-1.7-4.97-3.172-4.97-5.332v-2.048a.847.847,0,1,1,1.694,0v2.048c0,1.232,2.034,2.529,4.187,3.9,3.61,2.3,8.1,5.169,8.1,10.433v45.057a9.051,9.051,0,0,1-9.04,9.041H614.393a9.05,9.05,0,0,1-9.038-9.041v-2.455" fill="#0c618f"/>
    <path id="Контур_1429" data-name="Контур 1429" d="M595.962,7812.47c-.58.667-1.49,1.763-2.392,3.045-1.9,2.7-2.905,4.987-2.905,6.608,0,2.545,2.375,4.615,5.3,4.615s5.3-2.07,5.3-4.615c0-1.625-1.008-3.917-2.917-6.626-.9-1.276-1.8-2.364-2.379-3.027m0,15.962c-3.856,0-6.992-2.829-6.992-6.309,0-4.689,6.116-11.228,6.375-11.5a.847.847,0,0,1,1.233,0c.26.276,6.376,6.815,6.376,11.5,0,3.48-3.137,6.309-6.992,6.309" fill="#0c618f"/>
    <path id="Контур_1430" data-name="Контур 1430" d="M606.2,7871.574H587.769a.847.847,0,0,1,0-1.694H606.2a3.38,3.38,0,0,0,3.249-3.416v-3.93a.848.848,0,0,1,1.7,0v3.93a5.1,5.1,0,0,1-4.944,5.11" fill="#0c618f"/>
    <path id="Контур_1431" data-name="Контур 1431" d="M612.345,7863.381H589.816a.847.847,0,0,1,0-1.694h22.529a3.249,3.249,0,1,0,0-6.5H589.816a.847.847,0,0,1,0-1.694h22.529a4.943,4.943,0,1,1,0,9.886" fill="#0c618f"/>
    <path id="Контур_1432" data-name="Контур 1432" d="M598.008,7879.766H567.477c-2.514,0-4.734-1.316-6.692-2.476-1.4-.833-2.731-1.62-3.738-1.62h-4.1a.847.847,0,1,1,0-1.694h4.1c1.472,0,2.993.9,4.6,1.856,1.857,1.1,3.777,2.241,5.828,2.241h30.531a3.381,3.381,0,0,0,3.249-3.417v-3.93a.848.848,0,0,1,1.7,0v3.93a5.1,5.1,0,0,1-4.944,5.11" fill="#0c618f"/>
    <path id="Контур_1433" data-name="Контур 1433" d="M610.3,7855.189h0a.848.848,0,0,1-.848-.848v-4.262a3.085,3.085,0,0,0-3.082-3.083H581.112a.844.844,0,0,1-.508-.169l-3.414-2.56a.849.849,0,0,1,.092-1.416c.071-.039,7.064-4,8.908-5.842a4.733,4.733,0,0,0,1.513-3.644,3.786,3.786,0,0,0-1.567-2.621c-4.021,1.8-14.9,5.032-15.756,5.284-.521.207-7.314,2.961-10.662,6.6a6.065,6.065,0,0,1-4.628,2.316.712.712,0,0,1-.091.005h-2.048a.847.847,0,1,1,0-1.694h2a4.416,4.416,0,0,0,3.519-1.775c3.733-4.055,11.017-6.921,11.325-7.042.022-.009.045-.016.066-.023.126-.038,12.505-3.7,16-5.41a.848.848,0,0,1,.85.061,5.606,5.606,0,0,1,2.679,4.142,6.423,6.423,0,0,1-2,5c-1.545,1.546-6.036,4.243-8.153,5.477l2.16,1.619h24.972a4.783,4.783,0,0,1,4.778,4.777v4.262a.848.848,0,0,1-.848.848" fill="#0c618f"/>
    <path id="Контур_1434" data-name="Контур 1434" d="M605.352,7878.471a.847.847,0,1,1,1.694,0" fill="#0c618f"/>
  </g>
</svg>
