<svg xmlns="http://www.w3.org/2000/svg" width="143.098" height="81.872" viewBox="0 0 143.098 81.872">
  <g id="Сгруппировать_293" data-name="Сгруппировать 293" transform="translate(-168.628 -7574.208)">
    <path id="Контур_1372" data-name="Контур 1372" d="M194.533,7647.325l4.94-.442,3.352,7.852h-3.352Z" fill="#acc5df"/>
    <path id="Контур_1373" data-name="Контур 1373" d="M251.256,7647.261l4.228-.378,2.868,6.719h-2.868Z" fill="#acc5df"/>
    <path id="Контур_1374" data-name="Контур 1374" d="M209.53,7647.263l4.414-.38,3,6.749h-3Z" fill="#acc5df"/>
    <path id="Контур_1375" data-name="Контур 1375" d="M263.736,7647.335l5.256-.453,3.566,8.037h-3.566Z" fill="#acc5df"/>
    <path id="Контур_1376" data-name="Контур 1376" d="M310.642,7630.041a1.294,1.294,0,0,1,1.006,1.719c-.105.291-2.483,6.682-6.986,6.682a4.982,4.982,0,0,1-1-.1c-4.152-.847-8.687-.8-13.485-.755-5.678.058-11.544.115-17.1-1.361a1.294,1.294,0,0,1,.664-2.5c5.222,1.386,10.912,1.33,16.416,1.276,4.94-.05,9.605-.1,14.027.8,1.954.4,3.551-1.953,4.393-3.546-4.712-1.189-6.206-3.661-7.777-6.265a24.08,24.08,0,0,0-2.042-3.01,1.295,1.295,0,0,1,2-1.648,26.907,26.907,0,0,1,2.26,3.32c1.608,2.664,2.771,4.589,7.632,5.389" fill="#0c618d"/>
    <path id="Контур_1377" data-name="Контур 1377" d="M277.527,7606.766a1.293,1.293,0,0,1,.1-1.828c7.826-7.01,13.211-2.834,17.964.851,3.015,2.337,5.859,4.545,9.311,4.293a1.353,1.353,0,0,1,1.386.924c.668,2.063-5.419,5.977-5.48,6.016a17.922,17.922,0,0,1-9.23,2.844c-3.452,0-7.318-1.251-11.146-5.018a1.294,1.294,0,1,1,1.814-1.845c3.408,3.353,7.191,4.738,11.238,4.114a17.989,17.989,0,0,0,9.014-4.6c-3.221-.6-5.893-2.668-8.493-4.685-4.712-3.653-8.437-6.538-14.65-.968a1.3,1.3,0,0,1-1.828-.1" fill="#0c618d"/>
    <path id="Контур_1378" data-name="Контур 1378" d="M298.656,7605.213a1.3,1.3,0,0,1-.066-1.83,17.565,17.565,0,0,0,1.346-1.629c-2.81-.015-5.456-1.268-7.857-2.4-2.155-1.02-4.191-1.983-6.136-2.06a1.295,1.295,0,0,1,.1-2.588c2.474.1,4.845,1.223,7.141,2.309,2.975,1.408,5.788,2.739,8.618,1.894a1.383,1.383,0,0,1,1.527.571c.9,1.456-1.95,4.71-2.846,5.673a1.3,1.3,0,0,1-1.83.065" fill="#0c618d"/>
    <path id="Контур_1379" data-name="Контур 1379" d="M185.521,7602.148a8.919,8.919,0,0,1-7.049,3.294,10.371,10.371,0,0,1-2.572-.328,9.4,9.4,0,0,1-7.14-7.2c-.741-4.159,1.755-6.745,4.388-7.386a5.222,5.222,0,0,1,6.416,3.661,1.295,1.295,0,0,1-2.472.77,2.661,2.661,0,0,0-3.331-1.915c-1.547.375-2.9,1.887-2.453,4.416a6.811,6.811,0,0,0,5.232,5.142,6.566,6.566,0,0,0,6.961-2.075,1.294,1.294,0,0,1,2.02,1.618" fill="#0c618d"/>
    <path id="Контур_1380" data-name="Контур 1380" d="M190.365,7632.589c4.042-3.32,2.313-9.575-.786-18.737-4.679-13.834-.787-25.887,10.674-33.068,9.639-6.037,23.589-8.041,38.27-5.5a81.32,81.32,0,0,1,42.743,22.077,1.294,1.294,0,0,1-1.816,1.844c-24.124-23.756-59.716-27.57-77.821-16.228-10.514,6.587-13.924,17.256-9.6,30.045,2.779,8.217,5.653,16.711.125,21.443-.424,2.006,3.6,13.3,7.957,19.024h1.3c-2.557-4.118-6.665-13.524,1.6-22.612,5.633-6.193,8.262-10.47,8.273-13.46a1.3,1.3,0,0,1,1.295-1.289h0a1.3,1.3,0,0,1,1.29,1.3c-.014,3.719-2.774,8.4-8.948,15.191-9.384,10.316-.43,20.871-.044,21.316a1.295,1.295,0,0,1-.977,2.144h-4.424a1.3,1.3,0,0,1-1.006-.479c-2.628-3.243-5.2-8.6-6.735-12.542-3.42-8.791-1.937-10.01-1.378-10.469" fill="#0c618d"/>
    <path id="Контур_1381" data-name="Контур 1381" d="M250.982,7630.657a52.037,52.037,0,0,1-16.29,2.8,43.22,43.22,0,0,1-18.823-4.472c-.776-.347-1.445-.647-2.027-.876a1.294,1.294,0,1,1,.947-2.408c.638.25,1.332.561,2.138.922,5.624,2.518,16.091,7.2,33.247,1.572a1.295,1.295,0,0,1,.808,2.46" fill="#0c618d"/>
    <path id="Контур_1382" data-name="Контур 1382" d="M218.139,7654.358a1.293,1.293,0,0,1-1.075.574h-3.17a1.3,1.3,0,0,1-.868-.335c-2.972-2.69-8.2-14.337-8.972-17.106a1.295,1.295,0,0,1,2.495-.694c.729,2.626,5.4,12.775,7.884,15.546h.773c-1.3-3.77-3.9-12.778-2.166-20.466a1.295,1.295,0,1,1,2.526.569c-2.033,9,2.649,20.585,2.7,20.7a1.291,1.291,0,0,1-.123,1.212" fill="#0c618d"/>
    <path id="Контур_1383" data-name="Контур 1383" d="M271.69,7620.327a1.292,1.292,0,0,1,.391,1.787c-8.083,12.606,1.7,31.881,1.8,32.076a1.294,1.294,0,0,1-1.15,1.887h-3.082a1.294,1.294,0,0,1-.935-.4c-9.4-9.844-14.2-25-14.4-25.641a1.3,1.3,0,0,1,.005-.784,19.717,19.717,0,0,0,.029-10.833,1.295,1.295,0,0,1,2.4-.962,22.116,22.116,0,0,1,.156,12.181c.787,2.354,5.355,15.273,13.305,23.852h.482c-2.391-5.42-8.2-21.209-.788-32.773a1.292,1.292,0,0,1,1.787-.39" fill="#0c618d"/>
    <path id="Контур_1384" data-name="Контур 1384" d="M249.062,7634.729a75.4,75.4,0,0,0,6.4,17.612h.411a31.969,31.969,0,0,1-.8-9.527,1.295,1.295,0,1,1,2.584.169,27.915,27.915,0,0,0,1.153,10.212,1.295,1.295,0,0,1-1.217,1.735H254.7a1.293,1.293,0,0,1-1.122-.648c-3.843-6.693-6.972-17.46-7.1-19.38a1.294,1.294,0,0,1,2.583-.173" fill="#0c618d"/>
    <path id="Контур_1385" data-name="Контур 1385" d="M291.452,7623.568a1.344,1.344,0,0,1,1.831,0,1.324,1.324,0,0,1,.383.919,1.295,1.295,0,1,1-2.214-.919" fill="#0c618d"/>
    <rect id="Прямоугольник_371" data-name="Прямоугольник 371" width="5.033" height="2.179" transform="matrix(1, -0.019, 0.019, 1, 194.763, 7646.214)" fill="#0c618d"/>
    <rect id="Прямоугольник_372" data-name="Прямоугольник 372" width="5.033" height="2.179" transform="matrix(1, -0.019, 0.019, 1, 209.858, 7646.214)" fill="#0c618d"/>
    <rect id="Прямоугольник_373" data-name="Прямоугольник 373" width="5.033" height="2.179" transform="matrix(1, -0.019, 0.019, 1, 251.363, 7646.214)" fill="#0c618d"/>
    <rect id="Прямоугольник_374" data-name="Прямоугольник 374" width="5.904" height="2.179" transform="translate(264.282 7646.214) rotate(-0.899)" fill="#0c618d"/>
  </g>
</svg>
