<svg xmlns="http://www.w3.org/2000/svg" width="107.719" height="102.247" viewBox="0 0 107.719 102.247">
  <g id="Сгруппировать_299" data-name="Сгруппировать 299" transform="translate(-906.078 -7554.53)">
    <path id="Контур_1407" data-name="Контур 1407" d="M907.77,7636.455s-2.148,18.4,11.145,19.018c4.908-.205,15.643-4.09,12.576-19.835a49.654,49.654,0,0,1-5.521,4.906l-5.419-3.68-7.158,3.68Z" fill="#acc5df"/>
    <path id="Контур_1408" data-name="Контур 1408" d="M922.253,7575.922h9.065a1.195,1.195,0,1,0,0-2.39h-6.751a22.322,22.322,0,0,1,5.251-3.806,1.194,1.194,0,0,0,.447-1.731c-2.655-3.939-2.9-5.945-2.684-6.23a1.975,1.975,0,0,1,1.451-.513,5.6,5.6,0,0,0,4.591-3.073c.292-.525.765-1.167,1.35-1.25a2.13,2.13,0,0,1,1.538.725c1.524,1.432,3.574,1.418,5.624-.036.483-.343,1.393-.883,2.061-.631a2.053,2.053,0,0,1,.971,1.3,5.033,5.033,0,0,0,3.76,3.479,1.756,1.756,0,0,1,1.226.647c.257.4-.591,2.39-2.813,4.234-2.8-2.477-6.4-3.866-11.649-2.917a1.195,1.195,0,1,0,.424,2.351c8.47-1.528,11.577,3.764,15.512,10.466,4.273,7.271,9.375,15.959,23.27,15.959a48.245,48.245,0,0,0,12.474-1.862,1.185,1.185,0,0,0,.631-.417l15.054-19.254,3.124,5.462-6.818,10.015a1.195,1.195,0,0,0,1.975,1.345l7.238-10.632a1.2,1.2,0,0,0,.05-1.265l-4.377-7.654a1.194,1.194,0,0,0-1.978-.143l-15.9,20.338c-21.634,5.7-27.248-3.86-32.677-13.1a47.234,47.234,0,0,0-4.671-6.982c2.551-2.184,4.409-5.261,3.146-7.232a4,4,0,0,0-2.81-1.705,2.7,2.7,0,0,1-1.93-1.91,4.148,4.148,0,0,0-2.388-2.757c-.9-.336-2.361-.448-4.284.921-1.632,1.158-2.342.492-2.608.243a4.193,4.193,0,0,0-3.505-1.351,4.293,4.293,0,0,0-3.1,2.451,3.286,3.286,0,0,1-2.58,1.85,4.1,4.1,0,0,0-3.235,1.4c-1.173,1.457-.549,4.138,1.856,7.981-1.794,1.067-5.165,3.341-6.405,5.972a1.2,1.2,0,0,0,1.081,1.7" fill="#0c618d"/>
    <path id="Контур_1409" data-name="Контур 1409" d="M1009.817,7585.359l-7.373,6.085a1.2,1.2,0,0,0,1.522,1.844l7.954-6.568a1.19,1.19,0,0,0,.4-1.212l-1.142-4.553a1.195,1.195,0,1,0-2.318.582Z" fill="#0c618d"/>
    <path id="Контур_1410" data-name="Контур 1410" d="M1012.6,7590.106a1.2,1.2,0,0,0-1.2,1.195v1.934l-7.732,4.032a1.192,1.192,0,0,0-.633.912c-.711,5.769-4.159,24.782-18.708,27.265a1.2,1.2,0,0,0,.2,2.373,1.235,1.235,0,0,0,.2-.017c15.666-2.673,19.668-21.88,20.6-28.7l7.821-4.077a1.2,1.2,0,0,0,.644-1.06V7591.3a1.2,1.2,0,0,0-1.2-1.195" fill="#0c618d"/>
    <path id="Контур_1411" data-name="Контур 1411" d="M991.705,7628.633a1.2,1.2,0,0,0-1.505.77c-.037.116-3.747,11.368-10.008,11.368a5.39,5.39,0,0,1-.719-.05c-3.77-.513-6.544-7.344-7.077-9.641a1.194,1.194,0,0,0-.988-.912A68.49,68.49,0,0,1,958.8,7626.5c-12.769-4.849-27.339-16.9-24.236-46.756a1.194,1.194,0,0,0-2.376-.248c-3.431,33.026,14.668,45.025,25.762,49.238a75.755,75.755,0,0,0,12.327,3.66c.818,2.709,3.367,8.8,7.6,10.369l-2.372,10.69h-7.437a1.194,1.194,0,1,0,0,2.388H985.45a1.194,1.194,0,1,0,0-2.388h-7.5l2.282-10.295c7.945-.023,12.063-12.469,12.243-13.022a1.2,1.2,0,0,0-.77-1.5" fill="#0c618d"/>
    <path id="Контур_1412" data-name="Контур 1412" d="M957.649,7645.622a1.194,1.194,0,0,0-1.668.271l-5.454,7.561h-4.071a1.194,1.194,0,1,0,0,2.388h13.675a1.194,1.194,0,0,0,0-2.388h-6.657l4.445-6.164a1.2,1.2,0,0,0-.27-1.668" fill="#0c618d"/>
    <path id="Контур_1413" data-name="Контур 1413" d="M992.421,7606.414a26.794,26.794,0,0,0-5.2-7.143,1.195,1.195,0,1,0-1.677,1.7,25.59,25.59,0,0,1,4.3,5.664c-8.008,6.837-19.714,7.364-27.363,4.268-5.267-2.132-8.421-5.77-8.656-9.98a1.195,1.195,0,1,0-2.386.132c.288,5.172,3.985,9.57,10.145,12.062a29.592,29.592,0,0,0,10.947,2.021,28.69,28.69,0,0,0,19.613-7.352,1.194,1.194,0,0,0,.276-1.374" fill="#0c618d"/>
    <path id="Контур_1414" data-name="Контур 1414" d="M969.5,7639.805a1.2,1.2,0,0,0-1.9-1.452c-2.119,2.774-4.607,4.139-6.651,3.65-2.863-.683-4.71-4.8-4.595-10.235a1.2,1.2,0,0,0-1.17-1.22h-.025a1.193,1.193,0,0,0-1.194,1.169c-.143,6.7,2.382,11.645,6.428,12.609a6.16,6.16,0,0,0,1.427.168c2.622,0,5.354-1.649,7.679-4.689" fill="#0c618d"/>
    <path id="Контур_1415" data-name="Контур 1415" d="M938.617,7570.966a1.185,1.185,0,0,0,.354-.848,1.173,1.173,0,0,0-.354-.842,1.236,1.236,0,0,0-1.689,0,1.2,1.2,0,0,0-.347.842,1.185,1.185,0,0,0,1.193,1.195,1.194,1.194,0,0,0,.843-.347" fill="#0c618d"/>
    <path id="Контур_1416" data-name="Контур 1416" d="M908.63,7637.86l4.547,3.835a1.2,1.2,0,0,0,1.371.12l6-3.487,4.459,3.7a1.2,1.2,0,0,0,1.583-.048l4.467-4.2a17.7,17.7,0,0,1,.171,2.468c0,7.795-5.1,14.139-11.377,14.139s-11.378-6.344-11.378-14.139a17.694,17.694,0,0,1,.162-2.39m11.216,18.917c7.592,0,13.767-7.414,13.767-16.527a19.6,19.6,0,0,0-.669-5.113,1.194,1.194,0,0,0-1.971-.559l-5.256,4.939-4.29-3.56a1.193,1.193,0,0,0-1.363-.114l-5.989,3.482-5.453-4.6a1.195,1.195,0,0,0-1.927.613,19.656,19.656,0,0,0-.617,4.91c0,9.113,6.178,16.527,13.768,16.527" fill="#0c618d"/>
    <path id="Контур_1417" data-name="Контур 1417" d="M910.626,7632.692a1.194,1.194,0,0,0,1.532-.716,8.834,8.834,0,0,1,1.484-2.6,1.2,1.2,0,0,0,.271-.758v-4.147a5.7,5.7,0,0,1,11.41,0v2.916a1.2,1.2,0,0,0,.414.9,8.924,8.924,0,0,1,2.256,3,1.195,1.195,0,1,0,2.169-1,11.37,11.37,0,0,0-2.451-3.429v-2.387h2.205a1.195,1.195,0,1,0,0-2.39H927.35a8.094,8.094,0,0,0-15.826,2.391v3.733a11.187,11.187,0,0,0-1.612,2.961,1.2,1.2,0,0,0,.714,1.531" fill="#0c618d"/>
    <path id="Контур_1418" data-name="Контур 1418" d="M919.92,7622.15a1.195,1.195,0,0,0,.848,2.037,1.177,1.177,0,0,0,.842-.352,1.182,1.182,0,0,0,0-1.685,1.231,1.231,0,0,0-1.69,0" fill="#0c618d"/>
  </g>
</svg>
