<svg xmlns="http://www.w3.org/2000/svg" width="59.78" height="41.938" viewBox="0 0 59.78 41.938">
  <g id="Сгруппировать_254" data-name="Сгруппировать 254" transform="translate(-612.637 -8798.16)">
    <path id="Контур_1200" data-name="Контур 1200" d="M642.527,8800.974a.828.828,0,0,1,.188.024l28.2,7.285v-1.262l-28.337-7.321-28.433,7.321v1.262l28.2-7.285a.813.813,0,0,1,.188-.024m-13.348,19.749h26.7v-1.315h-26.7Zm28.2,2.831H663.4v-6.015h-2.255v.187a.753.753,0,1,1-1.505,0v-.187h-2.254Zm-28.2,4.688h2.257v-2.258h-2.257Zm24.443,2.832h6.007v-6.016h-2.243v.189a.753.753,0,0,1-1.505,0v-.188h-2.259Zm7.519,0h6.007v-6.016H664.9v.189a.753.753,0,0,1-1.505,0v-.188h-2.255Zm-31.962.929h2.257v-2.256h-2.257Zm3.761,0H635.2v-2.256H632.94ZM617.9,8808.864v26.9h9.77v-17.105a.754.754,0,0,1,.752-.752h27.452v-1.116a.753.753,0,0,1,.753-.752h7.519a.752.752,0,0,1,.752.752v6.767h2.251v-14.687l-24.625-6.361Zm11.276,26.9h2.257v-2.254h-2.257Zm3.761,0H635.2v-2.254H632.94Zm3.759,0h2.256v-2.254H636.7Zm3.008-3.759a.753.753,0,0,1,.753.751v3.008h7.9v-3.934a.754.754,0,0,1,.754-.754h3v-6.768a.754.754,0,0,1,.753-.752h3.007v-1.329h-26.7v2.257h3.009a.752.752,0,0,1,.752.752v3.008h3.007a.753.753,0,0,1,.752.753V8832Zm10.16,6.592h6.005v-6.015h-2.254v.093a.779.779,0,0,1-.752.847.753.753,0,0,1-.753-.753v-.093l-.093-.094h-2.153Zm7.519,0h6.007v-6.015h-2.252v.093a.779.779,0,0,1-.752.847.754.754,0,0,1-.753-.753v-.093l-.093-.094h-2.157Zm7.512,0h6.014v-6.015h-2.254v.094a.779.779,0,0,1-.754.846.753.753,0,0,1-.752-.753v-.093l-.094-.094H664.9Zm-15.784,1.5a.755.755,0,0,1-.754-.752v-2.081H617.152a.754.754,0,0,1-.753-.752v-27.259l-2.821.729h-.088l-.12.023c-.082-.016-.142-.032-.2-.048s-.087-.028-.117-.04a.835.835,0,0,1-.126-.088.693.693,0,0,1-.1-.086.829.829,0,0,1-.07-.106.847.847,0,0,1-.075-.148l-.028-.093-.013-.112-.008-2.847a1.244,1.244,0,0,1,.043-.2.694.694,0,0,1,.046-.136.733.733,0,0,1,.067-.1.923.923,0,0,1,.107-.125.566.566,0,0,1,.109-.072.718.718,0,0,1,.143-.07l29.186-7.555a.762.762,0,0,1,.375,0l29.139,7.527c.088.04.135.064.189.095a.95.95,0,0,1,.112.076.846.846,0,0,1,.091.1.778.778,0,0,1,.08.12.37.37,0,0,1,.038.1.958.958,0,0,1,.041.184l.013,2.871-.021.083-.006.121c-.034.066-.051.1-.071.138a.724.724,0,0,1-.09.135l-.069.074a.8.8,0,0,1-.145.1l-.092.049a.708.708,0,0,1-.257.051.865.865,0,0,1-.187-.023l-2.82-.729-.005,21.818h3.012a.753.753,0,0,1,.752.754v7.519a.753.753,0,0,1-.752.752Z" fill="#6f6f6e"/>
    <path id="Контур_1201" data-name="Контур 1201" d="M633.881,8812.264h7.894v-2.257h-7.894Zm9.4,0h7.894v-2.257h-7.894Zm-10.152,1.5a.753.753,0,0,1-.751-.752v-3.761a.752.752,0,0,1,.751-.75h18.8a.753.753,0,0,1,.752.75v3.761a.753.753,0,0,1-.752.752Z" fill="#6f6f6e"/>
  </g>
</svg>
