<svg xmlns="http://www.w3.org/2000/svg" width="62.895" height="66.69" viewBox="0 0 62.895 66.69">
  <g id="Сгруппировать_251" data-name="Сгруппировать 251" transform="translate(-793.022 -8589.218)">
    <path id="Контур_1140" data-name="Контур 1140" d="M796.962,8604.284a12.557,12.557,0,0,0-3.65,8.728q-.011,5.808-.015,11.612-.006,15.012,0,30.023v.872h.986q23.235,0,46.466-.006a11.129,11.129,0,0,0,1.841-.137,16.067,16.067,0,0,0,9.362-4.79,12.58,12.58,0,0,0,3.661-8.719c.054-13.94.023-27.882.023-41.821m-.666-.966h.942v.79q0,20.974,0,41.948a12.764,12.764,0,0,1-3.052,8.172,16.065,16.065,0,0,1-10,5.634,10.2,10.2,0,0,1-1.77.138q-23.578.013-47.158.006h-.9v-.823q0-21.067.005-42.135a12.458,12.458,0,0,1,3.068-7.974" fill="#1d1d1b"/>
    <path id="Контур_1141" data-name="Контур 1141" d="M855.917,8589.218H808.669a15.646,15.646,0,0,0-15.647,15.646v41.043h60.166l2.424-9.328" fill="#fff"/>
    <path id="Контур_1142" data-name="Контур 1142" d="M793.3,8645.657h.986q23.235,0,46.467,0a11.127,11.127,0,0,0,1.84-.14,16.061,16.061,0,0,0,9.362-4.79,12.577,12.577,0,0,0,3.661-8.719c.054-13.939.023-27.88.023-41.819v-.718h-.884q-23.059,0-46.12.02a16.99,16.99,0,0,0-3.643.436,15.249,15.249,0,0,0-8.03,4.5,12.559,12.559,0,0,0-3.65,8.729q-.042,20.817-.012,41.634Zm-.276.25v-.823q0-21.067.005-42.135a12.454,12.454,0,0,1,3.068-7.974,15.718,15.718,0,0,1,9.356-5.457,13.679,13.679,0,0,1,2.707-.286q23.406-.028,46.813-.015h.942v.791q0,20.974,0,41.947a12.763,12.763,0,0,1-3.052,8.173,16.05,16.05,0,0,1-10,5.633,10.1,10.1,0,0,1-1.77.14q-23.578.01-47.158.006Z" fill="#1d1d1b"/>
    <path id="Контур_1143" data-name="Контур 1143" d="M823.579,8608.239c.891,0,1.743.049,2.585-.014a2.5,2.5,0,0,0,2.6-1.8,9.809,9.809,0,0,0,.171-4.584,2.754,2.754,0,0,0-.98-1.884c-1.3-1.013-2.852-.764-4.375-.822Zm-5.862,3.978v-17c.251-.01.474-.028.7-.028,2.827,0,5.654-.037,8.479.013a8.39,8.39,0,0,1,5.56,1.817,7.09,7.09,0,0,1,2.337,4.159,13.008,13.008,0,0,1-.117,5.706,7.116,7.116,0,0,1-5.968,5.107,56.536,56.536,0,0,1-6.993.222c-1.3.031-2.612.006-3.994.006" fill="#1d1d1b"/>
    <path id="Контур_1144" data-name="Контур 1144" d="M805.161,8602.481h9.1v.727c0,1.781-.073,3.565.029,5.341a1.856,1.856,0,0,1-1.156,1.91,16.6,16.6,0,0,1-9.756,1.99,9.2,9.2,0,0,1-5.511-2.036,7.469,7.469,0,0,1-2.428-3.914c-.75-3.046-.548-5.986,1.609-8.575a8.079,8.079,0,0,1,5.819-2.853,38.045,38.045,0,0,1,4.045-.118,7.678,7.678,0,0,1,5.383,1.884,6.624,6.624,0,0,1,1.713,2.919c-1.042.177-2.058.354-3.075.524-.689.116-1.376.256-2.07.329a.8.8,0,0,1-.635-.247c-1.025-2.173-4.384-1.947-5.8-.793a3.588,3.588,0,0,0-1.348,2.686,14.866,14.866,0,0,0,.254,3.872c.446,2.033,2.44,2.725,4.355,2.559a14.794,14.794,0,0,0,2.772-.771.666.666,0,0,0,.57-.79,8.354,8.354,0,0,1-.007-1.011c-1.087,0-2.135-.027-3.18.012-.556.019-.714-.146-.7-.636.04-.988.012-1.979.012-3.009" fill="#1d1d1b"/>
    <path id="Контур_1145" data-name="Контур 1145" d="M843.941,8602.479c1.053-.093,2.056-.117,3.027-.287a1.411,1.411,0,0,0,1.249-1.417c.031-1.019-.273-1.626-1.156-1.808a31.271,31.271,0,0,0-3.12-.335Zm-.025,3.4c0,1.967-.031,3.764.016,5.56.017.623-.153.82-.871.8-1.651-.054-3.307-.018-5.018-.018v-17c.168-.011.365-.032.561-.032,3.149,0,6.3-.058,9.443.027a9.724,9.724,0,0,1,3.219.664,4.287,4.287,0,0,1,2.7,3.8,5.694,5.694,0,0,1-.4,3.1,5.417,5.417,0,0,1-4.939,3.079c-1.54.108-3.1.02-4.709.02" fill="#1d1d1b"/>
    <path id="Контур_1146" data-name="Контур 1146" d="M798.016,8631.142c.843-.177,1.862.373,2.351-.528a2.551,2.551,0,0,0-.025-2.614c-.513-.817-1.492-.441-2.326-.5Zm-1.343-4.747c.908,0,1.781-.033,2.649.008a2.362,2.362,0,0,1,2.546,1.918,4.177,4.177,0,0,1,.028,1.947c-.323,1.341-1.138,1.862-2.823,1.95-.776.043-1.558.008-2.4.008Z" fill="#1d1d1b"/>
    <path id="Контур_1147" data-name="Контур 1147" d="M800.991,8621.039h-1.444v-.966h2.743c0,.7.019,1.376-.014,2.051a.639.639,0,0,1-.3.432,4.473,4.473,0,0,1-3.439.56,2.949,2.949,0,0,1,.86-5.8c1.664,0,2.347.4,2.851,1.684-.768.389-1.07.345-1.63-.239a2.107,2.107,0,0,0-2.337-.013c-.882.749-.783,3.021.662,3.348a2.282,2.282,0,0,0,1.751-.27c.179-.109.182-.452.3-.784" fill="#1d1d1b"/>
    <path id="Контур_1148" data-name="Контур 1148" d="M798.015,8638.131a9.932,9.932,0,0,0,1.724-.216.81.81,0,0,0,.412-.717.949.949,0,0,0-.641-.585,7.656,7.656,0,0,0-1.495-.028Zm-.025.938v2.181h-1.339v-5.843c1.245.068,2.5.078,3.729.233a1.7,1.7,0,0,1,1.19,1.877,1.92,1.92,0,0,1-1.768,1.548c-.571.021-1.143,0-1.812,0" fill="#1d1d1b"/>
    <path id="Контур_1149" data-name="Контур 1149" d="M822.141,8630.073h.012a5.383,5.383,0,0,0-.033-.554.794.794,0,0,0-.9-.726,1.57,1.57,0,0,0-.855.731c-.131.2-.03.52-.027.786a.979.979,0,0,0,.889,1.049c.58.023.878-.293.919-.979.006-.1,0-.205,0-.309m-1.927,1.688c.015.661-.5.435-.837.462-.463.037-.424-.27-.424-.544,0-1.591.018-3.182-.011-4.772-.009-.482.241-.532.667-.524s.786-.014.732.532a12.2,12.2,0,0,0-.009,1.25,4.634,4.634,0,0,1,1.511-.24,2.271,2.271,0,0,1,1.228.771,2.417,2.417,0,0,1-.255,3.087,1.975,1.975,0,0,1-2.6-.021" fill="#1d1d1b"/>
    <path id="Контур_1150" data-name="Контур 1150" d="M817.021,8621.023a2.406,2.406,0,0,0,0-.37c-.065-.422-.177-.812-.771-.855s-.989.168-1.032.719a3.652,3.652,0,0,0,.074,1.313c.059.2.45.407.716.438.739.093,1.018-.283,1.016-1.244m1.318-3.584c0,1.756,0,3.47,0,5.185,0,.161-.025.321-.041.532-.44-.131-1.053.342-1.184-.416-1.162.692-1.907.661-2.687-.121a2.461,2.461,0,0,1-.044-3.149,1.915,1.915,0,0,1,2.622-.206v-1.824Z" fill="#1d1d1b"/>
    <path id="Контур_1151" data-name="Контур 1151" d="M808.14,8639.284a3.446,3.446,0,0,0-.927.246c-.191.116-.261.4-.387.6.213.1.424.289.639.292.6.01.766-.283.675-1.141m-2.587-1.167c.362-.358.614-.8,1-.943a3.883,3.883,0,0,1,1.723-.174c.93.116,1.228.584,1.267,1.683.019.5-.011.993.019,1.487a9.877,9.877,0,0,0,.165,1.026c-.72.247-1.059.169-1.3-.329a2.025,2.025,0,0,1-2.483.087,1.139,1.139,0,0,1,.378-1.984c.43-.164.921-.2,1.359-.351.2-.07.342-.278.512-.422a4.647,4.647,0,0,0-.771-.342c-.108-.028-.289.1-.407.192-.454.341-.6.363-1.461.069" fill="#1d1d1b"/>
    <path id="Контур_1152" data-name="Контур 1152" d="M827.344,8631.839a5.484,5.484,0,0,1-1.108.38c-1.219.143-1.806-.385-1.9-1.635-.012-.165,0-.332,0-.5v-2.034h1.38c0,.847.011,1.709-.006,2.57-.009.433.107.751.66.732.521-.017.866-.23.863-.756-.005-.841,0-1.685,0-2.562H828.6c0,1.3.012,2.6-.021,3.892,0,.1-.3.267-.47.283-.339.033-.795.143-.768-.374" fill="#1d1d1b"/>
    <path id="Контур_1153" data-name="Контур 1153" d="M809.714,8620.985c.031,1.109.7,1.4,1.4,1.3s1.021-1.076.66-1.926a.981.981,0,0,0-1.492-.4,3.35,3.35,0,0,0-.568,1.032m3.585.05a2.423,2.423,0,1,1-2.414-2.229,2.391,2.391,0,0,1,2.414,2.229" fill="#1d1d1b"/>
    <path id="Контур_1154" data-name="Контур 1154" d="M804.458,8621.039c0,.883.283,1.239.991,1.248s1.105-.455,1.091-1.274c-.012-.789-.4-1.224-1.085-1.218-.71.006-1,.367-1,1.244m3.462-.021a2.4,2.4,0,0,1-2.395,2.258,2.348,2.348,0,0,1-2.431-2.213,2.42,2.42,0,0,1,4.826-.045" fill="#1d1d1b"/>
    <path id="Контур_1155" data-name="Контур 1155" d="M804.907,8630.914c.41-.052.768-.1,1.181-.15.242.6.806.688,1.424.582.175-.029.318-.224.476-.344a1.536,1.536,0,0,0-.389-.261c-.47-.142-.96-.234-1.43-.377-.78-.236-1.166-.659-1.144-1.207.02-.583.442-.993,1.259-1.192,1.165-.281,2.606.042,2.788,1.084a1.246,1.246,0,0,1-1.5-.167.987.987,0,0,0-1.373.308c.581.148,1.131.285,1.678.429,1.011.262,1.5.722,1.415,1.334a1.816,1.816,0,0,1-1.84,1.281c-1.584.026-2.074-.22-2.547-1.319" fill="#1d1d1b"/>
    <path id="Контур_1156" data-name="Контур 1156" d="M838.221,8630.155l-.1-.035a3.262,3.262,0,0,0,0-.494,1,1,0,0,0-1.61-.636,1.571,1.571,0,0,0-.047,2.172.993.993,0,0,0,1.336-.089,3.852,3.852,0,0,0,.426-.918m-1.1,2.082a2.081,2.081,0,0,1-2.319-2.2,2.174,2.174,0,0,1,2.4-2.161,2.238,2.238,0,0,1,2.31,2.257,2.184,2.184,0,0,1-2.394,2.1" fill="#1d1d1b"/>
    <path id="Контур_1157" data-name="Контур 1157" d="M828.641,8638.745c-.2-.538-.44-.968-1.043-.884a.787.787,0,0,0-.734.884Zm1.122.743h-2.9c-.048.058-.1.117-.146.174.223.244.4.621.679.693s.667-.159,1.014-.234c.4-.087.812-.149,1.275-.232-.277,1.463-1.85,1.631-2.82,1.3a2.117,2.117,0,0,1-1.283-2.693,2.175,2.175,0,0,1,2.249-1.544,2.064,2.064,0,0,1,1.927,2.534" fill="#1d1d1b"/>
    <path id="Контур_1158" data-name="Контур 1158" d="M841.711,8632.208h-1.243v-4.132c1.043-.155,1.088-.141,1.156.392a1.868,1.868,0,0,1,2.08-.446c.373.187.821.588.856.925a31.8,31.8,0,0,1,.04,3.246h-1.235c0-.81-.009-1.608,0-2.408.007-.493-.077-.943-.724-1.019-.481-.056-.913.437-.929,1.035-.021.781,0,1.564,0,2.407" fill="#1d1d1b"/>
    <path id="Контур_1159" data-name="Контур 1159" d="M814.8,8639.853c-.321,1.172-1.154,1.626-2.6,1.452a2.2,2.2,0,0,1,.219-4.347,1.881,1.881,0,0,1,2.256,1.409c-.5.026-.995.341-1.412-.252a.876.876,0,0,0-.758-.225,1.559,1.559,0,0,0-.7.741,1.391,1.391,0,0,0,0,.977,1.5,1.5,0,0,0,.7.795.771.771,0,0,0,.985-.436c.345-.6.853-.131,1.3-.115" fill="#1d1d1b"/>
    <path id="Контур_1160" data-name="Контур 1160" d="M825.017,8639.871c-.258,1.109-1.007,1.537-2.468,1.436a1.978,1.978,0,0,1-1.8-1.741,2.1,2.1,0,0,1,1.786-2.593,2.047,2.047,0,0,1,2.459,1.408c-.531-.021-1.041.379-1.471-.307a.82.82,0,0,0-1.363.272,3.155,3.155,0,0,0,.018,1.617.834.834,0,0,0,1.415.193c.4-.763.9-.408,1.429-.286" fill="#1d1d1b"/>
    <path id="Контур_1161" data-name="Контур 1161" d="M811.683,8631.238h.746c-.031.363.456.812-.3.981-.88.2-1.647-.093-1.718-.684-.1-.858-.13-1.722-.193-2.626-.121-.021-.29-.049-.482-.081v-.774l.5-.105c.071-.8.345-1.061,1.393-1.3v1.319l.78.054v.808l-.734.079Z" fill="#1d1d1b"/>
    <path id="Контур_1162" data-name="Контур 1162" d="M817.031,8635.748v1.307l.77.041v.82c-.227.02-.467.042-.742.069v2.3l.754.044c-.012.349.474.79-.286.963-.922.211-1.672-.1-1.737-.733-.086-.837-.111-1.681-.165-2.563-.7.061-.534-.417-.521-.815l.185.065a2.8,2.8,0,0,1,.4-.684c.342-.343.743-.637,1.12-.951Z" fill="#1d1d1b"/>
    <path id="Контур_1163" data-name="Контур 1163" d="M829.657,8629.016c-.133-.192-.369-.385-.37-.581s.234-.378.457-.524c-.123-.859.645-1,1.329-1.334v1.39c.3.024.54.041.811.064v.806c-.216.021-.457.043-.747.069v2.291c.4.087,1.069-.094.912.624-.023.105-.1.286-.16.29a4.065,4.065,0,0,1-1.447,0,1.174,1.174,0,0,1-.567-.875,19.92,19.92,0,0,1-.027-2.228l-.191.01" fill="#1d1d1b"/>
    <path id="Контур_1164" data-name="Контур 1164" d="M803.744,8637.391c.718-.552.862-.567,1.7-.173-.1.311-.214.631-.322.948-1.046-.223-1.334-.023-1.343.9-.006.6-.023,1.2.006,1.794.024.5-.326.456-.678.446-.33-.007-.709.086-.7-.425.017-1.233.006-2.469.006-3.756.473.017.959-.276,1.327.267" fill="#1d1d1b"/>
    <path id="Контур_1165" data-name="Контур 1165" d="M814.527,8632.17c-.258.029-.39.04-.521.059-.636.094-.895-.095-.861-.726.057-1.135.016-2.272.016-3.46.476.013.96-.256,1.34.257a1.2,1.2,0,0,1,1.676-.164c-.107.318-.209.625-.312.931-1.121-.179-1.295-.065-1.333.935-.027.718-.005,1.438-.005,2.169" fill="#1d1d1b"/>
    <path id="Контур_1166" data-name="Контур 1166" d="M818.541,8637.111h1.347c0,1.3.005,2.579,0,3.853,0,.482-.426.323-.711.336s-.634.088-.634-.346c0-1.274,0-2.548,0-3.843" fill="#1d1d1b"/>
    <path id="Контур_1167" data-name="Контур 1167" d="M833.872,8628.043v4.184a6.162,6.162,0,0,0-.65,0c-.485.055-.635-.122-.625-.558.028-1.2.01-2.392.01-3.63Z" fill="#1d1d1b"/>
    <rect id="Прямоугольник_334" data-name="Прямоугольник 334" width="1.147" height="4.165" transform="translate(802.997 8628.031)" fill="#1d1d1b"/>
    <rect id="Прямоугольник_335" data-name="Прямоугольник 335" width="1.162" height="4.131" transform="translate(816.638 8628.05)" fill="#1d1d1b"/>
    <path id="Контур_1168" data-name="Контур 1168" d="M832.659,8626.418h1.217v.97c-1.222.271-1.346.177-1.217-.97" fill="#1d1d1b"/>
    <path id="Контур_1169" data-name="Контур 1169" d="M819.161,8636.558c-.555.1-.616-.176-.638-.6-.029-.59.388-.465.764-.5.507-.047.6.161.617.575.02.534-.291.578-.743.524" fill="#1d1d1b"/>
    <rect id="Прямоугольник_336" data-name="Прямоугольник 336" width="1.143" height="1.01" transform="translate(816.654 8626.438)" fill="#1d1d1b"/>
    <rect id="Прямоугольник_337" data-name="Прямоугольник 337" width="1.156" height="1.029" transform="translate(802.989 8626.418)" fill="#1d1d1b"/>
    <path id="Контур_1170" data-name="Контур 1170" d="M823.579,8608.239v-9.106c1.523.059,3.071-.19,4.374.82a2.753,2.753,0,0,1,.98,1.884,9.8,9.8,0,0,1-.169,4.585,2.508,2.508,0,0,1-2.6,1.8c-.84.063-1.694.013-2.584.013" fill="#fff"/>
    <path id="Контур_1171" data-name="Контур 1171" d="M843.941,8602.479v-3.847a31.357,31.357,0,0,1,3.121.335c.882.181,1.185.789,1.154,1.808a1.41,1.41,0,0,1-1.248,1.417c-.971.17-1.973.194-3.027.287" fill="#fff"/>
    <path id="Контур_1172" data-name="Контур 1172" d="M798.015,8631.142V8627.5c.835.063,1.814-.314,2.328.5a2.558,2.558,0,0,1,.025,2.614c-.489.9-1.508.353-2.353.529" fill="#fff"/>
    <path id="Контур_1173" data-name="Контур 1173" d="M798.015,8638.132v-1.547a7.745,7.745,0,0,1,1.5.027.952.952,0,0,1,.641.587.809.809,0,0,1-.414.715,9.9,9.9,0,0,1-1.723.218" fill="#fff"/>
    <path id="Контур_1174" data-name="Контур 1174" d="M822.141,8630.074c0,.1,0,.205,0,.308-.041.686-.339,1-.918.979a.979.979,0,0,1-.889-1.048c-.005-.268-.1-.591.026-.789a1.584,1.584,0,0,1,.855-.732.8.8,0,0,1,.9.729c.028.181.023.367.033.553Z" fill="#fff"/>
    <path id="Контур_1175" data-name="Контур 1175" d="M817.022,8621.022c0,.963-.277,1.337-1.016,1.246-.267-.032-.658-.242-.716-.439a3.612,3.612,0,0,1-.076-1.313c.045-.551.437-.763,1.032-.719s.708.434.773.857a2.511,2.511,0,0,1,0,.368" fill="#fff"/>
    <path id="Контур_1176" data-name="Контур 1176" d="M808.14,8639.283c.091.858-.078,1.15-.675,1.143-.216,0-.426-.19-.639-.294.126-.206.2-.484.388-.6a3.5,3.5,0,0,1,.926-.246" fill="#fff"/>
    <path id="Контур_1177" data-name="Контур 1177" d="M809.714,8620.985a3.33,3.33,0,0,1,.568-1.032.981.981,0,0,1,1.492.4c.363.849.032,1.823-.661,1.926s-1.368-.187-1.4-1.3" fill="#fff"/>
    <path id="Контур_1178" data-name="Контур 1178" d="M804.458,8621.039c0-.877.287-1.238,1-1.244.686-.006,1.074.429,1.087,1.218.013.819-.383,1.284-1.093,1.273s-.989-.364-.99-1.247" fill="#fff"/>
    <path id="Контур_1179" data-name="Контур 1179" d="M838.221,8630.155a3.859,3.859,0,0,1-.426.919.994.994,0,0,1-1.336.088,1.57,1.57,0,0,1,.048-2.172,1,1,0,0,1,1.61.636,3.255,3.255,0,0,1,0,.494l.1.035" fill="#fff"/>
    <path id="Контур_1180" data-name="Контур 1180" d="M828.64,8638.745h-1.776a.785.785,0,0,1,.734-.884c.6-.085.843.346,1.042.884" fill="#fff"/>
    <path id="Контур_1181" data-name="Контур 1181" d="M837.67,8645.8H793.022v9.963h48.534s13.332-1.479,14.21-13.474v-12.328c-.46,17.845-18.1,15.839-18.1,15.839" fill="#1d1d1b"/>
    <text id="ready" transform="translate(797.151 8652.908)" fill="#fff" font-size="9.334" font-family="SegoeUI, Segoe UI"><tspan x="0" y="0" letter-spacing="-0.009em">r</tspan><tspan y="0">eady</tspan></text>
  </g>
</svg>
