<svg xmlns="http://www.w3.org/2000/svg" width="56.294" height="56.296" viewBox="0 0 56.294 56.296">
  <g id="Сгруппировать_255" data-name="Сгруппировать 255" transform="translate(-77.796 -8798.16)">
    <path id="Контур_1202" data-name="Контур 1202" d="M103.984,8821.654l-2.508.173-.209,2.575-1.653,1.895,1.676,1.97.17,2.508,2.579.21,1.893,1.65,1.97-1.673,2.508-.172.209-2.576,1.652-1.9-1.673-1.972-.173-2.5-2.577-.209-1.893-1.651Zm1.96,32.8a.825.825,0,0,1-.823-.823v-8.708l-4.537,4.538a.814.814,0,0,1-.582.242.824.824,0,0,1-.821-.824.812.812,0,0,1,.241-.581l5.7-5.7v-8.494l-1.756-1.5-2.339-.213L95,8838.41v8.06a.821.821,0,1,1-1.641,0v-6.416L87.2,8846.21a.818.818,0,0,1-1.162,0,.822.822,0,0,1,0-1.163l.107-.106v-.052l6.052-6H85.782a.822.822,0,1,1,0-1.644h8.062l6-6.007-.179-2.306-1.5-1.8H89.651l-5.7,5.7a.823.823,0,0,1-1.163-1.164l4.537-4.536H78.617a.822.822,0,0,1,0-1.645h8.708l-4.537-4.536a.822.822,0,1,1,1.165-1.161l5.7,5.7h8.5l1.5-1.757.213-2.339-6.018-6.021H85.782a.823.823,0,1,1,0-1.646H92.2l-6.157-6.154a.823.823,0,0,1,.583-1.405.806.806,0,0,1,.578.241l6.159,6.156v-6.415a.821.821,0,1,1,1.642,0v8.061l6.009,6.007,2.305-.18,1.8-1.5v-8.517l-5.7-5.7a.823.823,0,1,1,1.164-1.164l4.535,4.538v-8.71a.822.822,0,0,1,1.645,0v8.709l4.537-4.537a.822.822,0,0,1,1.161,1.164l-5.7,5.7v8.5l1.756,1.5,2.339.215,6.023-6.022v-8.059a.821.821,0,1,1,1.642,0v6.415l6.158-6.156a.819.819,0,0,1,1.163,0,.823.823,0,0,1,0,1.164l-6.158,6.154h6.418a.823.823,0,0,1,0,1.646h-8.06l-6.008,6.007.179,2.3,1.5,1.8h8.515l5.7-5.7a.822.822,0,0,1,1.4.583.812.812,0,0,1-.241.578l-4.537,4.538h8.708a.822.822,0,0,1,0,1.645h-8.708l4.537,4.537a.823.823,0,1,1-1.164,1.163l-5.7-5.7h-8.5l-1.5,1.757-.213,2.34,6.022,6.021h8.06a.823.823,0,0,1,.581,1.405.828.828,0,0,1-.581.238h-6.418l6.158,6.157a.822.822,0,1,1-1.162,1.164l-6.158-6.158v6.416a.822.822,0,1,1-1.644,0v-8.06l-6.007-6.008-2.305.181-1.805,1.5v8.515l5.7,5.7a.822.822,0,1,1-1.163,1.162l-4.537-4.535v8.706a.823.823,0,0,1-.821.823" fill="#6f6f6e"/>
    <path id="Контур_1203" data-name="Контур 1203" d="M105.944,8827.13a.822.822,0,1,1,.821-.823.824.824,0,0,1-.821.823" fill="#6f6f6e"/>
  </g>
</svg>
