<svg xmlns="http://www.w3.org/2000/svg" width="43.913" height="50.23" viewBox="0 0 43.913 50.23">
  <g id="Сгруппировать_252" data-name="Сгруппировать 252" transform="translate(-83.986 -8705.255)">
    <path id="Контур_1182" data-name="Контур 1182" d="M123.319,8706.519a3.319,3.319,0,0,0-3.317,3.316v2.528h6.632v-2.528a3.318,3.318,0,0,0-3.315-3.316m-15.007,33.171a4.107,4.107,0,1,0,4.106,4.105,4.11,4.11,0,0,0-4.106-4.105m0-1.264a5.365,5.365,0,0,1,3.068,9.771l-.068,1.285h4.266v-39.647a4.566,4.566,0,0,1,1.177-3.053l.237-.264H91.727a3.318,3.318,0,0,0-3.316,3.316v39.647h16.9v-1.155a5.653,5.653,0,0,1-2.37-4.532,5.376,5.376,0,0,1,5.371-5.369m-20.164-31.867a3.318,3.318,0,0,0-2.9,3.276v42.807h20.06v-1.9H87.777a.633.633,0,0,1-.632-.632v-40.279a4.582,4.582,0,0,1,1.141-3.015l.277-.313Zm23.166,46.083h7.423v-42.807a4.582,4.582,0,0,1,1.141-3.015l.276-.313-.414.052a3.319,3.319,0,0,0-2.9,3.276v40.279a.633.633,0,0,1-.632.632h-4.9Zm-4.739,1.335,1.538-.514.062,0a.66.66,0,0,1,.137-.019.7.7,0,0,1,.134.017l1.6.518v-5.095l-.2.061a5.328,5.328,0,0,1-3.068,0l-.2-.061Zm4.107,1.509a.687.687,0,0,1-.2-.033l-2.119-.707-2.217.707a.689.689,0,0,1-.2.033.66.66,0,0,1-.222-.046l-.067-.035a.674.674,0,0,1-.12-.082.524.524,0,0,1-.058-.057.532.532,0,0,1-.079-.116l-.044-.082-.031-.166-.013-1H84.618a.633.633,0,0,1-.632-.631v-43.439a4.586,4.586,0,0,1,4.581-4.58h34.752a4.585,4.585,0,0,1,4.58,4.58v3.159a.633.633,0,0,1-.632.632H120v39.648a.634.634,0,0,1-.633.631h-8.055v.947l-.022.094-.014.122-.029.046a.774.774,0,0,1-.1.152.373.373,0,0,1-.056.056.633.633,0,0,1-.123.082l-.073.038a.638.638,0,0,1-.214.043" fill="#6f6f6e"/>
    <path id="Контур_1183" data-name="Контур 1183" d="M93.306,8722.314a.632.632,0,0,1,0-1.265h17.376a.632.632,0,0,1,0,1.265Z" fill="#6f6f6e"/>
    <path id="Контур_1184" data-name="Контур 1184" d="M93.306,8727.052a.632.632,0,1,1,0-1.264h17.376a.632.632,0,1,1,0,1.264Z" fill="#6f6f6e"/>
    <path id="Контур_1185" data-name="Контур 1185" d="M93.306,8731.791a.632.632,0,1,1,0-1.264h17.376a.632.632,0,1,1,0,1.264Z" fill="#6f6f6e"/>
    <path id="Контур_1186" data-name="Контур 1186" d="M93.306,8736.53a.632.632,0,0,1,0-1.265h9.477a.632.632,0,1,1,0,1.265Z" fill="#6f6f6e"/>
    <path id="Контур_1187" data-name="Контур 1187" d="M108.312,8742.849a.947.947,0,1,0,.947.948.948.948,0,0,0-.947-.948m0,3.158a2.211,2.211,0,1,1,2.212-2.21,2.214,2.214,0,0,1-2.212,2.21" fill="#6f6f6e"/>
  </g>
</svg>
