<svg xmlns="http://www.w3.org/2000/svg" width="55.613" height="55.613" viewBox="0 0 55.613 55.613">
  <g id="Сгруппировать_276" data-name="Сгруппировать 276" transform="translate(-122.828 -2979.97)">
    <circle id="Эллипс_10" data-name="Эллипс 10" cx="27.806" cy="27.806" r="27.806" transform="translate(122.828 2979.97)" fill="#fff"/>
    <g id="Сгруппировать_275" data-name="Сгруппировать 275">
      <path id="Контур_1247" data-name="Контур 1247" d="M150.634,2981.488l-.677.01-.672.022-.672.045-.665.058-.66.08-.653.092-.65.1-.644.125-.638.141-.637.154-.626.172-.62.183-.614.2-.61.213-.6.229-.6.245-.586.255-.58.268-.573.289-.562.294-.552.312-.552.327-.537.334-.53.348-.526.363-.505.375-.506.384-.49.4-.485.409-.473.417-.463.43-.453.446-.44.45-.433.463-.421.473-.41.48-.4.494-.385.5-.371.507-.363.52-.347.53-.338.54-.326.543-.307.556-.3.561-.284.573-.272.577-.258.586-.241.592-.23.6-.218.607-.2.613-.19.618-.17.627-.155.634-.138.639-.124.641-.112.649-.089.652-.076.658-.062.666-.04.668-.024.67-.012.677.012.676.024.677.04.666.062.662.076.659.089.653.112.65.124.641.138.64.155.633.17.625.19.622.2.614.218.6.23.6.241.59.258.585.272.578.284.573.3.561.307.556.326.545.338.539.347.53.363.518.371.51.385.5.4.493.41.483.421.472.433.461.44.45.453.445.463.431.473.416.485.41.49.4.506.385.505.374.526.363.53.349.537.338.552.321.552.312.562.3.573.289.58.267.586.256.6.244.6.231.61.213.614.2.62.189.626.167.637.154.638.141.644.125.65.11.653.092.66.074.665.061.672.041.672.023.677.011.679-.011.672-.023.672-.041.665-.061.661-.074.653-.092.648-.11.649-.125.637-.141.631-.154.632-.167.618-.189.615-.2.611-.213.6-.231.6-.244.586-.256.578-.267.57-.289.567-.3.553-.312.549-.321.539-.338.53-.349.518-.363.517-.374.5-.385.49-.4.485-.41.475-.416.462-.431.452-.445.442-.45.431-.461.419-.472.411-.483.394-.493.391-.5.371-.51.365-.518.346-.53.335-.539.328-.545.308-.556.3-.561.282-.573.275-.578.257-.585.242-.59.227-.6.217-.6.2-.614.186-.622.168-.625.161-.633.137-.64.124-.641.108-.65.089-.653.078-.659.06-.662.044-.666.022-.677.009-.676-.009-.677-.022-.67-.044-.668-.06-.666-.078-.658-.089-.652-.108-.649-.124-.641-.137-.639-.161-.634-.168-.627-.186-.618-.2-.613-.217-.607-.227-.6-.242-.592-.257-.586-.275-.577-.282-.573-.3-.561-.308-.556-.328-.543-.335-.54-.346-.53-.365-.52-.371-.507-.391-.5-.394-.494-.411-.48-.419-.473-.431-.463-.442-.45-.452-.446-.462-.43-.475-.417-.485-.409-.49-.4-.5-.384-.517-.375-.518-.363-.53-.348-.539-.334-.549-.327-.553-.312-.567-.294-.57-.289-.578-.268-.586-.255-.6-.245-.6-.229-.611-.213-.615-.2-.618-.183-.632-.172-.631-.154-.637-.141-.649-.125-.648-.1-.653-.092-.661-.08-.665-.058-.672-.045-.672-.022Z" fill="#192a67"/>
      <path id="Контур_1248" data-name="Контур 1248" d="M140.332,3003.607l-.074.011-.069.021-.08.027-.083.035-.083.039-.09.046-.093.053-.093.056-.046.034-.053.039-.046.039-.051.046-.05.051-.05.053-.05.058-.051.061-.047.066-.054.068-.047.074-.053.079-.05.082-.055.084-.05.091-.052.094-.045.085-.047.095-.044.092-.047.1-.047.1-.045.1-.047.1-.045.115-2.687,6.854h-1.2l-3.539-7.208-.015-.04-.017-.037-.016-.039L131,3005.2l-.022-.043-.016-.04-.017-.036-.016-.037-.013-.017-.009-.012L130.9,3005v-.026l-.057-.121-.062-.122-.059-.118-.069-.116-.069-.114-.072-.111-.076-.109-.08-.106-.043-.051-.047-.048-.046-.045-.055-.042-.05-.039-.062-.036-.061-.034-.066-.03-.069-.026-.074-.021-.076-.02-.078-.017-.088-.012-.085-.016-.091-.007-.09,0v-.512h5.481v.512l-.118.014-.116.023-.11.023-.106.033-.1.031-.095.037-.085.043-.08.044-.041.027-.036.023-.033.03-.031.034-.028.035-.025.036-.024.038-.021.039-.019.044-.017.043-.012.046-.009.049-.009.054-.007.053,0,.056v.1l0,.052.011.048.014.049.017.058.012.051.017.058.019.056.012.022.014.023.009.023.009.024.005.024.014.026.009.027.017.027.019.042.019.044.021.041.017.044,2.165,4.381,1.513-3.885.014-.026.009-.022,0-.024.005-.026.05-.114.047-.118.045-.12.042-.121.019-.062.012-.065.015-.068.012-.065.007-.065.006-.071,0-.068.005-.067-.005-.055v-.051l-.007-.046-.005-.044-.006-.046-.009-.042-.015-.041-.012-.041-.017-.036-.016-.041-.022-.037-.019-.033-.023-.033-.021-.03-.03-.035-.027-.025-.055-.051-.064-.052-.063-.046-.061-.043-.07-.035-.066-.036-.072-.032-.073-.026-.082-.032-.083-.027-.078-.019-.079-.011-.078-.01-.066-.014-.063-.01-.057,0v-.512h3.815Z" fill="#fff"/>
      <path id="Контур_1249" data-name="Контур 1249" d="M148.025,3012.055l.177-.021.163-.023.077-.011.073-.016.072-.015.063-.018.06-.019.061-.017.052-.02.053-.018.045-.023.05-.023.037-.022.036-.024.034-.028.033-.028.026-.035.031-.034.024-.04.021-.044.019-.044.021-.051.017-.054.015-.051.012-.06.009-.064.006-.064.007-.067,0-.072v-6.436l0-.074-.007-.065-.006-.065-.009-.062-.012-.059-.015-.059-.017-.051-.021-.052-.019-.045-.021-.04-.024-.042-.031-.036-.026-.037-.033-.028-.034-.028-.036-.026-.037-.022-.05-.023-.045-.023-.053-.019-.052-.021-.061-.016-.06-.016-.063-.017-.072-.018-.073-.012-.077-.01-.163-.025-.177-.014v-.512h5.295v.512l-.179.014-.171.025-.074.01-.073.012-.074.018-.066.017-.061.016-.057.016-.055.021-.05.019-.05.023-.042.023-.041.022-.031.026-.036.028-.031.028-.026.037-.028.036-.026.042-.019.04-.018.045-.02.052-.016.051-.017.059-.009.059-.009.062-.009.065,0,.065-.005.074v6.436l.005.072,0,.067.009.064.009.064.009.06.017.051.016.054.02.051.018.044.019.044.026.04.028.034.026.035.031.028.036.028.031.024.041.022.042.023.05.023.05.018.055.02.057.017.061.019.066.018.074.015.073.016.074.011.171.023.179.021v.509h-5.295Z" fill="#fff"/>
      <path id="Контур_1250" data-name="Контур 1250" d="M170.668,3003.086l.353,3.244h-.868l-.04-.121-.042-.12-.047-.116-.045-.111-.055-.106-.05-.108-.055-.1-.054-.1-.062-.1-.064-.092-.059-.089-.069-.09-.069-.084-.069-.081-.074-.08-.073-.075-.076-.072-.074-.068-.076-.068-.078-.065-.076-.064-.08-.058-.076-.056-.081-.053-.078-.054-.08-.049-.081-.046-.077-.043-.083-.041-.085-.036-.078-.037-.083-.035-.064-.025-.061-.023-.064-.019-.064-.019-.061-.017-.066-.017-.066-.017-.061-.012-.066-.011-.066-.011-.062-.01-.063,0-.057-.009-.064,0-.059-.005h-.057l-.076.005-.074.005-.071.007-.069.01-.071.01-.066.017-.072.018-.066.017-.063.021-.067.024-.063.025-.062.025-.063.031-.064.033-.057.035-.059.039-.059.041-.057.038-.055.041-.057.046-.052.052-.055.049-.055.053-.05.056-.052.056-.047.06-.045.064-.05.06-.047.071-.047.065-.04.073-.045.073-.042.075-.043.075-.04.083-.034.083-.039.085-.034.085-.036.093-.031.092-.033.093-.031.1-.032.1-.025.1-.024.1-.025.107-.026.109-.022.112-.021.114-.019.117-.014.12-.019.118-.017.127-.012.124-.014.134-.013.129-.017.269-.014.281-.013.29,0,.3,0,.206.013.2.007.1.006.095.009.094.012.095.015.092.012.093.017.086.017.091.021.084.019.087.019.083.023.081.03.083.025.078.024.079.031.076.031.075.033.074.032.076.037.07.036.07.036.067.04.072.042.062.045.065.041.062.047.062.044.06.051.058.05.056.054.056.052.054.053.053.055.049.061.046.057.046.062.043.063.044.059.041.07.036.063.041.069.032.072.034.071.032.074.032.076.025.076.027.078.024.076.025.082.018.081.02.085.017.082.011.089.017.09.01.088.01.09.009.095.005.093,0,.1.005.123-.007.123-.01.123-.013.12-.022.119-.021.118-.027.119-.028.116-.037.113-.04.114-.043.11-.049.111-.052.11-.058.106-.06.109-.065.1-.072.1-.066.1-.073.1-.075.095-.076.093-.077.09-.079.091-.079.085-.083.08-.081.081-.083.078-.085.073-.086.072-.087.073-.09.066-.091.064-.091h.156l.524.37-.092.141-.095.137-.1.132-.1.13-.1.125-.1.118-.1.117-.11.112-.111.1-.114.1-.114.1-.118.093-.121.09-.121.085-.125.08-.128.075-.131.073-.135.065-.137.063-.142.06-.147.053-.155.044-.153.046-.159.037-.163.036-.169.03-.173.027-.177.019-.178.017-.185.01-.188.007-.194,0-.154.014-.1-.005-.1,0-.1-.006-.1-.01-.1,0-.1-.014-.106-.008-.108-.013-.1-.014-.11-.014-.106-.016-.106-.02-.109-.019-.1-.019-.11-.023-.109-.023-.173-.051-.169-.052-.171-.056-.168-.066-.163-.068-.166-.073L164,3012.3l-.159-.085-.158-.092-.157-.1-.156-.1-.152-.11-.152-.114-.147-.119-.149-.125-.145-.131-.073-.066-.069-.071-.067-.073-.065-.073-.057-.075-.064-.076-.057-.079-.054-.083-.055-.081-.05-.085-.051-.089-.044-.086-.047-.09-.038-.095-.04-.092-.041-.1-.031-.1-.034-.1-.031-.1-.031-.1-.025-.106-.022-.106-.025-.109-.015-.113-.021-.114-.012-.119-.013-.113-.008-.12-.007-.12-.011-.126,0-.121v-.277l0-.145.011-.145.012-.144.009-.141.016-.138.02-.136.019-.133.025-.135.028-.128.028-.13.031-.128.038-.121.039-.127.04-.119.044-.118.047-.114.05-.117.051-.112.056-.11.06-.109.061-.1.061-.107.064-.1.072-.1.074-.1.075-.1.078-.093.079-.092.082-.093.091-.087.09-.087.09-.083.093-.082.093-.078.092-.077.095-.074.1-.07.1-.069.095-.065.1-.062.1-.061.1-.055.1-.057.1-.053.1-.05.1-.045.11-.044.1-.04.11-.037.111-.037.11-.034.112-.032.111-.026.114-.027.114-.023.116-.02.114-.017.118-.012.119-.013.118-.012.121,0,.12-.005.123,0h.157l.141,0,.14.005.137.01.135.01.128.013.124.017.122.024.119.022.116.023.112.027.108.025.11.025.1.026.1.027.1.03.1.026.053.016.05.018.05.013.047.018.045.019.046.016.045.017.051.013.1.034.091.031.078.026.069.025.062.018.056.014.057.014.055.009h.064l.061-.009.055-.014.054-.02.047-.022.041-.032.044-.031.038-.037.036-.043.034-.044.023-.048.021-.046.021-.049.012-.054.015-.053,0-.056,0-.056h.76Z" fill="#fff"/>
      <path id="Контур_1251" data-name="Контур 1251" d="M156.2,2987.98l-.074.013-.071.02-.078.026-.083.034-.083.039-.09.045-.093.054-.094.058-.046.035-.051.036-.047.043-.053.046-.047.049-.05.053-.05.056-.051.064-.05.065-.05.067-.053.073-.052.08-.05.082-.055.085-.046.09-.056.092-.044.091-.045.088-.047.1-.044.094-.047.1-.045.107-.047.11-.045.111-2.689,6.855h-1.2l-3.537-7.212-.017-.037-.016-.039-.015-.037-.019-.042-.024-.041-.016-.042-.015-.038-.016-.036-.013-.011-.012-.016,0-.019v-.025l-.057-.123-.062-.118-.061-.119-.066-.114-.066-.116-.074-.111-.077-.109-.079-.11-.042-.049-.049-.045-.047-.046-.054-.043-.055-.037-.061-.036-.057-.033-.066-.031-.071-.027-.072-.021-.078-.02-.08-.019-.083-.014-.085-.01-.088-.01-.093,0v-.514h5.481v.514l-.118.018-.119.019-.111.022-.1.032-.1.031-.091.039-.088.04-.085.046-.035.028-.036.026-.034.028-.036.03-.023.036-.025.037-.024.037-.023.038-.017.043-.017.046-.012.046-.014.048-.005.052-.007.051,0,.056,0,.06,0,.044.007.045.009.049.014.054.012.052.017.058.017.055.014.057.017.019.012.021.009.025.009.025.007.023.009.025.015.031.018.026.015.043.021.044.021.041.017.044,2.164,4.38,1.514-3.883.014-.027.009-.021,0-.024,0-.026.052-.115.047-.118.044-.121.041-.125.021-.06.013-.063.014-.064.012-.07.007-.065.007-.066,0-.072,0-.073,0-.049,0-.051-.005-.045-.007-.044,0-.049-.009-.042-.014-.043-.013-.038-.017-.041-.016-.035-.022-.037-.019-.033-.023-.035-.021-.032-.026-.031-.031-.031-.059-.051-.06-.051-.063-.041-.064-.044-.066-.038-.071-.034-.066-.031-.074-.031-.082-.03-.083-.026-.08-.02-.079-.016-.076-.01L152.5,2988l-.059-.01-.057-.009v-.514H156.2Z" fill="#fff"/>
      <path id="Контур_1252" data-name="Контур 1252" d="M154.942,3018.691l.355,3.241h-.862l-.044-.118-.043-.119-.047-.117-.047-.111-.052-.11-.051-.1-.057-.1-.054-.1-.062-.1-.059-.093-.063-.092-.064-.084-.072-.088-.069-.081-.071-.077-.074-.076-.073-.072-.079-.068-.078-.072-.078-.062-.074-.063-.078-.059-.08-.056-.08-.055-.079-.052-.078-.049-.08-.046-.083-.046-.083-.038-.078-.041-.08-.037-.083-.031-.064-.024-.061-.021-.064-.023-.061-.019-.066-.019-.064-.018-.066-.011-.063-.012-.066-.016-.061-.009-.064-.008-.062,0-.061-.007-.061,0-.06,0h-.059l-.074,0-.071,0-.072.01-.073.007-.071.011-.067.016-.069.014-.069.021-.063.021-.064.023-.066.024-.062.029-.063.031-.057.034-.061.034-.059.037-.06.039-.057.043-.054.04-.058.046-.054.052-.055.049-.055.053-.047.056-.046.057-.053.06-.047.06-.047.063-.044.066-.047.07-.045.067-.044.078-.043.073-.04.078-.038.08-.04.084-.038.083-.036.089-.032.09-.035.093-.031.095-.032.1-.025.1-.031.1-.024.1-.023.107-.026.108-.021.114-.02.115-.018.116-.022.118-.016.122-.017.125-.012.125-.014.128-.011.134-.019.269-.014.283,0,.285-.005.3.005.2,0,.2.007.1.009.094.008.095.009.095.015.093.012.086.017.092.019.089.019.087.019.081.024.089.021.082.026.077.025.083.028.074.026.081.033.075.028.074.036.072.036.074.035.067.038.071.042.065.039.068.044.066.043.06.045.06.05.063.047.056.05.058.052.054.051.056.059.051.054.05.057.047.057.046.064.043.064.044.061.039.066.039.064.036.071.037.069.034.074.031.071.031.074.026.076.025.08.025.076.021.08.023.083.018.083.014.085.017.085.016.088.012.09.01.093.007.092.006.1.005h.095l.125,0,.121-.01.123-.017.123-.017.116-.022.119-.026.116-.034.116-.032.116-.04.111-.042.114-.052.106-.051.109-.056.11-.061.1-.065.106-.07.1-.072.1-.072.1-.074.095-.075.093-.08.092-.075.089-.083.084-.079.081-.083.083-.084.076-.081.075-.091.072-.085.071-.091.069-.091.062-.093h.157l.527.369-.094.146-.095.136-.095.133-.1.13-.1.12-.1.125-.109.116-.106.107-.112.109-.112.1-.116.1-.118.095-.123.091-.121.083-.125.081-.122.076-.136.07-.13.067-.142.064-.142.056-.147.053-.152.048-.156.044-.159.038-.163.036-.166.031-.176.024-.173.022-.181.014-.186.012-.187.007-.193,0-.154.015-.1-.006-.1,0-.1-.007-.1-.007-.1,0-.1-.012-.106-.013-.1-.01-.106-.014-.112-.015-.1-.017-.106-.018-.106-.018-.109-.02-.106-.024-.11-.027-.171-.045-.17-.052-.174-.06-.166-.062-.166-.069-.163-.076-.159-.079-.163-.085-.158-.093-.155-.1-.156-.1-.153-.108-.151-.112-.149-.119-.147-.125-.148-.132-.071-.065-.066-.07-.066-.074-.069-.072-.061-.076-.06-.079-.056-.078-.055-.081-.055-.081-.052-.085-.051-.089-.044-.085-.043-.093-.044-.093-.038-.093-.038-.1-.036-.1-.031-.1-.032-.1-.025-.1-.026-.109-.026-.1-.02-.114-.02-.109-.016-.115-.017-.116-.009-.118-.009-.118-.009-.118-.009-.126v-.4l0-.149.007-.14.009-.147.014-.138.015-.137.017-.137.024-.136.023-.131.025-.131.028-.13.036-.125.036-.125.036-.121.044-.119.04-.119.047-.119.05-.111.053-.112.054-.113.062-.106.057-.109.069-.1.066-.1.066-.1.074-.1.076-.095.076-.1.082-.091.082-.088.086-.091.09-.084.093-.082.092-.083.093-.08.093-.075.1-.074.092-.072.1-.065.1-.066.1-.062.1-.061.1-.058.1-.053.1-.054.106-.049.1-.046.108-.043.109-.041.108-.042.111-.036.109-.032.112-.031.114-.024.111-.027.114-.023.114-.019.118-.018.117-.014.118-.01.118-.012.119-.005.12-.008h.277l.147,0,.14.005.135.005.137.015.129.011.123.017.123.02.116.023.116.028.112.026.108.022.11.029.1.027.1.026.1.027.1.03.053.014.054.015.047.017.047.017.045.019.047.017.045.013.047.017.1.035.093.029.078.027.066.021.064.02.054.017.06.014.052.01h.064l.061-.01.055-.017.052-.016.05-.023.047-.031.041-.032.036-.037.037-.043.032-.046.023-.045.026-.05.019-.051.014-.049.009-.053,0-.057.005-.056h.756Z" fill="#fff"/>
      <path id="Контур_1253" data-name="Контур 1253" d="M141.37,2995.284l0,.044-.007.041-.009.043-.017.039-.016.041-.021.037-.03.032-.026.029-.033.031-.031.022-.038.024-.036.019-.04.011-.043.011-.042.007-.047,0H139.14l1.268,1.267.027.034.026.036.026.037.017.038.012.04.009.042.007.039,0,.044,0,.044-.007.038-.009.043-.012.039-.017.039-.026.037-.026.037-.027.033-.034.03-.038.026-.033.02-.043.019-.038.015-.038.01-.044.005h-.083l-.043-.005-.037-.01-.041-.015-.038-.019-.04-.02-.035-.026-.032-.03-1.267-1.269v1.792l0,.041-.006.044-.009.044-.017.038-.017.042-.023.036-.025.032-.026.03-.028.031-.038.025-.036.021-.036.019-.04.013-.042.015-.045.005h-.085l-.045-.005-.042-.015-.04-.013-.036-.019-.036-.021-.038-.025-.027-.031-.03-.03-.026-.032-.021-.036-.016-.042-.017-.038-.009-.044-.007-.044,0-.041v-1.792l-1.267,1.269-.034.03-.038.026-.036.02-.037.019-.041.015-.038.01-.044.005h-.081l-.044-.005-.038-.01-.045-.015-.036-.019-.038-.02-.035-.026-.032-.03-.027-.033-.028-.037-.024-.037-.017-.039-.012-.039-.009-.043-.006-.038,0-.044,0-.044.006-.039.009-.042.012-.04.017-.038.024-.037.028-.036.027-.034,1.268-1.267h-1.791l-.047,0-.043-.007-.042-.011-.04-.011-.036-.019-.038-.024-.031-.022-.034-.031-.025-.029-.028-.032-.021-.037-.018-.041-.016-.039-.009-.043-.007-.041,0-.044,0-.046.007-.044.009-.037.016-.044.018-.037.021-.037.028-.031.025-.034.034-.026.031-.028.038-.019.036-.02.04-.017.042-.01.043,0,.047-.005h1.791l-1.268-1.267-.027-.031-.028-.037-.024-.037-.017-.038-.012-.041-.009-.039-.006-.044,0-.041,0-.041.006-.041.009-.041.012-.039.017-.039.024-.036.028-.037.027-.034.032-.028.035-.027.038-.021.036-.018.045-.015.038-.01.044,0,.039-.005.042.005.044,0,.038.01.041.015.037.018.036.021.038.027.034.028,1.267,1.266v-1.79l0-.046.007-.043.009-.042.017-.038.016-.039.021-.034.026-.035.03-.033.027-.027.038-.024.036-.024.036-.017.04-.014.042-.014.045,0,.041-.005.044.005.045,0,.042.014.04.014.036.017.036.024.038.024.028.027.026.033.025.035.023.034.017.039.017.038.009.042.006.043,0,.046v1.79l1.267-1.266.032-.028.035-.027.04-.021.038-.018.041-.015.037-.01.043,0,.045-.005.038.005.044,0,.038.01.038.015.043.018.033.021.038.027.034.028.027.034.026.037.026.036.017.039.012.039.009.041.007.041,0,.041,0,.041-.007.044-.009.039-.012.041-.017.038-.026.037-.026.037-.027.031-1.268,1.267h1.791l.047.005.042,0,.043.01.04.017.036.02.038.019.031.028.033.026.026.034.03.031.021.037.016.037.017.044.009.037.007.044Z" fill="#fff"/>
      <path id="Контур_1254" data-name="Контур 1254" d="M141.453,3020.369l0,.046-.007.044-.009.04-.017.042-.016.036-.021.037-.03.032-.026.032-.033.028-.031.026-.038.022-.036.017-.04.017-.043.01-.042,0-.047.005h-1.791l1.268,1.266.027.032.026.036.026.037.016.039.013.041.009.038.007.044,0,.041,0,.041-.007.042-.009.04-.013.041-.016.037-.026.041-.026.031-.027.035-.034.028-.038.026-.033.022-.043.017-.038.015-.038.009-.044.005-.038.005-.045-.005-.043-.005-.037-.009-.041-.015-.038-.017-.04-.022-.035-.026-.032-.028-1.267-1.267v1.79l0,.046-.006.043-.009.042-.017.041-.017.037-.023.033-.025.037-.026.032-.028.024-.038.027-.036.023-.036.017-.04.016-.042.012-.045,0-.044,0-.041,0-.045,0-.042-.012-.04-.016-.036-.017-.036-.023-.038-.027-.027-.024-.03-.032-.026-.037-.021-.033-.016-.037-.017-.041-.009-.042-.007-.043,0-.046v-1.79l-1.267,1.267-.034.028-.038.026-.036.022-.037.017-.041.015-.038.009-.044.005-.042.005-.039-.005-.044-.005-.038-.009-.045-.015-.036-.017-.038-.022-.035-.026-.031-.028-.028-.035-.028-.031-.024-.041-.017-.037-.012-.041-.009-.04-.006-.042,0-.041,0-.041.006-.044.009-.038.012-.041.017-.039.024-.037.028-.036.028-.032,1.267-1.266h-1.791l-.047-.005-.043,0-.042-.01-.04-.017-.036-.017-.038-.022-.031-.026-.034-.028-.025-.032-.028-.032-.021-.037-.018-.036-.016-.042-.009-.04-.007-.044,0-.046,0-.044.007-.039.009-.044.016-.039.018-.042.021-.037.028-.031.025-.03.034-.031.031-.022.038-.023.036-.02.04-.012.042-.009.043-.008.047,0h1.791l-1.267-1.266-.028-.035-.028-.037-.024-.037-.017-.038-.012-.039-.009-.043-.006-.039,0-.044,0-.043.006-.038.009-.044.012-.039.017-.039.024-.036.028-.035.028-.037.031-.028.035-.025.038-.021.036-.018.045-.016.038-.01.044-.006h.081l.044.006.038.01.041.016.037.018.036.021.038.025.034.028,1.267,1.269v-1.792l0-.043.007-.042.009-.044.017-.038.016-.038.021-.04.026-.031.03-.029.027-.031.038-.021.036-.025.036-.019.04-.012.042-.01.045-.007.041,0,.044,0,.045.007.042.01.04.012.036.019.036.025.038.021.028.031.026.029.025.031.023.04.017.038.017.038.009.044.006.042,0,.043v1.792l1.267-1.269.032-.028.035-.025.04-.021.038-.018.041-.016.037-.01.043-.006h.083l.044.006.038.01.038.016.043.018.033.021.038.025.034.028.027.037.026.035.026.036.016.039.013.039.009.044.007.038,0,.043,0,.044-.007.039-.009.043-.013.039-.016.038-.026.037-.026.037-.027.035-1.268,1.266h1.791l.047,0,.042.008.043.009.04.012.036.02.038.023.031.022.033.031.026.03.03.031.021.037.016.042.017.039.009.044.007.039Z" fill="#fff"/>
      <path id="Контур_1255" data-name="Контур 1255" d="M166.519,2995.308l0,.044-.007.041-.009.043-.019.039-.019.041-.019.037-.026.032-.026.028-.035.032-.031.022-.038.024-.036.019-.042.012-.041.01-.042.007-.047,0h-1.789l1.265,1.267.031.034.026.036.024.037.014.038.015.04.009.042.006.039.005.044-.005.044-.006.038-.009.043-.015.039-.014.039-.024.037-.026.037-.031.032-.031.03-.038.026-.035.02-.041.019-.04.014-.038.01-.042.005h-.083l-.045-.005-.038-.01-.038-.014-.042-.019-.036-.02-.038-.026-.031-.03-1.265-1.268v1.792l0,.041-.006.044-.012.044-.017.038-.016.042-.022.036-.026.032-.028.03-.033.031-.031.025-.038.021-.036.019-.038.012-.045.015-.042,0h-.088l-.045,0-.042-.015-.038-.012-.041-.019-.035-.021-.034-.025-.031-.031-.028-.03-.024-.032-.023-.036-.021-.042-.012-.038-.009-.044-.007-.044,0-.041v-1.792l-1.268,1.268-.033.03-.036.026-.037.02-.038.019-.039.014-.04.01-.042.005h-.085l-.04-.005-.043-.01-.04-.014-.038-.019-.038-.02-.033-.026-.034-.03-.028-.032-.025-.037-.024-.037-.019-.039-.014-.039-.009-.043-.005-.038,0-.044,0-.044.005-.039.009-.042.014-.04.019-.038.024-.037.025-.036.028-.034,1.268-1.267h-1.791l-.045,0-.044-.007-.043-.01-.038-.012-.038-.019-.036-.024-.038-.022-.028-.032-.028-.028-.023-.032-.024-.037-.016-.041-.017-.039-.009-.043-.007-.041,0-.044,0-.046.007-.044.009-.037.017-.044.016-.037.024-.037.023-.031.028-.034.028-.027.038-.026.036-.019.038-.02.038-.017.043-.01.044,0,.045-.005h1.791l-1.268-1.267-.028-.031-.025-.037-.024-.037-.019-.038-.014-.042-.009-.038-.005-.044,0-.041,0-.041.005-.041.009-.041.014-.039.019-.039.024-.036.025-.037.028-.034.034-.029.033-.027.038-.021.038-.018.04-.015.043-.01.04,0,.04-.005.045.005.042,0,.04.01.039.015.038.018.037.021.036.027.033.029,1.268,1.266v-1.79l0-.046.007-.043.009-.042.012-.038.021-.039.023-.034.024-.035.028-.033.031-.027.034-.024.035-.024.041-.017.038-.014.042-.014.045,0,.04-.005.047.005.042,0,.045.014.038.014.036.017.038.024.031.024.033.027.028.033.026.035.022.034.016.039.017.038.012.042.006.043,0,.046v1.79l1.265-1.266.031-.029.038-.027.036-.021.042-.018.038-.015.038-.01.045,0,.038-.005.045.005.042,0,.038.01.04.015.041.018.035.021.038.027.031.029.031.034.026.037.024.036.014.039.015.039.009.041.006.041.005.041-.005.041-.006.044-.009.038-.015.042-.014.038-.024.037-.026.037-.031.031-1.265,1.267h1.789l.047.005.042,0,.041.01.042.017.036.02.038.019.031.026.035.027.026.034.026.031.019.037.019.037.019.044.009.037.007.044Z" fill="#fff"/>
      <path id="Контур_1256" data-name="Контур 1256" d="M166.449,3020.372l0,.046-.007.044-.009.04-.019.042-.019.036-.019.037-.026.032-.026.033-.035.027-.031.026-.038.022-.036.017-.042.017-.041.01-.042,0-.047.005h-1.789l1.265,1.266.031.031.026.036.024.037.014.039.015.041.009.038.006.044.005.041-.005.042-.006.041-.009.04-.015.041-.014.037-.024.041-.026.032-.031.035-.03.029-.039.026-.036.022-.04.017-.04.015-.038.01-.042.005-.045.005-.038-.005-.045-.005-.038-.01-.038-.015-.042-.017-.036-.022-.038-.026-.031-.029-1.265-1.267v1.79l0,.046-.006.043-.012.042-.017.041-.016.037-.022.033-.025.037-.03.031-.033.024-.031.027-.038.023-.036.017-.038.015-.045.013-.042.005-.047,0-.04,0-.045-.005-.042-.013-.038-.015-.04-.017-.036-.023-.034-.027-.031-.024-.028-.031-.024-.037-.023-.033-.021-.037-.012-.041-.009-.042-.007-.043,0-.046v-1.79l-1.267,1.267-.034.029-.036.026-.037.022-.038.017-.039.015-.04.01-.042.005-.045.005-.04-.005-.04-.005-.043-.01-.04-.015-.038-.017-.038-.022-.033-.026-.034-.029-.028-.035-.025-.032-.024-.041-.019-.037-.014-.041-.009-.04-.005-.041,0-.042,0-.041.005-.044.009-.038.014-.041.019-.039.024-.037.025-.036.028-.031,1.268-1.266h-1.791l-.045-.005-.044,0-.043-.01-.038-.017-.038-.017-.036-.022-.038-.026-.027-.027-.03-.033-.023-.032-.024-.037-.016-.036-.017-.042-.009-.04-.007-.044,0-.046,0-.044.007-.039.009-.044.017-.039.016-.042.024-.037.023-.031.03-.03.027-.032.038-.022.036-.023.038-.02.038-.012.043-.01.044-.007.045,0h1.791l-1.268-1.266-.028-.035-.025-.037-.024-.037-.019-.037-.014-.04-.009-.043-.005-.039,0-.044,0-.043.005-.038.009-.044.014-.039.019-.039.024-.036.025-.035.028-.037.034-.027.033-.025.038-.021.038-.018.04-.016.043-.01.04-.007h.085l.042.007.04.01.039.016.038.018.037.021.036.025.034.027,1.267,1.27v-1.792l0-.043.007-.042.009-.044.012-.037.021-.039.023-.04.024-.032.028-.028.031-.032.034-.021.036-.025.04-.019.038-.011.042-.01.045-.007.04,0,.047,0,.042.007.045.01.038.011.036.019.038.025.031.021.033.032.03.028.025.032.022.04.016.039.017.037.012.044.006.042,0,.043v1.792l1.265-1.27.031-.027.038-.025.036-.021.042-.018.038-.016.038-.01.045-.007h.083l.042.007.038.01.04.016.04.018.036.021.039.025.03.027.031.037.026.035.024.036.014.039.015.039.009.044.006.038.005.043-.005.044-.006.039-.009.043-.015.04-.014.037-.024.037-.026.037-.031.035-1.265,1.266h1.789l.047,0,.042.007.041.01.042.012.036.02.038.023.031.022.035.032.026.03.026.031.019.037.019.042.019.039.009.044.007.039Z" fill="#fff"/>
    </g>
  </g>
</svg>
