<svg xmlns="http://www.w3.org/2000/svg" width="18.811" height="18.811" viewBox="0 0 18.811 18.811">
  <g id="Сгруппировать_287" data-name="Сгруппировать 287" transform="translate(-678.238 -5031.388)">
    <g id="Сгруппировать_286" data-name="Сгруппировать 286">
      <path id="Контур_617" data-name="Контур 617" d="M696.194,5044.642a.427.427,0,0,1-.427.427h-2.993a1.71,1.71,0,0,1,0-3.42h2.993a.427.427,0,0,1,.427.427v2.566Zm-1.71,4.7H679.948a.856.856,0,0,1-.855-.855v-10.26a.856.856,0,0,1,.855-.855h14.536a.856.856,0,0,1,.855.855v2.565h-2.565a2.565,2.565,0,1,0,0,5.13h2.565v2.565a.856.856,0,0,1-.855.855Zm-4.21-16.987a.826.826,0,0,1,.635-.085.835.835,0,0,1,.513.4h0l-6.609,3.848h-1.688l7.148-4.161Zm2.421,2.534.932,1.627H689.9l2.795-1.627Zm-6.182,1.627,5.335-3.106.422.737-4.069,2.369Zm9.681,4.355v-2.644a1.706,1.706,0,0,0-1.574-1.7l-2.455-4.288a1.692,1.692,0,0,0-2.322-.626l-8.417,4.9h-1.478a1.712,1.712,0,0,0-1.71,1.711v10.26a1.712,1.712,0,0,0,1.71,1.71h14.536a1.712,1.712,0,0,0,1.71-1.71v-2.644a1.28,1.28,0,0,0,.855-1.2v-2.566a1.279,1.279,0,0,0-.855-1.2Z" fill="#3c3c3b"/>
    </g>
    <path id="Контур_618" data-name="Контур 618" d="M692.774,5042.5a.855.855,0,1,0,.855.855.857.857,0,0,0-.855-.855Z" fill="#3c3c3b"/>
  </g>
</svg>
