<svg xmlns="http://www.w3.org/2000/svg" width="27.245" height="15.893" viewBox="0 0 27.245 15.893">
  <g id="Сгруппировать_266" data-name="Сгруппировать 266" transform="translate(-425.242 -7268.862)">
    <path id="Контур_552" data-name="Контур 552" d="M432.621,7282.485h-2.27a.567.567,0,1,1,0-1.135h2.27a.567.567,0,1,1,0,1.135Zm0,0" fill="#0d4880"/>
    <path id="Контур_553" data-name="Контур 553" d="M451.068,7282.485h-1.419a.567.567,0,1,1,0-1.135h.948l.765-4.078a3.974,3.974,0,0,0-3.983-3.869h-3.727l-1.806,7.947h3.262a.567.567,0,1,1,0,1.135h-3.973a.569.569,0,0,1-.444-.214.561.561,0,0,1-.11-.479l2.064-9.081a.567.567,0,0,1,.554-.443h4.18a5.114,5.114,0,0,1,5.108,5.108l-.862,4.646a.566.566,0,0,1-.557.463Zm0,0" fill="#0d4880"/>
    <path id="Контур_554" data-name="Контур 554" d="M447.379,7284.755a2.838,2.838,0,1,1,2.838-2.838,2.84,2.84,0,0,1-2.838,2.838Zm0-4.541a1.7,1.7,0,1,0,1.7,1.7,1.706,1.706,0,0,0-1.7-1.7Zm0,0" fill="#0d4880"/>
    <path id="Контур_555" data-name="Контур 555" d="M434.891,7284.755a2.838,2.838,0,1,1,2.838-2.838,2.841,2.841,0,0,1-2.838,2.838Zm0-4.541a1.7,1.7,0,1,0,1.7,1.7,1.706,1.706,0,0,0-1.7-1.7Zm0,0" fill="#0d4880"/>
    <path id="Контур_556" data-name="Контур 556" d="M432.621,7272.268H428.08a.568.568,0,1,1,0-1.135h4.541a.568.568,0,1,1,0,1.135Zm0,0" fill="#0d4880"/>
    <path id="Контур_557" data-name="Контур 557" d="M432.621,7275.674h-5.676a.568.568,0,1,1,0-1.136h5.676a.568.568,0,1,1,0,1.136Zm0,0" fill="#0d4880"/>
    <g id="Сгруппировать_265" data-name="Сгруппировать 265">
      <path id="Контур_558" data-name="Контур 558" d="M432.621,7279.079H425.81a.568.568,0,1,1,0-1.135h6.811a.568.568,0,1,1,0,1.135Zm0,0" fill="#0d4880"/>
      <path id="Контур_559" data-name="Контур 559" d="M441.135,7282.485h-3.973a.567.567,0,1,1,0-1.135h3.52L443.261,7270h-12.91a.568.568,0,0,1,0-1.136h13.622a.568.568,0,0,1,.444.214.562.562,0,0,1,.11.479l-2.838,12.487a.569.569,0,0,1-.554.443Zm0,0" fill="#0d4880"/>
    </g>
  </g>
</svg>
