<svg xmlns="http://www.w3.org/2000/svg" width="27.245" height="15.893" viewBox="0 0 27.245 15.893">
  <g id="Сгруппировать_285" data-name="Сгруппировать 285" transform="translate(-425.242 -5034.976)">
    <path id="Контур_609" data-name="Контур 609" d="M432.621,5048.6h-2.27a.568.568,0,0,1,0-1.136h2.27a.568.568,0,0,1,0,1.136Zm0,0" fill="#3c3c3b"/>
    <path id="Контур_610" data-name="Контур 610" d="M451.068,5048.6h-1.419a.568.568,0,0,1,0-1.136h.948l.765-4.077a3.973,3.973,0,0,0-3.983-3.869h-3.727l-1.806,7.946h3.262a.568.568,0,0,1,0,1.136h-3.973a.568.568,0,0,1-.444-.214.561.561,0,0,1-.11-.479l2.064-9.082a.566.566,0,0,1,.554-.442h4.18a5.115,5.115,0,0,1,5.108,5.108l-.862,4.645a.566.566,0,0,1-.557.464Zm0,0" fill="#3c3c3b"/>
    <path id="Контур_611" data-name="Контур 611" d="M447.379,5050.869a2.838,2.838,0,1,1,2.838-2.838,2.841,2.841,0,0,1-2.838,2.838Zm0-4.541a1.7,1.7,0,1,0,1.7,1.7,1.7,1.7,0,0,0-1.7-1.7Zm0,0" fill="#3c3c3b"/>
    <path id="Контур_612" data-name="Контур 612" d="M434.891,5050.869a2.838,2.838,0,1,1,2.838-2.838,2.842,2.842,0,0,1-2.838,2.838Zm0-4.541a1.7,1.7,0,1,0,1.7,1.7,1.7,1.7,0,0,0-1.7-1.7Zm0,0" fill="#3c3c3b"/>
    <path id="Контур_613" data-name="Контур 613" d="M432.621,5038.382H428.08a.567.567,0,1,1,0-1.135h4.541a.567.567,0,1,1,0,1.135Zm0,0" fill="#3c3c3b"/>
    <path id="Контур_614" data-name="Контур 614" d="M432.621,5041.787h-5.676a.568.568,0,1,1,0-1.135h5.676a.568.568,0,1,1,0,1.135Zm0,0" fill="#3c3c3b"/>
    <g id="Сгруппировать_284" data-name="Сгруппировать 284">
      <path id="Контур_615" data-name="Контур 615" d="M432.621,5045.193H425.81a.567.567,0,1,1,0-1.135h6.811a.567.567,0,1,1,0,1.135Zm0,0" fill="#3c3c3b"/>
      <path id="Контур_616" data-name="Контур 616" d="M441.135,5048.6h-3.973a.568.568,0,0,1,0-1.136h3.52l2.579-11.352h-12.91a.567.567,0,1,1,0-1.135h13.622a.569.569,0,0,1,.444.214.561.561,0,0,1,.11.479l-2.838,12.487a.569.569,0,0,1-.554.443Zm0,0" fill="#3c3c3b"/>
    </g>
  </g>
</svg>
