<svg xmlns="http://www.w3.org/2000/svg" width="18.811" height="18.812" viewBox="0 0 18.811 18.812">
  <g id="Сгруппировать_249" data-name="Сгруппировать 249" transform="translate(-678.238 -8643.131)">
    <g id="Сгруппировать_248" data-name="Сгруппировать 248">
      <path id="Контур_503" data-name="Контур 503" d="M696.194,8656.384a.427.427,0,0,1-.427.428h-2.993a1.71,1.71,0,0,1,0-3.42h2.993a.427.427,0,0,1,.427.428v2.564Zm-1.71,4.7H679.948a.856.856,0,0,1-.855-.854v-10.262a.856.856,0,0,1,.855-.854h14.536a.856.856,0,0,1,.855.854v2.566h-2.565a2.565,2.565,0,1,0,0,5.13h2.565v2.565a.856.856,0,0,1-.855.854Zm-4.21-16.987a.834.834,0,0,1,1.148.312v0l-6.609,3.848h-1.688l7.148-4.161Zm2.421,2.534.932,1.627H689.9l2.795-1.627Zm-6.182,1.627,5.335-3.105.422.736-4.069,2.369Zm9.681,4.354v-2.645a1.706,1.706,0,0,0-1.574-1.7l-2.455-4.289a1.694,1.694,0,0,0-2.322-.625l-8.417,4.9h-1.478a1.712,1.712,0,0,0-1.71,1.71v10.262a1.712,1.712,0,0,0,1.71,1.71h14.536a1.712,1.712,0,0,0,1.71-1.71v-2.645a1.279,1.279,0,0,0,.855-1.2v-2.564a1.279,1.279,0,0,0-.855-1.2Z" fill="#0d4880"/>
    </g>
    <path id="Контур_504" data-name="Контур 504" d="M692.774,8654.247a.855.855,0,1,0,.855.854.856.856,0,0,0-.855-.854Z" fill="#0d4880"/>
  </g>
</svg>
