<svg xmlns="http://www.w3.org/2000/svg" width="87.472" height="32.926" viewBox="0 0 87.472 32.926">
  <g id="Сгруппировать_310" data-name="Сгруппировать 310" transform="translate(-106.264 -7175.541)">
    <path id="Контур_1550" data-name="Контур 1550" d="M141.483,7199.934l2.042,2.9a19.078,19.078,0,0,1-13.2,5.635c-10.016,0-10.647-7.392-20.622-7.392h-2.921l-.517-3.006,11.263-11.485h-8.733l.673-3.529h14.309l-.618,3.234-10.933,11.158c8.384,0,10.454,7.562,18.68,7.562,5.016,0,9.125-3.51,10.578-5.073" fill="#d85921"/>
    <path id="Контур_1551" data-name="Контур 1551" d="M131.545,7198.152c-2.182,0-3.514-1.74-3.514-4.218,0-3.366,2-7.957,5.439-7.957,2.628,0,3.443,2.295,3.443,4.146,0,3.589-2.148,8.029-5.368,8.029m2.443-15.5c-6.142,0-10.4,5.292-10.4,11.4,0,4.292,2.814,7.439,7.364,7.439,6.144,0,10.437-5.256,10.437-11.361,0-4-2.554-7.476-7.4-7.476" fill="#d85921"/>
    <path id="Контур_1552" data-name="Контур 1552" d="M153.172,7185.866c1.369,0,2.294.7,2.294,1.851v.037c0,2.145-2.85,2.775-7.29,2.7.518-2.184,2.294-4.59,5-4.59m6.364,1.851c0-3-2.258-5.071-5.81-5.071-6.216,0-10.211,5.923-10.211,11.362,0,4.4,2.4,7.474,7.4,7.474a14.483,14.483,0,0,0,6.364-1.443l-.4-3.146a10.645,10.645,0,0,1-4.959,1.184,3.981,3.981,0,0,1-3.7-1.849,4.981,4.981,0,0,1-.482-2.554c6.957.149,11.8-1.331,11.8-5.957" fill="#d85921"/>
    <path id="Контур_1553" data-name="Контур 1553" d="M189.258,7185.866a7.206,7.206,0,0,1,3.368.814l1.11-3.108a8.959,8.959,0,0,0-4.256-.926c-4.257,0-7.29,2.443-7.29,5.923,0,2.071,1.481,3.588,3.553,4.7,1.775.927,2.368,1.628,2.368,2.774,0,1.186-1.036,2.185-2.775,2.222a9.843,9.843,0,0,1-4.33-1.221l-1.11,3.107a9.617,9.617,0,0,0,5.031,1.335c4.331,0,7.661-2.222,7.661-6.18,0-2.3-1.776-3.776-3.738-4.848-1.516-.779-2.331-1.481-2.331-2.48,0-1.221,1.109-2.11,2.739-2.11" fill="#d85921"/>
    <path id="Контур_1554" data-name="Контур 1554" d="M176.607,7178.169a2.562,2.562,0,0,1,2.591-2.628,2.227,2.227,0,0,1,2.295,2.333,2.568,2.568,0,0,1-2.664,2.59h-.038a2.15,2.15,0,0,1-2.184-2.295" fill="#d85921"/>
    <path id="Контур_1555" data-name="Контур 1555" d="M172.568,7201.076h4.293l3.441-18.021H176.01Z" fill="#d85921"/>
    <path id="Контур_1556" data-name="Контур 1556" d="M167.98,7198.035c-1.272,0-1.93-.787-1.606-2.4l1.826-9.254h4.04l.666-3.33h-4.074l.892-4.626-4.453,1.294-.665,3.332h-2.528l-.635,3.33h2.532l-1.866,9.519c-.662,3.427,1.072,5.58,5.007,5.58a12.325,12.325,0,0,0,2.823-.441l.142-3.351a8.656,8.656,0,0,1-2.1.342" fill="#d85921"/>
    <rect id="Прямоугольник_405" data-name="Прямоугольник 405" width="87.47" height="32.923" transform="translate(106.266 7175.544)" fill="none"/>
  </g>
</svg>
