<svg xmlns="http://www.w3.org/2000/svg" width="113.456" height="33.714" viewBox="0 0 113.456 33.714">
  <g id="Сгруппировать_305" data-name="Сгруппировать 305" transform="translate(-993.272 -7176.792)">
    <path id="Контур_1446" data-name="Контур 1446" d="M1089.928,7200.09a4.112,4.112,0,0,1,0-.544c.088-.57-.207-.623-.65-.5s-.912.236-1.363.375c-.2.06-.485.019-.462.4s.293.274.47.3c.366.051.5.19.5.595q-.047,2.538,0,5.079c.007.525-.008.928-.683.917-.334-.006-.262.268-.275.475-.019.293.19.241.357.241.827,0,1.654.012,2.481,0,.175,0,.458.154.494-.221.033-.314-.024-.547-.393-.566-.4-.019-.445-.259-.441-.6.015-1.438,0-2.875,0-4.312a1.594,1.594,0,0,1,1.605-1.616.987.987,0,0,1,.985.618,2.461,2.461,0,0,1,.163,1.038c0,1.378-.021,2.758.013,4.135.012.492-.1.787-.629.8-.3.008-.327.2-.332.441-.008.308.186.289.389.287.846,0,1.694.006,2.54,0,.185,0,.447.116.456-.266.008-.306-.062-.49-.391-.509-.428-.023-.517-.263-.51-.666.025-1.376.01-2.754.01-4.133a1.492,1.492,0,0,1,1.317-1.688,1.006,1.006,0,0,1,1.32.82,4.606,4.606,0,0,1,.07.88c.006,1.338-.015,2.677.011,4.015.01.468-.045.81-.6.821-.316.008-.3.228-.31.456-.015.32.2.274.391.274.827,0,1.654.012,2.481-.007.206-.006.529.176.569-.28.034-.393-.177-.481-.477-.5-.424-.026-.531-.237-.525-.652.027-1.654.025-3.308.008-4.962a1.785,1.785,0,0,0-1.863-1.916,3.074,3.074,0,0,0-2.483,1.114c-1.053-1.411-2.415-1.468-4.242-.133m-52.76-16.237c.139-.084.2-.128.27-.164a2.794,2.794,0,0,0,1.688-3.328c-.285-1.268-1.261-2-2.882-2.023-1.455-.023-2.911.064-4.367.085-.272,0-.3.116-.323.35-.036.392.213.4.473.418.493.029.726.183.717.778-.042,2.736-.019,5.475-.019,8.213,0,.929.006.95-.894,1.2-.315.088-.254.278-.27.483-.017.264.147.272.341.272,1.633,0,3.27.044,4.9-.013a2.932,2.932,0,0,0,3.039-2.647,2.962,2.962,0,0,0-2.387-3.5c-.074-.021-.145-.057-.289-.116M1046.8,7207a4.123,4.123,0,0,0-1,1,1.419,1.419,0,0,0,.439,1.969,5.234,5.234,0,0,0,5.532-.576,2.459,2.459,0,0,0,.58-2.673c-.319-.92-1.15-1.03-1.979-1.089-.175-.012-.353-.01-.53-.017-.647-.029-1.295-.055-1.941-.09a.47.47,0,0,1-.441-.247c-.095-.2.068-.331.178-.46a.926.926,0,0,1,.907-.374,2.665,2.665,0,0,0,3.28-2.46,3.219,3.219,0,0,0-.567-1.882,1.983,1.983,0,0,1,.972-.035c.374.031.347-.207.347-.452s.042-.475-.349-.432a12.493,12.493,0,0,1-3.1-.175,2.684,2.684,0,0,0-3.021,2.405,2.487,2.487,0,0,0,1.314,2.669c-1.835,1.561-1.968,2.2-.622,2.922m40.168-17.286c-.15.127-.3.247-.441.376a1.747,1.747,0,0,0-.694,1.719,1.623,1.623,0,0,0,1.363,1.161,6.052,6.052,0,0,0,3.377-.074,3.114,3.114,0,0,0,1.749-1.228,2.031,2.031,0,0,0-1.424-3.336c-.814-.11-1.649-.059-2.472-.118-.268-.019-.682.076-.741-.312s.315-.61.606-.795c.209-.129.462.014.692.042a2.706,2.706,0,0,0,3.052-2.306,3.346,3.346,0,0,0-.586-2.137,8.583,8.583,0,0,1,.884.006c.367.044.464-.087.462-.452s-.137-.424-.451-.407a11.989,11.989,0,0,1-2.811-.175,2.549,2.549,0,0,0-2.785,1.239,2.75,2.75,0,0,0,0,3.067,3.666,3.666,0,0,0,.9.8c-1.848,1.481-1.949,1.928-.679,2.928m-27.615-7.038v-.582c0-1.3-.03-2.6.013-3.9.021-.6-.195-.656-.68-.517-.434.123-.88.2-1.323.291-.236.047-.466.051-.462.4,0,.329.235.336.435.35.454.032.489.3.487.675q-.021,4.545,0,9.091c0,.509-.031.889-.668.882-.294,0-.31.207-.313.446,0,.322.2.276.4.278.846,0,1.692,0,2.54,0,.209,0,.435.055.452-.3.014-.308-.117-.446-.4-.46-.416-.019-.494-.245-.49-.621.019-1.476.007-2.951.007-4.428a1.627,1.627,0,0,1,1.589-1.447c.637-.023,1,.335,1.035,1.225.058,1.492.032,2.988.058,4.482.01.441.04.835-.587.825-.3,0-.3.242-.287.472.011.27.2.247.376.247.827,0,1.654,0,2.479,0,.2,0,.447.08.468-.277.017-.295-.087-.462-.376-.474-.453-.017-.512-.27-.508-.663.013-1.692.023-3.386-.021-5.076a1.786,1.786,0,0,0-2.053-1.842,3.131,3.131,0,0,0-1.584.581c-.171.114-.3.312-.589.333m9.082,17.4c0-1.61-.021-3.125.011-4.636.009-.489-.16-.582-.58-.477-.477.117-.962.2-1.435.328-.2.054-.487-.02-.491.365s.274.362.472.377c.418.032.494.236.492.616-.013,3.051-.021,6.1,0,9.153,0,.544-.049.909-.7.9-.328,0-.266.264-.277.477-.014.289.194.239.361.239.827,0,1.654.012,2.481,0,.173,0,.458.157.49-.223.027-.31-.02-.54-.393-.563-.323-.02-.453-.161-.447-.52.025-1.595.01-3.19.013-4.785a.63.63,0,0,1,.061-.4,2.3,2.3,0,0,1,1.856-.715c.475.126.7.565.7,1.415,0,1.475-.013,2.952.012,4.429.007.411-.088.637-.525.641-.31,0-.31.219-.317.452-.008.268.152.274.342.272.886,0,1.772,0,2.658,0,.161,0,.34.01.311-.23-.022-.186.128-.49-.22-.5-.709-.024-.694-.479-.686-1q.033-2.246,0-4.489a1.97,1.97,0,0,0-2.912-1.92,6.76,6.76,0,0,0-1.281.8m-55.094-2.479c0-3.484-.007-6.969.012-10.454,0-.439-.1-.621-.552-.545a1.085,1.085,0,0,1-.351,0c-.481-.08-.622.095-.62.595.019,5.532.011,11.066.011,16.6,0,1.536,0,3.072,0,4.606,0,.149-.08.4.072.43a3.222,3.222,0,0,0,1.253-.27c.268-.064.167-.325.167-.5q.009-5.229,0-10.456m26,2.42c-.016-.193-.029-.29-.031-.387-.019-.7-.042-.723-.743-.542-.437.114-.871.243-1.31.344-.259.059-.42.135-.4.454.017.348.259.316.454.3.478-.036.533.207.527.61-.019,1.692-.03,3.386.006,5.078.011.519-.086.819-.656.819-.3,0-.321.2-.329.443-.01.312.184.287.384.285.827,0,1.654.01,2.481-.007.194,0,.492.157.538-.249.038-.352-.1-.518-.435-.533-.4-.017-.495-.224-.489-.61.027-1.4.011-2.795.011-4.192a1.544,1.544,0,0,1,1.436-1.7.914.914,0,0,1,1.087.59,2.623,2.623,0,0,1,.15,1.042c0,1.4-.021,2.8.012,4.191.011.485-.095.753-.618.746-.291-.006-.34.178-.344.431,0,.3.182.291.388.291.846,0,1.693,0,2.539-.006.171,0,.417.1.432-.235.013-.276.009-.516-.359-.533-.419-.021-.523-.247-.516-.659.027-1.553.019-3.109.008-4.664a2.032,2.032,0,0,0-.909-2.04,2.4,2.4,0,0,0-2.517.179c-.245.154-.477.331-.794.551m40.211-17.324a2.46,2.46,0,0,1-.019-.451c.09-.587-.218-.614-.656-.49-.454.127-.912.243-1.367.365-.228.061-.446.089-.437.433s.272.31.451.314c.45.01.519.232.513.633-.023,1.673-.027,3.348,0,5.019.01.5-.048.844-.646.844-.291,0-.318.209-.316.454,0,.314.207.278.4.278.806,0,1.614.013,2.42-.008.207,0,.534.179.58-.27.042-.4-.2-.463-.489-.49-.328-.03-.458-.169-.452-.527.021-1.595.008-3.188.011-4.783a.623.623,0,0,1,.067-.4,2.163,2.163,0,0,1,1.884-.764c.49.152.739.633.741,1.469,0,1.416-.011,2.835.008,4.251.007.464-.017.821-.62.791-.27-.014-.346.161-.34.427.006.295.169.3.384.3.865,0,1.732,0,2.6,0,.171,0,.376.044.378-.236,0-.215.048-.486-.264-.49-.645-.006-.628-.418-.607-.877.021-.431.008-.865,0-1.3-.011-1.259.038-2.523-.063-3.774a1.723,1.723,0,0,0-1.954-1.688,3.714,3.714,0,0,0-2.213.964m-70.916,15.1q0,5.317,0,10.634c0,.181-.118.455.1.534a1.757,1.757,0,0,0,1.215.012c.311-.116.152-.453.152-.685q.01-9.923.007-19.849c0-.492-.017-.985,0-1.475.014-.293-.093-.392-.372-.361a1.878,1.878,0,0,1-.474,0c-.492-.078-.656.072-.65.616.029,3.524.015,7.049.015,10.574m-1.753-.04v-10.281c0-.869,0-.837-.857-.879-.49-.024-.614.111-.614.607q.029,10.219.013,20.442c0,.876.01.846.848,1.108.515.164.624.031.622-.481-.019-3.5-.012-7.011-.012-10.516m41.233-12.125c-.032-.272-.061-.746-.148-1.206a3.223,3.223,0,0,0-2.66-2.783,2.984,2.984,0,0,0-3.3,2,5.856,5.856,0,0,0-.042,4.7,2.88,2.88,0,0,0,2.529,1.927,3,3,0,0,0,2.927-1.61,5.823,5.823,0,0,0,.7-3.024m5.272.133c.589,0,1.18-.016,1.77.007.306.01.422-.078.405-.4a7.277,7.277,0,0,0-.346-2.025,2.337,2.337,0,0,0-2.057-1.7,2.46,2.46,0,0,0-2.635,1.177,6.37,6.37,0,0,0-.242,6,2.52,2.52,0,0,0,2.62,1.445,2.72,2.72,0,0,0,2.448-1.565c.137-.258.077-.35-.159-.494-.331-.205-.405.049-.544.22a1.642,1.642,0,0,1-2.884-.294,5.373,5.373,0,0,1-.479-1.991c-.032-.325.088-.4.392-.4.568.021,1.14.006,1.711.006m25.305,17.294h.709c1.582,0,1.582,0,1.319-1.572a2.659,2.659,0,0,0-2.036-2.462,2.561,2.561,0,0,0-3,1.336,6.488,6.488,0,0,0-.173,5.7,2.528,2.528,0,0,0,2.439,1.562,2.655,2.655,0,0,0,2.588-1.433c.089-.173.371-.357.03-.589-.3-.206-.439-.1-.644.165a1.627,1.627,0,0,1-2.877-.289,5.244,5.244,0,0,1-.482-2.051c-.025-.295.072-.377.353-.369.589.015,1.181,0,1.772,0m19.094-17.331h1.829c.223,0,.373-.019.341-.321a9.147,9.147,0,0,0-.314-1.971,2.37,2.37,0,0,0-2.059-1.774,2.5,2.5,0,0,0-2.745,1.291,6.465,6.465,0,0,0-.234,5.743,2.489,2.489,0,0,0,2.3,1.578,2.7,2.7,0,0,0,2.723-1.382c.1-.171.435-.367.051-.627-.319-.217-.452-.073-.65.18a1.634,1.634,0,0,1-2.878-.306,5.984,5.984,0,0,1-.479-1.933c-.056-.363.022-.5.406-.483.571.024,1.141.005,1.711.005m-40.238,17.331c.118,0,.236,0,.354,0a9.218,9.218,0,0,0,1.808-.069,6.408,6.408,0,0,0-.261-2.146c-.011-.036-.023-.074-.036-.112a2.355,2.355,0,0,0-1.967-1.721,2.461,2.461,0,0,0-2.711,1.116,6.326,6.326,0,0,0-.272,6.042,2.484,2.484,0,0,0,2.441,1.454,2.682,2.682,0,0,0,2.53-1.429c.1-.181.382-.386-.019-.62-.329-.194-.422-.023-.589.194a1.647,1.647,0,0,1-2.888-.276,5.8,5.8,0,0,1-.5-2.108c-.031-.276.095-.331.338-.327.59.011,1.181,0,1.77,0m-24.005-7.35c-.452,0-.9-.009-1.357,0-.221.008-.517-.133-.519.323,0,.373.146.508.473.485.508-.036.6.209.595.669-.021,2.854-.028,5.705,0,8.557.006.6-.085.975-.766.966-.333-.006-.281.243-.3.458-.019.279.16.26.342.26,1,0,2.006-.013,3.01.008.333.006.382-.135.386-.42.006-.331-.221-.348-.426-.352-.559-.008-.622-.321-.62-.8q.031-4.161,0-8.322c-.006-.593-.015-1.089.787-1.076.35.008.28-.3.285-.524.01-.291-.2-.234-.367-.236-.511,0-1.022,0-1.534,0m30.03,5.021c0-1.751-.019-3.5.011-5.255.01-.522-.169-.612-.618-.49-.475.129-.956.228-1.435.333-.217.045-.418.057-.411.376.006.354.285.317.457.314.486-.014.5.254.5.633-.011,3.089-.017,6.178.006,9.267,0,.5-.1.784-.629.789-.34,0-.348.215-.352.476-.006.336.226.256.4.256.827.006,1.654.008,2.481,0,.186,0,.449.111.458-.266.01-.3-.04-.5-.382-.511-.437-.019-.5-.272-.5-.666.023-1.75.01-3.5.01-5.254m4.747-17.384c0-.511-.023-.885.005-1.256s-.146-.441-.458-.359c-.494.131-.99.258-1.483.389-.22.057-.482.057-.454.411.027.338.285.293.479.3.42.006.5.213.5.6-.019,1.675-.023,3.35,0,5.023.008.521.008.939-.682.922-.3-.006-.3.238-.3.468,0,.272.171.264.356.264h2.954c.18,0,.357.013.363-.259.006-.237-.011-.431-.306-.46a3.278,3.278,0,0,0-.35-.053c-.46.01-.6-.209-.576-.66.038-.667.009-1.338.009-2.007,0-.61-.02-1.222.01-1.831a1.867,1.867,0,0,1,.791-1.391c.405-.32.694.041,1.013.176.293.124.447-.028.59-.228a1.153,1.153,0,0,0-.073-1.369,1.13,1.13,0,0,0-1.368.029,6.242,6.242,0,0,0-1.023,1.3m-53.25,19.167q0,2.507,0,5.011c0,.145-.087.344.109.421.363.142,1.435-.67,1.435-1.078v-8.846c0-1.019,0-.991-1.013-1.025-.464-.015-.55.139-.544.563.025,1.65.009,3.3.009,4.954m-11.4,5.447v-9.878c0-1.141,0-1.13-1.123-1.08-.289.011-.365.1-.365.376q.012,4.813,0,9.627c0,.213.028.384.253.476a6.884,6.884,0,0,0,1.233.479m10.622-23.747c-.116-.1-.207-.195-.308-.275-1.424-1.118-2.856-2.223-4.262-3.358-.286-.23-.447-.171-.69.025-1.381,1.107-2.774,2.2-4.154,3.306-.158.127-.584.268-.187.54.3.209.341,1.038,1.033.477,1.085-.878,2.2-1.713,3.288-2.591a.487.487,0,0,1,.744,0c1.055.854,2.129,1.681,3.207,2.506.156.118.319.42.515.27a6.411,6.411,0,0,0,.814-.9m60.308,1.282c0-1.08-.023-2.162.009-3.242.015-.5-.167-.564-.583-.433-.487.15-.981.281-1.476.4-.211.051-.357.1-.363.365s.185.308.341.312c.507.007.522.315.519.705q-.021,2.506,0,5.011c.005.417-.008.74-.544.746-.28,0-.316.213-.316.458,0,.306.192.285.394.285.825,0,1.65,0,2.475,0,.211,0,.477.1.5-.3.019-.371-.194-.445-.46-.456-.411-.018-.513-.217-.5-.6.023-1.08.008-2.162.008-3.243m10.361,17.337c0-1.062-.031-2.125.013-3.186.021-.543-.2-.6-.626-.479-.454.126-.914.23-1.364.363-.189.055-.438.04-.44.369s.248.318.441.342c.383.052.493.228.487.622-.026,1.692-.03,3.384,0,5.076.008.477-.093.747-.6.76-.3.008-.321.209-.329.447-.007.31.19.287.394.287.806,0,1.612.01,2.42-.007.209-.006.523.161.557-.293.03-.4-.2-.483-.485-.5-.42-.021-.488-.24-.479-.614.023-1.063.008-2.126.008-3.189m-.962-5.8a1.077,1.077,0,0,0,1.1-1.06,1.06,1.06,0,0,0-1.061-1.033,1.013,1.013,0,0,0-1.046,1.029,1.025,1.025,0,0,0,1.01,1.064m-9.28-18.362a1.046,1.046,0,0,0-2.091.006,1.081,1.081,0,0,0,1.048,1.062,1.093,1.093,0,0,0,1.043-1.068" fill="#fff"/>
    <path id="Контур_1447" data-name="Контур 1447" d="M993.272,7191.215c.264-1,.38-2.029.682-3.023a16.129,16.129,0,0,1,31.391,2.466c.876,6.33-1.418,11.5-6.557,15.353a2.8,2.8,0,0,1-.3.194c-.028.017-.072.007-.121.011-.124-.15-.061-.333-.061-.5,0-2.719,0-5.435-.011-8.154,0-.4.038-.593.524-.574.985.04.987.008.987,1,0,1.6,0,3.192,0,4.787,0,.184-.061.384.065.563,5.963-6.567,5.38-15.045.254-20.631a14.541,14.541,0,0,0-20.455-.985c-5.5,4.886-7.6,13.859-.82,21.644.177-.135.082-.325.084-.483.007-1.792.019-3.583-.006-5.376-.006-.422.112-.523.521-.513,1.027.025,1.029,0,1.029,1v8.207c-.261.066-.386-.122-.531-.228a15.735,15.735,0,0,1-6.574-11.082c-.011-.093.006-.2-.106-.251Z" fill="#26335c"/>
    <path id="Контур_1448" data-name="Контур 1448" d="M1106.728,7183.178c-.274.471-.625.612-1.095.262a.572.572,0,0,0-.832.118,1.969,1.969,0,0,0-.654,1.462c.009,1.221.028,2.443-.012,3.662-.015.475.158.636.591.646.192,0,.428,0,.548.154a.665.665,0,0,1,.044.452c-.035.229-.24.158-.382.158-.947.006-1.892,0-2.837,0-.211,0-.435.053-.443-.3-.006-.276.1-.434.35-.428.684.017.7-.39.694-.92q-.043-2.481,0-4.964c.009-.449-.118-.652-.569-.665-.2-.008-.446.017-.469-.312s.238-.319.428-.373c.528-.15,1.062-.287,1.6-.418.285-.068.448.012.427.354s-.005.707-.005,1.178c.741-.836,1.25-2.173,2.619-1.013Z" fill="#26335c"/>
    <path id="Контур_1449" data-name="Контур 1449" d="M1089.926,7200.089c1.827-1.332,3.189-1.275,4.242.135a3.079,3.079,0,0,1,2.483-1.116,1.786,1.786,0,0,1,1.863,1.918c.017,1.654.019,3.308-.008,4.96-.006.417.1.626.525.654.3.019.511.107.477.5-.04.459-.363.276-.568.28-.827.021-1.654.009-2.481.007-.192,0-.407.046-.392-.273.009-.228-.006-.449.31-.455.561-.013.614-.353.6-.821-.024-1.338,0-2.679-.011-4.017a4.544,4.544,0,0,0-.07-.88,1,1,0,0,0-1.318-.819,1.493,1.493,0,0,0-1.319,1.688c0,1.378.015,2.756-.01,4.135-.007.4.082.64.51.665.331.019.4.2.391.507-.009.383-.269.265-.456.267-.846.009-1.692,0-2.54,0-.2,0-.4.019-.389-.289.005-.241.032-.433.332-.441.533-.013.641-.306.63-.8-.035-1.378-.012-2.757-.014-4.135a2.5,2.5,0,0,0-.161-1.04.993.993,0,0,0-.987-.618,1.594,1.594,0,0,0-1.6,1.618c0,1.437.008,2.875-.007,4.312,0,.338.044.578.441.6.371.017.426.253.4.564-.038.375-.321.219-.5.223-.825.015-1.652.007-2.479,0-.169,0-.376.05-.357-.241.013-.209-.061-.481.273-.475.675.011.69-.394.683-.918q-.043-2.538,0-5.08c.005-.4-.129-.544-.5-.595-.177-.025-.449.063-.47-.3-.023-.378.264-.334.464-.4.449-.137.907-.247,1.361-.375s.738-.072.65.5a4.056,4.056,0,0,0,0,.542" fill="#26335c"/>
    <path id="Контур_1450" data-name="Контур 1450" d="M1037.168,7183.854c.144.057.215.093.287.114a2.964,2.964,0,0,1,2.389,3.505,2.934,2.934,0,0,1-3.041,2.647c-1.631.057-3.268.011-4.9.013-.194,0-.358-.006-.341-.27.016-.2-.045-.4.27-.483.9-.249.894-.27.894-1.2,0-2.738-.023-5.475.019-8.213.009-.593-.224-.749-.717-.778-.26-.015-.509-.024-.473-.416.021-.236.051-.346.323-.35,1.456-.021,2.912-.108,4.367-.085,1.621.024,2.6.754,2.882,2.022a2.792,2.792,0,0,1-1.688,3.327c-.067.038-.131.08-.27.166m-2.865,2.884c0,.667.015,1.336-.008,2a.532.532,0,0,0,.4.568,2.433,2.433,0,0,0,3.228-1.407c.52-1.72-.173-3.137-1.694-3.469a9.115,9.115,0,0,0-1.525-.1c-.3-.017-.412.085-.4.4.021.665.006,1.334.006,2m0-5.31c0,.589.023,1.181-.008,1.77-.021.367.095.5.46.456.213-.028.432-.015.647-.025a1.81,1.81,0,0,0,1.946-1.847,5.485,5.485,0,0,0,0-.941,1.9,1.9,0,0,0-2.76-1.679.393.393,0,0,0-.289.437c.011.61,0,1.219,0,1.829" fill="#26335c"/>
    <path id="Контур_1451" data-name="Контур 1451" d="M1046.8,7207c-1.346-.723-1.213-1.364.622-2.924a2.486,2.486,0,0,1-1.314-2.668,2.683,2.683,0,0,1,3.021-2.406,12.624,12.624,0,0,0,3.1.176c.389-.045.346.189.348.43s.026.485-.348.454a1.982,1.982,0,0,0-.972.033,3.235,3.235,0,0,1,.569,1.882,2.664,2.664,0,0,1-3.28,2.46.928.928,0,0,0-.908.376c-.111.128-.274.255-.179.458a.471.471,0,0,0,.441.249c.648.033,1.3.061,1.943.09.177.007.353,0,.53.017.827.059,1.66.169,1.979,1.087a2.465,2.465,0,0,1-.58,2.673,5.241,5.241,0,0,1-5.534.578,1.422,1.422,0,0,1-.437-1.971,4.016,4.016,0,0,1,1-.994m2.335,2.669a3.027,3.027,0,0,0,1.9-.647.993.993,0,0,0,.348-1.057c-.092-.38-.379-.5-.734-.578a22.584,22.584,0,0,0-2.69-.27.586.586,0,0,0-.5.248,1.259,1.259,0,0,0,.561,2.182,3.366,3.366,0,0,0,1.114.122m-1.4-7.989a3.3,3.3,0,0,0,.235,1.5,1.032,1.032,0,0,0,1.038.633.972.972,0,0,0,.947-.676,4.208,4.208,0,0,0-.036-2.825,1.013,1.013,0,0,0-1.051-.7,1.036,1.036,0,0,0-.981.793,3.415,3.415,0,0,0-.152,1.279" fill="#28355d"/>
    <path id="Контур_1452" data-name="Контур 1452" d="M1086.97,7189.714c-1.27-1-1.169-1.446.679-2.927a3.693,3.693,0,0,1-.9-.805,2.748,2.748,0,0,1,0-3.066,2.548,2.548,0,0,1,2.785-1.238,12.056,12.056,0,0,0,2.813.173c.312-.015.445.052.449.409s-.093.494-.462.453a8.275,8.275,0,0,0-.882-.006,3.342,3.342,0,0,1,.584,2.137,2.707,2.707,0,0,1-3.052,2.306c-.23-.029-.482-.171-.69-.042-.292.182-.669.391-.608.795.059.385.475.292.741.311.824.059,1.658.008,2.474.118a2.031,2.031,0,0,1,1.424,3.337,3.135,3.135,0,0,1-1.751,1.228,6.045,6.045,0,0,1-3.375.074,1.628,1.628,0,0,1-1.365-1.162,1.75,1.75,0,0,1,.694-1.718c.143-.13.291-.249.441-.377m1.417.036c-.462-.159-.789.265-1.017.812a1.15,1.15,0,0,0,.34,1.428,3.283,3.283,0,0,0,3.665-.394.9.9,0,0,0-.532-1.545c-.732-.124-1.477-.185-2.456-.3m2.015-5.311a3.839,3.839,0,0,0-.335-1.61,1.032,1.032,0,0,0-.969-.561.91.91,0,0,0-.894.572,4.041,4.041,0,0,0,.013,3.045.969.969,0,0,0,1,.594,1.006,1.006,0,0,0,.957-.664" fill="#28355d"/>
    <path id="Контур_1453" data-name="Контур 1453" d="M1059.357,7182.675c.291-.02.418-.218.588-.332a3.137,3.137,0,0,1,1.585-.58,1.785,1.785,0,0,1,2.053,1.84c.044,1.692.034,3.384.019,5.076,0,.394.057.648.51.665.289.012.391.179.374.472-.019.357-.266.276-.466.277-.827.006-1.654,0-2.479,0-.178,0-.365.025-.378-.245-.009-.23-.009-.479.289-.473.626.011.595-.382.587-.825-.028-1.495,0-2.989-.058-4.483-.035-.888-.4-1.247-1.037-1.224a1.625,1.625,0,0,0-1.587,1.448c0,1.476.012,2.951-.007,4.428-.006.376.074.6.49.62.276.013.409.154.394.46-.016.35-.244.294-.453.294q-1.269,0-2.538,0c-.194,0-.4.044-.4-.277,0-.24.019-.451.312-.447.638.008.672-.371.669-.882q-.028-4.545,0-9.091c0-.378-.035-.643-.487-.675-.2-.013-.433-.021-.437-.35,0-.349.228-.353.464-.4.443-.087.889-.167,1.321-.291.487-.138.7-.076.682.517-.043,1.3-.013,2.6-.013,3.9Z" fill="#26335c"/>
    <path id="Контур_1454" data-name="Контур 1454" d="M1068.437,7200.08a6.756,6.756,0,0,1,1.281-.8,1.97,1.97,0,0,1,2.912,1.92q.031,2.244,0,4.488c-.008.525-.023.977.684,1,.35.013.2.317.22.506.029.237-.15.228-.309.228q-1.329,0-2.658,0c-.192,0-.352-.006-.342-.274.007-.234.005-.449.315-.452.439,0,.533-.231.525-.641-.025-1.477-.008-2.953-.01-4.43,0-.849-.222-1.287-.7-1.414a2.29,2.29,0,0,0-1.854.715.616.616,0,0,0-.062.4c0,1.595.011,3.19-.014,4.785,0,.359.124.5.447.521.373.023.422.253.394.563-.033.38-.318.218-.491.222-.825.017-1.652.01-2.479.008-.169,0-.376.047-.363-.242.011-.211-.051-.481.278-.477.65.008.7-.357.7-.9-.025-3.051-.017-6.1,0-9.154,0-.38-.074-.583-.49-.616-.2-.015-.477,0-.474-.374s.3-.314.491-.365c.473-.127.96-.211,1.435-.331.422-.1.59-.009.58.477-.032,1.514-.011,3.027-.011,4.637" fill="#26335c"/>
    <path id="Контур_1455" data-name="Контур 1455" d="M1013.345,7197.6q0,5.227,0,10.454c0,.181.1.441-.167.5a3.16,3.16,0,0,1-1.253.27c-.152-.025-.072-.28-.074-.428,0-1.536,0-3.07,0-4.606,0-5.532.008-11.066-.013-16.6,0-.5.139-.674.62-.6a1.045,1.045,0,0,0,.353,0c.447-.076.554.109.552.548-.019,3.485-.012,6.969-.012,10.454" fill="#28355d"/>
    <path id="Контур_1456" data-name="Контур 1456" d="M1039.341,7200.021c.317-.22.549-.4.794-.549a2.4,2.4,0,0,1,2.517-.181,2.032,2.032,0,0,1,.909,2.04c.011,1.555.019,3.11-.008,4.664-.007.412.1.638.516.659.368.017.372.257.359.532-.015.331-.261.234-.432.236-.846.01-1.692,0-2.539.006-.206,0-.392.013-.388-.291,0-.253.053-.437.344-.431.523.007.629-.261.618-.746-.033-1.4-.012-2.794-.012-4.192a2.621,2.621,0,0,0-.15-1.041.914.914,0,0,0-1.087-.59,1.544,1.544,0,0,0-1.436,1.7c0,1.4.016,2.795-.011,4.192-.006.386.087.593.489.61.338.015.473.181.435.532-.046.407-.344.246-.538.249-.827.018-1.654.008-2.481.008-.2,0-.394.027-.384-.285.008-.242.03-.443.329-.443.57,0,.667-.3.656-.819-.036-1.692-.025-3.386-.006-5.078.006-.4-.051-.647-.527-.61-.195.015-.437.047-.454-.3-.017-.319.146-.4.4-.454.439-.1.873-.23,1.31-.342.7-.183.724-.164.743.541,0,.1.015.192.031.386" fill="#26335c"/>
    <path id="Контур_1457" data-name="Контур 1457" d="M1079.552,7182.7a3.7,3.7,0,0,1,2.213-.964,1.721,1.721,0,0,1,1.954,1.686c.1,1.253.05,2.517.063,3.775,0,.434.017.867,0,1.3-.021.458-.04.871.607.876.312,0,.264.276.264.491,0,.279-.209.234-.378.236-.865,0-1.732,0-2.6,0-.213,0-.376-.005-.382-.3-.006-.268.07-.441.34-.428.6.029.627-.327.62-.791-.019-1.416,0-2.834-.008-4.252,0-.837-.251-1.316-.741-1.468a2.158,2.158,0,0,0-1.884.764.624.624,0,0,0-.067.394c0,1.595.01,3.19-.011,4.785-.006.357.124.494.451.525.292.028.532.091.49.49-.046.451-.373.266-.58.272-.806.021-1.614.009-2.422.008-.194,0-.4.036-.4-.28,0-.243.025-.452.316-.452.6,0,.656-.343.646-.844-.029-1.673-.025-3.346,0-5.019.006-.4-.064-.624-.513-.633-.179,0-.441.043-.453-.314s.211-.375.439-.433c.455-.122.911-.24,1.365-.366s.748-.1.656.491a2.7,2.7,0,0,0,.021.451" fill="#28355d"/>
    <path id="Контур_1458" data-name="Контур 1458" d="M1008.634,7197.792c0-3.524.016-7.049-.015-10.574-.005-.545.158-.694.652-.618a1.776,1.776,0,0,0,.472,0c.279-.03.386.069.374.36-.021.492-.006.984-.006,1.477q0,9.924-.007,19.849c0,.232.16.568-.15.684a1.768,1.768,0,0,1-1.217-.011c-.217-.08-.1-.354-.1-.536q-.011-5.316-.006-10.633" fill="#26335c"/>
    <path id="Контур_1459" data-name="Контур 1459" d="M1006.883,7197.751c0,3.5-.009,7.011.01,10.517,0,.513-.1.644-.622.482-.838-.264-.848-.233-.848-1.11q0-10.219-.011-20.442c0-.5.124-.629.612-.606.858.041.859.011.859.878Z" fill="#26335c"/>
    <path id="Контур_1460" data-name="Контур 1460" d="M1048.114,7185.627a5.775,5.775,0,0,1-.7,3.023,3,3,0,0,1-2.927,1.612,2.883,2.883,0,0,1-2.529-1.928,5.849,5.849,0,0,1,.044-4.7,2.98,2.98,0,0,1,3.3-2,3.225,3.225,0,0,1,2.66,2.784c.089.46.116.933.148,1.205m-4.907.411a7.393,7.393,0,0,0,.326,2.389c.2.552.488,1.051,1.163,1.107a1.334,1.334,0,0,0,1.281-1.038,8.286,8.286,0,0,0,.059-5.156,1.251,1.251,0,0,0-1.192-1.055c-.659,0-1,.479-1.222,1.038a7.983,7.983,0,0,0-.415,2.715" fill="#28355d"/>
    <path id="Контур_1461" data-name="Контур 1461" d="M1053.386,7185.761c-.571,0-1.141.013-1.711-.006-.3-.011-.422.069-.392.394a5.373,5.373,0,0,0,.481,1.99,1.641,1.641,0,0,0,2.884.295c.139-.171.211-.426.544-.221.236.145.3.236.159.5a2.717,2.717,0,0,1-2.45,1.564,2.514,2.514,0,0,1-2.618-1.445,6.362,6.362,0,0,1,.242-6,2.46,2.46,0,0,1,2.635-1.177,2.335,2.335,0,0,1,2.055,1.7,7.18,7.18,0,0,1,.346,2.026c.019.316-.1.4-.4.394-.59-.021-1.181-.006-1.772-.006m-.781-.694c.353,0,.707-.006,1.062,0,.187,0,.3-.048.285-.261a4.235,4.235,0,0,0-.382-1.887.948.948,0,0,0-1.618-.173,2.441,2.441,0,0,0-.511,1.112c-.3,1.205-.3,1.207.928,1.207h.236" fill="#28355d"/>
    <path id="Контур_1462" data-name="Контур 1462" d="M1078.693,7203.054c-.591,0-1.183.012-1.774,0-.279-.007-.376.073-.353.369a5.3,5.3,0,0,0,.483,2.052,1.627,1.627,0,0,0,2.876.287c.2-.263.342-.369.644-.164.343.232.061.416-.03.589a2.652,2.652,0,0,1-2.587,1.432,2.523,2.523,0,0,1-2.438-1.561,6.472,6.472,0,0,1,.173-5.7,2.563,2.563,0,0,1,3-1.339,2.663,2.663,0,0,1,2.035,2.464c.264,1.572.264,1.572-1.318,1.572h-.709m-.806-.676v0c.354,0,.707,0,1.061,0,.186,0,.306-.059.291-.267a4.364,4.364,0,0,0-.367-1.83.96.96,0,0,0-1.652-.187,2.459,2.459,0,0,0-.5,1.116c-.272,1.166-.268,1.168.929,1.168Z" fill="#28355d"/>
    <path id="Контур_1463" data-name="Контур 1463" d="M1097.787,7185.722c-.57,0-1.14.019-1.709-.006-.384-.017-.464.122-.408.485a6.027,6.027,0,0,0,.479,1.934,1.636,1.636,0,0,0,2.878.306c.2-.253.331-.4.65-.181.384.259.046.456-.049.627a2.7,2.7,0,0,1-2.725,1.383,2.5,2.5,0,0,1-2.3-1.578,6.467,6.467,0,0,1,.234-5.744,2.5,2.5,0,0,1,2.745-1.292,2.372,2.372,0,0,1,2.059,1.775,9.132,9.132,0,0,1,.314,1.972c.032.3-.118.323-.341.321-.608,0-1.218,0-1.829,0m-2.134-.654h1.37c1.512,0,1.553-.055,1.179-1.557-.019-.074-.052-.146-.076-.222-.154-.477-.407-.879-.956-.907a1.145,1.145,0,0,0-1.111.814,5.825,5.825,0,0,0-.406,1.872" fill="#26335c"/>
    <path id="Контур_1464" data-name="Контур 1464" d="M1057.549,7203.053c-.591,0-1.18.008-1.77,0-.243,0-.369.053-.338.329a5.827,5.827,0,0,0,.5,2.106,1.649,1.649,0,0,0,2.89.276c.167-.217.26-.386.589-.194.4.236.118.439.019.622a2.682,2.682,0,0,1-2.53,1.429,2.487,2.487,0,0,1-2.441-1.456,6.32,6.32,0,0,1,.272-6.039,2.46,2.46,0,0,1,2.711-1.118,2.36,2.36,0,0,1,1.967,1.722c.013.036.023.074.036.112a6.4,6.4,0,0,1,.261,2.145,9.414,9.414,0,0,1-1.808.07c-.118.006-.236,0-.354,0m-.743-.669c.315,0,.631-.015.945,0,.294.019.431-.056.389-.388a5.791,5.791,0,0,0-.27-1.5,1.033,1.033,0,0,0-.931-.783,1.1,1.1,0,0,0-1.027.669,5.3,5.3,0,0,0-.444,1.58c-.073.353.062.448.393.425.314-.022.629-.005.945-.005" fill="#26335c"/>
    <path id="Контур_1465" data-name="Контур 1465" d="M1033.542,7195.705c.512,0,1.023,0,1.535,0,.165,0,.376-.056.366.235-.005.228.067.531-.285.525-.8-.015-.791.481-.787,1.076q.031,4.161,0,8.321c0,.477.059.789.618.8.2,0,.432.02.426.349,0,.287-.053.428-.386.42-1-.019-2.006-.007-3.009-.005-.183,0-.362.019-.343-.261.016-.216-.036-.464.3-.46.683.01.772-.365.766-.964-.032-2.851-.024-5.705,0-8.556,0-.46-.085-.706-.595-.67-.325.023-.475-.112-.473-.484,0-.458.3-.316.519-.323.452-.014.9,0,1.357,0" fill="#26335c"/>
    <path id="Контур_1466" data-name="Контур 1466" d="M1063.574,7200.726c0,1.751.011,3.5-.01,5.254-.006.394.063.647.5.664.342.015.392.216.382.513-.009.376-.272.264-.458.266-.827.01-1.654.008-2.481,0-.177,0-.409.08-.4-.257,0-.262.012-.473.352-.477.527,0,.633-.293.629-.787-.025-3.089-.017-6.178-.006-9.269,0-.379-.015-.645-.5-.634-.172.006-.451.042-.457-.313-.007-.318.194-.329.411-.377.479-.1.96-.2,1.433-.33.451-.122.63-.035.62.49-.03,1.751-.011,3.5-.011,5.255" fill="#28355d"/>
    <path id="Контур_1467" data-name="Контур 1467" d="M1068.319,7183.342a6.366,6.366,0,0,1,1.025-1.3,1.131,1.131,0,0,1,1.368-.026,1.155,1.155,0,0,1,.073,1.369c-.145.2-.3.351-.592.228-.317-.135-.606-.5-1.013-.179a1.869,1.869,0,0,0-.789,1.392c-.032.61-.01,1.222-.01,1.832,0,.669.029,1.341-.009,2.008-.027.45.114.667.574.66a3.163,3.163,0,0,1,.35.053c.3.028.314.22.308.46-.008.272-.183.258-.363.258h-2.954c-.185,0-.358.008-.356-.264,0-.23,0-.475.295-.468.692.016.69-.4.682-.922-.024-1.674-.021-3.347,0-5.022,0-.384-.078-.591-.5-.6-.194,0-.452.044-.479-.295s.232-.353.453-.41c.494-.132.988-.259,1.482-.39.312-.082.487-.021.459.359s-.006.745-.006,1.257" fill="#26335c"/>
    <path id="Контур_1468" data-name="Контур 1468" d="M1015.071,7202.508c0-1.652.014-3.3-.009-4.955-.006-.424.08-.578.544-.562,1.011.034,1.013,0,1.013,1.024q0,4.423,0,8.848c0,.407-1.07,1.219-1.435,1.076-.194-.074-.107-.276-.107-.418q-.008-2.506,0-5.013" fill="#28355d"/>
    <path id="Контур_1469" data-name="Контур 1469" d="M1003.673,7207.955a6.756,6.756,0,0,1-1.234-.479c-.225-.091-.253-.262-.253-.475q.006-4.813,0-9.629c0-.276.078-.363.365-.377,1.124-.047,1.124-.059,1.124,1.08v9.88Z" fill="#28355d"/>
    <path id="Контур_1470" data-name="Контур 1470" d="M1014.3,7184.209a6.342,6.342,0,0,1-.816.9c-.2.15-.359-.152-.513-.272-1.078-.823-2.154-1.65-3.207-2.5a.487.487,0,0,0-.744,0c-1.085.879-2.205,1.713-3.288,2.592-.694.56-.73-.269-1.035-.478-.4-.272.031-.412.189-.54,1.38-1.108,2.773-2.2,4.154-3.306.243-.2.4-.254.688-.024,1.408,1.135,2.84,2.239,4.262,3.357.1.08.194.171.31.276" fill="#28355d"/>
    <path id="Контур_1471" data-name="Контур 1471" d="M1074.6,7185.49c0,1.082.015,2.162-.008,3.243-.009.386.093.586.5.6.268.01.479.086.46.456-.021.4-.287.3-.5.3-.825.007-1.65,0-2.475,0-.2,0-.394.02-.394-.286,0-.247.036-.454.316-.458.536-.007.549-.331.544-.745-.018-1.671-.014-3.34,0-5.011,0-.39-.014-.7-.521-.706-.156,0-.344-.049-.339-.311s.15-.314.362-.365c.5-.118.988-.249,1.475-.4.416-.13.6-.065.583.435-.032,1.08-.009,2.159-.009,3.241" fill="#26335c"/>
    <path id="Контур_1472" data-name="Контур 1472" d="M1084.965,7202.828c0,1.063.015,2.125-.008,3.188-.009.373.059.591.479.614.285.015.515.1.485.5-.034.457-.348.289-.559.293-.806.019-1.612.008-2.42.008-.2,0-.4.024-.392-.285.006-.24.025-.44.329-.447.506-.015.607-.285.6-.761-.032-1.692-.026-3.385,0-5.077.006-.392-.106-.571-.487-.62-.2-.027-.441,0-.441-.344s.251-.314.438-.369c.452-.131.912-.236,1.366-.361.428-.12.647-.067.626.477-.044,1.061-.013,2.125-.013,3.188" fill="#28355d"/>
    <path id="Контур_1473" data-name="Контур 1473" d="M1084,7197.026a1.029,1.029,0,0,1-1.012-1.066,1.015,1.015,0,0,1,1.048-1.027,1.057,1.057,0,0,1,1.061,1.031,1.079,1.079,0,0,1-1.1,1.062" fill="#28355d"/>
    <path id="Контур_1474" data-name="Контур 1474" d="M1074.723,7178.663a1.093,1.093,0,0,1-1.043,1.068,1.081,1.081,0,0,1-1.048-1.062,1.046,1.046,0,0,1,2.091-.006" fill="#28355d"/>
    <path id="Контур_1475" data-name="Контур 1475" d="M1034.3,7186.738c0-.668.015-1.337-.006-2-.009-.314.1-.415.4-.4a9.493,9.493,0,0,1,1.525.1c1.521.332,2.214,1.749,1.694,3.469a2.433,2.433,0,0,1-3.228,1.407.533.533,0,0,1-.4-.569c.023-.665.008-1.334.008-2" fill="#fff"/>
    <path id="Контур_1476" data-name="Контур 1476" d="M1034.3,7181.428c0-.61.007-1.219,0-1.829a.393.393,0,0,1,.289-.437,1.9,1.9,0,0,1,2.76,1.679,5.485,5.485,0,0,1,0,.941,1.81,1.81,0,0,1-1.946,1.847c-.215.01-.434,0-.647.025-.365.048-.481-.089-.46-.456.031-.589.008-1.181.008-1.77" fill="#fff"/>
    <path id="Контур_1477" data-name="Контур 1477" d="M1049.139,7209.67a3.37,3.37,0,0,1-1.114-.12,1.26,1.26,0,0,1-.561-2.184.581.581,0,0,1,.5-.245,22.581,22.581,0,0,1,2.69.268c.355.072.642.2.734.577a.993.993,0,0,1-.346,1.057,3.019,3.019,0,0,1-1.9.647" fill="#fff"/>
    <path id="Контур_1478" data-name="Контур 1478" d="M1047.738,7201.682a3.418,3.418,0,0,1,.152-1.279,1.036,1.036,0,0,1,.981-.793,1.013,1.013,0,0,1,1.051.7,4.208,4.208,0,0,1,.036,2.825.973.973,0,0,1-.949.677,1.036,1.036,0,0,1-1.036-.633,3.307,3.307,0,0,1-.235-1.5" fill="#fff"/>
    <path id="Контур_1479" data-name="Контур 1479" d="M1088.389,7189.75c.979.116,1.722.177,2.456.3a.9.9,0,0,1,.53,1.545,3.279,3.279,0,0,1-3.663.394,1.147,1.147,0,0,1-.342-1.428c.23-.548.555-.972,1.019-.812" fill="#fff"/>
    <path id="Контур_1480" data-name="Контур 1480" d="M1043.207,7186.038a7.983,7.983,0,0,1,.415-2.715c.224-.559.563-1.034,1.222-1.038a1.251,1.251,0,0,1,1.192,1.055,8.286,8.286,0,0,1-.059,5.156,1.334,1.334,0,0,1-1.281,1.038c-.675-.056-.96-.555-1.163-1.107a7.393,7.393,0,0,1-.326-2.389" fill="#fff"/>
    <path id="Контур_1481" data-name="Контур 1481" d="M1052.6,7185.067h-.236c-1.223,0-1.228,0-.928-1.207a2.446,2.446,0,0,1,.511-1.112.948.948,0,0,1,1.618.173,4.239,4.239,0,0,1,.382,1.886c.014.215-.1.266-.285.262-.355-.007-.709,0-1.062,0" fill="#fff"/>
    <path id="Контур_1482" data-name="Контур 1482" d="M1077.887,7202.378h-.236c-1.2,0-1.2,0-.929-1.168a2.459,2.459,0,0,1,.5-1.116.96.96,0,0,1,1.652.187,4.364,4.364,0,0,1,.367,1.83c.015.208-.1.268-.291.267-.354-.006-.707,0-1.061,0Z" fill="#fff"/>
    <path id="Контур_1483" data-name="Контур 1483" d="M1095.653,7185.068a5.825,5.825,0,0,1,.406-1.872,1.145,1.145,0,0,1,1.111-.814c.549.028.8.43.956.907.024.076.057.148.076.222.374,1.5.333,1.557-1.179,1.557Z" fill="#fff"/>
    <path id="Контур_1484" data-name="Контур 1484" d="M1056.806,7202.384c-.316,0-.631-.017-.945.005-.331.023-.466-.072-.393-.425a5.3,5.3,0,0,1,.444-1.58,1.1,1.1,0,0,1,1.027-.669,1.033,1.033,0,0,1,.931.783,5.791,5.791,0,0,1,.27,1.5c.042.332-.095.407-.389.388-.314-.019-.63,0-.945,0" fill="#fff"/>
    <rect id="Прямоугольник_398" data-name="Прямоугольник 398" width="113.456" height="33.714" transform="translate(993.272 7176.792)" fill="none"/>
  </g>
</svg>
