<svg xmlns="http://www.w3.org/2000/svg" width="97.767" height="47.399" viewBox="0 0 97.767 47.399">
  <g id="Сгруппировать_309" data-name="Сгруппировать 309" transform="translate(-461.117 -7278.305)">
    <rect id="Прямоугольник_403" data-name="Прямоугольник 403" width="97.767" height="47.399" transform="translate(461.117 7278.305)" fill="#09508a"/>
    <path id="Контур_1542" data-name="Контур 1542" d="M510.393,7311.016c23.585,0,42.29-.359,42.29-.683s-18.775-.906-42.362-.906-43.048.58-43.048.906,19.537.683,43.12.683" fill="#d00f29"/>
    <path id="Контур_1543" data-name="Контур 1543" d="M533.819,7305.778c.064.044-.16.267-.077.306-1.918-.01-4.444-.431-3.981-1.83l.824-2.68a25.025,25.025,0,0,1-3.17.48c-1.68.194-3.386.225-3.743,1.29s1.232,1.266,3.016,1.266a20.533,20.533,0,0,0,2.485-.243c.108-.013-.01.318.1.3l-2.423,1.305c-.59.054-1.308.108-1.883.108-3.4,0-5.552-1.286-5.05-2.726,1.186-3.407,10.889-2.144,11.287-3.648.193-.726-1.5-.947-2.746-.947a21.171,21.171,0,0,0-4.66.68c-.084.018-.095-.3-.177-.28l3.075-1.764,2.228-.107c3.762.053,6.21.7,5.538,2.806l-.871,2.618c-.431,1.284-.851,2.58.229,3.062" fill="#fff"/>
    <path id="Контур_1544" data-name="Контур 1544" d="M549.48,7303.941a11.43,11.43,0,0,1-3.7.668c-3.738,0-6.393-1.162-5.725-3.168.55-1.655,3.139-2.677,6.4-2.677a7.133,7.133,0,0,1,3.822.853h.218l.7-2.093a32.846,32.846,0,0,0-3.784-.238c-5.083,0-10.257,1.614-11.254,4.608-.76,2.268,2.807,4.191,7.992,4.191a27.254,27.254,0,0,0,4.736-.369Z" fill="#fff"/>
    <path id="Контур_1545" data-name="Контур 1545" d="M502.6,7305.826c1.455.115,3.488.259,5.354.259,6.125,0,10.65-1.923,11.562-4.661.8-2.388-1.833-4.079-5.674-4.079a18.959,18.959,0,0,0-2.794.187l-2.362,1.748a13.073,13.073,0,0,1,3.114-.379c3.4,0,4.441,1.146,3.876,2.838-.578,1.726-2.934,2.8-6.639,2.8a16.508,16.508,0,0,1-2.507-.182l3.526-10.571-.3.051a5.526,5.526,0,0,1-2.235.228h-.994Z" fill="#fff"/>
    <path id="Контур_1546" data-name="Контур 1546" d="M492.242,7305.857h4.7l.105-.316c-1.335-.436-.971-.924-.7-1.725l.816-2.493c.6-1.8,1.757-2.333,4.314-2.333a3.158,3.158,0,0,1,1.542.374l.67-2.012-1.409-.064a7.955,7.955,0,0,0-4.117,1.081l.359-1.083H498.2a6.5,6.5,0,0,1-2.131.23h-1.04Z" fill="#fff"/>
    <path id="Контур_1547" data-name="Контур 1547" d="M485.476,7294.487a3.4,3.4,0,0,1,1.865-2.272l-.013-.344-3.762,0-4.089,11.355-7.855-11.324-4.387.018v.346a5.019,5.019,0,0,1,2.538,2.272l6.426,9.154a6.052,6.052,0,0,0,5.275,2.42Z" fill="#fff"/>
    <path id="Контур_1548" data-name="Контур 1548" d="M485.345,7305.857h4.679l.116-.316c-1.333-.436-.973-.978-.706-1.777l2.2-6.528H491.3a22.8,22.8,0,0,1-2.365.083h-.775Z" fill="#fff"/>
    <path id="Контур_1549" data-name="Контур 1549" d="M489.064,7294.546h3.412l.873-2.549H489.9Z" fill="#d00f29"/>
    <rect id="Прямоугольник_404" data-name="Прямоугольник 404" width="97.767" height="47.399" transform="translate(461.117 7278.305)" fill="none"/>
  </g>
</svg>
