<svg xmlns="http://www.w3.org/2000/svg" width="103.49" height="49.312" viewBox="0 0 103.49 49.312">
  <g id="Сгруппировать_313" data-name="Сгруппировать 313" transform="translate(-278.255 -7277.348)">
    <path id="Контур_1625" data-name="Контур 1625" d="M320.105,7277.348l5.925.026-.016,19.959s-1.162-.085-2.505-.069a7,7,0,0,0-1.9.168,4.6,4.6,0,0,0-1.5.369" fill="#13805a"/>
    <path id="Контур_1626" data-name="Контур 1626" d="M335.163,7277.354l-5.925.026.014,19.959s1.163-.085,2.507-.071a7.191,7.191,0,0,1,1.9.168,4.657,4.657,0,0,1,1.5.371" fill="#022950"/>
    <path id="Контур_1627" data-name="Контур 1627" d="M318.912,7290.1v-4.786s-.847-.584-1.431-.934a4.958,4.958,0,0,0-1.108-.5,9.47,9.47,0,0,0-3.94-.321,5.335,5.335,0,0,0-3.5,1.458,5.876,5.876,0,0,0-1.867,2.832,14.415,14.415,0,0,0-.5,2.306v13.366a18.6,18.6,0,0,1,2.686-2.072,12.289,12.289,0,0,1,3.328-1.43l.059-7.646a5.237,5.237,0,0,1,.437-2.218,2.315,2.315,0,0,1,1.751-1.371,4.238,4.238,0,0,1,2.6.261,9.238,9.238,0,0,1,1.488,1.051" fill="#13805a"/>
    <path id="Контур_1628" data-name="Контур 1628" d="M336.311,7290.079v-4.786s.848-.585,1.431-.935a4.991,4.991,0,0,1,1.108-.5,9.47,9.47,0,0,1,3.94-.321,5.341,5.341,0,0,1,3.5,1.458,5.877,5.877,0,0,1,1.868,2.832,14.411,14.411,0,0,1,.5,2.306V7303.5a18.5,18.5,0,0,0-2.686-2.073,12.289,12.289,0,0,0-3.328-1.43l-.057-7.646a5.257,5.257,0,0,0-.439-2.218,2.318,2.318,0,0,0-1.751-1.371,4.243,4.243,0,0,0-2.6.262,9.182,9.182,0,0,0-1.488,1.051" fill="#022950"/>
    <path id="Контур_1629" data-name="Контур 1629" d="M291.572,7306.224l-5.238,7.36.017-7.009h-2.664v2.5l-2.75.018.018-2.523h-2.7l.019,7.867h2.663v-2.627l2.75-.019v2.646h5.256l.982-1.384,1.613,2.418,1.558-2.452,1.034,1.435h3.26Zm-1.507,6.748,1.473-2.26,1.526,2.268Z" fill="#022950"/>
    <path id="Контур_1630" data-name="Контур 1630" d="M296.707,7306.576H299.3v4.592a1.343,1.343,0,0,0,1.3.891,1.507,1.507,0,0,0,1.4-.891l-.017-4.575,2.612-.017v4.607a4.409,4.409,0,0,1-.456,1.578,5.686,5.686,0,0,1-1.4,1.421,3.726,3.726,0,0,1-1.331.506,8.94,8.94,0,0,1-1.438.019,3.554,3.554,0,0,1-2.173-1.157,4.021,4.021,0,0,1-.806-1.139,3.549,3.549,0,0,1-.279-1.228" fill="#022950"/>
    <path id="Контур_1631" data-name="Контур 1631" d="M314.032,7309.025a3.347,3.347,0,0,0-.368-1,1.835,1.835,0,0,0-.563-.777,2.95,2.95,0,0,0-1.206-.633c-.383-.083-5.536-.05-5.536-.05v7.927l2.675-.018v-1.33l2.478-.067s.3.135,1.157-.521a2.523,2.523,0,0,0,.978-1.1,3.575,3.575,0,0,0,.42-1.158,4.176,4.176,0,0,0-.035-1.281m-2.52,1.182a.578.578,0,0,1-.4.337,1.608,1.608,0,0,1-.325.01l-1.739,0,0-1.457,2.048.017s.141,0,.313.221a.806.806,0,0,1,.112.875" fill="#022950"/>
    <path id="Контур_1632" data-name="Контур 1632" d="M314.484,7306.568h7.557l.017,2.541H319.6l-.016,5.382h-2.62v-5.367h-2.476" fill="#022950"/>
    <path id="Контур_1633" data-name="Контур 1633" d="M323.16,7314.492h2.7l-.016-3.163,4.106,3.147h1.229l.017-7.876-2.686-.031-.014,3-4.155-2.973-1.167-.031" fill="#022950"/>
    <path id="Контур_1634" data-name="Контур 1634" d="M339.778,7306.572l-6.985-.018v7.944h6.985v-2.643l-2.465-.034,1.171-1.242-1.171-1.4,2.465.019Zm-2.855,5.249-1.4-.019.017-2.64,1.436-.019-1.171,1.346Z" fill="#022950"/>
    <path id="Контур_1635" data-name="Контур 1635" d="M349.22,7309.341a7.547,7.547,0,0,0-.273-.926,2.847,2.847,0,0,0-.522-.827c-.36-.394-.348-.307-.8-.557a6.63,6.63,0,0,0-1.676-.435c-.07-.007-4.61-.012-4.61-.012v7.919l2.66-.01.009-1.122,1.035-.012.687,1.134,3.127-.013-1.209-1.654.9-.719a2.809,2.809,0,0,0,.458-.665,3.711,3.711,0,0,0,.207-1s.032-.848,0-1.1m-2.995,1.2a1.025,1.025,0,0,1-.205.13h-2v-1.428l2.028,0a.6.6,0,0,1,.307.158.706.706,0,0,1,.2.534.965.965,0,0,1-.338.608" fill="#022950"/>
    <path id="Контур_1636" data-name="Контур 1636" d="M330.892,7319.942a3.779,3.779,0,0,0-.6.167l-.494.184.075-.375h-1.736l-2.428,5.384H319.6l-.05-.2.05-.225.456-.973h4.529s1.349-3.012,1.4-3.189a.67.67,0,0,0,.026-.449.623.623,0,0,0-.3-.349c-.1-.024-4.94-.026-5.084,0a1.5,1.5,0,0,0-.5.3,1.928,1.928,0,0,0-.248.351l-1,2.093H316.56l2.518-5.483h-1.746l-2.542,5.458h-2.517l2.517-5.458h-1.8l-2.542,5.483h-4.287l-.673,1.245h4.387l-1.2,2.693h1.771l1.2-2.667h2.518l-1.222,2.691,1.72.026,1.3-2.717h2.294a16.272,16.272,0,0,0-.874,2.069c-.019.312.045.329.075.372a1.939,1.939,0,0,0,.36.276c.07.024,9.038,0,9.038,0s2.279-5.164,2.378-5.261a.308.308,0,0,1,.164-.1l1.67-.024.548-1.322a6.149,6.149,0,0,0-.723,0m-9.671,1.447a.275.275,0,0,1,.149-.125h2.343a.157.157,0,0,1,.149.074.338.338,0,0,1,0,.224l-.523,1.1H320.7s.461-1.169.523-1.271" fill="#13805a"/>
    <path id="Контур_1637" data-name="Контур 1637" d="M351.628,7319.976a3.4,3.4,0,0,0-.563.167c-.241.09-.531.232-.531.232l.132-.464h-1.691l-2.422,5.41-6.134,0a.3.3,0,0,1-.135-.2c-.007-.12.033-.127.1-.3s.532-.9.532-.9h4.411s1.448-3.2,1.469-3.276a1.17,1.17,0,0,0-.01-.407.6.6,0,0,0-.265-.3,1.467,1.467,0,0,0-.391-.017s-4.5-.019-4.716.017a.946.946,0,0,0-.763.564c-.134.236-.963,2.157-.963,2.157h-2.122s.8-1.949.829-2.056a.688.688,0,0,0,.034-.3.664.664,0,0,0-.3-.365,2,2,0,0,0-.563-.032h-3.283l1.261-2.752-1.826.031s-3.931,8.554-3.945,8.889.182.4.182.4a1.8,1.8,0,0,0,.414.134c.117,0,4.476.049,4.644.033a1.6,1.6,0,0,0,.63-.3,1.635,1.635,0,0,0,.364-.5l.3-.629.664-1.261h2.09s-.907,1.894-.93,2.123a.52.52,0,0,0,.243.424.708.708,0,0,0,.29.141c.109.012,8.987-.033,8.987-.033s2.279-5.05,2.388-5.174a.356.356,0,0,1,.233-.132h1.559l.629-1.394s-.68.038-.829.065m-10.12,2.569c.012-.1.5-1.233.5-1.233s2.5-.03,2.622,0a.106.106,0,0,1,.071.153l-.571,1.2c-1.9-.014-2.537,0-2.594-.01s-.031-.085-.026-.116m-5.339-1.115a.4.4,0,0,1-.033.135c-.026.048-1.8,3.758-1.8,3.758h-2.172a1.146,1.146,0,0,1-.2,0c-.092-.012-.078-.17-.078-.17a.474.474,0,0,1,.03-.126c.027-.078,1.8-3.723,1.8-3.723s2.32-.014,2.393.006.064.1.062.124" fill="#13805a"/>
    <path id="Контур_1638" data-name="Контур 1638" d="M381.218,7323.91l.527-1.244-5.243,0,1.553-1.387.7-1.349-5.355-.007-.505,1.387,2.924-.007-1.583,1.361-1.114,0-.52,1.254-1.715,1.4-1.46,0s-.1-.022-.107-.027c-.073-.039-.1-.077-.089-.146a1.862,1.862,0,0,1,.134-.3l3.548-7.628h-1.79l-2.485,5.441-2.239.009s.932-2.069.942-2.133a.437.437,0,0,0-.132-.4,1.044,1.044,0,0,0-.466-.218s-4.257-.045-4.741.053-.6.3-.6.3a1.227,1.227,0,0,0-.267.364c-.137.267-2.153,4.677-2.153,4.677l-1.953.012,1.984-4.323a2.366,2.366,0,0,0,.2-.531c.005-.135-.2-.341-.263-.4a.919.919,0,0,0-.4-.164c-.136-.011-3.515,0-3.515,0l1.226-2.721-1.793.01-4.244,9.409h1.66l2.52-5.306h2.354s.153,0,.169.028-.054.185-.077.236-1.864,3.958-1.914,4.118a.643.643,0,0,0-.068.427.563.563,0,0,0,.266.333,2.548,2.548,0,0,0,.459.176c.09.016,8.312.023,8.459,0a1.558,1.558,0,0,0,.368-.142,1.534,1.534,0,0,0,.4-.4c.094-.186.332-.7.332-.7l.7-1.457h2.155s-.8,1.765-.829,1.855a.815.815,0,0,0,.033.531.8.8,0,0,0,.331.265,2,2,0,0,0,.529.049h7.606l.673-1.292-3.226,0,1.658-1.412Zm-17.621,1.1-.163.311s-2.567,0-2.589,0a.118.118,0,0,1-.1-.142c.017-.1,1.658-3.616,1.658-3.616s.078-.218.23-.251,2.456-.014,2.456-.014.166.005.131.1-1.624,3.615-1.624,3.615" fill="#13805a"/>
    <rect id="Прямоугольник_413" data-name="Прямоугольник 413" width="103.489" height="49.312" transform="translate(278.256 7277.349)" fill="none"/>
  </g>
</svg>
