<svg xmlns="http://www.w3.org/2000/svg" width="112.106" height="31.798" viewBox="0 0 112.106 31.798">
  <g id="Сгруппировать_315" data-name="Сгруппировать 315" transform="translate(-813.947 -7286.105)">
    <path id="Контур_1639" data-name="Контур 1639" d="M898.433,7299.45c.966,0,1.932,0,2.9,0a.66.66,0,0,0,.715-.6,13.438,13.438,0,0,1,3.475-6.238,18.482,18.482,0,0,1,7.865-4.888,24.189,24.189,0,0,1,6.524-1.153c.4-.016.613.138.615.532q.01,2.019,0,4.037a.569.569,0,0,1-.58.618c-.819.087-1.642.153-2.451.3a16.031,16.031,0,0,0-2.3.562,14.545,14.545,0,0,0-5.11,2.855,8.769,8.769,0,0,0-3.206,6.3,8.209,8.209,0,0,0,2.381,6.022,13.664,13.664,0,0,0,6.175,3.75,15.641,15.641,0,0,0,4.432.742.6.6,0,0,1,.667.677q0,2,0,3.99c0,.4-.175.581-.618.573a21.5,21.5,0,0,1-11.148-3.324,17.352,17.352,0,0,1-3.713-3.3,13.728,13.728,0,0,1-3.012-5.64.731.731,0,0,0-.835-.588c-1.742.009-3.485,0-5.228,0-.205,0-.412,0-.616-.022a.439.439,0,0,1-.434-.511c.006-1.36.007-2.721,0-4.082,0-.436.22-.6.614-.6q1.45,0,2.9,0Z" fill="#b0be29"/>
    <path id="Контур_1640" data-name="Контур 1640" d="M861.852,7308.5c-.634,0-1.267,0-1.9,0-.614.006-.823-.223-.767-.844.026-.283.04-.568.041-.853q0-9.383,0-18.764c0-.332-.021-.664-.039-1-.025-.46.17-.687.636-.677,2.564.052,5.138-.011,7.688.2,3.274.273,5.931,1.759,7.24,4.9a8.577,8.577,0,0,1-.946,8.748,8.36,8.36,0,0,1-4.679,2.975,18.56,18.56,0,0,1-4.191.4c-.446.028-.588.192-.587.6.005,1.14,0,2.28,0,3.42,0,.847-.053.889-.882.87-.538-.013-1.077,0-1.615,0Zm2.5-13.543c0,1.077,0,2.154,0,3.231,0,.695.1.812.806.783a15.02,15.02,0,0,0,2.312-.211,3.037,3.037,0,0,0,2.378-1.9,4.741,4.741,0,0,0,.3-2.383c-.217-1.617-.743-2.623-2.458-3.133A10.641,10.641,0,0,0,865.3,7291c-.9-.054-.95.035-.952.918,0,1.014,0,2.027,0,3.041" fill="#195696"/>
    <path id="Контур_1641" data-name="Контур 1641" d="M825.8,7308.787c-4.148,0-7.227-1.412-9.509-4.336a11.231,11.231,0,0,1-2.137-9.2,10.647,10.647,0,0,1,4.187-6.842,11.3,11.3,0,0,1,6.394-2.26,11.006,11.006,0,0,1,6.5,1.552,10.6,10.6,0,0,1,2.889,2.915.391.391,0,0,1-.123.611l-3.181,2.248c-.345.245-.584.1-.788-.206a5.06,5.06,0,0,0-2.7-2.069,5.972,5.972,0,0,0-7.794,3.92,7.475,7.475,0,0,0,.457,5.723,5.618,5.618,0,0,0,3.986,3.1,6.147,6.147,0,0,0,3.374-.159,5.651,5.651,0,0,0,2.95-2.426c.327-.526.472-.537.978-.18q1.455,1.025,2.927,2.027c.473.323.481.429.168.9a10.018,10.018,0,0,1-4.972,3.951,7.929,7.929,0,0,1-3.61.724" fill="#195696"/>
    <path id="Контур_1642" data-name="Контур 1642" d="M847.972,7308.8c-4.484-.053-7.659-1.665-9.95-4.891a10.177,10.177,0,0,1-1.9-5.642,12.308,12.308,0,0,1,.459-4.275,10.724,10.724,0,0,1,5.732-6.684,11.843,11.843,0,0,1,9.282-.48,9.176,9.176,0,0,1,4.011,2.939c.184.219.354.447.528.674.286.373.262.594-.126.872-1,.72-2.017,1.428-3.022,2.145a.5.5,0,0,1-.807-.134,5.37,5.37,0,0,0-4.9-2.446,5.537,5.537,0,0,0-5.01,2.9,7.166,7.166,0,0,0-.679,5.651,5.839,5.839,0,0,0,3.486,4.173,5.78,5.78,0,0,0,7.246-2.09c.463-.739.537-.719,1.249-.215.93.658,1.875,1.3,2.824,1.927.34.226.448.439.184.81a10.46,10.46,0,0,1-5.084,4.048,8.337,8.337,0,0,1-3.53.715" fill="#195696"/>
    <path id="Контур_1643" data-name="Контур 1643" d="M891.876,7308.517c-.68,0-1.361-.013-2.041,0a.863.863,0,0,1-.9-.624c-.161-.413-.33-.822-.489-1.236a.921.921,0,0,0-.944-.652c-1.487.02-2.975.048-4.463.051a1.092,1.092,0,0,1-.676-.2c-.081-.069.024-.4.1-.594.4-1.016.84-2.016,1.225-3.037a.784.784,0,0,1,.846-.594c.378.011.758-.02,1.138-.031.438-.013.566-.193.4-.616-.455-1.164-.923-2.323-1.381-3.486-.139-.353-.249-.718-.4-1.065-.049-.111-.193-.18-.294-.269a1.32,1.32,0,0,0-.22.282c-1.408,3.56-2.8,7.126-4.219,10.682-.546,1.369-.572,1.351-2.027,1.346-.966,0-1.932.021-2.9.033-.477.006-.637-.232-.438-.668,1.379-3.022,2.775-6.037,4.137-9.066,1.168-2.6,2.3-5.213,3.445-7.819q1-2.257,2.008-4.509c.048-.108.227-.254.3-.232a.647.647,0,0,1,.377.3c.552,1.156,1.082,2.324,1.621,3.486q2.047,4.414,4.1,8.829,1.9,4.115,3.8,8.234c.126.273.288.528.41.8.181.408.014.644-.424.642-.7,0-1.393,0-2.09,0v.01" fill="#195696"/>
    <path id="Контур_1644" data-name="Контур 1644" d="M926.053,7302.073a6.294,6.294,0,0,1-7.623,5.965,6.184,6.184,0,0,1-2.968-1.5c-.309-.295-.309-.418.035-.594a3.949,3.949,0,0,0,.28-7.067,5.994,5.994,0,0,0-.675-.348c-.311-.144-.357-.321-.116-.581a6.318,6.318,0,0,1,11.067,4.12" fill="#b0be29"/>
    <path id="Контур_1645" data-name="Контур 1645" d="M863.519,7314.993h.581v2.182a3.153,3.153,0,0,1-2.1.728,2.912,2.912,0,1,1,.008-5.82,2.817,2.817,0,0,1,2.125.825l-.376.384a2.416,2.416,0,1,0-1.733,4.071,2.472,2.472,0,0,0,1.5-.441Z" fill="#80807f"/>
    <path id="Контур_1646" data-name="Контур 1646" d="M869.2,7317.854l-1.086-1.84a2.766,2.766,0,0,1-.38.025h-1.275v1.815h-.5v-5.722h1.778a1.8,1.8,0,0,1,1.941,1.961,1.77,1.77,0,0,1-1.086,1.8l1.16,1.962Zm-.027-3.761a1.3,1.3,0,0,0-1.452-1.438h-1.262v2.869h1.262a1.3,1.3,0,0,0,1.452-1.431" fill="#80807f"/>
    <path id="Контур_1647" data-name="Контур 1647" d="M870.776,7314.993a3.006,3.006,0,1,1,3.008,2.91,2.879,2.879,0,0,1-3.008-2.91m5.4,0a2.4,2.4,0,1,0-2.4,2.37,2.318,2.318,0,0,0,2.4-2.37" fill="#80807f"/>
    <path id="Контур_1648" data-name="Контур 1648" d="M878.314,7315.41v-3.278h.544v3.253c0,1.357.574,1.978,1.575,1.978s1.582-.621,1.582-1.978v-3.253h.529v3.278c0,1.642-.794,2.493-2.111,2.493s-2.119-.851-2.119-2.493" fill="#80807f"/>
    <path id="Контур_1649" data-name="Контур 1649" d="M888.5,7314.093a1.873,1.873,0,0,1-2.1,1.954h-1.384v1.807h-.544v-5.722h1.928a1.875,1.875,0,0,1,2.1,1.961m-.544,0c0-.915-.544-1.438-1.574-1.438h-1.369v2.861h1.369c1.03,0,1.574-.523,1.574-1.423" fill="#80807f"/>
    <path id="Контур_1650" data-name="Контур 1650" d="M893.6,7317.331v.523h-3.642v-5.723h3.532v.523H890.5v2.036h2.663v.515H890.5v2.125Z" fill="#80807f"/>
    <line id="Линия_8" data-name="Линия 8" x2="1.356" transform="translate(862.519 7315.275)" fill="#12100b"/>
    <line id="Линия_9" data-name="Линия 9" x2="1.356" transform="translate(862.519 7315.275)" fill="none" stroke="#80807f" stroke-miterlimit="10" stroke-width="0.539"/>
    <rect id="Прямоугольник_417" data-name="Прямоугольник 417" width="112.105" height="31.797" transform="translate(813.947 7286.105)" fill="none"/>
    <rect id="Прямоугольник_418" data-name="Прямоугольник 418" width="112.105" height="31.797" transform="translate(813.947 7286.105)" fill="none"/>
  </g>
</svg>
