<svg xmlns="http://www.w3.org/2000/svg" width="99.988" height="48.642" viewBox="0 0 99.988 48.642">
  <g id="Сгруппировать_306" data-name="Сгруппировать 306" transform="translate(-640.006 -7277.683)">
    <path id="Контур_1485" data-name="Контур 1485" d="M640.006,7277.683v24.1h17.548v24.546h82.433l.007-24.409-16.66,0v-24.238Z" fill="#1a90d0"/>
    <path id="Контур_1486" data-name="Контур 1486" d="M652.124,7281.187v3.775l.133-.144.144-.124.142-.119.144-.112.151-.107.156-.094.155-.081.163-.075.169-.062.17-.064.174-.043.174-.037.182-.032.181-.025.188-.012.193-.006.219.006.206.012.206.02.195.025.192.037.181.044.17.057.169.055.156.069.15.075.138.082.131.08.118.094.113.1.1.1.094.113.074.119.075.112.064.112.055.119.05.112.037.113.032.113.018.106.019.131.013.157.012.186.007.22.011.256v.281l.007.312v6.581l-.011.325-.021.307-.018.274-.03.262-.039.231-.037.206-.05.188-.032.089-.03.087-.038.087-.037.082-.05.08-.051.082-.055.074-.057.082-.062.076-.069.073-.068.069-.082.075-.081.069-.082.069-.094.062-.094.068-.092.064-.1.055-.1.057-.1.051-.108.043-.1.044-.112.037-.113.038-.119.03-.119.025-.119.019-.119.02-.124.012-.132.013-.124,0h-.32l-.186-.018-.182-.019-.181-.037-.175-.045-.169-.048-.169-.064-.168-.074-.162-.075-.158-.094-.155-.1-.156-.1-.144-.119-.149-.131-.138-.137-.139-.151-.28.987H647.8v-15.942Zm1.314,6.588v-.244l-.007-.218-.012-.2-.013-.175-.025-.155-.019-.133-.032-.112-.03-.087-.038-.069-.051-.068-.055-.051-.062-.043-.075-.039-.082-.023-.087-.014-.1-.006-.092.006-.082.014-.081.018-.068.03-.057.039-.05.05-.044.055-.032.062-.03.082-.025.106-.019.132-.02.156-.011.181-.007.213-.007.231v6.149l.007.224.013.208.012.174.018.163.025.131.026.107.032.087.036.069.044.062.032.025.025.025.032.025.03.018.069.032.082.019.087.018h.187l.087-.018.081-.019.07-.038.03-.019.032-.025.03-.025.026-.023.018-.032.027-.032.018-.037.012-.037.032-.089.025-.119.018-.142.019-.169.013-.2.012-.224.007-.25v-5.78Zm10.205-4.512h-4.45v-2.074h4.45Zm0,13.866h-4.45v-13.067h4.45Zm11.324-8.479v3.2l-.007.43-.007.394-.018.369-.019.336-.025.307-.038.281-.037.25-.044.22-.025.1-.032.108-.03.1-.038.1-.037.094-.044.1-.043.1-.051.094-.057.094-.055.1-.062.094-.064.087-.062.094-.075.094-.075.087-.074.094-.082.089-.081.08-.088.082-.087.081-.094.075-.094.075-.094.069-.1.069-.107.062-.1.062-.114.057-.1.055-.119.057-.113.05-.119.044-.123.043-.126.044-.126.037-.131.038-.13.031-.137.031-.133.025-.144.026-.137.025-.287.037-.3.025-.306.018H669.7l-.338-.012-.325-.025-.3-.032-.3-.043-.282-.044-.137-.031-.131-.031-.132-.031-.124-.037-.126-.039-.118-.037-.113-.043-.112-.044-.112-.05-.107-.05-.1-.051-.1-.05-.094-.055-.087-.062-.087-.057-.089-.062-.08-.069-.076-.069-.075-.068-.069-.069-.068-.075-.062-.076-.069-.08-.057-.082-.055-.081-.057-.082-.056-.087-.05-.087-.05-.089-.044-.092-.043-.094-.039-.094-.073-.194-.064-.206-.03-.107-.025-.112-.026-.124-.025-.126-.037-.275-.031-.293-.026-.325-.018-.35-.013-.382-.005-.4v-3.351l.005-.224v-.218l.013-.213.012-.206.013-.2.019-.193.018-.187.025-.181.032-.176.03-.163.039-.162.037-.156.036-.151.051-.142.043-.138.057-.132.057-.124.055-.126.069-.119.076-.118.075-.113.08-.112.094-.106.094-.107.094-.1.105-.1.114-.094.113-.094.117-.087.126-.082.13-.087.138-.076.144-.075.144-.067.151-.07.155-.062.163-.056.169-.05.168-.043.175-.046.181-.036.181-.031.2-.025.192-.02.2-.018.2-.012.213-.007.212-.006.181.006h.175l.176.012.167.007.169.018.17.014.155.025.156.018.158.032.149.023.151.039.142.03.144.045.137.037.138.05.132.044.124.05.126.056.124.056.114.057.117.056.107.062.106.057.107.068.094.062.1.069.087.069.088.075.088.069.075.075.08.081.069.075.138.163.125.162.112.163.106.162.089.169.08.17.069.16.062.17.045.181.044.206.037.226.031.243.019.275.018.288.007.318Zm-4.326-.982v-.238l-.005-.218-.007-.194-.013-.168-.019-.15-.018-.119-.025-.1-.025-.08-.037-.062-.044-.051-.05-.043-.057-.039-.069-.03-.074-.018-.082-.014-.093-.006-.094.006-.081.014-.075.018-.069.03-.062.039-.05.043-.044.051-.038.062-.03.08-.025.1-.026.119-.013.15-.018.168-.007.194-.005.218-.007.238v5.894l.007.225.005.2.007.181.018.162.013.138.026.125.025.1.03.074.038.07.044.055.05.051.056.036.068.032.076.025.08.012h.183l.087-.012.075-.018.069-.032.055-.037.05-.045.044-.049.038-.063.026-.069.023-.094.025-.112.014-.124.018-.151.007-.162.005-.188v-6.224Zm14.668-3.606-2.019,13.067h-5.638l-2.168-13.067h3.857l1.211,9.53.019-.144.02-.162.018-.193.026-.213.025-.238.023-.256.025-.287.032-.306.032-.332.03-.355.032-.382.032-.4.037-.43.036-.449.039-.469.043-.5.026-.282.025-.286.025-.282.025-.281.025-.275.024-.281.025-.275.032-.275.025-.275.025-.274.032-.275.023-.275.032-.27.025-.268.032-.269.03-.269Zm10.429,6.762h-5.6v2.83l.007.213.005.188.006.176.019.149.02.137.023.112.026.094.038.069.037.063.044.049.056.045.062.037.076.032.075.018.088.012h.212l.106-.018.05-.012.05-.013.044-.019.043-.018.037-.025.039-.026.037-.025.031-.032.031-.036.025-.032.025-.037.02-.044.044-.093.03-.119.032-.131.018-.158.018-.174.019-.194.007-.211v-1.957h4.1v.962l-.006.294-.006.282-.013.256-.018.243-.025.22-.032.211-.03.187-.039.17-.05.162-.062.169-.074.168-.089.176-.1.174-.119.176-.131.181-.144.181-.082.094-.074.087-.088.082-.081.087-.087.075-.094.074-.094.075-.094.069-.1.069-.1.069-.1.063-.108.055-.1.057-.112.056-.113.05-.119.044-.119.043-.119.045-.125.037-.131.037-.131.039-.137.025-.144.03-.144.025-.149.018-.151.019-.156.02-.162.012-.332.013-.344,0-.336,0-.325-.013-.163-.012-.156-.02-.157-.019-.149-.018-.151-.025-.149-.025-.144-.03-.144-.032-.138-.037-.137-.039-.138-.043-.132-.044-.124-.043-.131-.051-.119-.05-.118-.05-.113-.055-.112-.057-.107-.062-.106-.062-.1-.064-.094-.062-.094-.069-.087-.068-.087-.076-.082-.075-.076-.074-.073-.075-.144-.163-.131-.169-.119-.168-.107-.169-.094-.181-.08-.176-.076-.187-.062-.188-.05-.2-.05-.225-.037-.249-.032-.263-.025-.289-.012-.311-.013-.332-.007-.355v-3.807l.007-.212.006-.207.007-.2.012-.194.018-.188.025-.188.025-.174.026-.176.038-.162.037-.163.037-.156.043-.144.051-.142.057-.137.055-.138.057-.125.068-.119.069-.119.076-.113.08-.112.087-.1.089-.108.1-.1.1-.1.106-.089.107-.092.119-.082.119-.087.124-.076.132-.075.138-.069.137-.068.143-.062.15-.062.149-.057.151-.051.156-.05.156-.043.164-.037.161-.037.169-.032.163-.025.176-.018.174-.019.176-.02.174,0,.181-.007.187-.006.225.006.219.007.213.012.213.018.206.02.2.03.193.032.188.037.187.044.183.043.174.05.17.057.162.062.163.069.155.075.15.076.144.08.137.082.137.088.126.093.124.094.119.1.114.1.1.1.1.106.092.112.1.114.08.117.082.119.067.119.071.132.062.124.055.138.057.137.05.151.05.156.037.155.044.17.032.174.03.183.031.186.026.194.018.2.018.206.014.22.006.219.006.225.006.238ZM691.4,7288.7v-1.2l-.005-.224-.007-.194-.012-.175-.02-.155-.018-.126-.025-.112-.026-.082-.036-.069-.037-.062-.05-.05-.058-.044-.062-.032-.075-.023-.08-.014-.082-.006-.106.006-.1.014-.087.018-.075.025-.032.019-.03.018-.025.019-.025.025-.025.025-.019.025-.018.032-.014.03-.025.075-.025.1-.018.131-.012.155-.014.181-.011.213v.231l-.007.263v.957Zm10.293-6.382v2.056h1.168v2.069h-1.168v6.993l.007.307.005.268.013.231.012.2.019.162.025.126.018.05.014.037.018.032.018.025.019.018.032.012.032.02.043.012.106.025.137.025.169.012.188.013.224.007.25,0v2.106H701.3l-.357,0h-.325l-.307-.013-.275-.012-.249-.014-.225-.018-.2-.025-.169-.032-.158-.03-.149-.039-.144-.055-.144-.057-.137-.069-.131-.08-.126-.087-.124-.1-.112-.107-.107-.1-.094-.113-.074-.112-.038-.057-.037-.062-.025-.062-.032-.064-.044-.124-.037-.125-.025-.156-.025-.2-.018-.243-.019-.288-.013-.33-.012-.376-.007-.418v-7.106h-.924v-2.069h.924v-2.056Zm5.987,6.806h-4.056v-.881l.006-.181v-.181l.007-.175.011-.175.014-.163.018-.162.019-.15.025-.15.025-.144.025-.138.03-.131.039-.13.032-.119.042-.119.045-.106.043-.107.051-.1.055-.1.064-.1.067-.094.075-.1.082-.094.087-.094.094-.087.094-.094.105-.089.114-.087.113-.087.124-.082.125-.08.138-.081.137-.082.149-.075.151-.074.156-.064.162-.062.163-.057.176-.05.174-.048.188-.046.187-.03.2-.037.192-.025.206-.02.213-.018.213-.012.218-.007.231-.006.27.006.263.007.249.012.243.018.238.032.225.025.226.037.206.045.206.042.193.057.181.057.175.069.17.068.162.074.149.082.144.082.138.092.131.094.118.094.119.1.106.1.1.106.093.1.087.112.083.113.073.112.064.112.062.119.05.126.044.119.037.124.038.132.025.137.025.156.026.175.018.187.037.432.032.5.025.568.018.638.012.705v7.337h-4.2v-1.161l-.1.167-.113.158-.118.149-.124.137-.064.062-.069.064-.068.055-.069.057-.069.056-.075.05-.074.043-.082.044-.075.045-.081.044-.082.037-.087.031-.087.031-.087.031-.087.026-.1.018-.193.044-.194.025-.206.013-.213,0h-.142l-.139,0-.138-.013-.137-.019-.137-.018-.131-.025-.137-.032-.126-.03-.131-.039-.131-.043-.125-.051-.126-.05-.124-.055-.119-.064-.119-.069-.119-.068-.062-.037-.057-.044-.048-.043-.057-.044-.05-.05-.051-.05-.043-.056-.044-.057-.087-.125-.075-.131-.076-.144-.062-.156-.057-.162-.043-.181-.044-.181-.03-.2-.025-.213-.02-.218-.012-.231-.006-.245v-1.074l.006-.175.007-.175.005-.162.013-.163.019-.149.025-.144.025-.132.025-.131.037-.119.039-.112.036-.106.051-.1.043-.094.057-.08.055-.083.062-.068.069-.069.082-.069.087-.068.108-.069.112-.075.13-.076.138-.074.151-.075.162-.082.168-.08.187-.083.2-.08.43-.169.476-.169.5-.186.438-.17.375-.15.318-.138.131-.062.119-.062.107-.057.087-.05.076-.044.055-.043.043-.037.026-.038.038-.074.03-.094.025-.107.021-.131.018-.144.012-.156.006-.181v-.437l-.006-.226-.019-.2-.018-.181-.019-.155-.032-.133-.031-.112-.044-.087-.043-.069-.051-.068-.055-.051-.069-.043-.068-.039-.082-.023-.087-.014-.094-.006-.106.006-.094.014-.082.018-.075.03-.03.02-.032.019-.025.018-.025.025-.026.026-.018.025-.018.03-.014.032-.023.08-.021.1-.018.13-.018.158-.012.187-.007.206-.006.232v1.63Zm1.368,1.788-.244.174-.218.162-.1.082-.094.076-.087.073-.076.076-.074.075-.063.069-.056.069-.056.068-.044.062-.037.069-.032.064-.025.055-.037.126-.032.137-.032.149-.018.163-.018.182-.012.186-.007.2-.006.213.006.243.007.219.005.2.019.174.02.151.025.131.03.107.032.087.018.037.019.032.025.031.025.031.032.025.03.025.032.025.031.018.081.032.082.019.094.018h.2l.087-.012.082-.018.069-.025.062-.032.057-.037.044-.05.03-.057.031-.069.026-.094.018-.112.019-.144.013-.162.012-.188.006-.211v-2.925Z" fill="#fff" fill-rule="evenodd"/>
    <path id="Контур_1487" data-name="Контур 1487" d="M665.975,7308.516l.032-.194.037-.174.044-.156.044-.144.025-.062.032-.064.03-.062.032-.057.032-.049.037-.05.039-.043.037-.039.044-.043.044-.03.05-.039.05-.025.05-.03.055-.025.062-.021.064-.018.131-.03.151-.019.167-.013.176-.007h34.79l.369.02.343.043.325.074.3.1.293.131.27.144.261.169.245.188.236.206.226.218.213.231.211.238.206.25.2.256.194.256.2.263.193.261.2.256.2.256.206.25.213.245.22.225.231.219.243.206.25.188.263.167.281.151.293.125.313.1.337.076.35.05.375.012.293-.005.268-.025.263-.043.238-.057.231-.069.213-.087.2-.094.194-.107.188-.112.168-.119.169-.131.163-.131.156-.137.156-.144.151-.144.149-.149.151-.144.151-.144.156-.144.156-.137.163-.137.169-.124.174-.126.181-.112.194-.107.206-.094.213-.081.231-.069.243-.057.256-.044.275-.025.295-.012,1.719.487,1.612.444,1.5.405,1.387.369,2.443.65,2,.544.831.236.725.22.606.206.5.188.394.181.275.174.163.169.057.163-.057.169-.163.163-.281.174-.387.181-.5.194-.613.206-.719.224-.831.245-.943.263-1.057.293-1.161.312-1.282.35-1.38.375-1.5.413-1.607.456-1.719.487-.293,0-.275-.025-.263-.044-.238-.057-.231-.076-.213-.08-.206-.1-.193-.105-.181-.119-.182-.119-.168-.13-.162-.138-.156-.144-.151-.144-.156-.149-.151-.151-.149-.149-.151-.144-.156-.145-.156-.144-.162-.137-.169-.131-.174-.125-.183-.119-.193-.105-.206-.094-.213-.087-.231-.069-.238-.063-.263-.037-.268-.032-.293,0-.375.012-.35.05-.332.075-.312.1-.293.126-.276.149-.261.169-.25.188-.238.206-.226.213-.211.231-.213.243-.2.245-.2.256-.193.256-.194.261-.194.263-.2.256-.194.256-.206.243-.206.245-.218.231-.226.212-.236.206-.251.188-.261.167-.275.151-.295.124-.312.1-.332.076-.357.043-.374.019h-34.79l-.137.013-.132-.006-.124-.007-.126-.025-.112-.03-.106-.044-.05-.025-.05-.025-.05-.032-.044-.037-.087-.069-.082-.089-.074-.094-.069-.105-.064-.119-.05-.124-.049-.139-.045-.149Z" fill="#fff" fill-rule="evenodd"/>
  </g>
</svg>
