<svg xmlns="http://www.w3.org/2000/svg" width="105.076" height="25.422" viewBox="0 0 105.076 25.422">
  <g id="Сгруппировать_307" data-name="Сгруппировать 307" transform="translate(-97.462 -7289.293)">
    <path id="Контур_1488" data-name="Контур 1488" d="M115.384,7290.513l4.815,7.881a2.333,2.333,0,0,1,.019,2.4l-4.553,7.713a.687.687,0,0,1-1.256-.173l-3.031-11.428a3.15,3.15,0,0,1,.357-2.45l2.416-3.943a.722.722,0,0,1,1.233,0" fill="#095e45"/>
    <path id="Контур_1489" data-name="Контур 1489" d="M113.407,7309.9l-9.234.161a2.333,2.333,0,0,1-2.081-1.2l-4.344-7.833a.688.688,0,0,1,.786-1l11.387,3.175a3.154,3.154,0,0,1,1.934,1.55l2.176,4.079a.722.722,0,0,1-.624,1.063" fill="#095e45"/>
    <path id="Контур_1490" data-name="Контур 1490" d="M97.634,7298.6l4.448-8.1a2.338,2.338,0,0,1,2.075-1.209l8.955.122a.688.688,0,0,1,.474,1.177l-8.412,8.306a3.154,3.154,0,0,1-2.307.906l-4.621-.136a.724.724,0,0,1-.612-1.071" fill="#095e45"/>
    <path id="Контур_1491" data-name="Контур 1491" d="M135.754,7294.109a3.4,3.4,0,0,1-2.275,3.371,3.541,3.541,0,0,1,2.809,3.816,5.089,5.089,0,0,1-1.1,3.406,3.61,3.61,0,0,1-2.889,1.3c-.373,0-.921-.024-1.649-.071s-1.276-.07-1.647-.07c-.342,0-.852.023-1.533.07s-1.192.071-1.532.071a1.368,1.368,0,0,1-1.09-.484,1.876,1.876,0,0,1-.418-1.269,1.781,1.781,0,0,1,.277-1.015.793.793,0,0,1,.651-.416h.442c.215,0,.324-.14.324-.42v-8.5c0-.281-.109-.42-.324-.42h-.442a.772.772,0,0,1-.661-.421,1.878,1.878,0,0,1-.267-1.03,1.93,1.93,0,0,1,.418-1.276,1.325,1.325,0,0,1,1.068-.5c.4,0,.919.031,1.554.093.48.047.945.072,1.394.072.371,0,.934-.028,1.694-.084s1.323-.081,1.694-.081a3.264,3.264,0,0,1,2.542,1.065,4.013,4.013,0,0,1,.963,2.8m-6.128.117v2.177a3.88,3.88,0,0,0,.417.024,2.094,2.094,0,0,0,1.4-.446,1.482,1.482,0,0,0,.522-1.193,1.516,1.516,0,0,0-.453-1.111,1.492,1.492,0,0,0-1.1-.458q-.789,0-.789,1.007m.464,4.986c-.154,0-.31.009-.464.024v3.042q0,.751.9.751,2,0,2-1.78a1.819,1.819,0,0,0-.684-1.463,2.636,2.636,0,0,0-1.753-.574" fill="#095e45"/>
    <path id="Контур_1492" data-name="Контур 1492" d="M141.324,7294.3q.649,0,.65.841v7.285q0,.98.371.979h.418q.741,0,.742,1.124,0,1.5-1.122,1.5a7.039,7.039,0,0,1-.83-.069,7.226,7.226,0,0,0-.831-.071,12.647,12.647,0,0,0-1.45.112,5.552,5.552,0,0,1-.655.028q-1.194,0-1.193-1.488c0-.754.255-1.134.764-1.134h.456c.238,0,.358-.324.358-.974v-4.556c0-.65-.1-.976-.3-.976a1.132,1.132,0,0,0-.232.035,1.225,1.225,0,0,1-.255.034q-.789,0-.789-1.264,0-1.4,1.044-1.4c.156,0,.442.024.86.071a4.467,4.467,0,0,0,.858.047Zm-1.138-.678a1.63,1.63,0,0,1-1.288-.574,2.144,2.144,0,0,1-.5-1.462,2.226,2.226,0,0,1,.5-1.5,1.588,1.588,0,0,1,1.265-.586,1.643,1.643,0,0,1,1.287.6,2.175,2.175,0,0,1,.524,1.488,2.127,2.127,0,0,1-.512,1.45,1.626,1.626,0,0,1-1.276.586" fill="#095e45"/>
    <path id="Контур_1493" data-name="Контур 1493" d="M148.775,7306.305a3.952,3.952,0,0,1-3.354-1.592,7.362,7.362,0,0,1-1.2-4.5,7.5,7.5,0,0,1,1.2-4.552,3.986,3.986,0,0,1,3.4-1.6,3.9,3.9,0,0,1,3.308,1.557,7.125,7.125,0,0,1,1.171,4.365,7.972,7.972,0,0,1-1.171,4.682,3.876,3.876,0,0,1-3.355,1.639m.047-9.434q-1.485,0-1.556,3.113a1.17,1.17,0,0,0-.022.258,5.756,5.756,0,0,0,.4,2.376q.406.877,1.1.878,1.509,0,1.509-3.325a6.22,6.22,0,0,0-.383-2.41q-.383-.89-1.056-.89" fill="#095e45"/>
    <path id="Контур_1494" data-name="Контур 1494" d="M159.824,7298.182a1.718,1.718,0,0,1,.3-.936.973.973,0,0,0-.789-.515,1.437,1.437,0,0,0-1.254.936,5.284,5.284,0,0,0-.487,2.435,5.988,5.988,0,0,0,.43,2.481q.429.938,1.148.937.788,0,1.115-1.311a2.313,2.313,0,0,1,.487-1.077,1.189,1.189,0,0,1,.881-.3q1.4,0,1.394,1.616a3.654,3.654,0,0,1-1.127,2.7,3.764,3.764,0,0,1-2.75,1.112,4.029,4.029,0,0,1-3.331-1.533,6.541,6.541,0,0,1-1.217-4.179,7.914,7.914,0,0,1,1.264-4.739,4.034,4.034,0,0,1,3.447-1.745,3.574,3.574,0,0,1,2.577,1.008,3.286,3.286,0,0,1,1.044,2.457,2.172,2.172,0,0,1-.475,1.463,1.6,1.6,0,0,1-1.266.55,1.377,1.377,0,0,1-1.009-.375,1.306,1.306,0,0,1-.384-.983" fill="#095e45"/>
    <path id="Контур_1495" data-name="Контур 1495" d="M168.342,7291.192v4.018a2.936,2.936,0,0,1,2.391-1.148,2.388,2.388,0,0,1,2.053,1.061,4.914,4.914,0,0,1,.755,2.9v4.4c0,.654.116.978.348.978h.443q.741,0,.742,1.124,0,1.474-1.115,1.476a7.667,7.667,0,0,1-.765-.059c-.342-.038-.6-.059-.766-.059s-.43.021-.779.059-.607.059-.777.059q-1.066,0-1.068-1.452c0-.53.128-.867.383-1.007s.383-.46.383-.959v-3.253a4.469,4.469,0,0,0-.244-1.769.862.862,0,0,0-.846-.5q-1.137,0-1.138,2.459v2.948a1.983,1.983,0,0,0,.069.68,1.02,1.02,0,0,0,.4.328c.277.156.418.53.418,1.123q0,1.406-.977,1.4a7.032,7.032,0,0,1-.719-.059,7,7,0,0,0-.742-.059c-.2,0-.5.021-.893.059s-.694.059-.9.059q-1.137,0-1.136-1.476,0-1.124.718-1.124h.442c.246,0,.371-.326.371-.978v-8.6c0-.652-.1-.98-.3-.98h-.116a.337.337,0,0,1-.116.025,1.312,1.312,0,0,1-.255.047q-.814,0-.813-1.265,0-1.4,1.068-1.4c.154,0,.434.024.836.071a4.357,4.357,0,0,0,.836.045l.9-.116h.116q.789,0,.789.945" fill="#095e45"/>
    <path id="Контур_1496" data-name="Контур 1496" d="M183.43,7300.851h-4.711v.374q0,2.481,1.508,2.482a1.338,1.338,0,0,0,1.346-1.195,1.623,1.623,0,0,1,.4-.843,1.441,1.441,0,0,1,.859-.187,1.3,1.3,0,0,1,1.462,1.476,2.969,2.969,0,0,1-1.1,2.363,4.139,4.139,0,0,1-2.774.936,4.21,4.21,0,0,1-3.47-1.532,6.647,6.647,0,0,1-1.242-4.3,7.927,7.927,0,0,1,1.195-4.67,3.864,3.864,0,0,1,3.331-1.673,3.741,3.741,0,0,1,3.065,1.405,5.814,5.814,0,0,1,1.137,3.768,2.6,2.6,0,0,1-.21,1.264.864.864,0,0,1-.789.328m-4.573-2.341h2.53v-.257a1.912,1.912,0,0,0-.324-1.148,1.016,1.016,0,0,0-.86-.444q-1.23,0-1.346,1.849" fill="#095e45"/>
    <path id="Контур_1497" data-name="Контур 1497" d="M189.6,7294.624v.678a2.682,2.682,0,0,1,2.3-1.217,2.953,2.953,0,0,1,2.275,1.288,4.022,4.022,0,0,1,2.832-1.288,2.893,2.893,0,0,1,2.25.98,3.578,3.578,0,0,1,.883,2.491v4.915q0,.978.371.978h.442q.743,0,.743,1.1a1.641,1.641,0,0,1-.314,1.045.992.992,0,0,1-.824.4c-.031,0-.248-.016-.65-.047a5.715,5.715,0,0,0-.952-.07,7.809,7.809,0,0,0-.812.059c-.355.039-.619.058-.789.058q-1.021,0-1.021-1.474c0-.609.154-.984.465-1.124.246-.109.371-.428.371-.959v-3.4q0-2.083-1.011-2.083-1.056,0-1.056,2.036v3.886a.609.609,0,0,0,.3.562,1.118,1.118,0,0,1,.465,1.077q0,1.474-.974,1.474a5.491,5.491,0,0,1-.673-.058,5.386,5.386,0,0,0-.673-.059,4.744,4.744,0,0,0-.581.039q-.58.078-.6.078c-.7,0-1.044-.562-1.044-1.689a1.063,1.063,0,0,1,.416-.985.633.633,0,0,0,.348-.517v-3.8q0-2.041-1-2.041-1.068,0-1.068,2.046v3.789a1.169,1.169,0,0,0,.1.377.839.839,0,0,0,.287.189q.454.234.454,1.057c0,1.053-.371,1.577-1.115,1.577a7.025,7.025,0,0,1-.754-.058,6.845,6.845,0,0,0-.755-.059,7.452,7.452,0,0,0-.777.059,7.663,7.663,0,0,1-.778.058q-1.161,0-1.16-1.448,0-1.1.742-1.1h.442q.348,0,.347-.983v-4.589q0-.982-.3-.983a1.2,1.2,0,0,0-.23.036,1.347,1.347,0,0,1-.257.035q-.789,0-.789-1.264,0-1.4,1.046-1.405a6.106,6.106,0,0,1,.811.07,5.047,5.047,0,0,0,.742.047,6.241,6.241,0,0,0,.72-.047,2.014,2.014,0,0,1,.442-.07c.246,0,.371.11.371.328" fill="#095e45"/>
    <rect id="Прямоугольник_399" data-name="Прямоугольник 399" width="105.076" height="2.615" transform="translate(97.462 7312.1)" fill="#095e45"/>
    <path id="Контур_1498" data-name="Контур 1498" d="M120.411,7310.357h82.044v-2.615H121.963Z" fill="#095e45"/>
    <rect id="Прямоугольник_400" data-name="Прямоугольник 400" width="105.074" height="25.421" transform="translate(97.462 7289.293)" fill="none"/>
  </g>
</svg>
