<svg xmlns="http://www.w3.org/2000/svg" width="100.214" height="49.049" viewBox="0 0 100.214 49.049">
  <g id="Сгруппировать_311" data-name="Сгруппировать 311" transform="translate(-279.893 -7167.479)">
    <path id="Контур_1557" data-name="Контур 1557" d="M379.234,7186.087c0,10.273-22.238,18.6-49.67,18.6s-49.671-8.329-49.671-18.6,22.237-18.606,49.671-18.606,49.67,8.33,49.67,18.606" fill="#d4333d"/>
    <path id="Контур_1558" data-name="Контур 1558" d="M290.694,7189.338h3.278l-.367,2.8h-6.012l1.667-12.713h2.734Z" fill="#fff"/>
    <path id="Контур_1559" data-name="Контур 1559" d="M298.02,7189.927l-1.013,2.208h-2.9l5.711-12.71H302.8l2.3,12.71h-2.915l-.4-2.208Zm2.772-6.572h-.028l-1.659,4.045h2.271Z" fill="#fff"/>
    <path id="Контур_1560" data-name="Контур 1560" d="M308.89,7189.338h3.278l-.367,2.8h-6.012l1.665-12.713h2.735Z" fill="#fff"/>
    <path id="Контур_1561" data-name="Контур 1561" d="M315.793,7189.338h3.276l-.366,2.8H312.69l1.665-12.713h2.734Z" fill="#fff"/>
    <path id="Контур_1562" data-name="Контур 1562" d="M323.627,7182.224l-.278,2.124h3.081l-.367,2.8h-3.081l-.288,2.193h3.25l-.366,2.8h-5.984l1.665-12.709h5.984l-.367,2.8Z" fill="#fff"/>
    <path id="Контур_1563" data-name="Контур 1563" d="M330.088,7179.425h2.691l1.244,6.794,3.151-6.794h2.721l-.076,12.711h-2.73l.189-7.317h-.028l-3.485,7.317h-1.085l-1.457-7.317h-.026l-1.837,7.317h-2.72Z" fill="#fff"/>
    <path id="Контур_1564" data-name="Контур 1564" d="M343.941,7189.927l-1.015,2.208h-2.9l5.712-12.71h2.985l2.3,12.71H348.1l-.393-2.208Zm2.774-6.572h-.029l-1.66,4.045H347.3Z" fill="#fff"/>
    <path id="Контур_1565" data-name="Контур 1565" d="M353.532,7179.425h2.734l3.987,7.771h.03l1.017-7.771h2.735l-1.667,12.711h-2.732l-3.987-7.788h-.026l-1.024,7.788h-2.734Z" fill="#fff"/>
    <path id="Контур_1566" data-name="Контур 1566" d="M365.816,7179.425h3.88c2.928,0,4.975,2.782,4.509,6.357s-3.26,6.355-6.176,6.355h-3.878Zm1.436,9.913h.613c1.633,0,3.169-1.08,3.493-3.556.3-2.279-.775-3.56-2.532-3.56h-.641Z" fill="#fff"/>
    <path id="Контур_1567" data-name="Контур 1567" d="M281.181,7211.822h1.027l-.743,3.766h1.851l-.17.867h-2.879Z" fill="#373e42"/>
    <path id="Контур_1568" data-name="Контур 1568" d="M286.483,7214.5l-.091-1c-.023-.257-.053-.627-.072-.91H286.3c-.121.283-.257.64-.386.91l-.478,1Zm-1.343.756-.57,1.2h-1.093l2.343-4.632h1.322l.563,4.632h-1.078l-.1-1.2Z" fill="#373e42"/>
    <path id="Контур_1569" data-name="Контур 1569" d="M289.108,7211.822h1.027l-.741,3.766h1.849l-.17.867h-2.879Z" fill="#373e42"/>
    <path id="Контур_1570" data-name="Контур 1570" d="M292.559,7211.822h1.027l-.741,3.766h1.849l-.17.867h-2.879Z" fill="#373e42"/>
    <path id="Контур_1571" data-name="Контур 1571" d="M298.219,7214.488H296.5l-.222,1.12H298.2l-.165.845H295.09l.915-4.631h2.85l-.172.845h-1.814l-.2.99h1.715Z" fill="#373e42"/>
    <path id="Контур_1572" data-name="Контур 1572" d="M302.772,7216.453l.293-1.91c.077-.5.187-1.141.321-1.808h-.022c-.265.6-.564,1.237-.828,1.745l-.986,1.9h-.8l-.172-1.877c-.045-.506-.079-1.148-.106-1.765h-.016c-.136.612-.278,1.307-.4,1.808l-.478,1.91h-.942l1.209-4.632h1.377l.151,1.761c.026.432.078.961.086,1.477h.028a14.317,14.317,0,0,1,.65-1.477l.893-1.761h1.393l-.65,4.632Z" fill="#373e42"/>
    <path id="Контур_1573" data-name="Контур 1573" d="M307.261,7214.5l-.093-1c-.022-.257-.051-.627-.071-.91h-.015c-.121.283-.258.64-.385.91l-.478,1Zm-1.343.756-.571,1.2h-1.093l2.343-4.632h1.322l.564,4.632H307.4l-.1-1.2Z" fill="#373e42"/>
    <path id="Контур_1574" data-name="Контур 1574" d="M308.971,7216.453l.914-4.632h1.207l.636,1.766a15.483,15.483,0,0,1,.436,1.581h.02a11.281,11.281,0,0,1,.225-1.662l.327-1.685h.958l-.908,4.632h-1.065l-.672-1.849a14.386,14.386,0,0,1-.471-1.614l-.02.007c-.058.446-.172,1.106-.316,1.835l-.312,1.621Z" fill="#373e42"/>
    <path id="Контур_1575" data-name="Контур 1575" d="M314.895,7215.656a2.966,2.966,0,0,0,.451.028,1.812,1.812,0,0,0,1.365-.544,2.026,2.026,0,0,0,.5-1.4c0-.729-.423-1.161-1.273-1.161a2.358,2.358,0,0,0-.435.029Zm-.286-3.766a8.163,8.163,0,0,1,1.328-.1,2.735,2.735,0,0,1,1.759.5,1.765,1.765,0,0,1,.634,1.451,2.668,2.668,0,0,1-.991,2.13,3.617,3.617,0,0,1-2.309.612,9.172,9.172,0,0,1-1.316-.081Z" fill="#373e42"/>
    <path id="Контур_1576" data-name="Контур 1576" d="M322.349,7214.5l-.093-1c-.022-.257-.051-.627-.071-.91h-.015c-.121.283-.258.64-.385.91l-.478,1Zm-1.343.756-.573,1.2h-1.091l2.343-4.632h1.322l.564,4.632h-1.079l-.1-1.2Z" fill="#373e42"/>
    <path id="Контур_1577" data-name="Контур 1577" d="M324.059,7216.453l.914-4.632h1.207l.636,1.766a15.491,15.491,0,0,1,.436,1.581h.02a11.219,11.219,0,0,1,.222-1.662l.33-1.685h.958l-.91,4.632h-1.063l-.672-1.849a13.986,13.986,0,0,1-.471-1.614l-.021.007c-.057.446-.171,1.106-.315,1.835l-.314,1.621Z" fill="#373e42"/>
    <path id="Контур_1578" data-name="Контур 1578" d="M330.712,7211.822l-.915,4.632h-1.029l.916-4.632Z" fill="#373e42"/>
    <path id="Контур_1579" data-name="Контур 1579" d="M334.742,7216.453l.293-1.91c.08-.5.187-1.141.321-1.808h-.02c-.266.6-.566,1.237-.83,1.745l-.984,1.9h-.8l-.172-1.877c-.043-.506-.079-1.148-.107-1.765h-.015c-.134.612-.278,1.307-.4,1.808l-.478,1.91h-.943l1.206-4.632h1.381l.149,1.761c.028.432.079.961.087,1.477h.027a15,15,0,0,1,.65-1.477l.894-1.761h1.393l-.65,4.632Z" fill="#373e42"/>
    <path id="Контур_1580" data-name="Контур 1580" d="M339.224,7214.5l-.092-1c-.022-.257-.052-.627-.073-.91h-.013c-.121.283-.258.64-.386.91l-.478,1Zm-1.343.756-.57,1.2h-1.093l2.343-4.632h1.322l.563,4.632h-1.078l-.1-1.2Z" fill="#373e42"/>
    <path id="Контур_1581" data-name="Контур 1581" d="M341.856,7211.822h1.029l-.743,3.766h1.851l-.172.867h-2.879Z" fill="#373e42"/>
    <path id="Контур_1582" data-name="Контур 1582" d="M345.529,7216.453l.914-4.632h1.208l.635,1.766a16.3,16.3,0,0,1,.436,1.581h.02a11.635,11.635,0,0,1,.222-1.662l.33-1.685h.958l-.908,4.632h-1.065l-.67-1.849a14.013,14.013,0,0,1-.473-1.614l-.021.007c-.058.446-.172,1.106-.314,1.835l-.313,1.621Z" fill="#373e42"/>
    <path id="Контур_1583" data-name="Контур 1583" d="M352.182,7211.822l-.527,2.666a2.449,2.449,0,0,0-.052.551.634.634,0,0,0,.7.658c.537,0,.895-.344,1.065-1.2l.529-2.672h1.029l-.521,2.631c-.281,1.4-.921,2.076-2.231,2.076-.992,0-1.6-.49-1.6-1.477a3.609,3.609,0,0,1,.069-.645l.511-2.585Z" fill="#373e42"/>
    <path id="Контур_1584" data-name="Контур 1584" d="M356.528,7212.688h-1.272l.179-.867h3.581l-.172.867h-1.287l-.736,3.766h-1.029Z" fill="#373e42"/>
    <path id="Контур_1585" data-name="Контур 1585" d="M360.173,7213.884h.429c.557,0,.966-.324.966-.777,0-.371-.329-.536-.736-.536a1.816,1.816,0,0,0-.4.033Zm-.621-1.973a6.1,6.1,0,0,1,1.286-.124,2.565,2.565,0,0,1,1.265.268,1,1,0,0,1,.536.906,1.375,1.375,0,0,1-1.093,1.307v.026c.286.119.407.429.458.847a7.578,7.578,0,0,0,.185,1.311h-1.058a7.415,7.415,0,0,1-.142-1.093c-.045-.564-.245-.734-.65-.734h-.316l-.356,1.827h-1.022Z" fill="#373e42"/>
    <path id="Контур_1586" data-name="Контур 1586" d="M364.7,7211.822l-.913,4.632h-1.029l.915-4.632Z" fill="#373e42"/>
    <path id="Контур_1587" data-name="Контур 1587" d="M366.327,7212.688h-1.27l.177-.867h3.581l-.172.867h-1.287l-.736,3.766h-1.029Z" fill="#373e42"/>
    <path id="Контур_1588" data-name="Контур 1588" d="M370.366,7211.822l-.915,4.632h-1.027l.915-4.632Z" fill="#373e42"/>
    <path id="Контур_1589" data-name="Контур 1589" d="M372.275,7212.922a2.449,2.449,0,0,0-.6,1.64c0,.654.307,1.143,1.008,1.143a1.2,1.2,0,0,0,.809-.339,2.585,2.585,0,0,0,.586-1.662c0-.576-.217-1.135-.974-1.135a1.159,1.159,0,0,0-.827.353m2.892.754a3.032,3.032,0,0,1-.856,2.186,2.561,2.561,0,0,1-1.78.665,1.831,1.831,0,0,1-1.95-1.928,3.022,3.022,0,0,1,.885-2.193,2.585,2.585,0,0,1,1.76-.66,1.8,1.8,0,0,1,1.941,1.93" fill="#373e42"/>
    <path id="Контур_1590" data-name="Контур 1590" d="M375.384,7216.453l.914-4.632h1.209l.634,1.766a15.483,15.483,0,0,1,.436,1.581h.02a11.258,11.258,0,0,1,.224-1.662l.329-1.685h.957l-.908,4.632h-1.063l-.672-1.849a14.007,14.007,0,0,1-.473-1.614l-.019.007c-.058.446-.172,1.106-.316,1.835l-.315,1.621Z" fill="#373e42"/>
    <rect id="Прямоугольник_406" data-name="Прямоугольник 406" width="100.213" height="49.048" transform="translate(279.893 7167.479)" fill="none"/>
  </g>
</svg>
