<svg xmlns="http://www.w3.org/2000/svg" width="103.489" height="25.098" viewBox="0 0 103.489 25.098">
  <g id="Сгруппировать_308" data-name="Сгруппировать 308" transform="translate(-818.255 -7179.455)">
    <path id="Контур_1499" data-name="Контур 1499" d="M921.658,7196.82c-1.249.006-2.5,0-3.746.026a.432.432,0,0,1-.438-.215c-.717-1.089-1.438-2.176-2.153-3.265-.239-.367-.457-.749-.7-1.113-.127-.193-.267-.394-.6-.347,0,.4-.005.789,0,1.181.012.673.005,1.349.056,2.02.038.545.235.723.763.833.206.043.418.074.645.112v.732h-5.865a4.753,4.753,0,0,1,.009-.584c.008-.066.109-.141.185-.176a1.164,1.164,0,0,1,.264-.041c.874-.17,1.039-.366,1.042-1.269.005-1.261,0-2.522,0-3.782v-7.292c0-.09,0-.181,0-.271-.031-.73-.2-.94-.891-1.089-.531-.114-.531-.114-.446-.7l4.236-.81v10.492a6.539,6.539,0,0,0,.843-.51,7.966,7.966,0,0,0,1.842-2.553c.152-.293.034-.494-.3-.626-.523-.208-.523-.208-.433-.824,1.625-.067,3.26-.135,4.914-.2a2.277,2.277,0,0,0,.021.258c.066.345-.062.5-.423.538a4.912,4.912,0,0,0-3.4,2.146c-.2.269-.413.534-.65.843.624.878,1.229,1.769,1.876,2.629q.91,1.212,1.893,2.369a1.935,1.935,0,0,0,1.452.685Z"/>
    <path id="Контур_1500" data-name="Контур 1500" d="M838.969,7196.8v-.8c.348-.059.69-.111,1.03-.175a.965.965,0,0,0,.843-.916,7.61,7.61,0,0,0,.064-.839q.008-4.708,0-9.416a5.543,5.543,0,0,0-.056-.773,1.035,1.035,0,0,0-1.032-1.043c-.23-.038-.463-.067-.714-.1v-.8c.128,0,.249-.015.369-.015,2.216,0,4.434-.018,6.65.007a6.752,6.752,0,0,1,3.26.688,3.117,3.117,0,0,1,.2,5.228,6.846,6.846,0,0,1-1.075.557c-.359.147-.744.236-1.193.373.408.079.756.123,1.089.22a10.089,10.089,0,0,1,1.462.5,3.269,3.269,0,0,1,1.378,4.794,4.772,4.772,0,0,1-2.864,2.05,10.683,10.683,0,0,1-3.09.463c-2.024.024-4.049.012-6.075.016-.067,0-.135-.009-.244-.014m5.025-7.346a.658.658,0,0,0-.035.127c.013,1.618.006,3.237.051,4.855a1.236,1.236,0,0,0,1.136,1.363,2.632,2.632,0,0,0,1.952-.463,3.25,3.25,0,0,0,1.191-3.182,2.681,2.681,0,0,0-1.947-2.452,6.11,6.11,0,0,0-2.348-.248m-.04-.913a18.278,18.278,0,0,0,2.01-.257,1.951,1.951,0,0,0,1.564-1.667,5.945,5.945,0,0,0,.051-1.536,2.364,2.364,0,0,0-2.969-2.107c-.432.1-.586.245-.614.683-.037.573-.037,1.147-.04,1.719-.005,1.013,0,2.022,0,3.165"/>
    <path id="Контур_1501" data-name="Контур 1501" d="M893.705,7196.787a3.156,3.156,0,0,1,.008-.544.344.344,0,0,1,.207-.22c.8-.184.922-.3.931-1.1.012-1.642,0-3.284-.007-4.927a2.223,2.223,0,0,0-.089-.565,1.514,1.514,0,0,0-1.057-1.243,2.149,2.149,0,0,0-1.984.477.42.42,0,0,0-.109.294c-.007,1.981-.016,3.961,0,5.941.005.717.137,1.016.876,1.126a.279.279,0,0,1,.168.194,4.583,4.583,0,0,1,.007.577h-5.421v-.733c.205-.035.423-.066.638-.109a.764.764,0,0,0,.744-.775,3.219,3.219,0,0,0,.019-.472V7183.4c0-.1,0-.2-.005-.3-.028-.536-.2-.724-.719-.8l-.5-.079a.335.335,0,0,1-.038-.1c-.042-.555-.04-.55.5-.656,1.156-.229,2.309-.463,3.466-.694.075-.015.153-.02.252-.033v7.1c.119-.1.19-.15.26-.208a4.2,4.2,0,0,1,3.081-1.208,2.818,2.818,0,0,1,2.731,2.476,7.882,7.882,0,0,1,.135,1.372c.016,1.463.006,2.925.006,4.389a4.632,4.632,0,0,0,.012.471.779.779,0,0,0,.706.814c.65.152.65.152.558.847Z"/>
    <path id="Контур_1502" data-name="Контур 1502" d="M885.52,7192.562a.258.258,0,0,1,.073.01c.87.421.78.156.494,1.063s-.623,1.779-.956,2.66a.525.525,0,0,1-.308.3,18.266,18.266,0,0,1-4.4.554,8.835,8.835,0,0,1-5.879-2.075,7.086,7.086,0,0,1-2.391-5.143,7.42,7.42,0,0,1,2.06-5.73,8.473,8.473,0,0,1,4.427-2.355,13.642,13.642,0,0,1,6.564.323.356.356,0,0,1,.215.234c.184,1.174.35,2.351.525,3.558l-.874.17c-.064-.178-.126-.343-.184-.51a4.028,4.028,0,0,0-3.414-2.961,4.507,4.507,0,0,0-4.389,1.812,7.015,7.015,0,0,0-1.387,3.809,8.873,8.873,0,0,0,.86,4.884A4.937,4.937,0,0,0,880,7195.94a4.162,4.162,0,0,0,4.454-1.759c.385-.508.706-1.065,1.067-1.619"/>
    <path id="Контур_1503" data-name="Контур 1503" d="M870.548,7191.656a5.18,5.18,0,0,1-5.535,5.426,5.044,5.044,0,0,1-5.14-5.327,5.4,5.4,0,0,1,5.533-5.349,5.032,5.032,0,0,1,5.142,5.25m-3.687,3.453c.9-3.76.167-5.4.167-5.4a3.9,3.9,0,0,0-.8-1.828,1.377,1.377,0,0,0-2.31.132,3.63,3.63,0,0,0-.466,1,9.187,9.187,0,0,0-.1,4.172,4.95,4.95,0,0,0,.944,2.348,1.419,1.419,0,0,0,2.549-.363"/>
    <path id="Контур_1504" data-name="Контур 1504" d="M903.034,7191.316c.114,1.355.433,2.614,1.724,3.285a3.405,3.405,0,0,0,3.872-.607c.022.009.034.01.04.017.447.493.452.5.034,1.016a5,5,0,0,1-3.215,2,4.476,4.476,0,0,1-5.041-3.16,5.849,5.849,0,0,1,3.921-7.316,3.758,3.758,0,0,1,4.767,3.281c.078.787-.139,1.065-.91,1.117-1.682.118-3.364.227-5.046.338a1.2,1.2,0,0,0-.146.034m.121-1.186c.942,0,1.849.006,2.756,0a.4.4,0,0,0,.418-.46,3.309,3.309,0,0,0-.437-1.706,1.088,1.088,0,0,0-1.835-.21,2.521,2.521,0,0,0-.378.513,4.515,4.515,0,0,0-.524,1.864"/>
    <path id="Контур_1505" data-name="Контур 1505" d="M852.989,7196.784v-.723c.21-.037.418-.069.622-.111a.821.821,0,0,0,.786-.891c.033-.618.048-1.237.048-1.854,0-1.327,0-2.655-.033-3.982-.02-.981-.1-1.057-1.059-1.279a1.422,1.422,0,0,1-.16-.057v-.606l4.171-.825v8.179c.008.991.243,1.256,1.217,1.377.076.011.153.025.248.04v.732Z"/>
    <path id="Контур_1506" data-name="Контур 1506" d="M855.746,7181.764a1.585,1.585,0,0,1,1.628,1.607,1.633,1.633,0,0,1-1.633,1.621,1.679,1.679,0,0,1-1.648-1.624,1.632,1.632,0,0,1,1.653-1.6"/>
    <path id="Контур_1507" data-name="Контур 1507" d="M820.872,7203a.744.744,0,0,1-.352.683,1.872,1.872,0,0,1-.978.215H818.26v-3.1h1.206a1.852,1.852,0,0,1,.938.175.593.593,0,0,1,.283.55.7.7,0,0,1-.153.468.821.821,0,0,1-.482.239,1.069,1.069,0,0,1,.624.246.705.705,0,0,1,.2.524m-.886-1.339a.246.246,0,0,0-.144-.244,1.055,1.055,0,0,0-.442-.069h-.444v.665h.423a1.038,1.038,0,0,0,.458-.079.282.282,0,0,0,.149-.273m.177,1.284a.311.311,0,0,0-.154-.295,1.357,1.357,0,0,0-.583-.085h-.47v.775h.352a3.009,3.009,0,0,0,.56-.036.4.4,0,0,0,.224-.122.371.371,0,0,0,.071-.237"/>
    <path id="Контур_1508" data-name="Контур 1508" d="M822.989,7203.9h-1.644v-.486h.473v-2.129h-.473v-.485h1.644v.485h-.472v2.129h.472Z"/>
    <path id="Контур_1509" data-name="Контур 1509" d="M826.393,7202.347a1.715,1.715,0,0,1-.376,1.21,1.418,1.418,0,0,1-1.092.4,1.368,1.368,0,0,1-1.112-.425,2.176,2.176,0,0,1,0-2.382,1.678,1.678,0,0,1,2.227,0,1.813,1.813,0,0,1,.353,1.193m-.716,0a1.469,1.469,0,0,0-.171-.805.8.8,0,0,0-1.161,0,1.965,1.965,0,0,0,0,1.608.795.795,0,0,0,1.159,0,1.465,1.465,0,0,0,.171-.8"/>
    <path id="Контур_1510" data-name="Контур 1510" d="M829.735,7203.382a1.321,1.321,0,0,1-.538.437,1.923,1.923,0,0,1-.785.141,1.414,1.414,0,0,1-1.583-1.615,1.647,1.647,0,0,1,.4-1.221,1.592,1.592,0,0,1,1.159-.4,1.87,1.87,0,0,1,.815.154,1.183,1.183,0,0,1,.48.4l-.54.378a.956.956,0,0,0-.216-.23.7.7,0,0,0-.224-.109,1.041,1.041,0,0,0-.3-.037.815.815,0,0,0-.638.243,1.2,1.2,0,0,0-.218.813,1.267,1.267,0,0,0,.2.791.778.778,0,0,0,.656.263.874.874,0,0,0,.471-.1,1.186,1.186,0,0,0,.307-.28Z"/>
    <path id="Контур_1511" data-name="Контур 1511" d="M832.284,7203.9v-1.318h-1.342v1.318h-.7v-3.1h.7V7202h1.342v-1.205h.7v3.1Z"/>
    <path id="Контур_1512" data-name="Контур 1512" d="M833.723,7203.9v-3.1h2.214v.558h-1.519v.661h1.28v.56h-1.28v.742h1.519v.579Z"/>
    <path id="Контур_1513" data-name="Контур 1513" d="M838.388,7203.9l-.943-1.3-.208.218v1.077h-.694v-3.1h.694v1.21l1.117-1.21h.81l-1.271,1.335,1.363,1.766Z"/>
    <path id="Контур_1514" data-name="Контур 1514" d="M839.775,7204.553a.786.786,0,0,0,.149-.281,1.069,1.069,0,0,0,.059-.344.306.306,0,0,1-.21-.059.26.26,0,0,1-.062-.194.243.243,0,0,1,.068-.187.326.326,0,0,1,.228-.064.31.31,0,0,1,.233.076.328.328,0,0,1,.071.222,1.307,1.307,0,0,1-.092.5,1.072,1.072,0,0,1-.186.332Z"/>
    <path id="Контур_1515" data-name="Контур 1515" d="M844.8,7203.047a.8.8,0,0,1-.314.675,1.488,1.488,0,0,1-.917.239,1.757,1.757,0,0,1-.768-.147,1.222,1.222,0,0,1-.5-.458l.369-.225a.978.978,0,0,0,.891.463,1.028,1.028,0,0,0,.571-.137.434.434,0,0,0,.208-.378.385.385,0,0,0-.068-.231.55.55,0,0,0-.173-.158,1.111,1.111,0,0,0-.25-.1c-.094-.024-.19-.05-.293-.074-.166-.039-.322-.077-.468-.115a1.579,1.579,0,0,1-.375-.154.657.657,0,0,1-.341-.617.8.8,0,0,1,.291-.653,1.349,1.349,0,0,1,.874-.242,1.5,1.5,0,0,1,.739.156,1.226,1.226,0,0,1,.435.4l-.361.233a.972.972,0,0,0-.324-.312,1,1,0,0,0-.489-.108.872.872,0,0,0-.517.132.421.421,0,0,0-.185.357.352.352,0,0,0,.055.2.458.458,0,0,0,.158.135,1.226,1.226,0,0,0,.259.1c.1.024.22.054.352.083.154.039.3.077.44.118a1.384,1.384,0,0,1,.366.163.74.74,0,0,1,.246.259.8.8,0,0,1,.092.4"/>
    <path id="Контур_1516" data-name="Контур 1516" d="M848.133,7203.9v-2.57l-.943,1.725h-.283l-.935-1.725v2.57h-.433v-3.1h.616l.905,1.686.91-1.686h.6v3.1Z"/>
    <path id="Контур_1517" data-name="Контур 1517" d="M849.13,7203.9l1.164-3.1h.591l1.166,3.1h-.481l-.295-.808h-1.39l-.29.808Zm.893-1.184h1.109l-.554-1.509Z"/>
    <path id="Контур_1518" data-name="Контур 1518" d="M854.553,7203.9l-.869-1.264h-.593v1.264h-.458v-3.1h1.06a1.515,1.515,0,0,1,.912.213.782.782,0,0,1,.276.659.979.979,0,0,1-.169.6.862.862,0,0,1-.548.294l.923,1.33Zm-.142-2.2a.469.469,0,0,0-.172-.421,1.006,1.006,0,0,0-.55-.116h-.6v1.1h.567a1.452,1.452,0,0,0,.451-.056.41.41,0,0,0,.232-.173.7.7,0,0,0,.07-.337"/>
    <path id="Контур_1519" data-name="Контур 1519" d="M856.8,7201.169v2.726h-.453v-2.726h-1.131v-.375h2.714v.375Z"/>
    <path id="Контур_1520" data-name="Контур 1520" d="M861.208,7203.9H860.6l-1.068-3.1H860l.912,2.7.914-2.7h.467Z"/>
    <path id="Контур_1521" data-name="Контур 1521" d="M862.873,7203.9v-3.1h2.084v.375h-1.628v.905h1.391v.376h-1.391v1.068h1.628v.376Z"/>
    <path id="Контур_1522" data-name="Контур 1522" d="M866.948,7201.169v2.726H866.5v-2.726h-1.131v-.375h2.714v.375Z"/>
    <path id="Контур_1523" data-name="Контур 1523" d="M868.63,7203.9v-3.1h2.084v.375h-1.628v.905h1.391v.376h-1.391v1.068h1.628v.376Z"/>
    <path id="Контур_1524" data-name="Контур 1524" d="M873.385,7203.9l-.869-1.264h-.593v1.264h-.456v-3.1h1.059a1.514,1.514,0,0,1,.911.213.783.783,0,0,1,.277.659.98.98,0,0,1-.17.6.856.856,0,0,1-.546.294l.923,1.33Zm-.142-2.2a.471.471,0,0,0-.17-.421,1.016,1.016,0,0,0-.552-.116h-.6v1.1h.569a1.442,1.442,0,0,0,.449-.056.41.41,0,0,0,.232-.173.677.677,0,0,0,.07-.337"/>
    <path id="Контур_1525" data-name="Контур 1525" d="M875.705,7203.9h-1.394v-.359h.47v-2.39h-.47v-.352h1.394v.352h-.472v2.39h.472Z"/>
    <path id="Контур_1526" data-name="Контур 1526" d="M878.393,7203.9l-1.54-2.662v2.662h-.439v-3.1h.668l1.412,2.435v-2.435h.439v3.1Z"/>
    <path id="Контур_1527" data-name="Контур 1527" d="M879.494,7203.9l1.163-3.1h.592l1.163,3.1h-.48l-.295-.808h-1.389l-.291.808Zm.893-1.184h1.108l-.555-1.509Z"/>
    <path id="Контур_1528" data-name="Контур 1528" d="M884.916,7203.9l-.868-1.264h-.593v1.264H883v-3.1h1.059a1.513,1.513,0,0,1,.912.213.782.782,0,0,1,.276.659.967.967,0,0,1-.17.6.856.856,0,0,1-.546.294l.922,1.33Zm-.142-2.2a.471.471,0,0,0-.171-.421,1.012,1.012,0,0,0-.552-.116h-.6v1.1h.568a1.458,1.458,0,0,0,.45-.056.424.424,0,0,0,.232-.173.678.678,0,0,0,.069-.337"/>
    <path id="Контур_1529" data-name="Контур 1529" d="M887.133,7202.7v1.2h-.461v-1.179l-1.078-1.921h.515l.8,1.507.817-1.507h.491Z"/>
    <path id="Контур_1530" data-name="Контур 1530" d="M892.572,7202.347a2.11,2.11,0,0,1-.161.9,1.016,1.016,0,0,1-.5.493,2.343,2.343,0,0,1-.946.154H890.1v-3.1h.856a2.374,2.374,0,0,1,.942.154,1.017,1.017,0,0,1,.509.494,2.078,2.078,0,0,1,.165.9m-.48-.005a1.815,1.815,0,0,0-.109-.7.685.685,0,0,0-.357-.364,1.737,1.737,0,0,0-.694-.113h-.38v2.35h.38a1.711,1.711,0,0,0,.692-.111.706.706,0,0,0,.357-.364,1.777,1.777,0,0,0,.111-.7"/>
    <path id="Контур_1531" data-name="Контур 1531" d="M894.5,7203.9h-1.394v-.359h.47v-2.39h-.47v-.352H894.5v.352h-.472v2.39h.472Z"/>
    <path id="Контур_1532" data-name="Контур 1532" d="M894.873,7203.9l1.166-3.1h.591l1.165,3.1h-.48l-.295-.808h-1.389l-.293.808Zm.9-1.184h1.108l-.553-1.509Z"/>
    <path id="Контур_1533" data-name="Контур 1533" d="M900.468,7201.541a.937.937,0,0,0-.321-.321,1.013,1.013,0,0,0-.536-.122.894.894,0,0,0-.755.309,1.543,1.543,0,0,0-.239.947,1.413,1.413,0,0,0,.259.945.97.97,0,0,0,.77.3,1.48,1.48,0,0,0,.364-.042,2.6,2.6,0,0,0,.365-.121v-.734h-.827v-.374h1.284v1.337a3.54,3.54,0,0,1-.553.22,2.236,2.236,0,0,1-.633.08,1.48,1.48,0,0,1-1.14-.4,2.179,2.179,0,0,1,0-2.429,1.436,1.436,0,0,1,1.108-.4,1.8,1.8,0,0,1,.721.133,1.127,1.127,0,0,1,.5.448Z"/>
    <path id="Контур_1534" data-name="Контур 1534" d="M903.676,7203.9l-1.54-2.662v2.662H901.7v-3.1h.668l1.411,2.435v-2.435h.439v3.1Z"/>
    <path id="Контур_1535" data-name="Контур 1535" d="M907.725,7202.347a1.833,1.833,0,0,1-.346,1.226,1.325,1.325,0,0,1-1.042.388,1.3,1.3,0,0,1-1.044-.4,1.825,1.825,0,0,1-.341-1.217,1.868,1.868,0,0,1,.336-1.217,1.585,1.585,0,0,1,2.093-.009,1.833,1.833,0,0,1,.344,1.226m-.477,0a1.668,1.668,0,0,0-.214-.947.951.951,0,0,0-1.39,0,2.189,2.189,0,0,0,0,1.894.949.949,0,0,0,1.386,0,1.633,1.633,0,0,0,.217-.948"/>
    <path id="Контур_1536" data-name="Контур 1536" d="M910.768,7203.047a.8.8,0,0,1-.314.675,1.488,1.488,0,0,1-.917.239,1.773,1.773,0,0,1-.77-.147,1.229,1.229,0,0,1-.5-.458l.371-.225a.971.971,0,0,0,.891.463,1.025,1.025,0,0,0,.569-.137.434.434,0,0,0,.208-.378.385.385,0,0,0-.068-.231.551.551,0,0,0-.173-.158,1.111,1.111,0,0,0-.25-.1c-.094-.024-.191-.05-.293-.074-.168-.039-.323-.077-.468-.115a1.579,1.579,0,0,1-.375-.154.657.657,0,0,1-.341-.617.8.8,0,0,1,.291-.653,1.349,1.349,0,0,1,.874-.242,1.5,1.5,0,0,1,.739.156,1.235,1.235,0,0,1,.435.4l-.361.233a.972.972,0,0,0-.324-.312,1,1,0,0,0-.489-.108.875.875,0,0,0-.518.132.422.422,0,0,0-.184.357.352.352,0,0,0,.055.2.441.441,0,0,0,.158.135,1.236,1.236,0,0,0,.258.1c.1.024.221.054.351.083.156.039.3.077.442.118a1.4,1.4,0,0,1,.366.163.74.74,0,0,1,.246.259.8.8,0,0,1,.092.4"/>
    <path id="Контур_1537" data-name="Контур 1537" d="M912.623,7201.169v2.726h-.454v-2.726H911.04v-.375h2.714v.375Z"/>
    <path id="Контур_1538" data-name="Контур 1538" d="M915.5,7203.9h-1.394v-.359h.47v-2.39h-.47v-.352H915.5v.352h-.472v2.39h.472Z"/>
    <path id="Контур_1539" data-name="Контур 1539" d="M918.814,7203.354a1.44,1.44,0,0,1-.331.359,1.267,1.267,0,0,1-.392.186,2.061,2.061,0,0,1-.527.061,1.448,1.448,0,0,1-1.129-.4,1.758,1.758,0,0,1-.364-1.212,1.785,1.785,0,0,1,.36-1.214,1.418,1.418,0,0,1,1.113-.4,1.921,1.921,0,0,1,.531.067,1.269,1.269,0,0,1,.4.184,1.2,1.2,0,0,1,.294.33l-.374.225a.991.991,0,0,0-.219-.251.888.888,0,0,0-.267-.139,1.255,1.255,0,0,0-.361-.049.886.886,0,0,0-.752.311,1.509,1.509,0,0,0-.241.938,1.544,1.544,0,0,0,.238.933.891.891,0,0,0,.759.314,1.118,1.118,0,0,0,.505-.106.977.977,0,0,0,.385-.359Z"/>
    <path id="Контур_1540" data-name="Контур 1540" d="M921.744,7203.047a.8.8,0,0,1-.313.675,1.489,1.489,0,0,1-.918.239,1.776,1.776,0,0,1-.77-.147,1.236,1.236,0,0,1-.5-.458l.37-.225a.973.973,0,0,0,.891.463,1.022,1.022,0,0,0,.57-.137.432.432,0,0,0,.208-.378.384.384,0,0,0-.067-.231.553.553,0,0,0-.174-.158,1.1,1.1,0,0,0-.249-.1c-.094-.024-.191-.05-.293-.074-.168-.039-.323-.077-.468-.115a1.577,1.577,0,0,1-.375-.154.655.655,0,0,1-.342-.617.8.8,0,0,1,.292-.653,1.347,1.347,0,0,1,.874-.242,1.5,1.5,0,0,1,.738.156,1.23,1.23,0,0,1,.436.4l-.363.233a.956.956,0,0,0-.322-.312,1.008,1.008,0,0,0-.489-.108.881.881,0,0,0-.519.132.424.424,0,0,0-.184.357.345.345,0,0,0,.056.2.441.441,0,0,0,.158.135,1.236,1.236,0,0,0,.258.1c.1.024.22.054.35.083.156.039.3.077.442.118a1.384,1.384,0,0,1,.366.163.743.743,0,0,1,.247.259.8.8,0,0,1,.091.4"/>
    <rect id="Прямоугольник_401" data-name="Прямоугольник 401" width="15.033" height="15.033" transform="translate(818.656 7181.826)" fill="#edbe3c"/>
    <path id="Контур_1541" data-name="Контур 1541" d="M822.7,7184.845l-4.039,2.121a22.293,22.293,0,0,1,4.039,9.891s11.947-13.425,12.655-14.2l-2.442-3.205s-6.681,8.565-8.993,12.758c0,0-.128-4.862-1.22-7.368" fill="#d11d24"/>
    <rect id="Прямоугольник_402" data-name="Прямоугольник 402" width="103.489" height="25.097" transform="translate(818.255 7179.456)" fill="none"/>
  </g>
</svg>
