<svg xmlns="http://www.w3.org/2000/svg" width="103.632" height="30.359" viewBox="0 0 103.632 30.359">
  <g id="Сгруппировать_312" data-name="Сгруппировать 312" transform="translate(-638.184 -7176.825)">
    <path id="Контур_1591" data-name="Контур 1591" d="M739.408,7179.094a1.2,1.2,0,1,1,2.408,0,1.2,1.2,0,0,1-2.408,0m2.188,0a.955.955,0,0,0-.995-1.009,1.008,1.008,0,0,0,0,2.014.954.954,0,0,0,.995-1m-1.418-.673h.461c.326,0,.494.174.494.427a.38.38,0,0,1-.268.393l.3.51H740.9l-.274-.479h-.215v.479h-.236Zm.461.668a.224.224,0,0,0,.253-.236c0-.14-.09-.224-.253-.224h-.225v.46Z" fill="#828282"/>
    <path id="Контур_1592" data-name="Контур 1592" d="M642.154,7183.272c-.569-.688-1.41-1.89-1.41-1.89s.18,1.439.18,2.311v13.763h-2.04v-20.6h.361l12.175,14.4c.57.688,1.26,1.675,1.26,1.675v-15.861h2.009v20.6h-.36Z" fill="#828282"/>
    <path id="Контур_1593" data-name="Контур 1593" d="M682.616,7177.064h2.339l6.479,16.583,6.447-16.583h2.189l-8.486,20.6h-.361Z" fill="#828282"/>
    <path id="Контур_1594" data-name="Контур 1594" d="M705.291,7190.5v-13.435h2.158v13.284c0,3.631,1.98,5.43,5.16,5.43,3.146,0,5.157-1.8,5.157-5.43v-13.284h2.158V7190.5c0,4.769-3.177,7.2-7.315,7.2-4.17,0-7.318-2.429-7.318-7.2" fill="#828282"/>
    <path id="Контур_1595" data-name="Контур 1595" d="M725.54,7193.557l1.8-.958a5.539,5.539,0,0,0,5.25,3.179c2.37,0,4.228-1.321,4.228-3.481,0-2.068-1.288-3.119-3.84-4.256l-1.617-.752c-2.909-1.318-4.5-2.729-4.5-5.577,0-2.939,2.307-4.887,5.367-4.887a6.014,6.014,0,0,1,5.52,3.058L736,7180.961a4.15,4.15,0,0,0-3.778-2.219c-2.009,0-3.238,1.17-3.238,2.911,0,1.8.958,2.609,3.238,3.658l1.619.749c3.389,1.5,5.13,3.179,5.13,6.237,0,3.361-2.67,5.4-6.328,5.4a7.4,7.4,0,0,1-7.107-4.14" fill="#828282"/>
    <path id="Контур_1596" data-name="Контур 1596" d="M670.775,7182.986a5.092,5.092,0,0,0-5.1,5.024c0,2.774,2.264,4.741,5.028,5.024a5.4,5.4,0,0,0,5.915-5.1c.04-2.772-2.006-6.158-5.461-6.394l.009-.057c2.967.069,6.7,2.594,6.7,6.539,0,4.809-3.067,7.533-7.122,7.533a7.908,7.908,0,0,1-7.626-7.722,7.658,7.658,0,0,1,7.659-7.4Z" fill="#0e3a55"/>
    <path id="Контур_1597" data-name="Контур 1597" d="M670.775,7180.025a8.094,8.094,0,0,0-8.108,8.011,8.007,8.007,0,0,0,8.008,8.006c4.9,0,8.732-3.1,8.732-8.055,0-4.346-2.087-8.565-8.166-9.2l.011-.063c4.039.014,9.374,3.3,9.424,9.353.048,6.277-3.948,10.289-9.778,10.289s-10.833-4.457-10.833-10.289a10.915,10.915,0,0,1,10.71-10.819Z" fill="#0e3a55"/>
    <path id="Контур_1598" data-name="Контур 1598" d="M674.156,7205.042l-.34-.161c-.472-.222-.621-.4-.621-.743a.585.585,0,0,1,.654-.6.8.8,0,0,1,.74.444l.017.027.229-.152-.015-.026a1.067,1.067,0,0,0-.971-.558.877.877,0,0,0-.936.873c0,.521.3.767.789,1l.339.158c.541.256.734.487.734.889a.759.759,0,0,1-.845.728,1.041,1.041,0,0,1-1.009-.629l-.015-.028-.246.122.014.029a1.3,1.3,0,0,0,1.263.771,1.008,1.008,0,0,0,1.12-.993c0-.511-.269-.853-.9-1.148" fill="#828282"/>
    <path id="Контур_1599" data-name="Контур 1599" d="M676.132,7205.348h1.727v-.265h-1.727v-1.5h1.928v-.264h-2.216v3.823h2.292v-.264h-2Z" fill="#828282"/>
    <path id="Контур_1600" data-name="Контур 1600" d="M681.224,7204.453c0-.723-.479-1.139-1.311-1.139H678.9v3.824h.288v-1.553h.73a1.969,1.969,0,0,0,.231-.009l.892,1.562h.342l-.933-1.621a1.038,1.038,0,0,0,.779-1.064m-2.041-.874h.707c.692,0,1.041.295,1.041.874s-.349.865-1.041.865h-.707Z" fill="#828282"/>
    <path id="Контур_1601" data-name="Контур 1601" d="M683.327,7206.665l-1.264-3.329-.007-.021h-.309l1.512,3.847.009.021h.107l1.515-3.868H684.6Z" fill="#828282"/>
    <rect id="Прямоугольник_407" data-name="Прямоугольник 407" width="0.288" height="3.823" transform="translate(685.58 7203.316)" fill="#828282"/>
    <path id="Контур_1602" data-name="Контур 1602" d="M689.862,7206.258a1.528,1.528,0,0,1-1.311.655,1.687,1.687,0,0,1,0-3.372,1.468,1.468,0,0,1,1.27.621l.017.029.222-.168-.017-.026a1.723,1.723,0,0,0-1.492-.726,1.956,1.956,0,0,0,0,3.912,1.8,1.8,0,0,0,1.533-.768l.017-.026-.22-.159Z" fill="#828282"/>
    <path id="Контур_1603" data-name="Контур 1603" d="M691.076,7205.348H692.8v-.265h-1.727v-1.5H693v-.264h-2.214v3.823h2.292v-.264h-2Z" fill="#828282"/>
    <path id="Контур_1604" data-name="Контур 1604" d="M639.692,7205.042l-.34-.161c-.472-.222-.621-.4-.621-.743a.585.585,0,0,1,.656-.6.8.8,0,0,1,.738.444l.018.027.228-.152-.017-.026a1.063,1.063,0,0,0-.967-.558.877.877,0,0,0-.938.873c0,.521.3.767.789,1l.339.158c.541.256.734.487.734.889a.759.759,0,0,1-.845.728,1.044,1.044,0,0,1-1.01-.629l-.014-.028-.248.122.014.029a1.307,1.307,0,0,0,1.262.771,1.008,1.008,0,0,0,1.123-.993c0-.511-.268-.853-.9-1.148" fill="#828282"/>
    <path id="Контур_1605" data-name="Контур 1605" d="M643.038,7203.271a1.956,1.956,0,1,0,1.915,1.955,1.9,1.9,0,0,0-1.915-1.955m0,3.642a1.687,1.687,0,1,1,1.624-1.687,1.619,1.619,0,0,1-1.624,1.687" fill="#828282"/>
    <path id="Контур_1606" data-name="Контур 1606" d="M645.985,7203.316H645.7v3.824h2.058v-.265h-1.77Z" fill="#828282"/>
    <path id="Контур_1607" data-name="Контур 1607" d="M650.614,7205.84a.991.991,0,1,1-1.975,0v-2.526h-.29v2.542a1.277,1.277,0,1,0,2.552,0v-2.542h-.287Z" fill="#828282"/>
    <path id="Контур_1608" data-name="Контур 1608" d="M651.48,7203.579h1.17v3.559h.286v-3.559h1.17v-.265H651.48Z" fill="#828282"/>
    <rect id="Прямоугольник_408" data-name="Прямоугольник 408" width="0.288" height="3.823" transform="translate(654.757 7203.316)" fill="#828282"/>
    <path id="Контур_1609" data-name="Контур 1609" d="M657.721,7203.271a1.956,1.956,0,1,0,1.916,1.955,1.9,1.9,0,0,0-1.916-1.955m0,3.642a1.687,1.687,0,1,1,1.623-1.687,1.618,1.618,0,0,1-1.623,1.687" fill="#828282"/>
    <path id="Контур_1610" data-name="Контур 1610" d="M662.974,7206.547l-2.448-3.265-.009-.012H660.4v3.87h.27l0-3.229,2.446,3.259.009.014h.116v-3.866h-.27Z" fill="#828282"/>
    <path id="Контур_1611" data-name="Контур 1611" d="M665.366,7205.042l-.339-.161c-.472-.222-.621-.4-.621-.743a.585.585,0,0,1,.655-.6.807.807,0,0,1,.739.444l.017.027.229-.152-.016-.026a1.064,1.064,0,0,0-.969-.558.877.877,0,0,0-.938.873c0,.521.3.767.787,1l.342.158c.541.256.733.487.733.889a.758.758,0,0,1-.842.728,1.047,1.047,0,0,1-1.013-.629l-.014-.028-.247.122.013.029a1.309,1.309,0,0,0,1.262.771,1.009,1.009,0,0,0,1.124-.993c0-.511-.269-.853-.9-1.148" fill="#828282"/>
    <path id="Контур_1612" data-name="Контур 1612" d="M700.974,7205.042l-.339-.161c-.47-.222-.621-.4-.621-.743a.586.586,0,0,1,.656-.6.8.8,0,0,1,.74.444l.017.027.229-.152-.017-.026a1.064,1.064,0,0,0-.969-.558.877.877,0,0,0-.938.873c0,.521.3.767.788,1l.34.158c.543.256.733.487.733.889a.757.757,0,0,1-.844.728,1.041,1.041,0,0,1-1.009-.629l-.015-.028-.248.122.014.029a1.306,1.306,0,0,0,1.265.771,1.006,1.006,0,0,0,1.12-.993c0-.511-.27-.853-.9-1.148" fill="#828282"/>
    <path id="Контур_1613" data-name="Контур 1613" d="M704.875,7205.84a.991.991,0,1,1-1.974,0v-2.526h-.288v2.542a1.205,1.205,0,0,0,1.272,1.326,1.22,1.22,0,0,0,1.278-1.326v-2.542h-.288Z" fill="#828282"/>
    <path id="Контур_1614" data-name="Контур 1614" d="M707.267,7205.042l-.339-.161c-.472-.222-.623-.4-.623-.743a.586.586,0,0,1,.657-.6.8.8,0,0,1,.739.444l.019.027.227-.152-.017-.026a1.063,1.063,0,0,0-.968-.558.868.868,0,0,0-.937.873c0,.521.3.767.787,1l.341.158c.541.256.733.487.733.889a.759.759,0,0,1-.844.728,1.041,1.041,0,0,1-1.009-.629l-.015-.028-.25.122.017.029a1.3,1.3,0,0,0,1.264.771,1.006,1.006,0,0,0,1.118-.993c0-.511-.267-.853-.9-1.148" fill="#828282"/>
    <path id="Контур_1615" data-name="Контур 1615" d="M708.55,7203.579h1.169v3.559h.288v-3.559h1.17v-.265H708.55Z" fill="#828282"/>
    <path id="Контур_1616" data-name="Контур 1616" d="M713.1,7203.271h-.111l-1.5,3.822-.018.045h.293l.391-1.005h1.766l.395,1.005h.3l-1.511-3.846Zm.724,2.6h-1.56c.122-.318.645-1.706.779-2.062.135.356.662,1.744.781,2.062" fill="#828282"/>
    <rect id="Прямоугольник_409" data-name="Прямоугольник 409" width="0.289" height="3.823" transform="translate(715.294 7203.316)" fill="#828282"/>
    <path id="Контур_1617" data-name="Контур 1617" d="M719.177,7206.549l-2.448-3.266-.012-.014H716.6v3.869h.269l0-3.228,2.446,3.259.009.014h.114v-3.87h-.272Z" fill="#828282"/>
    <path id="Контур_1618" data-name="Контур 1618" d="M721.747,7203.271h-.111l-1.514,3.867h.293l.39-1.005h1.767l.395,1.005h.3l-1.508-3.846Zm.724,2.6h-1.56c.12-.318.645-1.706.78-2.062.134.356.661,1.744.78,2.062" fill="#828282"/>
    <path id="Контур_1619" data-name="Контур 1619" d="M725.706,7205.093a.793.793,0,0,0,.449-.812.931.931,0,0,0-1.054-.967h-1.167v3.826h1.273a1.007,1.007,0,0,0,1.149-1.08.9.9,0,0,0-.65-.967m-1.484.156h.943c.6,0,.9.272.9.811s-.29.813-.888.813h-.957Zm0-.265v-1.4h.857c.651,0,.788.382.788.7a.625.625,0,0,1-.691.7Z" fill="#828282"/>
    <rect id="Прямоугольник_410" data-name="Прямоугольник 410" width="0.288" height="3.823" transform="translate(727.152 7203.316)" fill="#828282"/>
    <path id="Контур_1620" data-name="Контур 1620" d="M728.747,7203.316h-.288v3.824h2.06v-.265h-1.772Z" fill="#828282"/>
    <rect id="Прямоугольник_411" data-name="Прямоугольник 411" width="0.288" height="3.823" transform="translate(731.209 7203.316)" fill="#828282"/>
    <path id="Контур_1621" data-name="Контур 1621" d="M732.145,7203.579h1.17v3.559h.288v-3.559h1.168v-.265h-2.626Z" fill="#828282"/>
    <path id="Контур_1622" data-name="Контур 1622" d="M737.623,7203.316l-.009.017c-.806,1.522-1.052,1.99-1.13,2.136-.144-.277-.746-1.422-1.123-2.136l-.011-.017h-.324l1.307,2.416v1.408h.293v-1.4l1.279-2.374.026-.048Z" fill="#828282"/>
    <path id="Контур_1623" data-name="Контур 1623" d="M738.091,7203.316v.063h.4v1.106h.071v-1.106h.406v-.062Z" fill="#828282"/>
    <path id="Контур_1624" data-name="Контур 1624" d="M740.05,7203.316l-.444,1.088h0l-.449-1.088h-.1v1.168h.071v-1.08h0l.444,1.08h.071l.435-1.08h0v1.08h.071v-1.168Z" fill="#828282"/>
    <rect id="Прямоугольник_412" data-name="Прямоугольник 412" width="103.619" height="30.359" transform="translate(638.184 7176.825)" fill="none"/>
  </g>
</svg>
