<svg xmlns="http://www.w3.org/2000/svg" width="41.678" height="41.694" viewBox="0 0 41.678 41.694">
  <g id="Сгруппировать_245" data-name="Сгруппировать 245" transform="translate(-835.4 -6229.318)">
    <g id="Сгруппировать_244" data-name="Сгруппировать 244">
      <path id="Контур_1118" data-name="Контур 1118" d="M861.411,6237.462h-3.437L856.822,6234a.614.614,0,0,0-1.165,0l-1.152,3.458h-3.437a.614.614,0,0,0-.434,1.048l2.317,2.317-1.172,3.519a.614.614,0,0,0,.923.7l3.538-2.358,3.538,2.358a.613.613,0,0,0,.922-.7l-1.173-3.519,2.317-2.317a.613.613,0,0,0-.433-1.048Zm-3.02,2.765a.612.612,0,0,0-.148.628l.727,2.182-2.39-1.593a.613.613,0,0,0-.681,0l-2.39,1.593.727-2.182a.612.612,0,0,0-.148-.628l-1.538-1.537h2.4a.615.615,0,0,0,.582-.422l.711-2.131.71,2.132a.614.614,0,0,0,.582.421h2.4Zm0,0" fill="#6f6f6e"/>
      <path id="Контур_1119" data-name="Контур 1119" d="M875.248,6231.991a6.581,6.581,0,0,0-6.541-.04l.438-1.88a.613.613,0,0,0-.6-.753H843.932a.614.614,0,0,0-.6.753l.437,1.88a6.571,6.571,0,0,0-6.541.039c-1.835,1.271-2.317,3.645-1.323,6.509,2.22,6.393,9.6,9.413,12.871,10.461a9.624,9.624,0,0,0,3.912,2.827v2.393a.614.614,0,0,0,.614.614h.662a10.222,10.222,0,0,1-1.3,4.472h-2.39a.614.614,0,0,0-.614.614v2.981h-2.253a.614.614,0,0,0-.588.438l-2.067,6.923a.614.614,0,0,0,.588.79h21.791a.614.614,0,0,0,.588-.79l-2.067-6.923a.613.613,0,0,0-.588-.438h-2.252v-2.981a.614.614,0,0,0-.615-.614h-2.392a10.222,10.222,0,0,1-1.3-4.472h.662a.614.614,0,0,0,.614-.614v-2.393a9.631,9.631,0,0,0,3.912-2.827c3.268-1.048,10.652-4.068,12.87-10.461,1-2.864.515-5.238-1.321-6.508Zm-7.559,4.345c1.666-1.12,3.753-1.513,4.642-.849.737.549.508,1.764.188,2.686-1.124,3.239-4.338,5.245-6.728,6.333Zm-21,8.171c-2.39-1.089-5.605-3.095-6.729-6.334-.32-.922-.547-2.139.188-2.686.89-.666,2.976-.271,4.642.849Zm-9.622-6.41c-.812-2.339-.505-4.149.863-5.1,1.625-1.126,4.327-.831,6.237.653l.245,1.057c-1.718-.832-3.752-1.136-5-.207-.734.548-1.438,1.7-.613,4.073,1.428,4.115,5.709,6.4,8.311,7.447a9.83,9.83,0,0,0,.531,1.238c-3.44-1.318-8.825-4.12-10.576-9.164Zm29.245,31.687H846.168l1.7-5.7h16.742Zm-4.723-6.923h-10.7v-2.368h10.7Zm-3.174-3.595h-4.352a11.593,11.593,0,0,0,1.132-4.471h2.089a11.609,11.609,0,0,0,1.131,4.471Zm.146-5.7h-4.642v-1.39a9.656,9.656,0,0,0,4.642,0Zm-2.321-2.335a8.428,8.428,0,0,1-6.607-3.166c-.011-.014-.022-.027-.034-.04a8.488,8.488,0,0,1-1.61-3.347l-3.284-14.134h23.07l-3.284,14.134a8.491,8.491,0,0,1-1.611,3.347l-.035.041a8.431,8.431,0,0,1-6.6,3.165Zm19.172-13.135c-1.751,5.044-7.136,7.846-10.577,9.164a9.839,9.839,0,0,0,.531-1.238c2.6-1.046,6.884-3.332,8.311-7.447.824-2.374.121-3.525-.614-4.073-1.244-.929-3.277-.625-5,.207l.245-1.057c1.91-1.484,4.612-1.779,6.237-.653,1.369.948,1.676,2.758.864,5.1Zm0,0" fill="#6f6f6e"/>
    </g>
  </g>
</svg>
