<svg xmlns="http://www.w3.org/2000/svg" width="41.74" height="41.747" viewBox="0 0 41.74 41.747">
  <g id="Сгруппировать_246" data-name="Сгруппировать 246" transform="translate(-477.26 -6229.236)">
    <path id="Контур_1120" data-name="Контур 1120" d="M499.3,6265.281a4.6,4.6,0,0,1-1.106.712c-.5.189-.589.1-.939-.232a2.7,2.7,0,0,0-1.027-.68,1.869,1.869,0,0,0-1.687.417c-.45.3-.484.276-.552.227a2.049,2.049,0,0,1-.355-.547c-.289-.547-.889-1.686-2.217-1.018a4.449,4.449,0,0,0-1.845,2.546c-.042.107-.084.211-.126.311a.613.613,0,0,0,1.131.472l.132-.325a3.54,3.54,0,0,1,1.258-1.909c.236-.119.255-.128.583.494a2.692,2.692,0,0,0,.716.965,1.586,1.586,0,0,0,1.957-.2c.289-.193.488-.316.615-.274a1.6,1.6,0,0,1,.574.409,1.856,1.856,0,0,0,2.219.486,5.574,5.574,0,0,0,1.425-.891.613.613,0,0,0-.756-.965Zm0,0" fill="#6f6f6e"/>
    <path id="Контур_1121" data-name="Контур 1121" d="M482.976,6249.906h1.144a.612.612,0,1,0,0-1.225h-1.144a.612.612,0,0,0,0,1.225Zm0,0" fill="#6f6f6e"/>
    <path id="Контур_1122" data-name="Контур 1122" d="M500.127,6249.906a.612.612,0,1,0,0-1.225H486.938a.612.612,0,1,0,0,1.225Zm0,0" fill="#6f6f6e"/>
    <path id="Контур_1123" data-name="Контур 1123" d="M482.976,6252.4h17.151a.612.612,0,1,0,0-1.225H482.976a.612.612,0,0,0,0,1.225Zm0,0" fill="#6f6f6e"/>
    <path id="Контур_1124" data-name="Контур 1124" d="M482.976,6255.713h1.144a.613.613,0,1,0,0-1.225h-1.144a.613.613,0,0,0,0,1.225Zm0,0" fill="#6f6f6e"/>
    <path id="Контур_1125" data-name="Контур 1125" d="M500.127,6254.488H486.938a.613.613,0,1,0,0,1.225h13.189a.613.613,0,1,0,0-1.225Zm0,0" fill="#6f6f6e"/>
    <path id="Контур_1126" data-name="Контур 1126" d="M500.74,6260.1a.612.612,0,0,0-.612-.612h-6.655a.613.613,0,1,0,0,1.225h6.655a.612.612,0,0,0,.612-.613Zm0,0" fill="#6f6f6e"/>
    <path id="Контур_1127" data-name="Контур 1127" d="M482.976,6260.711h7.678a.613.613,0,1,0,0-1.225h-7.678a.613.613,0,0,0,0,1.225Zm0,0" fill="#6f6f6e"/>
    <path id="Контур_1128" data-name="Контур 1128" d="M482.976,6258.212h17.151a.613.613,0,1,0,0-1.225H482.976a.613.613,0,0,0,0,1.225Zm0,0" fill="#6f6f6e"/>
    <path id="Контур_1129" data-name="Контур 1129" d="M518.094,6250.563a1.954,1.954,0,0,0,0-3.3,1.289,1.289,0,0,1-.5-1.566,1.913,1.913,0,0,0-1.9-2.609,2.482,2.482,0,0,1-.848-.247,2.453,2.453,0,0,1-.488-.721,2.471,2.471,0,0,0-1.275-1.359,1.478,1.478,0,0,0-.647-.056v-8.828a2.646,2.646,0,0,0-2.643-2.643H479.9a2.644,2.644,0,0,0-2.643,2.643v24.956a.612.612,0,0,0,1.225,0v-20.744h32.723v5.055a2.209,2.209,0,0,1-.776.264,2.535,2.535,0,0,1-.863-.305,2.452,2.452,0,0,0-1.77-.346v-.293a1.4,1.4,0,0,0-1.4-1.4H483.293a1.4,1.4,0,0,0-1.4,1.4v3.84a1.4,1.4,0,0,0,1.4,1.4h12.836a.613.613,0,1,0,0-1.225H483.293a.173.173,0,0,1-.173-.173v-3.84a.172.172,0,0,1,.173-.172H506.4a.173.173,0,0,1,.173.172V6242l-.065.118a2.452,2.452,0,0,1-.488.721,2.5,2.5,0,0,1-.847.248,2.466,2.466,0,0,0-1.674.786,1.506,1.506,0,0,0-.256.6h-4.215a.613.613,0,1,0,0,1.225h4.241a2.5,2.5,0,0,1,.024.89,2.537,2.537,0,0,1-.524.671,1.954,1.954,0,0,0,0,3.3,1.288,1.288,0,0,1,.5,1.565,1.912,1.912,0,0,0,1.9,2.609c.178.033.359.067.514.11a19.11,19.11,0,0,1-2.6,6.388,1.127,1.127,0,0,0,.917,1.786h1.562l1.182,1.445a1.125,1.125,0,0,0,.872.414c.039,0,.079,0,.118-.006a1.126,1.126,0,0,0,.885-.6c.047-.091.1-.192.157-.3a28,28,0,0,0,1.653-3.645c.245.688.514,1.325.775,1.89v6.124a1.419,1.419,0,0,1-1.418,1.418H479.9a1.419,1.419,0,0,1-1.418-1.418v-8.674a.612.612,0,0,0-1.225,0v8.674a2.646,2.646,0,0,0,2.643,2.643H509.79a2.646,2.646,0,0,0,2.643-2.643v-3.8a1.121,1.121,0,0,0,.693.339c.039,0,.079.006.118.006a1.125,1.125,0,0,0,.872-.414l1.183-1.445h1.562a1.127,1.127,0,0,0,.916-1.786,19.163,19.163,0,0,1-2.6-6.388c.156-.043.336-.077.514-.11a1.912,1.912,0,0,0,1.9-2.609,1.288,1.288,0,0,1,.5-1.565Zm-39.609-15.7v-2.987a1.42,1.42,0,0,1,1.418-1.418H509.79a1.285,1.285,0,0,1,.145.008,1.418,1.418,0,0,1,1.273,1.41v2.987ZM507.7,6263.4l-.092.175-1.118-1.366a1.123,1.123,0,0,0-.873-.414h-1.421a19.238,19.238,0,0,0,2.478-5.8,2.1,2.1,0,0,0,1.115,1.072,2.434,2.434,0,0,0,1.785-.343,13.89,13.89,0,0,0,.24,1.449,22.492,22.492,0,0,1-2.114,5.23Zm8.978-1.6h-1.421a1.124,1.124,0,0,0-.873.414l-1.118,1.366-.092-.175a19.364,19.364,0,0,1-2.4-6.908c.164.059.346.144.525.229a3.246,3.246,0,0,0,1.341.412,1.441,1.441,0,0,0,.444-.069,2.1,2.1,0,0,0,1.116-1.072,19.208,19.208,0,0,0,2.477,5.8Zm.534-12.078a3.151,3.151,0,0,0-.8,1.137,3.253,3.253,0,0,0-.025,1.43,1.9,1.9,0,0,1-.007.945c-.112.154-.553.236-.907.3a3.226,3.226,0,0,0-1.344.462,3.187,3.187,0,0,0-.844,1.127c-.173.32-.389.717-.576.778-.167.054-.564-.133-.882-.284a2.487,2.487,0,0,0-2.776,0c-.318.151-.714.338-.882.284-.187-.061-.4-.458-.576-.778a3.187,3.187,0,0,0-.844-1.127,3.226,3.226,0,0,0-1.344-.462c-.354-.066-.8-.148-.907-.3a1.885,1.885,0,0,1-.006-.945,3.269,3.269,0,0,0-.026-1.43,3.152,3.152,0,0,0-.8-1.137c-.266-.28-.568-.6-.568-.8s.3-.525.568-.805a3.142,3.142,0,0,0,.8-1.136,3.274,3.274,0,0,0,.026-1.431,1.885,1.885,0,0,1,.006-.945c.112-.154.553-.236.907-.3a2.405,2.405,0,0,0,2.188-1.589c.174-.319.389-.717.576-.778.168-.054.564.134.882.284a2.489,2.489,0,0,0,2.776,0c.318-.15.715-.338.882-.284.187.061.4.459.576.778a2.405,2.405,0,0,0,2.188,1.589c.354.066.795.148.907.3a1.886,1.886,0,0,1,.006.945,3.273,3.273,0,0,0,.026,1.431,3.141,3.141,0,0,0,.8,1.136c.266.28.568.6.568.805s-.3.524-.568.8Zm0,0" fill="#6f6f6e"/>
    <path id="Контур_1130" data-name="Контур 1130" d="M510.432,6243.778a5.136,5.136,0,1,0,5.136,5.136,5.142,5.142,0,0,0-5.136-5.136Zm0,9.047a3.911,3.911,0,1,1,3.911-3.911,3.916,3.916,0,0,1-3.911,3.911Zm0,0" fill="#6f6f6e"/>
  </g>
</svg>
