<svg xmlns="http://www.w3.org/2000/svg" width="41.066" height="42.864" viewBox="0 0 41.066 42.864">
  <g id="Сгруппировать_248" data-name="Сгруппировать 248" transform="translate(-117.578 -6229.242)">
    <path id="Контур_1131" data-name="Контур 1131" d="M130.383,6263.328l-.008.007a.628.628,0,1,0,.886.89l.007-.007a.627.627,0,1,0-.885-.89Zm0,0" fill="#6f6f6e"/>
    <path id="Контур_1132" data-name="Контур 1132" d="M135.507,6261.319l-.007.007a.628.628,0,1,0,.888.888l.007-.007a.628.628,0,1,0-.888-.888Zm0,0" fill="#6f6f6e"/>
    <path id="Контур_1133" data-name="Контур 1133" d="M136.287,6250.908a2.285,2.285,0,1,0-2.284,2.286,2.287,2.287,0,0,0,2.284-2.286Zm-3.315,0a1.03,1.03,0,1,1,1.031,1.031,1.031,1.031,0,0,1-1.031-1.031Zm0,0" fill="#6f6f6e"/>
    <path id="Контур_1134" data-name="Контур 1134" d="M140.515,6262.163a3.17,3.17,0,1,0,3.171,3.169,3.173,3.173,0,0,0-3.171-3.169Zm0,5.085a1.915,1.915,0,1,1,1.916-1.916,1.916,1.916,0,0,1-1.916,1.916Zm0,0" fill="#6f6f6e"/>
    <path id="Контур_1135" data-name="Контур 1135" d="M126.184,6264.583a2.174,2.174,0,1,0,2.175,2.173,2.177,2.177,0,0,0-2.175-2.173Zm0,3.092a.918.918,0,1,1,.919-.919.92.92,0,0,1-.919.919Zm0,0" fill="#6f6f6e"/>
    <path id="Контур_1136" data-name="Контур 1136" d="M150.562,6261.658l-.007.007a.628.628,0,0,0,.888.888l.007-.007a.628.628,0,1,0-.888-.888Zm0,0" fill="#6f6f6e"/>
    <path id="Контур_1137" data-name="Контур 1137" d="M151.9,6266.453l-.007.007a.628.628,0,0,0,.885.891l.008-.007a.628.628,0,0,0-.886-.891Zm0,0" fill="#6f6f6e"/>
    <g id="Сгруппировать_247" data-name="Сгруппировать 247">
      <path id="Контур_1138" data-name="Контур 1138" d="M151.97,6258.876a2.107,2.107,0,1,0-2.109-2.106,2.109,2.109,0,0,0,2.109,2.106Zm0-2.959a.852.852,0,1,1-.853.853.852.852,0,0,1,.853-.853Zm0,0" fill="#6f6f6e"/>
      <path id="Контур_1139" data-name="Контур 1139" d="M156.272,6232.275h-8.6a2.445,2.445,0,0,0-2.372,2.507,2.478,2.478,0,0,0,1.915,2.458v20.749l-6.58-8.664a10,10,0,0,1-1.723-5.26l-.024-9.823a2.506,2.506,0,0,0-.248-5h-9.267a2.506,2.506,0,0,0-.247,5v9.823a10.024,10.024,0,0,1-1.746,5.26l-2.1,2.762a.628.628,0,1,0,1,.76l2.1-2.763a11.348,11.348,0,0,0,1.971-5.784h2.132a.628.628,0,1,0,0-1.256h-2.124l.005-2.093h2.119a.628.628,0,0,0,0-1.256h-2.116l0-2.092h2.111a.628.628,0,1,0,0-1.256h-2.108l.006-2.092h7.25v9.812a11.278,11.278,0,0,0,2,6.018l4.431,5.833a8.755,8.755,0,0,0-4.5-.256,18.033,18.033,0,0,0-4.755,1.862c-3.3-2.37-8.209-1.853-11.487-.748l1.227-1.6a.628.628,0,1,0-1-.765l-3.811,4.962a11.173,11.173,0,0,0-2.009,4.8,8.468,8.468,0,0,0,.542,5.087,5.1,5.1,0,0,0,4.96,2.842H144.77a5.533,5.533,0,0,0,3.867-1.366,4.756,4.756,0,0,0,8.092-3.393v-21.01a.628.628,0,0,0-1.256,0v4.037a3.435,3.435,0,0,1-3.155-.157,4.675,4.675,0,0,0-3.852-.461v-2.421h2.1a.627.627,0,1,0,0-1.255h-2.1v-2.1h2.1a.627.627,0,1,0,0-1.255h-2.1v-2.093h2.1a.628.628,0,0,0,0-1.256h-2.1v-2.093h7.007v6.153a.628.628,0,0,0,1.256,0v-6.2a2.478,2.478,0,0,0,1.915-2.458,2.445,2.445,0,0,0-2.372-2.507Zm-26.9.724a1.25,1.25,0,1,1,0-2.5h9.267a1.25,1.25,0,1,1,0,2.5Zm-8.631,27.141,1.014-1.32c2.521-1.451,8.181-2.7,11.786-.622l-.142.075c-3.64,1.951-7.748,4.148-13.976,4.406a9.085,9.085,0,0,1,1.318-2.539Zm24.033,10.711H123.234a3.905,3.905,0,0,1-3.834-2.142,7.5,7.5,0,0,1-.336-4.761c6.75-.191,11.274-2.612,14.924-4.567,4.2-2.248,7.236-3.876,11.641-1.4l1.581,2.082v7.281a4.734,4.734,0,0,0,.652,2.4,4.217,4.217,0,0,1-3.092,1.1Zm6.851-19.589a4.393,4.393,0,0,0,2.414.678,4.776,4.776,0,0,0,1.438-.217v15.624a3.5,3.5,0,1,1-7.007,0V6251.1a3.441,3.441,0,0,1,3.155.157Zm4.651-15.231h-8.6a1.258,1.258,0,0,1,0-2.5h8.6a1.258,1.258,0,0,1,0,2.5Zm0,0" fill="#6f6f6e"/>
    </g>
  </g>
</svg>
