<svg xmlns="http://www.w3.org/2000/svg" width="99.373" height="45.093" viewBox="0 0 99.373 45.093">
  <g id="Сгруппировать_294" data-name="Сгруппировать 294" transform="translate(-100.174 -6073.583)">
    <path id="Контур_1386" data-name="Контур 1386" d="M168.376,6108.265a22.56,22.56,0,0,1-4.483,4.782c-.062.09-.237.055-.293-.03-.736-.459-1.528-.834-2.232-1.293a23.951,23.951,0,0,0,2.553-3.488h-.911a20.4,20.4,0,0,1-2.461,3.142,31.05,31.05,0,0,0-3.782-1.329l-.146-.109a14.626,14.626,0,0,0,.7-1.7h-.792l-.791,1.555a37.81,37.81,0,0,0-5.392-.691c-.092-.256.027-.633-.092-.864H149.5c-.063.347.085.608-.09.9a33.782,33.782,0,0,0-5.276.635l-.795-1.531a2.512,2.512,0,0,0-.818.029l.733,1.7-.087.084a38.268,38.268,0,0,0-3.872,1.355l-.116-.057a22.885,22.885,0,0,1-2.258-2.848c-.146-.494-.735-.206-1.055-.263a25.132,25.132,0,0,0,2.578,3.545c-.792.462-1.58.976-2.4,1.356a21.189,21.189,0,0,1-4.63-4.872,3.543,3.543,0,0,0-.94,0,23,23,0,0,0,8.826,7.864s0-.025.032-.025.085.053.025.085a24.246,24.246,0,0,0,7.39,2.277,23.086,23.086,0,0,0,22.575-10.2,5.024,5.024,0,0,0-.939,0m-12.224,2.593.086-.06a16.554,16.554,0,0,1,3.578,1.239,18.232,18.232,0,0,1-3.255,2.764c-.673.405-1.35.842-2.055,1.184l-1.257-.548.087-.2a34.269,34.269,0,0,0,2.816-4.38m-5.777-.865a23.1,23.1,0,0,1,4.9.577l.03.087a29.556,29.556,0,0,1-2.961,4.465,8.07,8.07,0,0,1-1.463-.172l-.5-.059c-.059-1.7-.09-3.2,0-4.9m-5.657.518a25.459,25.459,0,0,1,4.749-.518l.031,4.873c-.62.141-1.291.141-1.88.287a25.591,25.591,0,0,1-3.046-4.527ZM140,6112.07a19.34,19.34,0,0,1,3.575-1.272l.122.034a44.335,44.335,0,0,0,2.957,4.577c-.409.234-.908.373-1.317.6a19.8,19.8,0,0,1-5.337-3.86Zm3.784,4.924a20.744,20.744,0,0,1-6.861-3.225v-.089a16.789,16.789,0,0,1,2.169-1.211,29.8,29.8,0,0,0,5.278,4.064,2.269,2.269,0,0,1-.586.461m10.876.374a22.317,22.317,0,0,1-9.675-.056c-.057-.143.146-.172.236-.257a9.166,9.166,0,0,1,9.644.138c.088.175-.146.119-.2.175m2.813-.805-1.376.431a3.159,3.159,0,0,1-.646-.461l.057-.086a26.042,26.042,0,0,0,5.191-4,11.4,11.4,0,0,1,2.259,1.238,19.817,19.817,0,0,1-5.485,2.883" fill="#26231e"/>
    <path id="Контур_1387" data-name="Контур 1387" d="M131.348,6083.92a26.444,26.444,0,0,1,2.374-2.851,15.609,15.609,0,0,1,2.285-1.934c.764.492,1.616.9,2.348,1.36a25.3,25.3,0,0,0-2.524,3.453,1.773,1.773,0,0,0,.881,0,21.9,21.9,0,0,1,2.464-3.08c1.258.462,2.492.948,3.781,1.295l.117.116-.732,1.669a2.677,2.677,0,0,0,.849,0c.263-.487.466-1.033.762-1.526a28.651,28.651,0,0,0,5.307.631c.236.206.059.636.146.9h.792c.087-.284-.03-.6.087-.86a28.028,28.028,0,0,0,5.133-.666l.146.032.79,1.494a1.865,1.865,0,0,0,.822-.059l-.735-1.666.062-.06a32.292,32.292,0,0,0,3.9-1.379,26.7,26.7,0,0,1,2.525,3.164,2.724,2.724,0,0,0,.879-.059,11.811,11.811,0,0,0-1.264-1.816,12.377,12.377,0,0,0-1.289-1.55v-.15l2.051-1.177.3-.115a21.349,21.349,0,0,1,4.63,4.808c.352,0,.648.119.941-.026a23.214,23.214,0,0,0-17.415-10.2l-.03.058-.059-.058a13.425,13.425,0,0,0-2.611-.034,6.857,6.857,0,0,0-1.084.034,22.989,22.989,0,0,0-17.563,10.282,3.377,3.377,0,0,0,.941-.028m12.168-2.531-.119.025a23.688,23.688,0,0,1-3.489-1.179l.057-.174a23.066,23.066,0,0,1,5.189-3.774c.442.174.88.317,1.319.521l-.087.226a36.746,36.746,0,0,0-2.87,4.355m5.831.774a10.476,10.476,0,0,1-2.375-.09,15.41,15.41,0,0,1-2.577-.461,25.437,25.437,0,0,1,3.049-4.516l1.875.256c.087,1.5.028,3.227.028,4.811m.908.032c-.057-1.531-.028-3.23,0-4.814l1.819-.258a24.823,24.823,0,0,1,3.022,4.489,20.862,20.862,0,0,1-4.841.583m9.355-2.019a19.092,19.092,0,0,1-3.578,1.213,47.8,47.8,0,0,0-3.023-4.529c.412-.225.914-.4,1.354-.627a20.692,20.692,0,0,1,5.3,3.853Zm-3.755-4.926a20.89,20.89,0,0,1,6.891,3.226l-.059.113-2.022,1.125h-.147a25.54,25.54,0,0,0-5.218-3.975c.059-.2.352-.348.555-.489m-1.17-.29v.059a8.948,8.948,0,0,1-9.379.315c-.152-.116-.443-.171-.473-.374a21.969,21.969,0,0,1,9.852,0m-17.886,3.575a21.064,21.064,0,0,1,6.069-3.054c.089-.09.146-.174.264-.174v.059c.235.058.411-.2.615-.032.175.147.384.263.528.4a29.84,29.84,0,0,0-5.248,4.059,9.645,9.645,0,0,1-2.228-1.209Z" fill="#26231e"/>
    <path id="Контур_1388" data-name="Контур 1388" d="M149.015,6088.171h-8.042v1.134a.985.985,0,0,1,.79,1.086c0,.985.1,14.9.1,14.9h3.205v-6.81h3.949s5.277-.344,5.277-4.783a5.1,5.1,0,0,0-5.277-5.526m-1.035,8.337h-2.864v-6.265h2.74a2.945,2.945,0,0,1,2.736,3.131,2.877,2.877,0,0,1-2.612,3.134" fill="#26231e"/>
    <path id="Контур_1389" data-name="Контур 1389" d="M137.125,6103.02v2.271h-3.8V6092.61l-4.39,8.633h-1.967l-4.3-8.731v12.779h-3.158V6089.8a.392.392,0,0,0-.436-.4v-1.225h4.184l4.788,9.915,4.982-9.915h3.748v14.454s.053.394.346.394" fill="#26231e"/>
    <path id="Контур_1390" data-name="Контур 1390" d="M113.5,6092.611l1.528-2.911s-1.874-1.922-6.61-1.922-8.239,3.845-8.239,8.73,2.467,8.781,8.189,8.781c0,0,4.392.048,6.66-1.48v-7.7h-6.906v2.072h4.145v4.192a6.762,6.762,0,0,1-3.5.691c-2.467,0-4.884-1.826-4.884-5.326s.839-7.5,5.231-7.5c0,0,2.169-.3,4.39,2.368" fill="#26231e"/>
    <rect id="Прямоугольник_380" data-name="Прямоугольник 380" width="7.537" height="2.511" transform="translate(157.623 6095.599)" fill="#26231e"/>
    <path id="Контур_1391" data-name="Контур 1391" d="M181.729,6091.2v-3.385H169.658v1.082s.488.1.488.384v15.733h12.038v-3.209a5.853,5.853,0,0,1-2.826,1.116h-5.793v-5.651h6.42v-2.2h-6.454V6090.4h5.722a4.393,4.393,0,0,1,2.476.8" fill="#26231e"/>
    <path id="Контур_1392" data-name="Контур 1392" d="M185.183,6087.82v.873s.35.138.35.382v10.71a5.615,5.615,0,0,0,1.325,3.315c1.239,1.239,2.126,2.372,5.791,2.372a7.351,7.351,0,0,0,5.407-1.987s1.491-1.571,1.491-2.584V6087.82h-3.061v12.8s-.1,2.337-3.385,2.337-3.975-2.06-3.975-2.476V6087.82Z" fill="#26231e"/>
  </g>
</svg>
