<svg xmlns="http://www.w3.org/2000/svg" width="28.413" height="31.231" viewBox="0 0 28.413 31.231">
  <g id="Сгруппировать_77" data-name="Сгруппировать 77" transform="translate(-853.896 -7363.806)">
    <path id="Контур_102" data-name="Контур 102" d="M875.181,7377.326v-5.91a.688.688,0,0,0-.188-.45l-6.627-6.958a.661.661,0,0,0-.475-.2H857.385a3.5,3.5,0,0,0-3.489,3.522v19.866a3.478,3.478,0,0,0,3.489,3.5h8.293a8.951,8.951,0,1,0,9.5-13.363Z" fill="#064781"/>
    <path id="Контур_103" data-name="Контур 103" d="M868.542,7366.091l4.446,4.68H870.1a1.572,1.572,0,0,1-1.562-1.569Z" fill="#e7eff4"/>
    <path id="Контур_104" data-name="Контур 104" d="M857.385,7389.387a2.181,2.181,0,0,1-2.187-2.193v-19.866a2.2,2.2,0,0,1,2.187-2.22h9.855v4.094a2.87,2.87,0,0,0,2.864,2.871h3.775v5.084c-.2-.007-.351-.026-.52-.026a9.084,9.084,0,0,0-5.937,2.239h-8.266a.651.651,0,1,0,0,1.3h7.056a10.278,10.278,0,0,0-1.146,2.017h-5.91a.651.651,0,0,0,0,1.3h5.487a8.945,8.945,0,0,0,.39,5.4h-7.648Z" fill="#e7eff4"/>
    <path id="Контур_105" data-name="Контур 105" d="M873.352,7393.742a7.649,7.649,0,1,1,7.648-7.648,7.656,7.656,0,0,1-7.648,7.648Z" fill="#e7eff4"/>
    <path id="Контур_106" data-name="Контур 106" d="M873.352,7393.742" fill="#064781"/>
    <path id="Контур_107" data-name="Контур 107" d="M859.156,7377.41h6.593a.651.651,0,1,0,0-1.3h-6.593a.651.651,0,1,0,0,1.3Z" fill="#064781"/>
    <path id="Контур_108" data-name="Контур 108" d="M859.156,7377.41" fill="#064781"/>
    <path id="Контур_109" data-name="Контур 109" d="M876.685,7385.957l-2.675,2.883v-7.107a.651.651,0,0,0-1.3,0v7.107l-2.7-2.883a.657.657,0,0,0-.924-.033.649.649,0,0,0-.033.918l3.808,4.1a.646.646,0,0,0,.95,0l3.815-4.1a.647.647,0,1,0-.944-.885Z" fill="#064781"/>
    <path id="Контур_110" data-name="Контур 110" d="M876.685,7385.957" fill="#064781"/>
  </g>
</svg>
