<svg xmlns="http://www.w3.org/2000/svg" width="28.413" height="31.231" viewBox="0 0 28.413 31.231">
  <g id="Сгруппировать_76" data-name="Сгруппировать 76" transform="translate(-853.896 -7198.659)">
    <path id="Контур_99" data-name="Контур 99" d="M875.181,7212.179v-5.911a.687.687,0,0,0-.188-.449l-6.627-6.958a.661.661,0,0,0-.475-.2H857.385a3.5,3.5,0,0,0-3.489,3.521v19.866a3.478,3.478,0,0,0,3.489,3.5h8.293a8.951,8.951,0,1,0,9.5-13.363Zm-6.639-11.235,4.446,4.68H870.1a1.573,1.573,0,0,1-1.562-1.569Zm-11.157,23.3a2.181,2.181,0,0,1-2.187-2.194V7202.18a2.2,2.2,0,0,1,2.187-2.219h9.855v4.094a2.869,2.869,0,0,0,2.864,2.871h3.775v5.083c-.2-.006-.351-.026-.52-.026a9.089,9.089,0,0,0-5.937,2.239h-8.266a.651.651,0,1,0,0,1.3h7.056a10.313,10.313,0,0,0-1.146,2.018h-5.91a.651.651,0,0,0,0,1.3h5.487a8.945,8.945,0,0,0,.39,5.4h-7.648Zm15.967,4.355a7.649,7.649,0,1,1,7.648-7.649,7.657,7.657,0,0,1-7.648,7.649Zm0,0" fill="#064781"/>
    <path id="Контур_100" data-name="Контур 100" d="M859.156,7212.263h6.593a.651.651,0,0,0,0-1.3h-6.593a.651.651,0,0,0,0,1.3Zm0,0" fill="#064781"/>
    <path id="Контур_101" data-name="Контур 101" d="M876.685,7220.81l-2.675,2.883v-7.108a.651.651,0,0,0-1.3,0v7.108l-2.7-2.883a.656.656,0,0,0-.924-.033.649.649,0,0,0-.033.918l3.808,4.094a.644.644,0,0,0,.95,0l3.815-4.094a.647.647,0,1,0-.944-.885Zm0,0" fill="#064781"/>
  </g>
</svg>
