<svg xmlns="http://www.w3.org/2000/svg" width="9.15" height="13.311" viewBox="0 0 9.15 13.311">
  <g id="Сгруппировать_80" data-name="Сгруппировать 80" transform="translate(-708.295 -333.065)">
    <path id="Контур_122" data-name="Контур 122" d="M712.87,333.065a4.581,4.581,0,0,0-4.575,4.576v.017a5.072,5.072,0,0,0,.7,2.573l3.5,5.952a.393.393,0,0,0,.336.193h0a.391.391,0,0,0,.335-.191l3.554-5.941a5.076,5.076,0,0,0,.719-2.6,4.581,4.581,0,0,0-4.575-4.576Zm-.033,6.627a1.967,1.967,0,1,1,1.967-1.967,1.967,1.967,0,0,1-1.967,1.967Zm0,0" fill="#3c3c3b"/>
  </g>
</svg>
