<svg xmlns="http://www.w3.org/2000/svg" width="9.15" height="13.31" viewBox="0 0 9.15 13.31">
  <g id="Сгруппировать_278" data-name="Сгруппировать 278" transform="translate(-897 -2966.416)">
    <path id="Контур_1257" data-name="Контур 1257" d="M901.575,2966.416a4.58,4.58,0,0,0-4.575,4.575v.017a5.079,5.079,0,0,0,.7,2.574l3.505,5.951a.391.391,0,0,0,.335.193h0a.391.391,0,0,0,.336-.19l3.553-5.942a5.067,5.067,0,0,0,.719-2.6,4.58,4.58,0,0,0-4.575-4.575Zm-.033,6.626a1.967,1.967,0,1,1,1.967-1.967,1.967,1.967,0,0,1-1.967,1.967Zm0,0" fill="#fff"/>
  </g>
</svg>
