<svg xmlns="http://www.w3.org/2000/svg" width="26.199" height="26.205" viewBox="0 0 26.199 26.205">
  <g id="Сгруппировать_323" data-name="Сгруппировать 323" transform="translate(-986.279 -11788.017)">
    <g id="Сгруппировать_322" data-name="Сгруппировать 322">
      <path id="Контур_1671" data-name="Контур 1671" d="M1012.412,11795.721a9.583,9.583,0,0,0-.609-3.179,6.706,6.706,0,0,0-3.835-3.834,9.6,9.6,0,0,0-3.178-.609c-1.4-.066-1.848-.082-5.406-.082s-4,.016-5.4.077a9.589,9.589,0,0,0-3.179.609,6.707,6.707,0,0,0-3.834,3.834,9.612,9.612,0,0,0-.609,3.179c-.067,1.4-.082,1.849-.082,5.406s.015,4,.077,5.4a9.573,9.573,0,0,0,.609,3.179,6.706,6.706,0,0,0,3.834,3.835,9.619,9.619,0,0,0,3.179.608c1.4.062,1.843.077,5.4.077s4-.016,5.4-.077a9.581,9.581,0,0,0,3.179-.608,6.706,6.706,0,0,0,3.835-3.835,9.626,9.626,0,0,0,.609-3.179c.061-1.4.076-1.843.076-5.4s-.005-4-.066-5.4Zm-2.36,10.7a7.18,7.18,0,0,1-.45,2.432,4.351,4.351,0,0,1-2.488,2.488,7.211,7.211,0,0,1-2.432.45c-1.382.062-1.8.077-5.293.077s-3.916-.016-5.293-.077a7.181,7.181,0,0,1-2.432-.45,4.042,4.042,0,0,1-1.505-.978,4.089,4.089,0,0,1-.978-1.5,7.214,7.214,0,0,1-.45-2.433c-.061-1.382-.077-1.8-.077-5.293s.016-3.916.077-5.293a7.165,7.165,0,0,1,.45-2.431,3.972,3.972,0,0,1,.984-1.506,4.058,4.058,0,0,1,1.5-.978,7.254,7.254,0,0,1,2.432-.451c1.382-.061,1.8-.076,5.293-.076s3.916.016,5.293.076a7.225,7.225,0,0,1,2.432.451,4.318,4.318,0,0,1,2.483,2.483,7.2,7.2,0,0,1,.45,2.431c.061,1.382.077,1.8.077,5.293s-.016,3.906-.077,5.288Zm0,0" fill="#ddd"/>
    </g>
    <path id="Контур_1672" data-name="Контур 1672" d="M999.384,11794.39a6.732,6.732,0,1,0,6.731,6.732,6.734,6.734,0,0,0-6.731-6.732Zm0,11.1a4.367,4.367,0,1,1,4.366-4.366,4.367,4.367,0,0,1-4.366,4.366Zm0,0" fill="#ddd"/>
    <path id="Контур_1673" data-name="Контур 1673" d="M1007.953,11794.124a1.572,1.572,0,1,1-1.571-1.571,1.572,1.572,0,0,1,1.571,1.571Zm0,0" fill="#ddd"/>
  </g>
</svg>
