<svg xmlns="http://www.w3.org/2000/svg" width="61.927" height="42.575" viewBox="0 0 61.927 42.575">
  <path id="Контур_1225" data-name="Контур 1225" d="M861.482,4489.8v-23.222l19.352,11.611L861.482,4489.8Zm36.072-28.8c-1.68-2.988-3.5-3.537-7.214-3.746-3.708-.252-13.032-.357-21.11-.357s-17.421.1-21.125.353c-3.7.213-5.531.758-7.226,3.75-1.73,2.984-2.62,8.124-2.62,17.173v.031c0,9.011.89,14.189,2.62,17.142,1.695,2.988,3.518,3.53,7.222,3.782,3.708.217,13.036.344,21.129.344s17.4-.127,21.114-.34c3.711-.252,5.534-.794,7.214-3.782,1.746-2.953,2.628-8.131,2.628-17.142v-.031c0-9.053-.882-14.193-2.632-17.177Z" transform="translate(-838.259 -4456.905)" fill="#fff"/>
</svg>
