<svg xmlns="http://www.w3.org/2000/svg" width="24.897" height="29.493" viewBox="0 0 24.897 29.493">
  <g id="Сгруппировать_324" data-name="Сгруппировать 324" transform="translate(-935.592 -11785.118)">
    <path id="Контур_1674" data-name="Контур 1674" d="M960.059,11800.05a3.148,3.148,0,0,0-2.691-2.447,126.254,126.254,0,0,0-18.647,0,3.149,3.149,0,0,0-2.691,2.447,39.942,39.942,0,0,0,0,11.771,3.144,3.144,0,0,0,2.69,2.445,126.241,126.241,0,0,0,18.646,0,3.147,3.147,0,0,0,2.692-2.445,40.265,40.265,0,0,0,.005-11.771Zm-17.364,1.462h-1.8v9.575h-1.674v-9.575h-1.769v-1.568H942.7Zm4.545,9.575h-1.506v-.905a2.412,2.412,0,0,1-1.718,1.02.923.923,0,0,1-.97-.617,4.284,4.284,0,0,1-.132-1.235v-6.564h1.5v6.113a4.911,4.911,0,0,0,.013.584c.036.233.15.353.352.353.3,0,.618-.232.951-.7v-6.346h1.506Zm5.716-2.492a6.638,6.638,0,0,1-.152,1.672,1.192,1.192,0,0,1-1.2.935,2.044,2.044,0,0,1-1.554-.919v.8h-1.5v-11.144h1.5v3.64a2.038,2.038,0,0,1,1.554-.9,1.19,1.19,0,0,1,1.2.938,6.382,6.382,0,0,1,.152,1.669Zm5.678-1.385h-3.008v1.473c0,.767.251,1.151.769,1.151a.646.646,0,0,0,.671-.6,9.737,9.737,0,0,0,.034-1.02h1.534v.219c0,.486-.017.819-.032.971a2.115,2.115,0,0,1-.351.9,2.077,2.077,0,0,1-1.82.9,2.151,2.151,0,0,1-1.82-.85,3.218,3.218,0,0,1-.484-1.953v-2.908a3.238,3.238,0,0,1,.465-1.956,2.142,2.142,0,0,1,1.8-.853,2.089,2.089,0,0,1,1.774.853,3.258,3.258,0,0,1,.467,1.956v1.72Zm0,0" fill="#ddd"/>
    <path id="Контур_1675" data-name="Контур 1675" d="M956.38,11804.037q-.754,0-.754,1.151v.769h1.5v-.769q0-1.151-.75-1.151Zm0,0" fill="#ddd"/>
    <path id="Контур_1676" data-name="Контур 1676" d="M950.8,11804.037a1.08,1.08,0,0,0-.751.365v5.062a1.076,1.076,0,0,0,.751.37c.433,0,.654-.37.654-1.121v-3.544c0-.748-.221-1.132-.654-1.132Zm0,0" fill="#ddd"/>
    <path id="Контур_1677" data-name="Контур 1677" d="M951.638,11796.493a2.443,2.443,0,0,0,1.736-1.029v.914H954.9v-8.392h-1.522v6.415q-.506.712-.959.712c-.2,0-.324-.121-.358-.358a3.8,3.8,0,0,1-.017-.59v-6.179h-1.517v6.636a4.238,4.238,0,0,0,.135,1.248.932.932,0,0,0,.98.623Zm0,0" fill="#ddd"/>
    <path id="Контур_1678" data-name="Контур 1678" d="M941.051,11791.817v4.561h1.687v-4.561l2.028-6.7h-1.7l-1.152,4.422-1.2-4.422H938.94c.354,1.043.725,2.093,1.08,3.138a27.417,27.417,0,0,1,1.031,3.562Zm0,0" fill="#ddd"/>
    <path id="Контур_1679" data-name="Контур 1679" d="M947.026,11796.493a2.072,2.072,0,0,0,1.774-.858,3.284,3.284,0,0,0,.472-1.974v-2.938a3.292,3.292,0,0,0-.472-1.977,2.251,2.251,0,0,0-3.543,0,3.254,3.254,0,0,0-.477,1.977v2.938a3.246,3.246,0,0,0,.477,1.974,2.068,2.068,0,0,0,1.769.858Zm-.726-6.075c0-.777.237-1.164.726-1.164s.726.387.726,1.164v3.53c0,.775-.235,1.165-.726,1.165s-.726-.39-.726-1.165Zm0,0" fill="#ddd"/>
  </g>
</svg>
