<svg xmlns="http://www.w3.org/2000/svg" width="291.06" height="290.755" viewBox="0 0 291.06 290.755">
  <g id="Сгруппировать_108" data-name="Сгруппировать 108" transform="translate(-734.673 -586.541)">
    <line id="Линия_5" data-name="Линия 5" y1="289.252" x2="289.252" transform="translate(735.729 587.292)" fill="none" stroke="#0c618d" stroke-miterlimit="10" stroke-width="2.126"/>
    <line id="Линия_6" data-name="Линия 6" x1="289.252" y1="289.252" transform="translate(735.729 587.292)" fill="none" stroke="#0c618d" stroke-miterlimit="10" stroke-width="2.126"/>
    <g id="Сгруппировать_86" data-name="Сгруппировать 86">
      <path id="Контур_274" data-name="Контур 274" d="M754.851,755.889l3.848-.344,2.611,6.116H758.7Z" fill="#acc5df"/>
      <path id="Контур_275" data-name="Контур 275" d="M799.032,755.839l3.293-.294,2.234,5.233h-2.234Z" fill="#acc5df"/>
      <path id="Контур_276" data-name="Контур 276" d="M766.532,755.84l3.438-.3L772.3,760.8H769.97Z" fill="#acc5df"/>
      <path id="Контур_277" data-name="Контур 277" d="M808.753,755.9l4.094-.353,2.778,6.26h-2.778Z" fill="#acc5df"/>
      <path id="Контур_278" data-name="Контур 278" d="M845.287,742.426a1.01,1.01,0,0,1,.785,1.34c-.083.226-1.935,5.2-5.442,5.2a3.928,3.928,0,0,1-.779-.08,51.113,51.113,0,0,0-10.505-.588c-4.422.045-8.991.09-13.323-1.06a1.008,1.008,0,0,1,.518-1.949c4.067,1.08,8.5,1.036,12.786.994a52.578,52.578,0,0,1,10.926.626c1.522.313,2.766-1.521,3.421-2.762-3.67-.926-4.833-2.852-6.057-4.879a18.789,18.789,0,0,0-1.59-2.345,1.009,1.009,0,0,1,1.556-1.284,20.9,20.9,0,0,1,1.76,2.586c1.253,2.075,2.158,3.574,5.944,4.2" fill="#0c618d"/>
      <path id="Контур_279" data-name="Контур 279" d="M819.494,724.3a1.008,1.008,0,0,1,.078-1.424c6.1-5.46,10.291-2.207,13.992.663,2.349,1.82,4.564,3.54,7.252,3.344a1.054,1.054,0,0,1,1.08.719c.52,1.608-4.221,4.656-4.268,4.686a13.957,13.957,0,0,1-7.19,2.215,12.158,12.158,0,0,1-8.681-3.908,1.008,1.008,0,1,1,1.413-1.438c2.655,2.612,5.6,3.691,8.753,3.2a14.015,14.015,0,0,0,7.021-3.58c-2.509-.466-4.59-2.079-6.615-3.649-3.67-2.846-6.571-5.093-11.411-.754a1.01,1.01,0,0,1-1.424-.079" fill="#0c618d"/>
      <path id="Контур_280" data-name="Контур 280" d="M835.952,723.088a1.007,1.007,0,0,1-.051-1.425,13.611,13.611,0,0,0,1.048-1.269,14.871,14.871,0,0,1-6.12-1.874,13.255,13.255,0,0,0-4.779-1.6,1.009,1.009,0,0,1,.08-2.016,14.87,14.87,0,0,1,5.562,1.8c2.317,1.1,4.508,2.133,6.713,1.475a1.075,1.075,0,0,1,1.189.445c.705,1.134-1.519,3.668-2.217,4.418a1.006,1.006,0,0,1-1.425.051" fill="#0c618d"/>
      <path id="Контур_281" data-name="Контур 281" d="M747.831,720.7a6.945,6.945,0,0,1-5.49,2.566,8.086,8.086,0,0,1-2-.256,7.319,7.319,0,0,1-5.562-5.606,4.729,4.729,0,0,1,3.418-5.753,4.068,4.068,0,0,1,5,2.852,1.009,1.009,0,0,1-1.926.6,2.073,2.073,0,0,0-2.595-1.492,2.75,2.75,0,0,0-1.91,3.44,5.306,5.306,0,0,0,4.075,4.005,5.116,5.116,0,0,0,5.422-1.617,1.008,1.008,0,1,1,1.573,1.261" fill="#0c618d"/>
      <path id="Контур_282" data-name="Контур 282" d="M751.6,744.412c3.149-2.587,1.8-7.459-.612-14.595-3.644-10.775-.613-20.163,8.314-25.756,7.508-4.7,18.373-6.264,29.808-4.284a63.341,63.341,0,0,1,33.293,17.2,1.008,1.008,0,1,1-1.415,1.436c-18.79-18.5-46.512-21.474-60.615-12.64-8.189,5.131-10.844,13.441-7.475,23.4,2.165,6.4,4.4,13.017.1,16.7-.33,1.562,2.8,10.356,6.2,14.818h1.011c-1.992-3.207-5.191-10.533,1.249-17.613,4.388-4.823,6.436-8.155,6.444-10.483a1.01,1.01,0,0,1,1.009-1h0a1.011,1.011,0,0,1,1.005,1.012c-.011,2.9-2.161,6.546-6.97,11.833-7.309,8.035-.335,16.256-.034,16.6a1.009,1.009,0,0,1-.761,1.67h-3.446a1.012,1.012,0,0,1-.784-.373,40.808,40.808,0,0,1-5.245-9.768c-2.664-6.848-1.509-7.8-1.074-8.154" fill="#0c618d"/>
      <path id="Контур_283" data-name="Контур 283" d="M798.818,742.906a40.534,40.534,0,0,1-12.688,2.183,33.671,33.671,0,0,1-14.661-3.483c-.6-.27-1.126-.5-1.579-.682a1.008,1.008,0,1,1,.738-1.877c.5.2,1.038.438,1.665.719,4.38,1.961,12.533,5.61,25.9,1.224a1.008,1.008,0,1,1,.629,1.916" fill="#0c618d"/>
      <path id="Контур_284" data-name="Контур 284" d="M773.237,761.367a1.006,1.006,0,0,1-.837.447h-2.469a1.011,1.011,0,0,1-.676-.26c-2.315-2.1-6.389-11.167-6.988-13.325a1.008,1.008,0,0,1,1.943-.54c.568,2.046,4.2,9.95,6.141,12.108h.6c-1.014-2.936-3.04-9.952-1.687-15.94a1.008,1.008,0,1,1,1.967.443c-1.583,7.008,2.064,16.033,2.1,16.123a1,1,0,0,1-.1.944" fill="#0c618d"/>
      <path id="Контур_285" data-name="Контур 285" d="M814.948,734.86a1.009,1.009,0,0,1,.3,1.393c-6.3,9.818,1.324,24.832,1.4,24.983a1.008,1.008,0,0,1-.9,1.47h-2.4a1.01,1.01,0,0,1-.728-.311c-7.32-7.668-11.063-19.474-11.219-19.972a1.011,1.011,0,0,1,0-.611,15.355,15.355,0,0,0,.023-8.438,1.009,1.009,0,0,1,1.873-.749,17.23,17.23,0,0,1,.121,9.488c.613,1.833,4.172,11.9,10.364,18.578h.375c-1.863-4.222-6.39-16.519-.614-25.527a1.007,1.007,0,0,1,1.392-.3" fill="#0c618d"/>
      <path id="Контур_286" data-name="Контур 286" d="M797.323,746.078a58.681,58.681,0,0,0,4.985,13.718h.32a24.866,24.866,0,0,1-.625-7.421,1.009,1.009,0,0,1,2.013.132,21.708,21.708,0,0,0,.9,7.955,1.009,1.009,0,0,1-.948,1.351h-2.251a1.009,1.009,0,0,1-.874-.505,57.649,57.649,0,0,1-5.531-15.095,1.008,1.008,0,0,1,2.012-.135" fill="#0c618d"/>
      <path id="Контур_287" data-name="Контур 287" d="M830.34,737.385a1.048,1.048,0,0,1,1.427,0,1.034,1.034,0,0,1,.3.716,1.009,1.009,0,1,1-1.725-.716" fill="#0c618d"/>
      <rect id="Прямоугольник_100" data-name="Прямоугольник 100" width="3.92" height="1.697" transform="matrix(1, -0.019, 0.019, 1, 755.03, 755.024)" fill="#0c618d"/>
      <rect id="Прямоугольник_101" data-name="Прямоугольник 101" width="3.92" height="1.697" transform="matrix(1, -0.019, 0.019, 1, 766.787, 755.024)" fill="#0c618d"/>
      <rect id="Прямоугольник_102" data-name="Прямоугольник 102" width="3.92" height="1.697" transform="matrix(1, -0.019, 0.019, 1, 799.115, 755.024)" fill="#0c618d"/>
      <rect id="Прямоугольник_103" data-name="Прямоугольник 103" width="4.599" height="1.697" transform="translate(809.178 755.024) rotate(-0.899)" fill="#0c618d"/>
    </g>
    <g id="Сгруппировать_87" data-name="Сгруппировать 87">
      <path id="Контур_288" data-name="Контур 288" d="M882.034,830.59s10.687,2.624,10.874,8.437c-.375,6,.188,8.063,1.5,9.937.188,3.937-2.062,8.625-2.062,8.625l-9.374-14.437a20.02,20.02,0,0,1-.938-12.562" fill="#acc5df"/>
      <path id="Контур_289" data-name="Контур 289" d="M906.216,833.776s-2.625,6.938,3.375,11.062c3.75,2.063,11.249,2.063,11.249,2.063s-2.624-4.818-14.624-13.125" fill="#acc5df"/>
      <path id="Контур_290" data-name="Контур 290" d="M854.835,837.339s-8.061,3.187-15.936,0v3.187s14.062,4.4,17.249-1.593c-.75-.657-1.125-1.032-1.125-1.032" fill="#acc5df"/>
      <path id="Контур_291" data-name="Контур 291" d="M873.779,835.99l-4.5-2.551s5.849-6.524,8.549-1.874c.225,1.874.75,1.874-4.049,4.425" fill="#acc5df"/>
      <path id="Контур_292" data-name="Контур 292" d="M899.8,828.3c3.048,4.02,6.892,7.056,10.611,9.994,7.073,5.588,13.756,10.868,14.386,22.26a.979.979,0,0,0,.66.881c.853.3,2.055-.574,2.822-1.418,1.432-1.577,4.319-6.205.166-15.108-.533-1.141-.908-1.769-.647-2.01s1.251.668,2.15,1.737c2.629,3.122,5.566,10.533,2.258,17.12-2.886,5.747-6.093,7.289-7.815,8.115-.9.43-1.668.8-1.668,1.679a3.069,3.069,0,0,1-3.064,3.065H900.99a3.065,3.065,0,0,1,0-6.13h6.648a.869.869,0,0,0,.651-1.446L904.18,862.4a6.874,6.874,0,0,1,8.063-10.78.869.869,0,1,0,.737-1.575,8.613,8.613,0,0,0-10.1,13.509l2.54,2.869c.16.18.094.326-.145.326H900.99a4.8,4.8,0,0,0,0,9.606h18.669a4.809,4.809,0,0,0,4.8-4.564c.161-.1.447-.234.688-.35,1.773-.852,5.464-2.625,8.615-8.9,3.71-7.386.548-15.421-2.481-19.02-1.27-1.51-3.212-2.981-4.509-2.155-1.463.934-.285,3.455.1,4.283,2.783,5.968,2.139,9.681,1.107,11.746a5.965,5.965,0,0,1-1.524,1.972c-1.038-11.431-8.114-17.021-14.965-22.433-3.632-2.869-7.389-5.836-10.3-9.679a.869.869,0,0,0-1.386,1.05" fill="#0c618d"/>
      <path id="Контур_293" data-name="Контур 293" d="M877.06,823.631c3.286.971,5.457,1.612,5.736,2.186.157.324-.205,1.234-.663,2.385-3.954,9.944.6,16.258,4.622,21.829,3.635,5.038,7.068,9.8,4.264,16.807a2.255,2.255,0,0,1-1.768,1.073h-1.5a4.223,4.223,0,1,0,0,8.445h7.165a.87.87,0,0,0,0-1.74h-7.165a2.484,2.484,0,1,1,0-4.967h1.5a3.957,3.957,0,0,0,3.382-2.166c3.161-7.9-.717-13.272-4.469-18.47-3.941-5.462-8.017-11.111-4.414-20.168.664-1.671,1.1-2.774.609-3.789-.615-1.263-2.3-1.762-6.807-3.093-2.663-.786-4.347-2.153-5.005-4.062a5.344,5.344,0,0,1,.146-3.905,14.486,14.486,0,0,1,3.553-.151c3.012.072,4.893.062,5.607-.992a7.471,7.471,0,0,1,5.258-2.24c2.543-.146,6.436.685,10.542,5.473a9.183,9.183,0,0,1,1.267,6.97,4.772,4.772,0,0,1-2.97,3.5,1.6,1.6,0,0,1-1.64-.03c-.558-.383-1.851-1.928-1.8-7.994v-.219a.87.87,0,0,0-1.739,0l0,.2c-.042,5.146.793,8.235,2.555,9.443a3.33,3.33,0,0,0,3.265.214,6.506,6.506,0,0,0,4.017-4.7c.76-3.07-.233-6.884-1.636-8.521-4.568-5.326-9.022-6.245-11.962-6.077-3.066.176-5.668,1.658-6.58,2.975-.466.343-2.854.286-4.141.255-2.756-.066-4.345-.059-4.973.822a6.763,6.763,0,0,0-.413,5.539c.586,1.7,2.129,3.975,6.157,5.164" fill="#0c618d"/>
      <path id="Контур_294" data-name="Контур 294" d="M839.662,855.145c1.271,2.5,2.473,4.864.812,13.08-.064.317-.865.682-1.34.682h-.464a3.724,3.724,0,0,0,.06,7.447h4.36a.869.869,0,0,0,0-1.738h-4.36a1.986,1.986,0,1,1,0-3.971h.4c1.1,0,2.77-.721,3.044-2.076,1.781-8.809.447-11.433-.965-14.213-1.273-2.5-2.589-5.091-1.364-13.537.628-4.336-2.285-7.151-3.624-8.4a.216.216,0,0,1-.01-.333,7.577,7.577,0,0,0,.8-.938c.6-.864.356-2.156.078-3.186a13.432,13.432,0,0,1-.042-6.6,15.43,15.43,0,0,0,2.441,2.177,4.082,4.082,0,0,0,3.1.319,10.911,10.911,0,0,1,8.757,1.111,4.456,4.456,0,0,0,2.995.644,16.808,16.808,0,0,0,3.452-1.144,21.613,21.613,0,0,1-1.471,6.3,4.172,4.172,0,0,0-.343,3.127,8.927,8.927,0,0,0,.537,1.012.389.389,0,0,1-.071.545c-.1.058-.205.118-.3.172-.408.233-.871.5-1.327.781a1.642,1.642,0,0,0-.838,1.412,1.72,1.72,0,0,0,.93,1.446c3.029,1.766,18.038,11.192,16.1,23.331a.939.939,0,0,0,.552,1.012c.879.4,2.734-.52,3.89-1.921,1.76-2.134,3.647-7.218-3.48-17.3-2.568-3.631-3.351-7.134-2.208-9.862a6.091,6.091,0,0,1,4.786-3.636c1.5-.244,2.467.44,2.619,1.207.158.795-.6,1.51-1.926,1.821a4.922,4.922,0,0,0-1.238.432,3.7,3.7,0,0,0-1.7,4.016c.3,1.716,1.5,3.683,2.893,5.959,3.281,5.373,7.364,12.059,2.467,19.509A11.719,11.719,0,0,1,872.5,868.2c-1.613.81-3.137,1.573-3.261,3.894a2.547,2.547,0,0,1-2.482,2.527H849.125a2.48,2.48,0,0,1,0-4.961h4.356a1.38,1.38,0,0,0,1.09-2.422l-2.634-2.974a5.722,5.722,0,0,1,4.282-9.515h.077a.87.87,0,0,0,.011-1.74,7.462,7.462,0,0,0-5.672,12.408l1.93,2.18c.159.18.093.325-.146.325h-3.294a4.219,4.219,0,1,0,0,8.437h17.632a4.263,4.263,0,0,0,4.218-4.171c.068-1.263.715-1.636,2.305-2.434a13.408,13.408,0,0,0,5.845-4.96c5.5-8.372.914-15.886-2.437-21.371-1.3-2.126-2.419-3.961-2.664-5.354a2.005,2.005,0,0,1,.82-2.189,3.134,3.134,0,0,1,.8-.265c2.64-.618,3.528-2.38,3.237-3.852-.311-1.567-2.031-3.005-4.605-2.586a7.793,7.793,0,0,0-6.111,4.681c-1.383,3.3-.535,7.4,2.392,11.538,5.433,7.686,5.282,11.959,4.2,14.189a4.782,4.782,0,0,1-1.877,2.064c.993-12.546-13.751-21.925-17.01-23.835.389-.24.789-.467,1.145-.67,1.033-.587,1.4-.808,1.606-1.152.309-.516.034-.955-.347-1.561a9.828,9.828,0,0,1-.687-1.224,3.091,3.091,0,0,1,.356-1.771,23,23,0,0,0,1.619-7.142,1.574,1.574,0,0,0-.637-1.471,1.676,1.676,0,0,0-1.7,0,14.645,14.645,0,0,1-3.243,1.1,2.748,2.748,0,0,1-1.684-.413,12.643,12.643,0,0,0-10.153-1.322,2.527,2.527,0,0,1-1.661-.076,14.4,14.4,0,0,1-2.341-2.138,1.62,1.62,0,0,0-1.593-.589,1.566,1.566,0,0,0-1.1,1.224,15.279,15.279,0,0,0-.031,7.818c.384,1.414.183,1.728.174,1.74a6.781,6.781,0,0,1-.707.8c-.467.476-.834.853-.834,1.385,0,.467.283.719.8,1.177,1.139,1.013,3.808,3.387,3.278,7.048-1.3,8.992.2,11.958,1.534,14.576" fill="#0c618d"/>
      <path id="Контур_295" data-name="Контур 295" d="M886.532,816.793a1.2,1.2,0,0,0,.354-.852,1.181,1.181,0,0,0-.354-.845,1.242,1.242,0,0,0-1.7,0,1.205,1.205,0,0,0-.348.845,1.188,1.188,0,0,0,1.2,1.2,1.2,1.2,0,0,0,.846-.348" fill="#0c618d"/>
      <path id="Контур_296" data-name="Контур 296" d="M872.813,836.607a4.824,4.824,0,0,0-3.472-2.135l.141-1.432a6.244,6.244,0,0,1,4.6,2.885Z" fill="#0c618d"/>
      <path id="Контур_297" data-name="Контур 297" d="M847.467,842.731a24.542,24.542,0,0,1-8.628-1.693l-.525-.2v-.561a8.869,8.869,0,0,0-.176-2.473.659.659,0,0,0,.277.283l.678-1.464a.588.588,0,0,1,.119.055h0c.064.036,6.608,3.6,15.249-.041l.63,1.492a20.421,20.421,0,0,1-15.188.625c.017.3.025.615.028.955,10.547,3.728,16.123-1.256,16.18-1.307l1.1,1.19c-.19.175-3.5,3.137-9.742,3.137" fill="#0c618d"/>
      <path id="Контур_298" data-name="Контур 298" d="M892.617,858.226l-1.231-1.055c.035-.039,3.478-4.122,2.612-7.427a4.19,4.19,0,0,0-.937-1.6c-.879-1.092-1.975-2.453-1.317-5.982.047-.251.1-.5.153-.75.445-2.084.828-3.885-2.844-7.044-4.067-3.5-7.063-2.876-7.187-2.848l-.377-1.576c.156-.038,3.874-.886,8.62,3.2,4.4,3.786,3.854,6.35,3.372,8.612-.051.236-.1.471-.145.708-.522,2.8.178,3.664.987,4.67a5.675,5.675,0,0,1,1.242,2.2c1.081,4.129-2.783,8.7-2.948,8.893" fill="#0c618d"/>
      <path id="Контур_299" data-name="Контур 299" d="M917.9,848.2a16.088,16.088,0,0,1-8.1-2.533,9.352,9.352,0,0,1-4.893-7.732,11.6,11.6,0,0,1,.6-4.466l1.513.576c-.1.272-2.438,6.682,3.6,10.225,6.262,3.673,9.756,1.885,9.791,1.866l.763,1.429a7.334,7.334,0,0,1-3.274.635" fill="#0c618d"/>
    </g>
    <g id="Сгруппировать_88" data-name="Сгруппировать 88">
      <path id="Контур_300" data-name="Контур 300" d="M931.653,752.909S929.9,767.9,940.733,768.4c4-.167,12.742-3.332,10.244-16.158a40.473,40.473,0,0,1-4.5,4l-4.415-3-5.831,3Z" fill="#acc5df"/>
      <path id="Контур_301" data-name="Контур 301" d="M943.451,703.6h7.385a.974.974,0,1,0,0-1.947h-5.5a18.244,18.244,0,0,1,4.278-3.1.97.97,0,0,0,.364-1.409c-2.162-3.21-2.359-4.843-2.187-5.075a1.612,1.612,0,0,1,1.183-.419,4.557,4.557,0,0,0,3.739-2.5c.239-.427.624-.951,1.1-1.018a1.733,1.733,0,0,1,1.252.591c1.242,1.166,2.911,1.154,4.582-.029.393-.281,1.135-.72,1.678-.515a1.67,1.67,0,0,1,.791,1.058,4.1,4.1,0,0,0,3.064,2.835,1.433,1.433,0,0,1,1,.527c.209.327-.482,1.947-2.292,3.449-2.278-2.018-5.213-3.15-9.49-2.377a.973.973,0,1,0,.346,1.915c6.9-1.244,9.43,3.067,12.636,8.526,3.481,5.923,7.637,13,18.956,13A39.315,39.315,0,0,0,996.5,715.59a.974.974,0,0,0,.514-.34l12.263-15.684,2.545,4.449-5.554,8.159a.973.973,0,0,0,1.609,1.095l5.9-8.661a.976.976,0,0,0,.041-1.031l-3.566-6.235a.972.972,0,0,0-1.611-.116l-12.956,16.568c-17.624,4.642-22.2-3.145-26.619-10.674a38.573,38.573,0,0,0-3.8-5.688c2.078-1.779,3.592-4.285,2.562-5.891a3.258,3.258,0,0,0-2.289-1.389,2.2,2.2,0,0,1-1.572-1.556,3.379,3.379,0,0,0-1.945-2.246,3.642,3.642,0,0,0-3.49.751c-1.329.943-1.907.4-2.124.2a3.418,3.418,0,0,0-2.856-1.1,3.5,3.5,0,0,0-2.527,2,2.683,2.683,0,0,1-2.1,1.508,3.332,3.332,0,0,0-2.635,1.142c-.956,1.186-.448,3.37,1.512,6.5-1.462.869-4.208,2.721-5.219,4.865a.975.975,0,0,0,.881,1.388" fill="#0c618d"/>
      <path id="Контур_302" data-name="Контур 302" d="M1014.783,711.285l-6.006,4.958a.974.974,0,0,0,1.24,1.5l6.479-5.351a.971.971,0,0,0,.324-.987l-.931-3.709a.973.973,0,1,0-1.888.474Z" fill="#0c618d"/>
      <path id="Контур_303" data-name="Контур 303" d="M1017.052,715.153a.974.974,0,0,0-.974.973V717.7l-6.3,3.284a.97.97,0,0,0-.516.743c-.58,4.7-3.388,20.188-15.24,22.211a.973.973,0,0,0,.162,1.933,1.034,1.034,0,0,0,.165-.014c12.762-2.178,16.022-17.824,16.779-23.382l6.37-3.321a.976.976,0,0,0,.525-.864v-2.166a.973.973,0,0,0-.973-.973" fill="#0c618d"/>
      <path id="Контур_304" data-name="Контур 304" d="M1000.028,746.537a.975.975,0,0,0-1.225.628c-.031.1-3.053,9.26-8.153,9.26a4.5,4.5,0,0,1-.586-.04c-3.071-.419-5.331-5.983-5.765-7.854a.975.975,0,0,0-.8-.743,55.858,55.858,0,0,1-10.269-2.987c-10.4-3.95-22.271-13.765-19.743-38.089a.973.973,0,0,0-1.936-.2c-2.8,26.9,11.949,36.677,20.987,40.11a61.754,61.754,0,0,0,10.041,2.981c.667,2.207,2.743,7.166,6.187,8.447l-1.932,8.708h-6.058a.973.973,0,1,0,0,1.946h14.162a.973.973,0,1,0,0-1.946h-6.11l1.86-8.386c6.472-.019,9.826-10.158,9.973-10.608a.975.975,0,0,0-.628-1.226" fill="#0c618d"/>
      <path id="Контур_305" data-name="Контур 305" d="M972.286,760.378a.972.972,0,0,0-1.359.22l-4.443,6.159h-3.316a.973.973,0,1,0,0,1.946h11.139a.973.973,0,1,0,0-1.946h-5.422l3.621-5.021a.974.974,0,0,0-.22-1.358" fill="#0c618d"/>
      <path id="Контур_306" data-name="Контур 306" d="M1000.611,728.438a21.762,21.762,0,0,0-4.232-5.819.973.973,0,1,0-1.366,1.386,20.876,20.876,0,0,1,3.5,4.614c-6.524,5.57-16.06,6-22.291,3.477-4.291-1.737-6.86-4.7-7.052-8.13a.973.973,0,1,0-1.943.108c.235,4.213,3.246,7.8,8.264,9.826a24.116,24.116,0,0,0,8.918,1.646,23.37,23.37,0,0,0,15.977-5.989.972.972,0,0,0,.224-1.119" fill="#0c618d"/>
      <path id="Контур_307" data-name="Контур 307" d="M981.941,755.638a.973.973,0,0,0-1.547-1.182c-1.726,2.26-3.753,3.371-5.419,2.973-2.332-.556-3.837-3.908-3.743-8.338a.974.974,0,0,0-.953-.994h-.02a.972.972,0,0,0-.972.952c-.117,5.455,1.94,9.487,5.236,10.273a5.014,5.014,0,0,0,1.162.137c2.136,0,4.362-1.344,6.256-3.821" fill="#0c618d"/>
      <path id="Контур_308" data-name="Контур 308" d="M956.782,699.561a.97.97,0,0,0,.288-.691.957.957,0,0,0-.288-.686,1.006,1.006,0,0,0-1.376,0,.971.971,0,0,0-.283.686.965.965,0,0,0,.972.973.972.972,0,0,0,.687-.282" fill="#0c618d"/>
      <path id="Контур_309" data-name="Контур 309" d="M932.354,754.054l3.7,3.124a.975.975,0,0,0,1.117.1l4.883-2.841,3.633,3.014a.973.973,0,0,0,1.289-.039l3.639-3.42a14.441,14.441,0,0,1,.14,2.011c0,6.35-4.158,11.518-9.269,11.518s-9.268-5.168-9.268-11.518a14.442,14.442,0,0,1,.132-1.947m9.136,15.411c6.185,0,11.216-6.04,11.216-13.464a16.012,16.012,0,0,0-.545-4.166.975.975,0,0,0-1.606-.455l-4.282,4.024-3.495-2.9a.97.97,0,0,0-1.11-.093l-4.879,2.837-4.441-3.746a.974.974,0,0,0-1.571.5,16.018,16.018,0,0,0-.5,4c0,7.424,5.032,13.464,11.215,13.464" fill="#0c618d"/>
      <path id="Контур_310" data-name="Контур 310" d="M933.98,749.844a.988.988,0,0,0,.332.058.974.974,0,0,0,.916-.641,7.226,7.226,0,0,1,1.209-2.122.975.975,0,0,0,.22-.617v-3.378a4.648,4.648,0,0,1,9.3,0v2.375a.974.974,0,0,0,.337.737,7.257,7.257,0,0,1,1.838,2.442.973.973,0,1,0,1.767-.816,9.264,9.264,0,0,0-2-2.794v-1.944h1.8a.974.974,0,1,0,0-1.947H947.6a6.593,6.593,0,0,0-12.892,1.948v3.041A9.115,9.115,0,0,0,933.4,748.6a.974.974,0,0,0,.582,1.247" fill="#0c618d"/>
      <path id="Контур_311" data-name="Контур 311" d="M941.551,741.257a.977.977,0,1,0,1.377,0,1,1,0,0,0-1.377,0" fill="#0c618d"/>
    </g>
    <g id="Сгруппировать_89" data-name="Сгруппировать 89">
      <path id="Контур_312" data-name="Контур 312" d="M842.39,589.179a5.914,5.914,0,0,0,4.073,4.8c.1,3.029,1.253,12.116,8.669,12.116,3.238-.417,8.355-2.3,8.982-7.206,1.984.208,10.863-.419,10.758-9.713-25.8.417-32.482,0-32.482,0" fill="#acc5df"/>
      <path id="Контур_313" data-name="Контур 313" d="M899.824,591.684s-2.872,4.283,1.566,8.357c-.522,3.55-.835,10.444,7.834,12.532A20.075,20.075,0,0,0,918.1,608.5s-8.877-12.116-18.277-16.816" fill="#acc5df"/>
      <path id="Контур_314" data-name="Контур 314" d="M883.439,639.173l-3.4,23.228a.906.906,0,0,0,.9,1.037h4.272a.9.9,0,0,0,.862-.632l3.595-11.376a.9.9,0,0,0-.59-1.135.89.89,0,0,0-.273-.043.9.9,0,0,0-.863.633l-3.4,10.743h-2.561l3.248-22.192a.906.906,0,0,0-.766-1.027.849.849,0,0,0-.133-.01.909.909,0,0,0-.893.774m-27.869-7.638a62.173,62.173,0,0,0,23.6,4.4,54.287,54.287,0,0,0,11.309-1.095l.264-.057,3.212,27.855a.9.9,0,0,0,.9.8h4.086a.906.906,0,0,0,.9-.794l4.288-34.311a.9.9,0,0,0-.786-1.01.928.928,0,0,0-.117-.007.9.9,0,0,0-.892.793l-4.189,33.519H895.66l-3.239-28.072a.9.9,0,0,0-.385-.643.915.915,0,0,0-.515-.158.943.943,0,0,0-.225.028,49.7,49.7,0,0,1-12.159,1.352h0a60.225,60.225,0,0,1-22.861-4.268.881.881,0,0,0-.351-.072.906.906,0,0,0-.352,1.74m-32.3,7.134a.9.9,0,0,0-.165.709l4.361,23.321a.907.907,0,0,0,.89.739h4.159a.906.906,0,0,0,.9-.946l-.682-15.487.692-.5a.906.906,0,0,0,.2-1.265.9.9,0,0,0-1.265-.2l-1.084.789a.9.9,0,0,0-.371.771l.662,15.03H829.1l-4.149-22.184.333-.412a24.376,24.376,0,0,0,4.384-7.285.9.9,0,1,0-1.71-.593,22.785,22.785,0,0,1-4.083,6.741c-.262.324-.459.57-.612.774m6.259-47.619a.9.9,0,0,0-1.066-.709c-4.144.831-7.442,1.845-9.065,6.594-1.589,4.651-1.588,12.876.005,27.5a.9.9,0,0,0,.9.807.842.842,0,0,0,.1-.005.906.906,0,0,0,.8-1c-3.262-29.94.6-30.717,7.617-32.124a.907.907,0,0,0,.71-1.066m87.6,17.047a.891.891,0,0,0-.321.277,8.195,8.195,0,0,1-14.315-7.745.91.91,0,0,0-.235-1.007,6.544,6.544,0,0,1-1.99-6.687c.869.521,1.783,1.107,2.786,1.83A89.618,89.618,0,0,1,917.126,608.1m-42.967-18.024a8.588,8.588,0,0,1-8.284,7.809,8.023,8.023,0,0,1-1.656-.174.835.835,0,0,0-.187-.02.906.906,0,0,0-.888.727c-.9,4.521-3.5,6.812-7.725,6.812-4.9,0-8.065-4.023-8.065-10.249,0-.341.017-.677.035-.992a.91.91,0,0,0-.541-.879,5.829,5.829,0,0,1-2.948-2.9c.568-.026,1.136-.051,1.734-.051h.249c1.55.011,3.284.016,5.3.016,4.858,0,10.464-.031,15.9-.064l7.076-.039M926.2,617.728a.906.906,0,0,0,.162-1.27c-18.678-24.138-29.077-27.978-33.613-28.117-2.213-.069-5.546-.1-10.192-.1-4.585,0-9.864.03-15.453.063h-.136c-5.382.032-10.948.064-15.771.064-2.02,0-3.754-.006-5.3-.017h-.243c-7.042,0-11.986,1.595-15.115,4.878-3.931,4.124-4.128,10.2-3.863,15.028.445,8.053,1.608,10.742,3.222,14.466,1.569,3.623,3.52,8.131,5.748,19.673a.97.97,0,0,0,.083.241l10.414,20.31a.9.9,0,0,0,.8.493h4.01a.907.907,0,0,0,.872-1.152l-4.628-16.37.056-.092c.285-.46.736-1.223,1.268-2.238l.107-.205.211.1a13.668,13.668,0,0,0,3.521,1.071l.213.034-.083,2.18a.907.907,0,0,0,.872.939h.034a.9.9,0,0,0,.9-.869l.08-2.1h.235a14.126,14.126,0,0,0,3.034-.341l.23-.051.552,2.106a.906.906,0,0,0,.874.675.94.94,0,0,0,.232-.029.907.907,0,0,0,.645-1.106l-.571-2.178.2-.08a13.72,13.72,0,0,0,2.413-1.267l.156-.1,1.7,1.488a.9.9,0,0,0,1.193-1.36l-1.437-1.262.2-.183a14.086,14.086,0,0,0,2.4-2.926.89.89,0,0,0,.109-.684.9.9,0,0,0-1.65-.265,12.083,12.083,0,0,1-15.24,4.7l-.224-.1.1-.224c1.8-3.926,3.857-9.934,3.42-16.255a.906.906,0,0,0-.9-.842.459.459,0,0,0-.063,0,.887.887,0,0,0-.619.308.9.9,0,0,0-.221.656c.7,10.068-5.617,19.768-5.681,19.865a.9.9,0,0,0-.117.747l4.413,15.612H847.5l-10.1-19.7-.007-.033c-2.254-11.621-4.239-16.207-5.834-19.891s-2.648-6.114-3.075-13.845c-.26-4.744-.066-10.08,3.367-13.679,2.191-2.3,5.631-3.672,10.212-4.131a.907.907,0,0,0,.067.377,7.572,7.572,0,0,0,3.295,3.7l.128.072,0,.148c0,.113-.005.226-.005.341,0,8.331,4.96,12.059,9.875,12.059,4.692,0,7.977-2.561,9.251-7.212l.055-.2.205.021c.312.03.631.045.945.045a10.422,10.422,0,0,0,10.115-9.626c2.256-.01,4.458-.016,6.5-.016,4.7,0,8.034.033,10.208.1a14.437,14.437,0,0,1,5.988,1.9c-.038.065-.1.108-.126.182a8.521,8.521,0,0,0,1.945,8.208l.1.1-.042.136a9.993,9.993,0,0,0,9.554,12.974,10.035,10.035,0,0,0,8.171-4.226v-.005c2.154,2.5,4.366,5.2,6.65,8.15a.9.9,0,0,0,.718.35.892.892,0,0,0,.552-.189m9.891-.817a.9.9,0,0,0-.905-.88c-.034,0-.068,0-.1.005-.23.027-5.663.7-8.294,4.35a7.945,7.945,0,0,0-1.158,6.546.908.908,0,0,0,.884.718.974.974,0,0,0,.189-.02.905.905,0,0,0,.7-1.073,6.141,6.141,0,0,1,.85-5.106c1.471-2.049,4.194-2.978,5.687-3.349l.333-.083-.03.341a10.607,10.607,0,0,1-3.357,6.944.906.906,0,0,0,.572,1.608.9.9,0,0,0,.57-.2,12.489,12.489,0,0,0,4.064-9.8m7.963,8.117a.906.906,0,0,0-.816-.986c-.436-.041-.887-.062-1.341-.062a17.573,17.573,0,0,0-5.675.992.9.9,0,0,0-.548,1.156.9.9,0,0,0,1.158.546,16.015,16.015,0,0,1,5.073-.884c.394,0,.786.018,1.16.053a.693.693,0,0,0,.078,0,.907.907,0,0,0,.911-.819m1.144,4.848a.909.909,0,0,0-.75-1.039,16.311,16.311,0,0,0-2.569-.207,14.041,14.041,0,0,0-7.594,2.079.909.909,0,0,0-.383.807c.5,6.879,2.376,22.62,2.4,22.768a1.354,1.354,0,0,1-.888,1.374,7.081,7.081,0,0,1-1.031.077,5.448,5.448,0,0,1-4.756-2.714,16.4,16.4,0,0,0-6.378-5.538c-2.922-1.666-5.034-2.871-5.218-8.21a.9.9,0,0,0-.447-.749l-10.531-6.2a.9.9,0,0,0-.457-.125.911.911,0,0,0-.782.446.906.906,0,0,0,.322,1.24l10.108,5.947.008.129c.381,5.829,3.159,7.413,6.1,9.091a14.688,14.688,0,0,1,5.756,4.952,7.269,7.269,0,0,0,6.316,3.531,8.663,8.663,0,0,0,1.25-.091,3.137,3.137,0,0,0,2.426-3.336c-.017-.147-1.769-14.811-2.337-22.014l-.012-.16.142-.075a13.1,13.1,0,0,1,6.015-1.421,14.188,14.188,0,0,1,2.254.183,1,1,0,0,0,.144.012.9.9,0,0,0,.894-.761" fill="#0c618d"/>
      <path id="Контур_315" data-name="Контур 315" d="M929.813,636.019a1.216,1.216,0,0,0-.855.334,1.217,1.217,0,0,0,.855,2.077,1.257,1.257,0,0,0,.863-.358,1.195,1.195,0,0,0-.863-2.053" fill="#0c618d"/>
    </g>
  </g>
</svg>
